<svg width="24" height="36" viewBox="0 0 24 36" fill="none" xmlns="http://www.w3.org/2000/svg">
<path d="M19.9003 1.14618C20.0068 1.03347 20.1625 0.980905 20.3157 1.00627M19.9003 1.14618V0.896184H19.9002H19.8057M19.9003 1.14618L19.9002 1.14604L19.8845 1.13124L19.7186 0.974497C19.7188 0.974229 19.7191 0.973962 19.7194 0.973694C19.7462 0.945328 19.7752 0.91945 19.8057 0.896184M19.9003 1.14618L12.1955 7.34823M20.3157 1.00627L11.3322 29.935V29.9351V30.185C11.2893 30.185 11.2466 30.1849 11.2041 30.1846M20.3157 1.00627C20.4667 1.03149 20.5958 1.12901 20.6609 1.26756L20.3157 1.00627ZM19.8057 0.896184C19.9613 0.777935 20.1602 0.727116 20.3565 0.759633L20.3568 0.759687C20.5885 0.798376 20.7869 0.948078 20.8872 1.16115L20.8876 1.16205L20.8876 1.16206C20.9944 1.39156 23.1837 6.0941 23.1837 15.4683V15.4743L23.1836 15.4743C23.0993 19.0288 21.909 22.4688 19.7784 25.3155M19.8057 0.896184H19.7931L19.7193 0.973619L17.4933 3.30697L17.4932 3.30707C16.2065 4.65746 14.2312 5.83911 12.0937 7.11781L12.0672 7.13369L12.1955 7.34823M19.7784 25.3155C19.7784 25.3155 19.7784 25.3155 19.7785 25.3155L19.5803 25.1673L19.7784 25.3155ZM19.7784 25.3155C17.4447 28.435 14.4467 30.1851 11.3322 30.1851H11.2044L11.2041 30.1846M11.2041 30.1846C8.03237 30.164 5.65255 29.3756 4.06457 27.7156C2.45748 26.0357 1.70679 23.5101 1.70679 20.135C1.70679 13.3311 7.22139 10.0323 11.9688 7.19252C12.0017 7.17289 12.0344 7.15328 12.0672 7.13369L12.1955 7.34823M11.2041 30.1846L12.1955 7.34823M12.1955 7.34823L12.2458 7.31813C14.3646 6.05068 16.3639 4.85466 17.6742 3.47953L12.1955 7.34823ZM19.9781 2.7794C20.5993 4.59188 21.7503 8.84476 21.7503 15.4682C21.7503 18.4755 20.5796 21.8077 18.6771 24.3861C16.7729 26.967 14.1683 28.7517 11.3183 28.7517C8.39107 28.7517 6.36242 28.0955 5.0593 26.7269C3.75345 25.3555 3.1262 23.217 3.1262 20.1349C3.1262 17.1485 4.39076 14.8974 6.23322 13.0452C8.08371 11.185 10.505 9.73862 12.8044 8.3655L12.8046 8.36543C12.8369 8.34608 12.8693 8.32674 12.9016 8.30741C15.0503 7.02289 17.1246 5.78292 18.5322 4.29573C18.5323 4.2956 18.5324 4.29547 18.5326 4.29534L19.9781 2.7794Z" fill="#C1C1C1" stroke="#C1C1C1" stroke-width="0.5"/>
<path d="M1.45775 34.8519C1.58824 34.8603 1.71839 34.8328 1.83446 34.7724L1.84645 34.7661L1.85763 34.7587C1.85733 34.7589 1.85849 34.7581 1.86232 34.7557L1.87696 34.7465L1.92591 34.7161C1.96634 34.6908 2.0211 34.6561 2.08809 34.6121C2.22201 34.524 2.4043 34.3989 2.61924 34.2365C3.04882 33.912 3.60991 33.4377 4.1765 32.8114C5.30935 31.5592 6.47171 29.6906 6.63517 27.1937C6.93499 22.6576 9.33136 19.5738 11.6771 17.6127C13.9979 15.6725 16.256 14.8433 16.3401 14.8125C16.7128 14.6813 16.9091 14.273 16.7788 13.8998C16.6481 13.5257 16.2391 13.3288 15.8654 13.4591C15.7436 13.5014 13.2799 14.4047 10.7457 16.5215C8.17898 18.6654 5.52624 22.067 5.1842 27.0856L5.1841 27.0873C5.05568 29.1824 4.05088 30.7876 3.06283 31.8753C2.56927 32.4187 2.08258 32.8298 1.71782 33.1045C1.53554 33.2417 1.38436 33.3444 1.27887 33.4121C1.23341 33.4413 1.19694 33.4637 1.17052 33.4793H1.16666L1.10867 33.5127C0.767561 33.7095 0.649247 34.1444 0.843156 34.4868C0.968457 34.7094 1.20279 34.8484 1.45775 34.8519Z" fill="#C1C1C1" stroke="#C1C1C1" stroke-width="0.5"/>
</svg>
