<!DOCTYPE svg PUBLIC "-//W3C//DTD SVG 1.1//EN" "http://www.w3.org/Graphics/SVG/1.1/DTD/svg11.dtd">
<!-- Uploaded to: SVG Repo, www.svgrepo.com, Transformed by: SVG Repo Mixer Tools -->
<svg fill="#000000" height="800px" width="800px" version="1.1" id="Layer_1" xmlns="http://www.w3.org/2000/svg" xmlns:xlink="http://www.w3.org/1999/xlink" viewBox="0 0 490.668 490.668" xml:space="preserve" stroke="#000000" stroke-width="12.2667">
<g id="SVGRepo_bgCarrier" stroke-width="0"/>
<g id="SVGRepo_tracerCarrier" stroke-linecap="round" stroke-linejoin="round"/>
<g id="SVGRepo_iconCarrier"> <g> <g> <path d="M487.486,3.079c-2.347-2.347-5.653-3.413-8.96-2.987c-4.8,0.64-11.2,1.387-18.987,2.24 c-66.987,7.36-244.8,27.093-343.787,128.427c-111.36,114.027-66.88,208.747-30.507,255.04c1.28,1.707,2.987,3.627,4.8,5.653 c-6.4,9.6-31.893,44.693-85.227,79.573c-4.907,3.2-6.293,9.813-3.093,14.827c3.2,4.907,9.813,6.293,14.827,3.093 c51.307-33.6,78.4-67.2,88.64-81.813c2.88,2.773,5.547,5.227,7.573,7.147c15.467,13.76,53.44,41.92,105.493,41.92 c40.96,0,90.56-17.387,144.747-72.853C463.166,280.839,481.832,96.839,488.872,27.612c0.64-6.4,1.173-11.627,1.707-15.467 C491.006,8.625,489.832,5.425,487.486,3.079z M467.752,25.265c-6.187,60.8-24.96,245.76-119.893,342.933 c-106.88,109.44-189.973,57.387-220.8,29.973c-2.56-2.24-5.76-5.333-9.067-8.64c9.707-12.907,20.267-27.84,32.107-44.587 c59.947-84.48,150.507-212.053,254.613-249.707c5.547-2.027,8.427-8.107,6.4-13.653c-2.027-5.547-8.107-8.427-13.653-6.4 c-110.507,40-199.68,165.76-264.853,257.6c-10.88,15.36-20.587,29.013-29.547,41.067c-0.32-0.427-0.747-0.853-0.96-1.173 c-39.253-49.813-66.027-129.707,29.013-226.88c93.547-96,265.92-115.093,330.773-122.24l6.08-0.64 C467.859,23.665,467.752,24.519,467.752,25.265z"/> </g> </g> </g>
</svg>