<svg width="40" height="40" viewBox="0 0 40 40" fill="none" xmlns="http://www.w3.org/2000/svg">
<path fill-rule="evenodd" clip-rule="evenodd" d="M6.24994 28.7499C6.24994 28.0595 6.80958 27.4999 7.49993 27.4999H32.4998C33.1901 27.4999 33.7498 28.0595 33.7498 28.7499C33.7498 29.4402 33.1901 29.9999 32.4998 29.9999H7.49993C6.80958 29.9999 6.24994 29.4402 6.24994 28.7499Z" fill="#143461"/>
<path fill-rule="evenodd" clip-rule="evenodd" d="M6.24994 18.7499C6.24994 18.0596 6.80958 17.4999 7.49993 17.4999H32.4998C33.1901 17.4999 33.7498 18.0596 33.7498 18.7499C33.7498 19.4403 33.1901 19.9999 32.4998 19.9999H7.49993C6.80958 19.9999 6.24994 19.4403 6.24994 18.7499Z" fill="#143461"/>
<path fill-rule="evenodd" clip-rule="evenodd" d="M6.24994 8.74999C6.24994 8.05964 6.80958 7.5 7.49993 7.5H32.4998C33.1901 7.5 33.7498 8.05964 33.7498 8.74999C33.7498 9.44034 33.1901 9.99998 32.4998 9.99998H7.49993C6.80958 9.99998 6.24994 9.44034 6.24994 8.74999Z" fill="#143461"/>
</svg>
