<svg width="40" height="40" viewBox="0 0 40 40" fill="none" xmlns="http://www.w3.org/2000/svg">
<path fill-rule="evenodd" clip-rule="evenodd" d="M7.76256 6.76256C8.44598 6.07915 9.55402 6.07915 10.2374 6.76256L19.5 16.0251L28.7626 6.76256C29.446 6.07915 30.554 6.07915 31.2374 6.76256C31.9209 7.44598 31.9209 8.55402 31.2374 9.23744L21.9749 18.5L31.2374 27.7626C31.9209 28.446 31.9209 29.554 31.2374 30.2374C30.554 30.9209 29.446 30.9209 28.7626 30.2374L19.5 20.9749L10.2374 30.2374C9.55402 30.9209 8.44598 30.9209 7.76256 30.2374C7.07915 29.554 7.07915 28.446 7.76256 27.7626L17.0251 18.5L7.76256 9.23744C7.07915 8.55402 7.07915 7.44598 7.76256 6.76256Z" fill="#143461"/>
</svg>
