<svg width="236" height="73" viewBox="0 0 236 73" fill="none" xmlns="http://www.w3.org/2000/svg">
<path d="M10.192 14.1706C12.8267 14.1706 15.1031 14.6675 17.0213 15.6612C18.9627 16.6319 20.4418 18.0301 21.4587 19.8559C22.4987 21.6817 23.0187 23.831 23.0187 26.3039C23.0187 28.7768 22.4987 30.9261 21.4587 32.7519C20.4418 34.5546 18.9627 35.9413 17.0213 36.9119C15.1031 37.8595 12.8267 38.3333 10.192 38.3333H2.66933V14.1706H10.192ZM10.192 35.7333C13.312 35.7333 15.6924 34.9128 17.3333 33.2719C18.9742 31.6079 19.7947 29.2853 19.7947 26.3039C19.7947 23.2995 18.9627 20.9537 17.2987 19.2666C15.6578 17.5795 13.2889 16.7359 10.192 16.7359H5.824V35.7333H10.192ZM28.8091 16.2506C28.2082 16.2506 27.6998 16.0426 27.2838 15.6266C26.8678 15.2106 26.6598 14.7021 26.6598 14.1012C26.6598 13.5004 26.8678 12.9919 27.2838 12.5759C27.6998 12.1599 28.2082 11.9519 28.8091 11.9519C29.3869 11.9519 29.8722 12.1599 30.2651 12.5759C30.6811 12.9919 30.8891 13.5004 30.8891 14.1012C30.8891 14.7021 30.6811 15.2106 30.2651 15.6266C29.8722 16.0426 29.3869 16.2506 28.8091 16.2506ZM30.3344 19.3359V38.3333H27.1798V19.3359H30.3344ZM34.5323 26.2346C34.5323 23.8773 35.0639 21.7626 36.127 19.8906C37.1901 17.9955 38.6346 16.5164 40.4603 15.4533C42.3092 14.3901 44.3546 13.8586 46.5963 13.8586C49.231 13.8586 51.5306 14.4941 53.495 15.7653C55.4594 17.0364 56.8923 18.839 57.7937 21.1733H54.015C53.3448 19.7173 52.3741 18.5964 51.103 17.8106C49.855 17.0248 48.3528 16.6319 46.5963 16.6319C44.9092 16.6319 43.3954 17.0248 42.055 17.8106C40.7146 18.5964 39.663 19.7173 38.9003 21.1733C38.1377 22.6061 37.7563 24.2933 37.7563 26.2346C37.7563 28.1528 38.1377 29.8399 38.9003 31.2959C39.663 32.7288 40.7146 33.8381 42.055 34.6239C43.3954 35.4097 44.9092 35.8026 46.5963 35.8026C48.3528 35.8026 49.855 35.4213 51.103 34.6586C52.3741 33.8728 53.3448 32.7519 54.015 31.2959H57.7937C56.8923 33.607 55.4594 35.3981 53.495 36.6693C51.5306 37.9173 49.231 38.5413 46.5963 38.5413C44.3546 38.5413 42.3092 38.0213 40.4603 36.9813C38.6346 35.9181 37.1901 34.4506 36.127 32.5786C35.0639 30.7066 34.5323 28.5919 34.5323 26.2346ZM75.2123 38.3333L69.4576 28.4533H65.6443V38.3333H62.4896V14.1706H70.2896C72.1154 14.1706 73.6523 14.4826 74.9003 15.1066C76.1714 15.7306 77.119 16.5741 77.743 17.6373C78.367 18.7004 78.679 19.9137 78.679 21.2773C78.679 22.9413 78.1936 24.4088 77.223 25.6799C76.2754 26.951 74.8425 27.7946 72.9243 28.2106L78.991 38.3333H75.2123ZM65.6443 25.9226H70.2896C71.9999 25.9226 73.2825 25.5066 74.1376 24.6746C74.9928 23.8195 75.4203 22.687 75.4203 21.2773C75.4203 19.8444 74.9928 18.735 74.1376 17.9493C73.3056 17.1635 72.023 16.7706 70.2896 16.7706H65.6443V25.9226ZM97.8635 32.9599H87.3248L85.3835 38.3333H82.0555L90.7915 14.3093H94.4315L103.133 38.3333H99.8048L97.8635 32.9599ZM96.9621 30.3946L92.5941 18.1919L88.2261 30.3946H96.9621Z" fill="#143461"/>
<path d="M3.82667 58.0133C4.85778 58.0133 5.74222 58.1999 6.48 58.5733C7.21778 58.9466 7.78222 59.4844 8.17333 60.1866C8.56445 60.8888 8.76 61.7244 8.76 62.6933C8.76 63.6533 8.56445 64.4844 8.17333 65.1866C7.78222 65.8799 7.21778 66.4133 6.48 66.7866C5.74222 67.151 4.85778 67.3333 3.82667 67.3333H1.06667V58.0133H3.82667ZM3.82667 66.5599C5.12444 66.5599 6.11111 66.2221 6.78667 65.5466C7.47111 64.8621 7.81333 63.911 7.81333 62.6933C7.81333 61.4666 7.47111 60.511 6.78667 59.8266C6.11111 59.1333 5.12444 58.7866 3.82667 58.7866H2V66.5599H3.82667ZM10.0541 63.6799C10.0541 62.9333 10.2007 62.2799 10.4941 61.7199C10.7963 61.151 11.2096 60.7155 11.7341 60.4133C12.2674 60.1021 12.8674 59.9466 13.5341 59.9466C14.2274 59.9466 14.823 60.1066 15.3207 60.4266C15.8274 60.7466 16.1918 61.1555 16.4141 61.6533V60.0533H17.3474V67.3333H16.4141V65.7199C16.183 66.2177 15.8141 66.631 15.3074 66.9599C14.8096 67.2799 14.2141 67.4399 13.5207 67.4399C12.863 67.4399 12.2674 67.2844 11.7341 66.9733C11.2096 66.6621 10.7963 66.2221 10.4941 65.6533C10.2007 65.0844 10.0541 64.4266 10.0541 63.6799ZM16.4141 63.6933C16.4141 63.1066 16.2941 62.591 16.0541 62.1466C15.8141 61.7021 15.4852 61.3599 15.0674 61.1199C14.6585 60.8799 14.2052 60.7599 13.7074 60.7599C13.1918 60.7599 12.7296 60.8755 12.3207 61.1066C11.9118 61.3377 11.5874 61.6755 11.3474 62.1199C11.1163 62.5555 11.0007 63.0755 11.0007 63.6799C11.0007 64.2755 11.1163 64.7999 11.3474 65.2533C11.5874 65.6977 11.9118 66.0399 12.3207 66.2799C12.7296 66.511 13.1918 66.6266 13.7074 66.6266C14.2052 66.6266 14.6585 66.5066 15.0674 66.2666C15.4852 66.0266 15.8141 65.6844 16.0541 65.2399C16.2941 64.7955 16.4141 64.2799 16.4141 63.6933ZM20.6915 60.8399V65.3599C20.6915 65.8044 20.7759 66.111 20.9448 66.2799C21.1137 66.4488 21.4115 66.5333 21.8381 66.5333H22.6915V67.3333H21.6915C21.0337 67.3333 20.5448 67.1821 20.2248 66.8799C19.9048 66.5688 19.7448 66.0621 19.7448 65.3599V60.8399H18.7315V60.0533H19.7448V58.2266H20.6915V60.0533H22.6915V60.8399H20.6915ZM23.8041 63.6799C23.8041 62.9333 23.9507 62.2799 24.2441 61.7199C24.5463 61.151 24.9596 60.7155 25.4841 60.4133C26.0174 60.1021 26.6174 59.9466 27.2841 59.9466C27.9774 59.9466 28.573 60.1066 29.0707 60.4266C29.5774 60.7466 29.9418 61.1555 30.1641 61.6533V60.0533H31.0974V67.3333H30.1641V65.7199C29.933 66.2177 29.5641 66.631 29.0574 66.9599C28.5596 67.2799 27.9641 67.4399 27.2707 67.4399C26.613 67.4399 26.0174 67.2844 25.4841 66.9733C24.9596 66.6621 24.5463 66.2221 24.2441 65.6533C23.9507 65.0844 23.8041 64.4266 23.8041 63.6799ZM30.1641 63.6933C30.1641 63.1066 30.0441 62.591 29.8041 62.1466C29.5641 61.7021 29.2352 61.3599 28.8174 61.1199C28.4085 60.8799 27.9552 60.7599 27.4574 60.7599C26.9418 60.7599 26.4796 60.8755 26.0707 61.1066C25.6618 61.3377 25.3374 61.6755 25.0974 62.1199C24.8663 62.5555 24.7507 63.0755 24.7507 63.6799C24.7507 64.2755 24.8663 64.7999 25.0974 65.2533C25.3374 65.6977 25.6618 66.0399 26.0707 66.2799C26.4796 66.511 26.9418 66.6266 27.4574 66.6266C27.9552 66.6266 28.4085 66.5066 28.8174 66.2666C29.2352 66.0266 29.5641 65.6844 29.8041 65.2399C30.0441 64.7955 30.1641 64.2799 30.1641 63.6933ZM37.3536 58.6799C37.167 58.6799 37.007 58.6133 36.8736 58.4799C36.7403 58.3466 36.6736 58.1821 36.6736 57.9866C36.6736 57.791 36.7403 57.631 36.8736 57.5066C37.007 57.3733 37.167 57.3066 37.3536 57.3066C37.5403 57.3066 37.7003 57.3733 37.8336 57.5066C37.967 57.631 38.0336 57.791 38.0336 57.9866C38.0336 58.1821 37.967 58.3466 37.8336 58.4799C37.7003 58.6133 37.5403 58.6799 37.3536 58.6799ZM37.8203 60.0533V67.3333H36.887V60.0533H37.8203ZM43.3472 59.9199C44.2183 59.9199 44.9294 60.191 45.4805 60.7333C46.0316 61.2666 46.3072 62.0444 46.3072 63.0666V67.3333H45.3872V63.1733C45.3872 62.3821 45.1872 61.7777 44.7872 61.3599C44.3961 60.9421 43.8583 60.7333 43.1739 60.7333C42.4716 60.7333 41.9116 60.9555 41.4939 61.3999C41.0761 61.8444 40.8672 62.4977 40.8672 63.3599V67.3333H39.9339V60.0533H40.8672V61.2933C41.0983 60.8488 41.4316 60.511 41.8672 60.2799C42.3027 60.0399 42.7961 59.9199 43.3472 59.9199ZM51.6035 62.6666C51.6035 61.751 51.8035 60.9333 52.2035 60.2133C52.6035 59.4844 53.1502 58.9199 53.8435 58.5199C54.5369 58.111 55.3102 57.9066 56.1635 57.9066C57.2035 57.9066 58.0924 58.1555 58.8302 58.6533C59.5769 59.1421 60.1191 59.8355 60.4569 60.7333H59.3635C59.0969 60.1021 58.688 59.6088 58.1369 59.2533C57.5947 58.8977 56.9369 58.7199 56.1635 58.7199C55.4791 58.7199 54.8613 58.8799 54.3102 59.1999C53.768 59.5199 53.3413 59.9821 53.0302 60.5866C52.7191 61.1821 52.5635 61.8755 52.5635 62.6666C52.5635 63.4577 52.7191 64.151 53.0302 64.7466C53.3413 65.3421 53.768 65.7999 54.3102 66.1199C54.8613 66.4399 55.4791 66.5999 56.1635 66.5999C56.9369 66.5999 57.5947 66.4266 58.1369 66.0799C58.688 65.7244 59.0969 65.2355 59.3635 64.6133H60.4569C60.1191 65.5021 59.5769 66.191 58.8302 66.6799C58.0835 67.1688 57.1947 67.4133 56.1635 67.4133C55.3102 67.4133 54.5369 67.2133 53.8435 66.8133C53.1502 66.4044 52.6035 65.8399 52.2035 65.1199C51.8035 64.3999 51.6035 63.5821 51.6035 62.6666ZM63.25 57.4666V67.3333H62.3167V57.4666H63.25ZM65.8302 58.6799C65.6435 58.6799 65.4835 58.6133 65.3502 58.4799C65.2169 58.3466 65.1502 58.1821 65.1502 57.9866C65.1502 57.791 65.2169 57.631 65.3502 57.5066C65.4835 57.3733 65.6435 57.3066 65.8302 57.3066C66.0169 57.3066 66.1769 57.3733 66.3102 57.5066C66.4435 57.631 66.5102 57.791 66.5102 57.9866C66.5102 58.1821 66.4435 58.3466 66.3102 58.4799C66.1769 58.6133 66.0169 58.6799 65.8302 58.6799ZM66.2969 60.0533V67.3333H65.3635V60.0533H66.2969ZM77.0771 59.9199C77.9304 59.9199 78.6238 60.191 79.1571 60.7333C79.6993 61.2666 79.9704 62.0444 79.9704 63.0666V67.3333H79.0504V63.1733C79.0504 62.3821 78.8593 61.7777 78.4771 61.3599C78.0949 60.9421 77.5749 60.7333 76.9171 60.7333C76.2326 60.7333 75.686 60.9599 75.2771 61.4133C74.8682 61.8666 74.6638 62.5244 74.6638 63.3866V67.3333H73.7438V63.1733C73.7438 62.3821 73.5526 61.7777 73.1704 61.3599C72.7882 60.9421 72.2638 60.7333 71.5971 60.7333C70.9126 60.7333 70.366 60.9599 69.9571 61.4133C69.5482 61.8666 69.3438 62.5244 69.3438 63.3866V67.3333H68.4104V60.0533H69.3438V61.3066C69.5749 60.8533 69.9038 60.511 70.3304 60.2799C70.7571 60.0399 71.2326 59.9199 71.7571 59.9199C72.3882 59.9199 72.9393 60.071 73.4104 60.3733C73.8904 60.6755 74.2371 61.1199 74.4504 61.7066C74.646 61.1288 74.9793 60.6888 75.4504 60.3866C75.9304 60.0755 76.4726 59.9199 77.0771 59.9199ZM81.6166 63.6799C81.6166 62.9333 81.7632 62.2799 82.0566 61.7199C82.3588 61.151 82.7721 60.7155 83.2966 60.4133C83.8299 60.1021 84.4299 59.9466 85.0966 59.9466C85.7899 59.9466 86.3855 60.1066 86.8832 60.4266C87.3899 60.7466 87.7543 61.1555 87.9766 61.6533V60.0533H88.9099V67.3333H87.9766V65.7199C87.7455 66.2177 87.3766 66.631 86.8699 66.9599C86.3721 67.2799 85.7766 67.4399 85.0832 67.4399C84.4255 67.4399 83.8299 67.2844 83.2966 66.9733C82.7721 66.6621 82.3588 66.2221 82.0566 65.6533C81.7632 65.0844 81.6166 64.4266 81.6166 63.6799ZM87.9766 63.6933C87.9766 63.1066 87.8566 62.591 87.6166 62.1466C87.3766 61.7021 87.0477 61.3599 86.6299 61.1199C86.221 60.8799 85.7677 60.7599 85.2699 60.7599C84.7543 60.7599 84.2921 60.8755 83.8832 61.1066C83.4743 61.3377 83.1499 61.6755 82.9099 62.1199C82.6788 62.5555 82.5632 63.0755 82.5632 63.6799C82.5632 64.2755 82.6788 64.7999 82.9099 65.2533C83.1499 65.6977 83.4743 66.0399 83.8832 66.2799C84.2921 66.511 84.7543 66.6266 85.2699 66.6266C85.7677 66.6266 86.221 66.5066 86.6299 66.2666C87.0477 66.0266 87.3766 65.6844 87.6166 65.2399C87.8566 64.7955 87.9766 64.2799 87.9766 63.6933ZM92.254 60.8399V65.3599C92.254 65.8044 92.3384 66.111 92.5073 66.2799C92.6762 66.4488 92.974 66.5333 93.4006 66.5333H94.254V67.3333H93.254C92.5962 67.3333 92.1073 67.1821 91.7873 66.8799C91.4673 66.5688 91.3073 66.0621 91.3073 65.3599V60.8399H90.294V60.0533H91.3073V58.2266H92.254V60.0533H94.254V60.8399H92.254ZM102.38 63.3199C102.38 63.6399 102.371 63.8844 102.353 64.0533H96.3132C96.3399 64.6044 96.4732 65.0755 96.7132 65.4666C96.9532 65.8577 97.2688 66.1555 97.6599 66.3599C98.051 66.5555 98.4777 66.6533 98.9399 66.6533C99.5443 66.6533 100.051 66.5066 100.46 66.2133C100.878 65.9199 101.153 65.5244 101.287 65.0266H102.273C102.095 65.7377 101.713 66.3199 101.127 66.7733C100.549 67.2177 99.8199 67.4399 98.9399 67.4399C98.2555 67.4399 97.6421 67.2888 97.0999 66.9866C96.5577 66.6755 96.131 66.2399 95.8199 65.6799C95.5177 65.111 95.3666 64.4488 95.3666 63.6933C95.3666 62.9377 95.5177 62.2755 95.8199 61.7066C96.1221 61.1377 96.5443 60.7021 97.0866 60.3999C97.6288 60.0977 98.2466 59.9466 98.9399 59.9466C99.6332 59.9466 100.238 60.0977 100.753 60.3999C101.278 60.7021 101.678 61.111 101.953 61.6266C102.238 62.1333 102.38 62.6977 102.38 63.3199ZM101.433 63.2933C101.442 62.751 101.331 62.2888 101.1 61.9066C100.878 61.5244 100.571 61.2355 100.18 61.0399C99.7888 60.8444 99.3621 60.7466 98.8999 60.7466C98.2066 60.7466 97.6155 60.9688 97.1266 61.4133C96.6377 61.8577 96.3666 62.4844 96.3132 63.2933H101.433ZM112.706 67.3333L110.4 63.4399H108.68V67.3333H107.746V58.0133H110.546C111.586 58.0133 112.373 58.2621 112.906 58.7599C113.449 59.2577 113.72 59.911 113.72 60.7199C113.72 61.3955 113.524 61.9733 113.133 62.4533C112.751 62.9244 112.182 63.231 111.426 63.3733L113.826 67.3333H112.706ZM108.68 62.6799H110.56C111.289 62.6799 111.835 62.5021 112.2 62.1466C112.573 61.791 112.76 61.3155 112.76 60.7199C112.76 60.1066 112.582 59.6355 112.226 59.3066C111.871 58.9688 111.311 58.7999 110.546 58.7999H108.68V62.6799ZM122.159 63.3199C122.159 63.6399 122.15 63.8844 122.132 64.0533H116.092C116.119 64.6044 116.252 65.0755 116.492 65.4666C116.732 65.8577 117.047 66.1555 117.439 66.3599C117.83 66.5555 118.256 66.6533 118.719 66.6533C119.323 66.6533 119.83 66.5066 120.239 66.2133C120.656 65.9199 120.932 65.5244 121.065 65.0266H122.052C121.874 65.7377 121.492 66.3199 120.905 66.7733C120.327 67.2177 119.599 67.4399 118.719 67.4399C118.034 67.4399 117.421 67.2888 116.879 66.9866C116.336 66.6755 115.91 66.2399 115.599 65.6799C115.296 65.111 115.145 64.4488 115.145 63.6933C115.145 62.9377 115.296 62.2755 115.599 61.7066C115.901 61.1377 116.323 60.7021 116.865 60.3999C117.407 60.0977 118.025 59.9466 118.719 59.9466C119.412 59.9466 120.016 60.0977 120.532 60.3999C121.056 60.7021 121.456 61.111 121.732 61.6266C122.016 62.1333 122.159 62.6977 122.159 63.3199ZM121.212 63.2933C121.221 62.751 121.11 62.2888 120.879 61.9066C120.656 61.5244 120.35 61.2355 119.959 61.0399C119.567 60.8444 119.141 60.7466 118.679 60.7466C117.985 60.7466 117.394 60.9688 116.905 61.4133C116.416 61.8577 116.145 62.4844 116.092 63.2933H121.212ZM126.373 67.4399C125.537 67.4399 124.853 67.2488 124.319 66.8666C123.795 66.4755 123.502 65.9466 123.439 65.2799H124.399C124.444 65.6888 124.635 66.0221 124.973 66.2799C125.319 66.5288 125.782 66.6533 126.359 66.6533C126.866 66.6533 127.262 66.5333 127.546 66.2933C127.839 66.0533 127.986 65.7555 127.986 65.3999C127.986 65.151 127.906 64.9466 127.746 64.7866C127.586 64.6266 127.382 64.5021 127.133 64.4133C126.893 64.3155 126.564 64.2133 126.146 64.1066C125.604 63.9644 125.164 63.8221 124.826 63.6799C124.488 63.5377 124.199 63.3288 123.959 63.0533C123.728 62.7688 123.613 62.391 123.613 61.9199C123.613 61.5644 123.719 61.2355 123.933 60.9333C124.146 60.631 124.448 60.391 124.839 60.2133C125.231 60.0355 125.675 59.9466 126.173 59.9466C126.955 59.9466 127.586 60.1466 128.066 60.5466C128.546 60.9377 128.804 61.4799 128.839 62.1733H127.906C127.879 61.7466 127.711 61.4044 127.399 61.1466C127.097 60.8799 126.679 60.7466 126.146 60.7466C125.675 60.7466 125.293 60.8577 124.999 61.0799C124.706 61.3021 124.559 61.5777 124.559 61.9066C124.559 62.191 124.644 62.4266 124.813 62.6133C124.991 62.791 125.208 62.9333 125.466 63.0399C125.724 63.1377 126.071 63.2488 126.506 63.3733C127.031 63.5155 127.448 63.6533 127.759 63.7866C128.071 63.9199 128.337 64.1155 128.559 64.3733C128.782 64.631 128.897 64.9733 128.906 65.3999C128.906 65.791 128.799 66.1421 128.586 66.4533C128.373 66.7555 128.075 66.9955 127.693 67.1733C127.311 67.351 126.871 67.4399 126.373 67.4399ZM131.13 58.6799C130.943 58.6799 130.783 58.6133 130.65 58.4799C130.516 58.3466 130.45 58.1821 130.45 57.9866C130.45 57.791 130.516 57.631 130.65 57.5066C130.783 57.3733 130.943 57.3066 131.13 57.3066C131.316 57.3066 131.476 57.3733 131.61 57.5066C131.743 57.631 131.81 57.791 131.81 57.9866C131.81 58.1821 131.743 58.3466 131.61 58.4799C131.476 58.6133 131.316 58.6799 131.13 58.6799ZM131.596 60.0533V67.3333H130.663V60.0533H131.596ZM134.643 57.4666V67.3333H133.71V57.4666H134.643ZM137.223 58.6799C137.037 58.6799 136.877 58.6133 136.743 58.4799C136.61 58.3466 136.543 58.1821 136.543 57.9866C136.543 57.791 136.61 57.631 136.743 57.5066C136.877 57.3733 137.037 57.3066 137.223 57.3066C137.41 57.3066 137.57 57.3733 137.703 57.5066C137.837 57.631 137.903 57.791 137.903 57.9866C137.903 58.1821 137.837 58.3466 137.703 58.4799C137.57 58.6133 137.41 58.6799 137.223 58.6799ZM137.69 60.0533V67.3333H136.757V60.0533H137.69ZM146.39 63.3199C146.39 63.6399 146.381 63.8844 146.364 64.0533H140.324C140.35 64.6044 140.484 65.0755 140.724 65.4666C140.964 65.8577 141.279 66.1555 141.67 66.3599C142.061 66.5555 142.488 66.6533 142.95 66.6533C143.555 66.6533 144.061 66.5066 144.47 66.2133C144.888 65.9199 145.164 65.5244 145.297 65.0266H146.284C146.106 65.7377 145.724 66.3199 145.137 66.7733C144.559 67.2177 143.83 67.4399 142.95 67.4399C142.266 67.4399 141.653 67.2888 141.11 66.9866C140.568 66.6755 140.141 66.2399 139.83 65.6799C139.528 65.111 139.377 64.4488 139.377 63.6933C139.377 62.9377 139.528 62.2755 139.83 61.7066C140.133 61.1377 140.555 60.7021 141.097 60.3999C141.639 60.0977 142.257 59.9466 142.95 59.9466C143.644 59.9466 144.248 60.0977 144.764 60.3999C145.288 60.7021 145.688 61.111 145.964 61.6266C146.248 62.1333 146.39 62.6977 146.39 63.3199ZM145.444 63.2933C145.453 62.751 145.341 62.2888 145.11 61.9066C144.888 61.5244 144.581 61.2355 144.19 61.0399C143.799 60.8444 143.373 60.7466 142.91 60.7466C142.217 60.7466 141.626 60.9688 141.137 61.4133C140.648 61.8577 140.377 62.4844 140.324 63.2933H145.444ZM151.511 59.9199C152.382 59.9199 153.093 60.191 153.645 60.7333C154.196 61.2666 154.471 62.0444 154.471 63.0666V67.3333H153.551V63.1733C153.551 62.3821 153.351 61.7777 152.951 61.3599C152.56 60.9421 152.022 60.7333 151.338 60.7333C150.636 60.7333 150.076 60.9555 149.658 61.3999C149.24 61.8444 149.031 62.4977 149.031 63.3599V67.3333H148.098V60.0533H149.031V61.2933C149.262 60.8488 149.596 60.511 150.031 60.2799C150.467 60.0399 150.96 59.9199 151.511 59.9199ZM157.749 60.8399V65.3599C157.749 65.8044 157.833 66.111 158.002 66.2799C158.171 66.4488 158.469 66.5333 158.895 66.5333H159.749V67.3333H158.749C158.091 67.3333 157.602 67.1821 157.282 66.8799C156.962 66.5688 156.802 66.0621 156.802 65.3599V60.8399H155.789V60.0533H156.802V58.2266H157.749V60.0533H159.749V60.8399H157.749ZM170.347 65.1199H166.107L165.294 67.3333H164.307L167.707 58.1333H168.76L172.147 67.3333H171.16L170.347 65.1199ZM170.067 64.3466L168.227 59.3066L166.387 64.3466H170.067ZM176.698 59.9466C177.383 59.9466 177.978 60.1066 178.485 60.4266C178.991 60.7466 179.356 61.151 179.578 61.6399V60.0533H180.511V67.5199C180.511 68.1866 180.365 68.7777 180.071 69.2933C179.787 69.8088 179.387 70.2044 178.871 70.4799C178.356 70.7644 177.769 70.9066 177.111 70.9066C176.178 70.9066 175.4 70.6844 174.778 70.2399C174.165 69.7955 173.783 69.191 173.631 68.4266H174.551C174.711 68.9333 175.014 69.3377 175.458 69.6399C175.911 69.9421 176.463 70.0933 177.111 70.0933C177.583 70.0933 178.005 69.991 178.378 69.7866C178.751 69.591 179.045 69.2977 179.258 68.9066C179.471 68.5155 179.578 68.0533 179.578 67.5199V65.7199C179.347 66.2177 178.978 66.631 178.471 66.9599C177.974 67.2799 177.383 67.4399 176.698 67.4399C176.031 67.4399 175.431 67.2844 174.898 66.9733C174.374 66.6621 173.96 66.2221 173.658 65.6533C173.365 65.0844 173.218 64.4266 173.218 63.6799C173.218 62.9333 173.365 62.2799 173.658 61.7199C173.96 61.151 174.374 60.7155 174.898 60.4133C175.431 60.1021 176.031 59.9466 176.698 59.9466ZM179.578 63.6933C179.578 63.1066 179.458 62.591 179.218 62.1466C178.978 61.7021 178.649 61.3599 178.231 61.1199C177.823 60.8799 177.369 60.7599 176.871 60.7599C176.356 60.7599 175.894 60.8755 175.485 61.1066C175.076 61.3377 174.751 61.6755 174.511 62.1199C174.28 62.5555 174.165 63.0755 174.165 63.6799C174.165 64.2755 174.28 64.7999 174.511 65.2533C174.751 65.6977 175.076 66.0399 175.485 66.2799C175.894 66.511 176.356 66.6266 176.871 66.6266C177.369 66.6266 177.823 66.5066 178.231 66.2666C178.649 66.0266 178.978 65.6844 179.218 65.2399C179.458 64.7955 179.578 64.2799 179.578 63.6933ZM183.576 61.3466C183.78 60.8933 184.091 60.5421 184.509 60.2933C184.936 60.0444 185.456 59.9199 186.069 59.9199V60.8933H185.816C185.14 60.8933 184.598 61.0755 184.189 61.4399C183.78 61.8044 183.576 62.4133 183.576 63.2666V67.3333H182.642V60.0533H183.576V61.3466ZM187.94 58.6799C187.753 58.6799 187.593 58.6133 187.46 58.4799C187.326 58.3466 187.26 58.1821 187.26 57.9866C187.26 57.791 187.326 57.631 187.46 57.5066C187.593 57.3733 187.753 57.3066 187.94 57.3066C188.126 57.3066 188.286 57.3733 188.42 57.5066C188.553 57.631 188.62 57.791 188.62 57.9866C188.62 58.1821 188.553 58.3466 188.42 58.4799C188.286 58.6133 188.126 58.6799 187.94 58.6799ZM188.406 60.0533V67.3333H187.473V60.0533H188.406ZM190.093 63.6933C190.093 62.9377 190.244 62.2799 190.546 61.7199C190.849 61.151 191.266 60.7155 191.8 60.4133C192.333 60.1021 192.942 59.9466 193.626 59.9466C194.524 59.9466 195.262 60.1688 195.84 60.6133C196.426 61.0577 196.804 61.6621 196.973 62.4266H195.973C195.849 61.9021 195.578 61.4933 195.16 61.1999C194.751 60.8977 194.24 60.7466 193.626 60.7466C193.138 60.7466 192.698 60.8577 192.306 61.0799C191.915 61.3021 191.604 61.6355 191.373 62.0799C191.151 62.5155 191.04 63.0533 191.04 63.6933C191.04 64.3333 191.151 64.8755 191.373 65.3199C191.604 65.7644 191.915 66.0977 192.306 66.3199C192.698 66.5421 193.138 66.6533 193.626 66.6533C194.24 66.6533 194.751 66.5066 195.16 66.2133C195.578 65.911 195.849 65.4933 195.973 64.9599H196.973C196.804 65.7066 196.426 66.3066 195.84 66.7599C195.253 67.2133 194.515 67.4399 193.626 67.4399C192.942 67.4399 192.333 67.2888 191.8 66.9866C191.266 66.6755 190.849 66.2399 190.546 65.6799C190.244 65.111 190.093 64.4488 190.093 63.6933ZM205.004 60.0533V67.3333H204.07V66.0533C203.857 66.5066 203.528 66.8533 203.084 67.0933C202.639 67.3333 202.141 67.4533 201.59 67.4533C200.719 67.4533 200.008 67.1866 199.457 66.6533C198.906 66.111 198.63 65.3288 198.63 64.3066V60.0533H199.55V64.1999C199.55 64.991 199.746 65.5955 200.137 66.0133C200.537 66.431 201.079 66.6399 201.764 66.6399C202.466 66.6399 203.026 66.4177 203.444 65.9733C203.861 65.5288 204.07 64.8755 204.07 64.0133V60.0533H205.004ZM208.068 57.4666V67.3333H207.134V57.4666H208.068ZM211.395 60.8399V65.3599C211.395 65.8044 211.479 66.111 211.648 66.2799C211.817 66.4488 212.115 66.5333 212.541 66.5333H213.395V67.3333H212.395C211.737 67.3333 211.248 67.1821 210.928 66.8799C210.608 66.5688 210.448 66.0621 210.448 65.3599V60.8399H209.435V60.0533H210.448V58.2266H211.395V60.0533H213.395V60.8399H211.395ZM221.241 60.0533V67.3333H220.307V66.0533C220.094 66.5066 219.765 66.8533 219.321 67.0933C218.876 67.3333 218.378 67.4533 217.827 67.4533C216.956 67.4533 216.245 67.1866 215.694 66.6533C215.143 66.111 214.867 65.3288 214.867 64.3066V60.0533H215.787V64.1999C215.787 64.991 215.983 65.5955 216.374 66.0133C216.774 66.431 217.316 66.6399 218.001 66.6399C218.703 66.6399 219.263 66.4177 219.681 65.9733C220.098 65.5288 220.307 64.8755 220.307 64.0133V60.0533H221.241ZM224.305 61.3466C224.509 60.8933 224.82 60.5421 225.238 60.2933C225.665 60.0444 226.185 59.9199 226.798 59.9199V60.8933H226.545C225.869 60.8933 225.327 61.0755 224.918 61.4399C224.509 61.8044 224.305 62.4133 224.305 63.2666V67.3333H223.371V60.0533H224.305V61.3466ZM234.789 63.3199C234.789 63.6399 234.78 63.8844 234.762 64.0533H228.722C228.749 64.6044 228.882 65.0755 229.122 65.4666C229.362 65.8577 229.678 66.1555 230.069 66.3599C230.46 66.5555 230.887 66.6533 231.349 66.6533C231.953 66.6533 232.46 66.5066 232.869 66.2133C233.287 65.9199 233.562 65.5244 233.695 65.0266H234.682C234.504 65.7377 234.122 66.3199 233.535 66.7733C232.958 67.2177 232.229 67.4399 231.349 67.4399C230.664 67.4399 230.051 67.2888 229.509 66.9866C228.967 66.6755 228.54 66.2399 228.229 65.6799C227.927 65.111 227.775 64.4488 227.775 63.6933C227.775 62.9377 227.927 62.2755 228.229 61.7066C228.531 61.1377 228.953 60.7021 229.495 60.3999C230.038 60.0977 230.655 59.9466 231.349 59.9466C232.042 59.9466 232.647 60.0977 233.162 60.3999C233.687 60.7021 234.087 61.111 234.362 61.6266C234.647 62.1333 234.789 62.6977 234.789 63.3199ZM233.842 63.2933C233.851 62.751 233.74 62.2888 233.509 61.9066C233.287 61.5244 232.98 61.2355 232.589 61.0399C232.198 60.8444 231.771 60.7466 231.309 60.7466C230.615 60.7466 230.024 60.9688 229.535 61.4133C229.047 61.8577 228.775 62.4844 228.722 63.2933H233.842Z" fill="#143461"/>
</svg>
