<svg width="236" height="73" viewBox="0 0 236 73" fill="none" xmlns="http://www.w3.org/2000/svg">
<path d="M10.192 14.5038C12.8267 14.5038 15.1031 15.0007 17.0213 15.9945C18.9627 16.9652 20.4418 18.3634 21.4587 20.1892C22.4987 22.0149 23.0187 24.1643 23.0187 26.6372C23.0187 29.1101 22.4987 31.2594 21.4587 33.0852C20.4418 34.8878 18.9627 36.2745 17.0213 37.2452C15.1031 38.1927 12.8267 38.6665 10.192 38.6665H2.66933V14.5038H10.192ZM10.192 36.0665C13.312 36.0665 15.6924 35.2461 17.3333 33.6052C18.9742 31.9412 19.7947 29.6185 19.7947 26.6372C19.7947 23.6327 18.9627 21.2869 17.2987 19.5998C15.6578 17.9127 13.2889 17.0692 10.192 17.0692H5.824V36.0665H10.192ZM28.8091 16.5838C28.2082 16.5838 27.6998 16.3758 27.2838 15.9598C26.8678 15.5438 26.6598 15.0354 26.6598 14.4345C26.6598 13.8336 26.8678 13.3252 27.2838 12.9092C27.6998 12.4932 28.2082 12.2852 28.8091 12.2852C29.3869 12.2852 29.8722 12.4932 30.2651 12.9092C30.6811 13.3252 30.8891 13.8336 30.8891 14.4345C30.8891 15.0354 30.6811 15.5438 30.2651 15.9598C29.8722 16.3758 29.3869 16.5838 28.8091 16.5838ZM30.3344 19.6692V38.6665H27.1798V19.6692H30.3344ZM34.5323 26.5678C34.5323 24.2105 35.0639 22.0958 36.127 20.2238C37.1901 18.3287 38.6346 16.8496 40.4603 15.7865C42.3092 14.7234 44.3546 14.1918 46.5963 14.1918C49.231 14.1918 51.5306 14.8274 53.495 16.0985C55.4594 17.3696 56.8923 19.1723 57.7937 21.5065H54.015C53.3448 20.0505 52.3741 18.9296 51.103 18.1438C49.855 17.3581 48.3528 16.9652 46.5963 16.9652C44.9092 16.9652 43.3954 17.3581 42.055 18.1438C40.7146 18.9296 39.663 20.0505 38.9003 21.5065C38.1377 22.9394 37.7563 24.6265 37.7563 26.5678C37.7563 28.4861 38.1377 30.1732 38.9003 31.6292C39.663 33.0621 40.7146 34.1714 42.055 34.9572C43.3954 35.7429 44.9092 36.1358 46.5963 36.1358C48.3528 36.1358 49.855 35.7545 51.103 34.9918C52.3741 34.2061 53.3448 33.0852 54.015 31.6292H57.7937C56.8923 33.9403 55.4594 35.7314 53.495 37.0025C51.5306 38.2505 49.231 38.8745 46.5963 38.8745C44.3546 38.8745 42.3092 38.3545 40.4603 37.3145C38.6346 36.2514 37.1901 34.7838 36.127 32.9118C35.0639 31.0398 34.5323 28.9252 34.5323 26.5678ZM75.2123 38.6665L69.4576 28.7865H65.6443V38.6665H62.4896V14.5038H70.2896C72.1154 14.5038 73.6523 14.8158 74.9003 15.4398C76.1714 16.0638 77.119 16.9074 77.743 17.9705C78.367 19.0336 78.679 20.2469 78.679 21.6105C78.679 23.2745 78.1936 24.7421 77.223 26.0132C76.2754 27.2843 74.8425 28.1278 72.9243 28.5438L78.991 38.6665H75.2123ZM65.6443 26.2558H70.2896C71.9999 26.2558 73.2825 25.8398 74.1376 25.0078C74.9928 24.1527 75.4203 23.0203 75.4203 21.6105C75.4203 20.1776 74.9928 19.0683 74.1376 18.2825C73.3056 17.4967 72.023 17.1038 70.2896 17.1038H65.6443V26.2558ZM97.8635 33.2932H87.3248L85.3835 38.6665H82.0555L90.7915 14.6425H94.4315L103.133 38.6665H99.8048L97.8635 33.2932ZM96.9621 30.7278L92.5941 18.5252L88.2261 30.7278H96.9621Z" fill="white"/>
<path d="M3.82667 58.3465C4.85778 58.3465 5.74222 58.5332 6.48 58.9065C7.21778 59.2798 7.78222 59.8176 8.17333 60.5198C8.56445 61.2221 8.76 62.0576 8.76 63.0265C8.76 63.9865 8.56445 64.8176 8.17333 65.5198C7.78222 66.2132 7.21778 66.7465 6.48 67.1198C5.74222 67.4843 4.85778 67.6665 3.82667 67.6665H1.06667V58.3465H3.82667ZM3.82667 66.8932C5.12444 66.8932 6.11111 66.5554 6.78667 65.8798C7.47111 65.1954 7.81333 64.2443 7.81333 63.0265C7.81333 61.7998 7.47111 60.8443 6.78667 60.1598C6.11111 59.4665 5.12444 59.1198 3.82667 59.1198H2V66.8932H3.82667ZM10.0541 64.0132C10.0541 63.2665 10.2007 62.6132 10.4941 62.0532C10.7963 61.4843 11.2096 61.0487 11.7341 60.7465C12.2674 60.4354 12.8674 60.2798 13.5341 60.2798C14.2274 60.2798 14.823 60.4398 15.3207 60.7598C15.8274 61.0798 16.1918 61.4887 16.4141 61.9865V60.3865H17.3474V67.6665H16.4141V66.0532C16.183 66.5509 15.8141 66.9643 15.3074 67.2932C14.8096 67.6132 14.2141 67.7732 13.5207 67.7732C12.863 67.7732 12.2674 67.6176 11.7341 67.3065C11.2096 66.9954 10.7963 66.5554 10.4941 65.9865C10.2007 65.4176 10.0541 64.7598 10.0541 64.0132ZM16.4141 64.0265C16.4141 63.4398 16.2941 62.9243 16.0541 62.4798C15.8141 62.0354 15.4852 61.6932 15.0674 61.4532C14.6585 61.2132 14.2052 61.0932 13.7074 61.0932C13.1918 61.0932 12.7296 61.2087 12.3207 61.4398C11.9118 61.6709 11.5874 62.0087 11.3474 62.4532C11.1163 62.8887 11.0007 63.4087 11.0007 64.0132C11.0007 64.6087 11.1163 65.1332 11.3474 65.5865C11.5874 66.0309 11.9118 66.3732 12.3207 66.6132C12.7296 66.8443 13.1918 66.9598 13.7074 66.9598C14.2052 66.9598 14.6585 66.8398 15.0674 66.5998C15.4852 66.3598 15.8141 66.0176 16.0541 65.5732C16.2941 65.1287 16.4141 64.6132 16.4141 64.0265ZM20.6915 61.1732V65.6932C20.6915 66.1376 20.7759 66.4443 20.9448 66.6132C21.1137 66.7821 21.4115 66.8665 21.8381 66.8665H22.6915V67.6665H21.6915C21.0337 67.6665 20.5448 67.5154 20.2248 67.2132C19.9048 66.9021 19.7448 66.3954 19.7448 65.6932V61.1732H18.7315V60.3865H19.7448V58.5598H20.6915V60.3865H22.6915V61.1732H20.6915ZM23.8041 64.0132C23.8041 63.2665 23.9507 62.6132 24.2441 62.0532C24.5463 61.4843 24.9596 61.0487 25.4841 60.7465C26.0174 60.4354 26.6174 60.2798 27.2841 60.2798C27.9774 60.2798 28.573 60.4398 29.0707 60.7598C29.5774 61.0798 29.9418 61.4887 30.1641 61.9865V60.3865H31.0974V67.6665H30.1641V66.0532C29.933 66.5509 29.5641 66.9643 29.0574 67.2932C28.5596 67.6132 27.9641 67.7732 27.2707 67.7732C26.613 67.7732 26.0174 67.6176 25.4841 67.3065C24.9596 66.9954 24.5463 66.5554 24.2441 65.9865C23.9507 65.4176 23.8041 64.7598 23.8041 64.0132ZM30.1641 64.0265C30.1641 63.4398 30.0441 62.9243 29.8041 62.4798C29.5641 62.0354 29.2352 61.6932 28.8174 61.4532C28.4085 61.2132 27.9552 61.0932 27.4574 61.0932C26.9418 61.0932 26.4796 61.2087 26.0707 61.4398C25.6618 61.6709 25.3374 62.0087 25.0974 62.4532C24.8663 62.8887 24.7507 63.4087 24.7507 64.0132C24.7507 64.6087 24.8663 65.1332 25.0974 65.5865C25.3374 66.0309 25.6618 66.3732 26.0707 66.6132C26.4796 66.8443 26.9418 66.9598 27.4574 66.9598C27.9552 66.9598 28.4085 66.8398 28.8174 66.5998C29.2352 66.3598 29.5641 66.0176 29.8041 65.5732C30.0441 65.1287 30.1641 64.6132 30.1641 64.0265ZM37.3536 59.0132C37.167 59.0132 37.007 58.9465 36.8736 58.8132C36.7403 58.6798 36.6736 58.5154 36.6736 58.3198C36.6736 58.1243 36.7403 57.9643 36.8736 57.8398C37.007 57.7065 37.167 57.6398 37.3536 57.6398C37.5403 57.6398 37.7003 57.7065 37.8336 57.8398C37.967 57.9643 38.0336 58.1243 38.0336 58.3198C38.0336 58.5154 37.967 58.6798 37.8336 58.8132C37.7003 58.9465 37.5403 59.0132 37.3536 59.0132ZM37.8203 60.3865V67.6665H36.887V60.3865H37.8203ZM43.3472 60.2532C44.2183 60.2532 44.9294 60.5243 45.4805 61.0665C46.0316 61.5998 46.3072 62.3776 46.3072 63.3998V67.6665H45.3872V63.5065C45.3872 62.7154 45.1872 62.1109 44.7872 61.6932C44.3961 61.2754 43.8583 61.0665 43.1739 61.0665C42.4716 61.0665 41.9116 61.2887 41.4939 61.7332C41.0761 62.1776 40.8672 62.8309 40.8672 63.6932V67.6665H39.9339V60.3865H40.8672V61.6265C41.0983 61.1821 41.4316 60.8443 41.8672 60.6132C42.3027 60.3732 42.7961 60.2532 43.3472 60.2532ZM51.6035 62.9998C51.6035 62.0843 51.8035 61.2665 52.2035 60.5465C52.6035 59.8176 53.1502 59.2532 53.8435 58.8532C54.5369 58.4443 55.3102 58.2398 56.1635 58.2398C57.2035 58.2398 58.0924 58.4887 58.8302 58.9865C59.5769 59.4754 60.1191 60.1687 60.4569 61.0665H59.3635C59.0969 60.4354 58.688 59.9421 58.1369 59.5865C57.5947 59.2309 56.9369 59.0532 56.1635 59.0532C55.4791 59.0532 54.8613 59.2132 54.3102 59.5332C53.768 59.8532 53.3413 60.3154 53.0302 60.9198C52.7191 61.5154 52.5635 62.2087 52.5635 62.9998C52.5635 63.7909 52.7191 64.4843 53.0302 65.0798C53.3413 65.6754 53.768 66.1332 54.3102 66.4532C54.8613 66.7732 55.4791 66.9332 56.1635 66.9332C56.9369 66.9332 57.5947 66.7598 58.1369 66.4132C58.688 66.0576 59.0969 65.5687 59.3635 64.9465H60.4569C60.1191 65.8354 59.5769 66.5243 58.8302 67.0132C58.0835 67.5021 57.1947 67.7465 56.1635 67.7465C55.3102 67.7465 54.5369 67.5465 53.8435 67.1465C53.1502 66.7376 52.6035 66.1732 52.2035 65.4532C51.8035 64.7332 51.6035 63.9154 51.6035 62.9998ZM63.25 57.7998V67.6665H62.3167V57.7998H63.25ZM65.8302 59.0132C65.6435 59.0132 65.4835 58.9465 65.3502 58.8132C65.2169 58.6798 65.1502 58.5154 65.1502 58.3198C65.1502 58.1243 65.2169 57.9643 65.3502 57.8398C65.4835 57.7065 65.6435 57.6398 65.8302 57.6398C66.0169 57.6398 66.1769 57.7065 66.3102 57.8398C66.4435 57.9643 66.5102 58.1243 66.5102 58.3198C66.5102 58.5154 66.4435 58.6798 66.3102 58.8132C66.1769 58.9465 66.0169 59.0132 65.8302 59.0132ZM66.2969 60.3865V67.6665H65.3635V60.3865H66.2969ZM77.0771 60.2532C77.9304 60.2532 78.6238 60.5243 79.1571 61.0665C79.6993 61.5998 79.9704 62.3776 79.9704 63.3998V67.6665H79.0504V63.5065C79.0504 62.7154 78.8593 62.1109 78.4771 61.6932C78.0949 61.2754 77.5749 61.0665 76.9171 61.0665C76.2326 61.0665 75.686 61.2932 75.2771 61.7465C74.8682 62.1998 74.6638 62.8576 74.6638 63.7198V67.6665H73.7438V63.5065C73.7438 62.7154 73.5526 62.1109 73.1704 61.6932C72.7882 61.2754 72.2638 61.0665 71.5971 61.0665C70.9126 61.0665 70.366 61.2932 69.9571 61.7465C69.5482 62.1998 69.3438 62.8576 69.3438 63.7198V67.6665H68.4104V60.3865H69.3438V61.6398C69.5749 61.1865 69.9038 60.8443 70.3304 60.6132C70.7571 60.3732 71.2326 60.2532 71.7571 60.2532C72.3882 60.2532 72.9393 60.4043 73.4104 60.7065C73.8904 61.0087 74.2371 61.4532 74.4504 62.0398C74.646 61.4621 74.9793 61.0221 75.4504 60.7198C75.9304 60.4087 76.4726 60.2532 77.0771 60.2532ZM81.6166 64.0132C81.6166 63.2665 81.7632 62.6132 82.0566 62.0532C82.3588 61.4843 82.7721 61.0487 83.2966 60.7465C83.8299 60.4354 84.4299 60.2798 85.0966 60.2798C85.7899 60.2798 86.3855 60.4398 86.8832 60.7598C87.3899 61.0798 87.7543 61.4887 87.9766 61.9865V60.3865H88.9099V67.6665H87.9766V66.0532C87.7455 66.5509 87.3766 66.9643 86.8699 67.2932C86.3721 67.6132 85.7766 67.7732 85.0832 67.7732C84.4255 67.7732 83.8299 67.6176 83.2966 67.3065C82.7721 66.9954 82.3588 66.5554 82.0566 65.9865C81.7632 65.4176 81.6166 64.7598 81.6166 64.0132ZM87.9766 64.0265C87.9766 63.4398 87.8566 62.9243 87.6166 62.4798C87.3766 62.0354 87.0477 61.6932 86.6299 61.4532C86.221 61.2132 85.7677 61.0932 85.2699 61.0932C84.7543 61.0932 84.2921 61.2087 83.8832 61.4398C83.4743 61.6709 83.1499 62.0087 82.9099 62.4532C82.6788 62.8887 82.5632 63.4087 82.5632 64.0132C82.5632 64.6087 82.6788 65.1332 82.9099 65.5865C83.1499 66.0309 83.4743 66.3732 83.8832 66.6132C84.2921 66.8443 84.7543 66.9598 85.2699 66.9598C85.7677 66.9598 86.221 66.8398 86.6299 66.5998C87.0477 66.3598 87.3766 66.0176 87.6166 65.5732C87.8566 65.1287 87.9766 64.6132 87.9766 64.0265ZM92.254 61.1732V65.6932C92.254 66.1376 92.3384 66.4443 92.5073 66.6132C92.6762 66.7821 92.974 66.8665 93.4006 66.8665H94.254V67.6665H93.254C92.5962 67.6665 92.1073 67.5154 91.7873 67.2132C91.4673 66.9021 91.3073 66.3954 91.3073 65.6932V61.1732H90.294V60.3865H91.3073V58.5598H92.254V60.3865H94.254V61.1732H92.254ZM102.38 63.6532C102.38 63.9732 102.371 64.2176 102.353 64.3865H96.3132C96.3399 64.9376 96.4732 65.4087 96.7132 65.7998C96.9532 66.1909 97.2688 66.4887 97.6599 66.6932C98.051 66.8887 98.4777 66.9865 98.9399 66.9865C99.5443 66.9865 100.051 66.8398 100.46 66.5465C100.878 66.2532 101.153 65.8576 101.287 65.3598H102.273C102.095 66.0709 101.713 66.6532 101.127 67.1065C100.549 67.5509 99.8199 67.7732 98.9399 67.7732C98.2555 67.7732 97.6421 67.6221 97.0999 67.3198C96.5577 67.0087 96.131 66.5732 95.8199 66.0132C95.5177 65.4443 95.3666 64.7821 95.3666 64.0265C95.3666 63.2709 95.5177 62.6087 95.8199 62.0398C96.1221 61.4709 96.5443 61.0354 97.0866 60.7332C97.6288 60.4309 98.2466 60.2798 98.9399 60.2798C99.6332 60.2798 100.238 60.4309 100.753 60.7332C101.278 61.0354 101.678 61.4443 101.953 61.9598C102.238 62.4665 102.38 63.0309 102.38 63.6532ZM101.433 63.6265C101.442 63.0843 101.331 62.6221 101.1 62.2398C100.878 61.8576 100.571 61.5687 100.18 61.3732C99.7888 61.1776 99.3621 61.0798 98.8999 61.0798C98.2066 61.0798 97.6155 61.3021 97.1266 61.7465C96.6377 62.1909 96.3666 62.8176 96.3132 63.6265H101.433ZM112.706 67.6665L110.4 63.7732H108.68V67.6665H107.746V58.3465H110.546C111.586 58.3465 112.373 58.5954 112.906 59.0932C113.449 59.5909 113.72 60.2443 113.72 61.0532C113.72 61.7287 113.524 62.3065 113.133 62.7865C112.751 63.2576 112.182 63.5643 111.426 63.7065L113.826 67.6665H112.706ZM108.68 63.0132H110.56C111.289 63.0132 111.835 62.8354 112.2 62.4798C112.573 62.1243 112.76 61.6487 112.76 61.0532C112.76 60.4398 112.582 59.9687 112.226 59.6398C111.871 59.3021 111.311 59.1332 110.546 59.1332H108.68V63.0132ZM122.159 63.6532C122.159 63.9732 122.15 64.2176 122.132 64.3865H116.092C116.119 64.9376 116.252 65.4087 116.492 65.7998C116.732 66.1909 117.047 66.4887 117.439 66.6932C117.83 66.8887 118.256 66.9865 118.719 66.9865C119.323 66.9865 119.83 66.8398 120.239 66.5465C120.656 66.2532 120.932 65.8576 121.065 65.3598H122.052C121.874 66.0709 121.492 66.6532 120.905 67.1065C120.327 67.5509 119.599 67.7732 118.719 67.7732C118.034 67.7732 117.421 67.6221 116.879 67.3198C116.336 67.0087 115.91 66.5732 115.599 66.0132C115.296 65.4443 115.145 64.7821 115.145 64.0265C115.145 63.2709 115.296 62.6087 115.599 62.0398C115.901 61.4709 116.323 61.0354 116.865 60.7332C117.407 60.4309 118.025 60.2798 118.719 60.2798C119.412 60.2798 120.016 60.4309 120.532 60.7332C121.056 61.0354 121.456 61.4443 121.732 61.9598C122.016 62.4665 122.159 63.0309 122.159 63.6532ZM121.212 63.6265C121.221 63.0843 121.11 62.6221 120.879 62.2398C120.656 61.8576 120.35 61.5687 119.959 61.3732C119.567 61.1776 119.141 61.0798 118.679 61.0798C117.985 61.0798 117.394 61.3021 116.905 61.7465C116.416 62.1909 116.145 62.8176 116.092 63.6265H121.212ZM126.373 67.7732C125.537 67.7732 124.853 67.5821 124.319 67.1998C123.795 66.8087 123.502 66.2798 123.439 65.6132H124.399C124.444 66.0221 124.635 66.3554 124.973 66.6132C125.319 66.8621 125.782 66.9865 126.359 66.9865C126.866 66.9865 127.262 66.8665 127.546 66.6265C127.839 66.3865 127.986 66.0887 127.986 65.7332C127.986 65.4843 127.906 65.2798 127.746 65.1198C127.586 64.9598 127.382 64.8354 127.133 64.7465C126.893 64.6487 126.564 64.5465 126.146 64.4398C125.604 64.2976 125.164 64.1554 124.826 64.0132C124.488 63.8709 124.199 63.6621 123.959 63.3865C123.728 63.1021 123.613 62.7243 123.613 62.2532C123.613 61.8976 123.719 61.5687 123.933 61.2665C124.146 60.9643 124.448 60.7243 124.839 60.5465C125.231 60.3687 125.675 60.2798 126.173 60.2798C126.955 60.2798 127.586 60.4798 128.066 60.8798C128.546 61.2709 128.804 61.8132 128.839 62.5065H127.906C127.879 62.0798 127.711 61.7376 127.399 61.4798C127.097 61.2132 126.679 61.0798 126.146 61.0798C125.675 61.0798 125.293 61.1909 124.999 61.4132C124.706 61.6354 124.559 61.9109 124.559 62.2398C124.559 62.5243 124.644 62.7598 124.813 62.9465C124.991 63.1243 125.208 63.2665 125.466 63.3732C125.724 63.4709 126.071 63.5821 126.506 63.7065C127.031 63.8487 127.448 63.9865 127.759 64.1198C128.071 64.2532 128.337 64.4487 128.559 64.7065C128.782 64.9643 128.897 65.3065 128.906 65.7332C128.906 66.1243 128.799 66.4754 128.586 66.7865C128.373 67.0887 128.075 67.3287 127.693 67.5065C127.311 67.6843 126.871 67.7732 126.373 67.7732ZM131.13 59.0132C130.943 59.0132 130.783 58.9465 130.65 58.8132C130.516 58.6798 130.45 58.5154 130.45 58.3198C130.45 58.1243 130.516 57.9643 130.65 57.8398C130.783 57.7065 130.943 57.6398 131.13 57.6398C131.316 57.6398 131.476 57.7065 131.61 57.8398C131.743 57.9643 131.81 58.1243 131.81 58.3198C131.81 58.5154 131.743 58.6798 131.61 58.8132C131.476 58.9465 131.316 59.0132 131.13 59.0132ZM131.596 60.3865V67.6665H130.663V60.3865H131.596ZM134.643 57.7998V67.6665H133.71V57.7998H134.643ZM137.223 59.0132C137.037 59.0132 136.877 58.9465 136.743 58.8132C136.61 58.6798 136.543 58.5154 136.543 58.3198C136.543 58.1243 136.61 57.9643 136.743 57.8398C136.877 57.7065 137.037 57.6398 137.223 57.6398C137.41 57.6398 137.57 57.7065 137.703 57.8398C137.837 57.9643 137.903 58.1243 137.903 58.3198C137.903 58.5154 137.837 58.6798 137.703 58.8132C137.57 58.9465 137.41 59.0132 137.223 59.0132ZM137.69 60.3865V67.6665H136.757V60.3865H137.69ZM146.39 63.6532C146.39 63.9732 146.381 64.2176 146.364 64.3865H140.324C140.35 64.9376 140.484 65.4087 140.724 65.7998C140.964 66.1909 141.279 66.4887 141.67 66.6932C142.061 66.8887 142.488 66.9865 142.95 66.9865C143.555 66.9865 144.061 66.8398 144.47 66.5465C144.888 66.2532 145.164 65.8576 145.297 65.3598H146.284C146.106 66.0709 145.724 66.6532 145.137 67.1065C144.559 67.5509 143.83 67.7732 142.95 67.7732C142.266 67.7732 141.653 67.6221 141.11 67.3198C140.568 67.0087 140.141 66.5732 139.83 66.0132C139.528 65.4443 139.377 64.7821 139.377 64.0265C139.377 63.2709 139.528 62.6087 139.83 62.0398C140.133 61.4709 140.555 61.0354 141.097 60.7332C141.639 60.4309 142.257 60.2798 142.95 60.2798C143.644 60.2798 144.248 60.4309 144.764 60.7332C145.288 61.0354 145.688 61.4443 145.964 61.9598C146.248 62.4665 146.39 63.0309 146.39 63.6532ZM145.444 63.6265C145.453 63.0843 145.341 62.6221 145.11 62.2398C144.888 61.8576 144.581 61.5687 144.19 61.3732C143.799 61.1776 143.373 61.0798 142.91 61.0798C142.217 61.0798 141.626 61.3021 141.137 61.7465C140.648 62.1909 140.377 62.8176 140.324 63.6265H145.444ZM151.511 60.2532C152.382 60.2532 153.093 60.5243 153.645 61.0665C154.196 61.5998 154.471 62.3776 154.471 63.3998V67.6665H153.551V63.5065C153.551 62.7154 153.351 62.1109 152.951 61.6932C152.56 61.2754 152.022 61.0665 151.338 61.0665C150.636 61.0665 150.076 61.2887 149.658 61.7332C149.24 62.1776 149.031 62.8309 149.031 63.6932V67.6665H148.098V60.3865H149.031V61.6265C149.262 61.1821 149.596 60.8443 150.031 60.6132C150.467 60.3732 150.96 60.2532 151.511 60.2532ZM157.749 61.1732V65.6932C157.749 66.1376 157.833 66.4443 158.002 66.6132C158.171 66.7821 158.469 66.8665 158.895 66.8665H159.749V67.6665H158.749C158.091 67.6665 157.602 67.5154 157.282 67.2132C156.962 66.9021 156.802 66.3954 156.802 65.6932V61.1732H155.789V60.3865H156.802V58.5598H157.749V60.3865H159.749V61.1732H157.749ZM170.347 65.4532H166.107L165.294 67.6665H164.307L167.707 58.4665H168.76L172.147 67.6665H171.16L170.347 65.4532ZM170.067 64.6798L168.227 59.6398L166.387 64.6798H170.067ZM176.698 60.2798C177.383 60.2798 177.978 60.4398 178.485 60.7598C178.991 61.0798 179.356 61.4843 179.578 61.9732V60.3865H180.511V67.8532C180.511 68.5198 180.365 69.1109 180.071 69.6265C179.787 70.1421 179.387 70.5376 178.871 70.8132C178.356 71.0976 177.769 71.2398 177.111 71.2398C176.178 71.2398 175.4 71.0176 174.778 70.5732C174.165 70.1287 173.783 69.5243 173.631 68.7598H174.551C174.711 69.2665 175.014 69.6709 175.458 69.9732C175.911 70.2754 176.463 70.4265 177.111 70.4265C177.583 70.4265 178.005 70.3243 178.378 70.1198C178.751 69.9243 179.045 69.6309 179.258 69.2398C179.471 68.8487 179.578 68.3865 179.578 67.8532V66.0532C179.347 66.5509 178.978 66.9643 178.471 67.2932C177.974 67.6132 177.383 67.7732 176.698 67.7732C176.031 67.7732 175.431 67.6176 174.898 67.3065C174.374 66.9954 173.96 66.5554 173.658 65.9865C173.365 65.4176 173.218 64.7598 173.218 64.0132C173.218 63.2665 173.365 62.6132 173.658 62.0532C173.96 61.4843 174.374 61.0487 174.898 60.7465C175.431 60.4354 176.031 60.2798 176.698 60.2798ZM179.578 64.0265C179.578 63.4398 179.458 62.9243 179.218 62.4798C178.978 62.0354 178.649 61.6932 178.231 61.4532C177.823 61.2132 177.369 61.0932 176.871 61.0932C176.356 61.0932 175.894 61.2087 175.485 61.4398C175.076 61.6709 174.751 62.0087 174.511 62.4532C174.28 62.8887 174.165 63.4087 174.165 64.0132C174.165 64.6087 174.28 65.1332 174.511 65.5865C174.751 66.0309 175.076 66.3732 175.485 66.6132C175.894 66.8443 176.356 66.9598 176.871 66.9598C177.369 66.9598 177.823 66.8398 178.231 66.5998C178.649 66.3598 178.978 66.0176 179.218 65.5732C179.458 65.1287 179.578 64.6132 179.578 64.0265ZM183.576 61.6798C183.78 61.2265 184.091 60.8754 184.509 60.6265C184.936 60.3776 185.456 60.2532 186.069 60.2532V61.2265H185.816C185.14 61.2265 184.598 61.4087 184.189 61.7732C183.78 62.1376 183.576 62.7465 183.576 63.5998V67.6665H182.642V60.3865H183.576V61.6798ZM187.94 59.0132C187.753 59.0132 187.593 58.9465 187.46 58.8132C187.326 58.6798 187.26 58.5154 187.26 58.3198C187.26 58.1243 187.326 57.9643 187.46 57.8398C187.593 57.7065 187.753 57.6398 187.94 57.6398C188.126 57.6398 188.286 57.7065 188.42 57.8398C188.553 57.9643 188.62 58.1243 188.62 58.3198C188.62 58.5154 188.553 58.6798 188.42 58.8132C188.286 58.9465 188.126 59.0132 187.94 59.0132ZM188.406 60.3865V67.6665H187.473V60.3865H188.406ZM190.093 64.0265C190.093 63.2709 190.244 62.6132 190.546 62.0532C190.849 61.4843 191.266 61.0487 191.8 60.7465C192.333 60.4354 192.942 60.2798 193.626 60.2798C194.524 60.2798 195.262 60.5021 195.84 60.9465C196.426 61.3909 196.804 61.9954 196.973 62.7598H195.973C195.849 62.2354 195.578 61.8265 195.16 61.5332C194.751 61.2309 194.24 61.0798 193.626 61.0798C193.138 61.0798 192.698 61.1909 192.306 61.4132C191.915 61.6354 191.604 61.9687 191.373 62.4132C191.151 62.8487 191.04 63.3865 191.04 64.0265C191.04 64.6665 191.151 65.2087 191.373 65.6532C191.604 66.0976 191.915 66.4309 192.306 66.6532C192.698 66.8754 193.138 66.9865 193.626 66.9865C194.24 66.9865 194.751 66.8398 195.16 66.5465C195.578 66.2443 195.849 65.8265 195.973 65.2932H196.973C196.804 66.0398 196.426 66.6398 195.84 67.0932C195.253 67.5465 194.515 67.7732 193.626 67.7732C192.942 67.7732 192.333 67.6221 191.8 67.3198C191.266 67.0087 190.849 66.5732 190.546 66.0132C190.244 65.4443 190.093 64.7821 190.093 64.0265ZM205.004 60.3865V67.6665H204.07V66.3865C203.857 66.8398 203.528 67.1865 203.084 67.4265C202.639 67.6665 202.141 67.7865 201.59 67.7865C200.719 67.7865 200.008 67.5198 199.457 66.9865C198.906 66.4443 198.63 65.6621 198.63 64.6398V60.3865H199.55V64.5332C199.55 65.3243 199.746 65.9287 200.137 66.3465C200.537 66.7643 201.079 66.9732 201.764 66.9732C202.466 66.9732 203.026 66.7509 203.444 66.3065C203.861 65.8621 204.07 65.2087 204.07 64.3465V60.3865H205.004ZM208.068 57.7998V67.6665H207.134V57.7998H208.068ZM211.395 61.1732V65.6932C211.395 66.1376 211.479 66.4443 211.648 66.6132C211.817 66.7821 212.115 66.8665 212.541 66.8665H213.395V67.6665H212.395C211.737 67.6665 211.248 67.5154 210.928 67.2132C210.608 66.9021 210.448 66.3954 210.448 65.6932V61.1732H209.435V60.3865H210.448V58.5598H211.395V60.3865H213.395V61.1732H211.395ZM221.241 60.3865V67.6665H220.307V66.3865C220.094 66.8398 219.765 67.1865 219.321 67.4265C218.876 67.6665 218.378 67.7865 217.827 67.7865C216.956 67.7865 216.245 67.5198 215.694 66.9865C215.143 66.4443 214.867 65.6621 214.867 64.6398V60.3865H215.787V64.5332C215.787 65.3243 215.983 65.9287 216.374 66.3465C216.774 66.7643 217.316 66.9732 218.001 66.9732C218.703 66.9732 219.263 66.7509 219.681 66.3065C220.098 65.8621 220.307 65.2087 220.307 64.3465V60.3865H221.241ZM224.305 61.6798C224.509 61.2265 224.82 60.8754 225.238 60.6265C225.665 60.3776 226.185 60.2532 226.798 60.2532V61.2265H226.545C225.869 61.2265 225.327 61.4087 224.918 61.7732C224.509 62.1376 224.305 62.7465 224.305 63.5998V67.6665H223.371V60.3865H224.305V61.6798ZM234.789 63.6532C234.789 63.9732 234.78 64.2176 234.762 64.3865H228.722C228.749 64.9376 228.882 65.4087 229.122 65.7998C229.362 66.1909 229.678 66.4887 230.069 66.6932C230.46 66.8887 230.887 66.9865 231.349 66.9865C231.953 66.9865 232.46 66.8398 232.869 66.5465C233.287 66.2532 233.562 65.8576 233.695 65.3598H234.682C234.504 66.0709 234.122 66.6532 233.535 67.1065C232.958 67.5509 232.229 67.7732 231.349 67.7732C230.664 67.7732 230.051 67.6221 229.509 67.3198C228.967 67.0087 228.54 66.5732 228.229 66.0132C227.927 65.4443 227.775 64.7821 227.775 64.0265C227.775 63.2709 227.927 62.6087 228.229 62.0398C228.531 61.4709 228.953 61.0354 229.495 60.7332C230.038 60.4309 230.655 60.2798 231.349 60.2798C232.042 60.2798 232.647 60.4309 233.162 60.7332C233.687 61.0354 234.087 61.4443 234.362 61.9598C234.647 62.4665 234.789 63.0309 234.789 63.6532ZM233.842 63.6265C233.851 63.0843 233.74 62.6221 233.509 62.2398C233.287 61.8576 232.98 61.5687 232.589 61.3732C232.198 61.1776 231.771 61.0798 231.309 61.0798C230.615 61.0798 230.024 61.3021 229.535 61.7465C229.047 62.1909 228.775 62.8176 228.722 63.6265H233.842Z" fill="white"/>
</svg>
