<svg width="255" height="203" viewBox="0 0 255 203" fill="none" xmlns="http://www.w3.org/2000/svg">
<path d="M160.197 153.375C160.013 153.634 159.829 153.888 159.645 154.147C159.152 155.022 158.181 155.275 157.452 155.851C156.775 156.277 156.057 156.594 155.259 156.697C154.541 156.795 153.789 156.738 153.117 157.106C152.807 157.302 152.52 157.521 152.227 157.739C151.245 158.528 150.028 158.908 149.006 159.622C148.443 159.898 147.961 160.359 147.289 160.405C147.03 160.417 146.772 160.388 146.514 160.33C146.158 160.503 145.612 159.467 145.4 160.526C145.049 161.194 144.343 161.372 143.781 161.741C142.85 162.328 141.754 162.593 140.869 163.267C140.462 163.554 140.014 163.756 139.549 163.934C138.768 164.222 137.872 164.142 137.183 164.712C136.999 164.867 136.804 165.005 136.603 165.132C136.092 165.443 135.604 165.788 135.162 166.197C134.444 167.038 133.623 167.763 132.802 168.494C131.872 169.266 130.7 168.961 129.65 169.208C128.622 169.191 127.726 169.571 126.888 170.13C125.745 170.7 124.608 171.281 123.534 171.978C122.019 172.692 120.25 172.738 118.838 173.734C118.2 174.194 117.62 174.074 117.075 173.567C116.294 172.542 114.876 172.997 113.974 172.248C112.676 171.108 110.896 170.556 109.478 170.93C105.729 171.926 101.968 170.51 98.2757 171.385C97.0067 171.114 95.6286 171.091 94.7731 169.871L94.5606 169.917H94.3424C93.7797 169.278 92.884 169.116 92.2983 168.506C91.5576 168.011 91.1671 167.067 90.1968 166.871C89.4962 166.687 89.0197 165.535 88.0722 166.364C87.4349 166.289 87.0789 165.881 86.8492 165.328C86.5277 164.464 85.7582 164.09 85.029 163.675C84.0012 162.178 82.5313 161.177 81.0958 160.134L81.1245 160.163C80.6077 159.133 79.5397 158.649 78.799 157.837L78.8105 157.86C77.5702 156.703 76.3357 155.54 75.1816 154.296C74.7395 153.686 74.1882 153.179 73.6657 152.65C73.637 152.494 73.6428 152.344 73.6887 152.195C72.7183 151.59 72.5288 150.214 71.3575 149.805L71.3804 149.834C71.0187 149.195 70.657 148.55 70.0483 148.095C69.1181 146.639 68.0444 145.291 66.8213 144.077C66.6204 143.714 66.4251 143.351 66.2242 142.988C66.0577 141.992 65.271 141.595 64.4844 141.198L64.5073 141.232C63.9504 140.484 63.5197 139.626 62.7273 139.068C62.3197 138.48 61.7225 138.066 61.3206 137.478C60.7923 136.828 60.1837 136.264 59.6037 135.665C59.0295 135.02 58.2601 134.68 57.5079 134.318C56.9682 134.104 56.4342 133.886 55.8944 133.673C55.5384 131.565 54.0111 130.351 52.4608 129.153L52.478 129.176C51.8291 128.249 50.5717 127.725 50.5831 126.355C50.7267 126.13 50.899 125.934 51.0827 125.744C51.2894 125.526 51.2837 125.272 51.232 125.002C51.008 125.221 51.077 125.595 50.8128 125.802C49.7219 126.055 49.808 124.535 48.8893 124.541C48.5735 124.616 48.3093 124.777 48.0854 125.008C47.1208 125.174 46.5064 124.806 46.2939 123.827C46.2939 122.848 45.4613 122.44 44.9216 121.829C44.1694 121.236 43.5895 120.436 42.7282 119.975L42.7511 119.993C42.2401 119.451 41.6487 118.979 41.3042 118.3C39.9663 116.803 38.7203 115.22 37.3882 113.717C37.0551 112.991 36.5154 112.444 35.901 111.949C35.8551 111.8 35.8493 111.644 35.8895 111.494C35.4819 110.884 34.9651 110.429 34.2301 110.268L33.5985 109.652C33.386 108.46 33.4435 107.171 32.3295 106.324C32.2262 106.094 32.2089 105.852 32.2549 105.61C32.7372 104.896 32.898 104.113 32.7142 103.261C32.5133 102.294 33.4435 101.459 33.0358 100.469C33.053 100.25 33.076 100.031 33.0932 99.8124C33.3573 99.3748 33.6559 98.9948 34.2531 99.133C35.0168 99.4554 35.5508 100.204 36.4408 100.284C37.6064 100.279 38.8696 101.021 39.8629 99.8066C40.6324 98.9314 41.3961 97.7799 42.1999 99.7778C42.2344 100.958 41.7463 102.018 41.442 103.117C41.0286 103.768 41.0113 104.424 41.419 105.086C41.5626 105.432 41.6774 105.783 41.7922 106.134C42.688 107.597 43.7043 107.516 44.8125 106.393C46.07 105.789 47.0174 104.724 48.2577 104.09C50.2329 103.417 52.9259 104.942 54.2006 102.138L54.1661 102.173C54.9298 101.655 55.6935 101.119 56.6639 101.701C57.772 102.144 58.8917 102.916 59.931 101.568L59.8908 101.591C60.5971 100.521 62.0268 100.67 62.8651 99.8239C63.003 99.8008 63.1408 99.7951 63.2843 99.8066C63.8183 99.4151 64.3638 99.0581 65.0356 98.9372C66.6491 99.2481 68.0042 98.7933 69.0837 97.5439L69.0607 97.5611C70.1287 97.5554 70.9383 96.9969 71.679 96.306C72.0982 96.0469 72.4484 95.6611 72.9537 95.5518C74.016 95.5748 74.5328 94.3024 75.6409 94.406C77.5013 94.0145 79.4306 94.9933 81.2566 94.0893C81.5207 93.9108 81.7791 93.7381 82.0432 93.5596C82.7495 92.9724 82.7035 92.0166 83.1571 91.3084C83.6911 90.6636 84.4089 90.1454 84.6328 89.2702C84.8395 88.6599 85.3104 88.2339 85.7008 87.756C85.6491 87.6351 85.6262 87.5084 85.6434 87.376C86.12 86.639 86.5679 85.879 87.0904 85.1708C88.1699 84.0078 87.7277 82.1884 88.8531 81.0484C89.3814 80.1733 89.835 79.2521 90.4781 78.446C90.8169 78.0487 91.1901 77.686 91.6035 77.3636C91.7069 77.283 91.816 77.2139 91.9251 77.1333C92.1433 76.9893 92.3787 76.8684 92.6141 76.7648C93.9635 76.356 95.3013 75.9357 95.4162 74.1854C95.5942 73.4945 95.7492 72.7978 95.4966 72.0896C95.3128 71.5254 94.9339 71.1108 94.4917 70.7424C93.5902 69.7693 92.8782 70.3739 92.1777 71.0302C91.2992 71.6924 91.5174 72.6712 91.3853 73.5808C91.1959 74.8993 91.5519 76.4481 90.0819 77.3405C89.0369 77.9739 87.9172 77.116 86.8607 77.5018C86.298 77.3175 85.7353 77.1333 85.1668 76.949C84.9773 76.8166 84.8453 76.6439 84.7706 76.4251C84.6386 76.1372 84.4606 75.9011 84.1103 75.8781C83.7945 75.9587 83.5131 76.1084 83.226 76.2466C82.336 76.7475 81.3886 76.5172 80.4584 76.4827C79.1378 78.1293 77.0535 78.3884 75.3481 79.3269C73.8322 80.1215 72.0867 79.8105 70.5191 80.3402C69.3995 80.5821 68.1535 80.3748 67.2175 81.2787C65.8682 81.9178 65.5064 83.3457 64.714 84.4281C64.18 85.3781 63.1982 85.666 62.2967 86.069C60.9129 86.0402 59.4602 86.5872 58.1969 85.5566C58.4209 85.2284 58.7539 85.0672 59.1214 84.9751C59.4487 84.8081 59.9597 85.0442 60.0975 84.526C59.6382 84.4511 59.2248 84.5548 58.8113 84.6008C58.5702 84.6469 58.3233 84.6584 58.0821 84.6527C57.439 84.5548 57.06 84.1172 56.7442 83.6105C56.1299 83.0866 55.4523 83.5069 54.8035 83.4896C54.436 83.4724 54.1259 83.3169 53.8388 83.1039C53.3737 82.649 52.857 82.7642 52.3344 82.983C51.9784 83.0693 51.6454 83.0118 51.3239 82.8621C50.6922 82.2978 49.9056 82.0733 49.119 81.8372C48.9008 81.7278 48.694 81.5954 48.4988 81.4572C47.6835 80.8872 46.8451 81.2096 46.0126 81.4111C43.8421 81.9408 42.3664 80.0351 40.4084 79.8221C40.2362 79.6321 40.0639 79.4421 39.8917 79.2463C39.3347 78.3999 38.3299 78.1351 37.6064 77.5075C36.3087 77.2484 34.8962 77.2196 34.1325 75.8436C33.9717 75.4329 33.6387 75.3772 33.1334 75.6766C30.9974 74.8821 28.8442 74.1105 27.2939 72.2969C26.7484 71.6981 26.1914 71.1051 25.5426 70.6157L25.577 70.6502C24.9856 69.9708 24.0267 69.7751 23.4755 69.0496C21.1787 67.5412 19.2035 65.7966 18.859 62.8487C18.2388 62.7048 17.6417 62.5896 17.1134 63.079C15.0348 61.8296 15.3277 60.5054 16.9928 59.1466C17.3718 59.1984 17.5153 59.0257 17.2799 58.7263C17.0617 58.4442 16.7517 58.2427 16.3957 58.5824C15.1899 58.6399 14.6903 57.713 14.0931 56.9184C14.1563 56.7169 14.231 56.5269 14.3171 56.3369C14.4491 55.7842 13.9726 55.646 13.6568 55.3927C12.0605 54.3505 11.4978 53.1415 12.9907 51.5754C13.7314 50.1302 11.027 50.113 11.7791 48.6678C12.3361 48.0805 13.0883 48.0575 13.806 47.9481C14.1908 47.9481 13.7831 47.2975 13.852 47.6718C13.875 47.7869 13.8233 47.8215 13.7199 47.8445C13.0424 48.023 12.4222 48.1093 12.2787 47.1651C12.5658 46.6757 13.0653 46.5605 13.5591 46.4396C14.03 46.3302 14.5123 46.2554 14.9774 46.1345C15.6205 45.9042 15.7353 45.3227 15.8846 44.7642C16.0167 44.2748 16.1832 43.8027 16.3784 43.3421C16.6885 42.4036 17.6876 42.179 18.2618 41.5169C18.7499 41.0045 19.4389 40.7051 19.7834 40.0487C19.8925 39.8357 20.0188 39.6342 20.1509 39.4327C20.2255 39.3348 20.3002 39.2427 20.3748 39.1448C21.1787 38.0854 22.4764 37.976 23.5788 37.4808C24.1358 37.2563 24.7042 37.0605 25.1349 36.6115C25.2842 36.4963 25.4277 36.3754 25.5655 36.243C25.3129 36.4445 25.0775 36.669 24.8306 36.8821C24.4975 37.0721 24.153 37.2218 23.7798 37.3081C22.4132 37.7457 20.6275 36.9166 19.7088 38.6784C19.3298 39.2312 18.9279 39.7666 18.325 40.0948C16.8493 40.636 15.4482 41.3672 13.9783 41.9315C12.8931 42.1502 11.8768 42.4957 11.2222 43.4802C10.7743 44.0905 10.2862 44.6663 9.80966 45.2536C9.16082 45.9215 9.02876 46.9808 8.15024 47.476C6.23244 48.0518 4.15386 47.1421 2.27624 48.1208C1.4896 48.0402 0.800566 47.7984 0.461792 46.9981C0.99005 46.3245 1.44366 45.5875 2.16141 45.0808C2.87341 44.223 4.18257 44.7469 4.92328 43.9121C4.56728 43.5493 4.0505 43.5724 3.6945 43.2672C3.32128 42.7318 2.72412 42.3345 2.70115 41.5918C2.63799 41.0793 2.52315 40.5727 2.45999 40.0602C2.38534 39.3118 1.85708 38.6669 1.93747 37.8781C2.1327 36.9972 2.50018 36.1969 3.0514 35.4772C3.86102 34.9705 4.96921 34.8784 5.38263 33.8075C6.20373 33.2836 7.32915 33.4045 8.0067 32.5581C8.23063 32.4084 8.46605 32.2818 8.70721 32.1666C9.38476 31.9133 9.98192 31.4815 10.7054 31.326C14.1793 31.4815 17.6589 30.9805 21.1155 31.6024C21.4601 31.4124 21.8046 31.2224 22.1433 31.0324C22.8496 31.8442 23.5616 31.5621 24.2793 31.0381C24.4631 30.8596 24.6009 30.6581 24.687 30.4163C24.8937 28.1766 24.9339 25.9542 24.4573 23.7433C24.6009 21.5957 23.9865 19.4021 24.842 17.3005C26.4096 16.1951 26.9034 17.4848 27.5235 18.4981C27.7991 18.7111 28.0977 18.8896 28.4193 19.0163C29.2059 19.1948 29.5562 18.619 29.9524 18.1296C29.6136 18.0145 29.2059 18.1815 28.9131 17.859C28.827 17.5884 28.9073 17.3811 29.1198 17.2142C30.1304 17.0184 30.3371 14.9227 31.9046 16.0339C31.9621 16.5636 32.4386 16.7939 32.7257 17.1508C33.1334 17.8993 33.5641 18.6133 34.5287 18.7111C36.0446 19.0336 37.193 17.1048 38.8007 17.9972C39.5414 18.4463 40.3223 18.7802 41.1836 18.8896C41.6602 18.8896 42.1425 18.9011 42.6191 18.9069C43.7847 19.1545 44.8412 18.1987 46.0183 18.596C48.8835 18.8321 51.743 18.9472 54.5968 18.5096C55.6418 18.3657 56.6868 18.383 57.7319 18.4751C58.1568 18.5615 58.5185 18.7745 58.8458 19.0451C59.6841 19.8281 60.2124 20.9105 61.1942 21.5611C61.8775 21.6993 62.1991 22.2866 62.6355 22.7242C63.3934 23.2366 64.2088 23.6224 65.1045 23.8181C68.3774 24.0542 71.6618 23.9045 74.929 23.9621C75.8591 22.9027 77.3233 22.3327 77.7368 20.8242C77.8344 20.1851 78.7818 19.7648 78.2248 18.9472C78.6497 17.0818 79.8842 16.2469 81.7217 16.1836C83.117 17.5654 84.3917 16.4772 85.7008 15.9878C85.6549 15.8554 85.6434 15.7172 85.6606 15.5733C87.0961 14.4505 89.1288 15.4466 90.5298 14.203C90.8686 13.9669 91.2533 13.846 91.661 13.7827C92.4763 13.466 93.4467 14.203 94.1931 13.3911C94.4745 12.706 95.1176 12.5793 95.7205 12.3951C96.3808 12.4008 97.0469 12.303 97.6957 12.4987C98 12.8096 98.1034 13.1781 98.0058 13.5984C97.9024 13.8402 97.7531 14.0533 97.5579 14.226C96.2201 15.1645 97.1904 16.1548 97.5062 17.1278C97.7531 17.813 97.7991 18.5787 98.3044 19.1602C99.1427 19.903 99.9753 20.6515 101.193 20.6802C102.749 20.4557 104.339 20.6399 105.884 20.3118C106.843 20.1275 107.836 20.0181 108.559 19.2466C109.03 18.7515 108.875 18.1239 108.927 17.5366C108.979 17.2833 109.093 17.0645 109.283 16.886C110.139 16.3563 110.965 15.7805 111.752 15.153C113.119 14.4908 115.163 15.9763 116.047 13.7884H116.024C116.541 13.5408 117.155 13.5639 117.643 13.2184C119.004 11.4739 117.207 11.6466 116.42 11.2148C115.852 11.1572 115.461 10.8463 115.168 10.3857C114.675 9.45297 114.944 8.31297 114.376 7.39751C114.181 7.0463 114.055 6.67206 114.055 6.26327C114.158 5.33054 114.221 4.39206 114.508 3.48812C114.778 2.64176 115.45 2.16388 116.139 1.70327C116.248 1.68024 116.351 1.69751 116.449 1.75509C117.569 0.943271 118.717 0.983574 119.877 1.66297C120.646 2.32509 121.571 2.636 122.53 2.87782C124.005 2.89509 125.521 3.15418 126.83 2.17539C127.347 2.00266 127.881 2.05448 128.409 2.07176C129.506 2.53236 130.597 2.96994 131.498 1.72054L131.476 1.73782C132.17 1.44994 132.905 1.48448 133.634 1.48448C135.208 1.686 136.781 1.63418 138.349 1.42691C139.089 1.35782 139.652 1.85297 140.312 2.03721C141.3 2.18691 142.236 1.82994 143.195 1.72054C143.844 1.54206 144.47 1.17933 145.17 1.49024C146.307 2.54963 147.415 3.59751 148.724 1.63994C149.04 1.16206 149.718 1.23691 150.28 1.35206C150.992 1.74357 151.745 1.84145 152.537 1.65721C153.766 1.35206 154.495 -0.484608 156.137 0.476907C155.735 2.446 157.188 0.540241 157.464 1.11024C158.043 1.17933 158.589 1.33479 159.025 1.75509V1.73782C159.088 3.15994 160.346 2.53236 161.018 2.9066C162.252 3.2866 163.648 2.65903 164.796 3.52266C165.066 4.25963 165.399 4.9563 166.048 5.43994C166.231 5.60691 166.404 5.79691 166.559 5.99266C167.61 6.40721 168.563 6.99448 169.493 7.62206C170.905 8.09418 171.772 9.1363 172.444 10.3972C172.829 10.8578 173.219 11.3011 173.914 11.1284C174.678 10.4548 176.165 9.97691 174.529 8.70448C175.815 6.57418 177.124 7.47812 178.439 8.6757C178.054 9.88479 179.042 9.69479 179.662 9.87327C180.403 10.0921 181 10.5527 181.608 10.996C182.108 11.3875 182.361 11.9863 182.797 12.4296C183.268 12.8499 183.773 13.2299 184.324 13.5466C185.748 14.2087 187.391 13.3566 188.786 14.2087C189.084 14.583 189.119 14.9918 188.941 15.4293C188.723 15.6481 188.481 15.6884 188.212 15.533C186.937 14.8824 185.53 15.4466 184.502 15.2451C185.381 15.2969 186.558 15.2163 187.729 15.2739C189.119 17.0933 190.462 15.8727 191.806 15.2105C192.024 14.7499 192.294 14.3239 192.639 13.9496C193.816 12.7521 193.781 11.0536 194.401 9.6257C195.125 9.16509 195.917 8.87721 196.744 8.68145C197.33 8.60085 197.892 8.65842 198.415 8.96357C198.76 9.25145 198.874 9.63721 198.857 10.069C198.915 10.9557 197.749 11.7905 198.748 12.7118C199.299 13.0572 199.805 12.706 200.327 12.6254C201.854 12.8557 203.657 12.136 204.731 13.9208C203.962 14.5139 203.37 15.3257 202.463 15.7518C201.32 15.9821 200.453 16.6154 199.81 17.5769C198.616 19.8569 197.91 22.1024 200.247 24.1521V24.1405C200.517 24.7796 200.993 25.246 201.521 25.6778C202.17 26.3745 202.94 26.9618 203.422 27.8081C203.91 28.4415 204.501 28.9942 204.949 29.6621C205.035 29.8636 205.064 30.0708 205.053 30.2781C204.961 30.4911 205.012 30.5718 205.213 30.5257C205.449 30.4681 205.615 30.3242 205.707 30.0939C205.88 29.6448 206.218 29.3511 206.58 29.069C207.085 28.7121 207.591 28.3493 207.126 27.6296C207.108 26.7718 207.47 26.1845 208.32 25.9484C208.739 26.2996 209.537 26.1327 209.646 26.9099C209.669 27.549 210.1 27.8772 210.594 28.1708C211.392 29.213 211.26 30.6063 211.926 31.7002C212.397 32.7884 211.874 33.5024 211.03 34.0954C210.737 34.3545 210.496 34.6711 210.249 34.9705C208.796 38.2121 209.244 39.5708 212.236 40.9354C212.575 41.2233 212.758 41.6493 213.103 41.9199C213.482 42.0178 213.637 41.7357 213.832 41.5054C214.791 42.2884 215.75 43.0715 216.709 43.8545C216.387 44.9599 214.67 46.1863 216.973 47.073C217.777 46.9981 218.69 46.3072 219.287 47.4587C219.218 48.5872 218.397 49.7042 219.253 50.8384C219.574 51.0111 219.884 51.1896 220.171 51.4142C220.355 51.5811 220.504 51.7769 220.631 51.9899C221.136 52.629 220.527 54.0511 222.032 53.9878C222.594 54.5693 223.151 55.1566 223.714 55.7381C224.156 56.3254 224.753 56.1757 225.333 56.0605C226.154 56.1354 226.97 56.1757 227.785 56.026C228.353 56.1527 229.025 55.8302 229.49 56.4118L229.433 56.5845C230.248 57.8281 230.564 59.9411 232.884 58.5708H232.844C233.573 57.9893 234.095 58.5248 234.647 58.9105C236.266 60.0045 237.862 61.1387 239.298 62.4687C240.314 63.2172 240.257 64.4493 240.641 65.4799C240.796 65.7793 240.94 66.0902 241.078 66.3954C241.158 66.5911 241.233 66.7984 241.319 66.9884C242.513 67.1957 243.69 67.3799 244.884 67.0402C245.493 66.9308 245.746 67.4145 246.079 67.7599L246.05 67.7887C246.837 68.733 247.118 70.0802 248.364 70.6445L248.33 70.6099C248.858 70.5639 248.559 72.3775 249.599 71.1799C250.632 71.9515 251.189 72.9533 251.063 74.2775C250.242 75.7514 249.932 77.1333 251.792 78.0948C252.607 78.0315 253.107 78.5036 253.526 79.1196C253.693 79.9084 254.141 80.6166 254.169 81.4399C254.284 82.1193 254.669 82.7411 254.657 83.4551C254.485 83.5818 254.318 83.7027 254.146 83.8293C253.635 84.5605 253.71 85.5221 253.216 86.259C252.475 87.2781 252.01 88.4354 251.637 89.633C250.747 91.1069 249.053 90.3584 247.859 90.9975C246.911 91.6193 245.987 92.2699 245.108 92.9896C244.218 93.7611 243.61 94.8666 242.41 95.2754C241.485 95.4999 240.549 95.2293 239.619 95.3272C237.098 95.926 238.218 97.0718 239.194 98.1945L239.171 98.1657C239.723 98.8163 240.302 99.4208 241.261 99.3518C241.772 99.369 242.272 99.3978 242.731 99.6684C242.777 100.428 245.975 100.538 243.191 101.885C243.69 102.041 244.207 101.804 244.706 101.966C245.114 102.248 245.063 102.588 244.839 102.95C244.253 103.63 243.328 103.814 242.691 104.418C242.1 104.073 241.514 103.728 240.923 103.376C239.022 102.806 239.458 104.321 239.47 105.173C239.487 106.958 240.038 108.708 240.056 110.504C239.722 110.976 240.078 111.529 239.929 112.036C240.09 111.621 239.9 111.109 240.216 110.729C240.469 110.591 240.699 110.625 240.905 110.827L240.854 110.781C241.583 111.546 241.606 112.554 241.795 113.504C241.83 113.78 241.83 114.057 241.807 114.333C241.514 115.818 241.502 117.304 241.841 118.789C241.876 119.077 241.847 119.359 241.784 119.641C241.686 119.97 241.468 120.091 241.141 120.021C241.164 120.188 241.095 120.304 240.94 120.373C240.469 121.092 239.619 120.712 239.011 121.041C237.701 121.138 236.92 122.169 235.91 122.797C235.198 123.372 234.365 123.683 233.498 123.919C232.74 124.069 232.011 124.386 231.219 124.305C230.845 124.248 230.524 124.052 230.191 123.879C229.852 123.701 230.288 123.879 229.921 123.816C229.823 123.798 230.047 123.856 230.065 123.942C230.311 124.53 229.628 124.875 229.703 125.422C229.691 125.658 229.64 125.883 229.548 126.101C229.175 126.821 229.41 127.558 229.473 128.284C229.554 129.199 229.777 130.091 229.984 130.99C230.088 131.686 230.065 132.371 229.823 133.045C229.663 133.431 229.41 133.753 229.111 134.035C226.832 135.636 227.98 136.949 229.462 138.238C229.163 139.367 230.346 139.05 230.719 139.528C231.035 139.332 231.357 139.137 231.672 138.941C233.561 138.653 235.382 138.106 237.202 137.53C238.867 137.346 240.595 137.91 242.214 137.121C242.628 136.954 243.018 137.018 243.403 137.214C244.684 138.192 246.033 138.031 247.411 137.438C248.261 137.369 248.611 137.962 248.944 138.584L248.927 138.745C248.324 140.173 246.831 140.225 245.7 140.829C244.603 141.578 243.323 141.635 242.071 141.791C241.112 141.935 240.142 141.399 239.189 141.831C237.724 143.201 235.789 144.186 235.422 146.449C234.859 147.474 234.543 148.637 233.699 149.5C232.832 150.318 231.764 149.99 230.765 150.007C230.036 149.984 229.743 150.491 229.496 151.061C228.968 151.78 228.468 152.523 227.791 153.122C227.257 153.605 226.631 153.767 225.93 153.68C224.524 153.387 223.117 153.312 221.716 153.663C221.377 153.761 221.027 153.836 220.694 153.934C220.234 154.095 220.062 154.388 220.292 154.861C220.699 155.471 221.233 155.937 221.836 156.323C223.398 156.956 225.35 156.283 226.66 157.751C226.545 159.398 228.313 158.764 228.882 159.593L228.842 159.564C229.576 160.002 229.996 160.756 230.604 161.315L230.593 161.292C231.334 161.942 231.758 162.829 232.321 163.606L232.287 163.578C232.924 164.28 233.349 165.074 233.424 166.036C234.268 168.587 234.664 171.131 233.32 173.648C232.689 174.448 231.661 174.684 230.914 175.323C229.818 176.613 230.334 178.783 228.537 179.687C228.152 180.223 227.682 180.672 227.107 181C226.585 181.167 226.057 181.063 225.534 181.017C224.598 180.925 223.634 181.017 222.738 180.631C221.894 179.941 221.015 179.301 220.24 178.536L220.263 178.559C219.465 177.707 218.179 177.534 217.478 176.549C216.726 176.187 216.204 175.478 215.428 175.144C214.533 175.012 214.182 175.928 213.482 176.164C212.948 176.688 211.403 176.4 212.115 177.902C212.546 178.144 212.942 178.426 213.091 178.927C213.275 179.653 214.091 179.728 214.464 180.257C215.549 181.691 215.222 183.176 214.613 184.668C214.401 185.451 213.901 186.078 213.505 186.763C213.137 187.391 212.902 188.07 212.689 188.761C212.5 189.308 212.431 189.861 212.586 190.431C212.666 190.782 212.695 191.133 212.655 191.49C212.626 191.732 212.575 191.968 212.511 192.198C212.23 193.287 212.276 194.363 212.592 195.434C212.666 195.688 212.718 195.947 212.741 196.211C212.758 196.776 212.667 197.3 212.219 197.703C211.587 198.077 210.915 198.031 210.238 197.91C209.44 197.858 208.544 196.407 207.872 198.088C207.642 198.998 207.539 199.96 206.747 200.61C206.224 201.163 205.61 201.359 204.875 201.1C203.784 200.184 204.008 197.513 201.47 198.514C201.257 198.664 201.033 198.785 200.798 198.889C200.413 199.015 200.028 199.01 199.65 198.86C199.167 198.572 198.88 198.163 198.88 197.582C199.024 196.828 199.805 196.741 200.229 196.281L200.195 196.321C200.66 195.762 200.941 195.1 201.257 194.461C201.183 193.799 200.867 193.626 200.293 193.983C199.684 193.983 199.075 193.989 198.467 193.995C198.597 193.07 198.486 192.657 198.134 192.757C197.249 193.333 195.998 193.114 195.326 194.116C194.953 194.789 194.39 195.21 193.643 195.377C192.139 196.321 193.873 196.781 193.959 197.49L193.908 197.432C195.4 198.491 195.389 199.793 194.499 201.226L194.539 201.192C194.005 202.389 193.029 201.624 192.242 201.721C191.238 201.629 190.238 201.664 189.262 201.969C188.527 202.021 187.787 202.165 187.057 201.94C186.633 201.756 186.328 201.462 186.225 200.996C186.213 200.271 186.208 199.539 186.225 198.889C186.104 199.47 186.3 200.201 186.07 200.858C185.817 201.036 185.565 201.036 185.312 200.869C185.191 199.321 185.496 197.818 185.886 196.332C186.937 195.854 186.948 194.858 187.08 193.92C187.006 193.051 187.821 192.555 187.97 191.784C188.2 191.248 188.631 190.984 189.182 190.886C189.894 190.88 190.663 191.07 191.169 190.321C191.41 190.039 191.697 189.815 192.007 189.619C192.84 188.554 193.092 187.466 192.179 186.326C191.668 186.401 191.846 186.965 191.559 187.189C189.544 186.026 189.814 184.834 191.513 183.631C192.174 183.574 192.179 183.061 192.237 182.583C192.708 181.207 191.829 179.733 192.547 178.38C192.897 177.079 193.15 175.766 193.081 174.408C193.305 173.4 194.723 172.715 193.896 171.419C193.006 170.406 192.133 169.381 191.364 168.27C190.899 167.349 190.543 166.399 190.583 165.345C190.612 165.098 190.669 164.856 190.744 164.62C190.899 164.107 190.755 163.716 190.284 163.451C190.072 163.324 189.877 163.18 189.687 163.025C189.354 162.368 187.982 161.954 189.199 160.935C190.686 160.653 190.342 159.778 189.865 158.862C189.733 157.693 188.924 157.377 187.913 157.313C186.288 157.544 185.329 156.663 184.629 155.35C184.525 155.108 184.485 154.849 184.502 154.59C184.824 154.003 184.939 153.444 184.29 152.984C183.595 151.861 182.177 151.826 181.298 150.98L181.31 151.014C181.235 150.162 180.196 149.633 180.529 148.648C180.81 148.17 181.229 147.957 181.775 147.831C182.493 147.664 181.505 147.71 181.706 147.554C181.528 146.904 181.511 146.213 181.051 145.671C180.942 145.297 180.977 144.934 181.149 144.583C181.746 143.921 182.372 143.294 183.021 142.678C183.394 142.303 184.077 142.436 184.324 141.866C184.072 141.808 183.813 141.751 183.561 141.664C183.176 141.491 182.906 141.215 182.774 140.806C182.688 140.219 182.923 139.747 183.314 139.332C184.083 138.354 185.432 138.394 186.317 137.622C187.207 137.271 187.448 136.333 188.057 135.722C190.325 134.254 193.138 133.938 195.314 132.262C196.227 131.56 197.393 131.335 198.306 130.627C198.863 130.247 199.483 130.005 200.097 129.798C200.436 129.688 200.235 130.126 200.235 129.746C200.235 129.608 200.034 129.591 199.868 129.706C199.144 129.936 198.513 130.293 197.927 130.742C197.14 131.22 196.262 131.462 195.372 131.658C194.631 131.824 193.89 132.089 193.115 131.842C192.897 131.744 192.719 131.588 192.598 131.393C191.915 130.552 191.238 131.082 190.554 131.416C190.371 131.594 190.175 131.755 189.98 131.922C189.659 132.187 189.314 132.389 188.924 132.527C188.229 132.74 187.511 132.78 186.793 132.803C185.754 132.815 184.72 132.815 183.681 132.826C182.791 132.861 181.913 132.475 181.017 132.763C180.138 132.878 179.283 133.27 178.37 133.005C177.29 132.504 177.692 131.519 177.618 130.69C177.75 129.85 178.588 129.262 178.456 128.33C178.117 125.693 179.696 123.781 180.937 121.743C181.901 120.661 183.497 120.661 184.508 119.67C184.611 119.532 184.795 119.261 184.784 119.256C184.393 118.997 184.186 119.457 183.859 119.521C182.584 120.286 181.109 120.632 179.96 121.645C179.111 122.394 178.123 122.474 177.164 121.749C175.872 119.883 176.866 117.857 176.756 115.916C176.498 115.214 177.468 114.212 176.24 113.734C176.113 112.577 176.372 111.575 177.377 110.867C178.548 111.235 178.852 109.75 179.828 109.698C180.85 109.571 181.913 109.007 182.826 109.992C184.02 111.84 185.283 111.368 186.558 110.09C187.115 109.531 187.528 108.852 188.114 108.316C188.344 108.172 188.591 108.074 188.855 108.011C189.389 107.925 189.905 107.971 190.382 108.241C190.686 108.472 190.824 108.8 190.916 109.145C191.232 109.623 191.576 109.485 191.927 109.186C192.133 108.909 192.288 108.616 192.397 108.293C192.616 107.47 192.11 107.361 191.484 107.366C190.985 107.378 190.503 107.309 190.049 107.101C188.774 106.612 187.712 108.046 186.432 107.522C184.939 107.424 183.452 107.303 181.953 107.291C181.7 107.251 181.465 107.165 181.241 107.05C180.822 106.762 180.581 106.33 180.357 105.898C179.978 105.322 179.495 105.288 178.938 105.633C178.427 105.967 177.956 106.347 177.486 106.733C176.883 107.234 176.286 107.741 175.464 107.844C174.517 107.89 173.621 107.545 172.691 107.447C171.704 107.268 170.877 106.837 170.354 105.933C170.119 105.386 170.308 104.902 170.59 104.436C170.825 104.038 171.187 103.704 171.198 103.221C170.366 102.847 170.544 103.722 170.239 103.987C170.044 104.43 169.832 104.862 169.579 105.276C169.148 105.904 168.764 106.56 168.201 107.09C167.638 107.47 167.053 107.741 166.352 107.499C165.497 106.647 164.813 105.282 163.292 106.462C163.119 106.52 162.884 106.721 162.936 106.796C163.142 107.055 163.395 106.825 163.63 106.756C163.803 106.704 163.969 106.647 164.147 106.618C165.141 106.67 165.341 107.741 166.088 108.109C166.599 108.42 167.196 108.564 167.644 108.984C167.765 109.214 167.799 109.451 167.753 109.704C167.345 111.109 167.707 112.479 167.908 113.861C167.988 114.12 168.034 114.385 168.069 114.655C168.155 115.536 167.828 116.273 167.305 116.953C166.582 118.018 165.594 118.703 164.331 118.968C163.429 119.129 162.557 119.503 161.609 119.284C159.588 118.559 159.249 120.568 158.198 121.403C157.975 122.037 158.181 122.837 157.475 123.28C156.993 123.585 156.591 123.954 156.424 124.524C156.327 124.737 156.2 124.927 156.057 125.105C155.896 125.272 155.718 125.411 155.523 125.531C155.23 125.71 154.943 125.9 154.702 126.142C154.587 126.453 154.535 126.752 154.719 127.051C154.989 127.23 155.27 127.374 155.546 127.535C155.735 127.644 155.919 127.765 156.097 127.886C156.551 128.232 157.05 128.341 157.607 128.18C158.089 128.088 158.537 128.18 158.974 128.381C159.818 128.802 160.622 128.554 161.425 128.249C162.103 128.168 162.666 128.393 163.125 128.888C163.579 129.452 163.854 130.138 164.319 130.696C164.52 130.995 164.762 131.185 165.14 131.001C166.14 131.272 166.88 131.922 167.587 132.631C167.173 133.074 167.024 133.655 166.783 134.185C166.542 134.916 166.587 135.676 166.593 136.431C166.702 138.302 166.478 140.098 165.468 141.728C165.06 142.591 164.675 143.466 164.038 144.198C163.355 144.952 162.654 145.7 162.321 146.696C162.212 146.932 162.069 147.145 161.896 147.341C160.151 149.04 159.054 150.922 160.162 153.433L160.197 153.375Z" fill="#95A2B4"/>
</svg>
