<svg width="242" height="192" viewBox="0 0 242 192" fill="none" xmlns="http://www.w3.org/2000/svg">
<path d="M126.466 185.591C126.31 185.669 126.149 185.725 125.977 185.764C124.427 185.786 122.939 185.314 121.406 185.214C120.14 184.631 118.974 185.358 117.763 185.436C116.814 185.497 115.348 186.436 114.981 184.514C114.343 183.353 112.915 183.492 112.038 182.726C111.921 182.604 111.827 182.459 111.76 182.298C111.499 182.348 111.333 182.237 111.238 181.998C110.433 180.943 109.367 180.721 108.134 181.016C107.323 181.343 106.146 180.643 105.668 181.904C105.296 182.848 104.363 182.859 103.603 183.154C102.647 183.476 102.042 184.192 101.553 185.025L101.576 185.064C100.454 185.641 99.3931 186.402 98.027 186.169C97.7604 186.141 97.4883 186.125 97.2162 186.113C96.6942 186.097 96.1611 186.125 95.6613 185.919C94.9394 185.28 93.9564 185.98 93.2123 185.442C93.0624 185.364 92.9568 185.242 92.8957 185.081C92.457 184.186 91.3464 184.325 90.7411 183.687C90.2191 182.82 89.5638 182.037 89.1861 181.088C89.4027 179.988 89.8303 178.955 90.2468 177.922C91.1187 176.934 90.6244 175.634 91.0243 174.535C92.4737 173.802 93.1956 172.824 92.1516 171.242C90.7688 169.803 91.7018 167.865 91.0743 166.266C90.9243 165.744 90.5745 165.189 90.6578 164.711C91.1131 162.095 89.5804 162.834 88.2865 163.284C86.9926 163.728 86.0208 165.1 84.4047 164.617C83.1664 164.228 82.0168 164.822 80.8284 164.961C79.3568 165.588 77.9629 165.483 76.6579 164.528C75.786 164.95 74.9919 165.394 74.381 166.238C73.6258 167.282 73.2759 166.266 72.8872 165.744C71.2323 166.305 69.744 165.572 68.2113 165.161C65.8012 166.438 62.9023 165.389 60.5144 166.76C59.7814 167.049 59.8869 167.854 59.5204 168.376C58.9761 168.565 58.4264 168.759 57.8821 168.948C57.5212 169.67 56.7048 169.703 56.1273 170.098L56.1828 170.059C54.9444 170.237 53.6949 170.231 52.451 170.342C51.6624 170.62 50.8572 170.825 50.0075 170.636C49.7965 170.586 49.5855 170.536 49.3689 170.481C48.8358 169.987 48.7025 169.076 47.7973 168.97C45.7648 168.721 44.1988 167.643 42.8493 166.183C42.1163 165.194 43.2603 163.561 41.7053 162.856C39.5118 163.367 38.8732 160.324 36.7462 160.685C35.9854 159.957 36.1298 158.83 35.5523 158.019C35.4301 157.78 35.4579 157.553 35.6245 157.347L36.2464 156.731C36.7018 156.192 37.9291 156.559 37.8347 155.381C38.2068 155.109 38.5788 154.837 38.9509 154.571C39.6062 154.104 40.3559 153.932 41.1334 153.843C43.1492 154.51 44.432 152.744 46.1313 152.344C47.2142 152.122 47.3531 151.261 47.2587 150.422C47.0698 148.69 47.8584 147.412 48.9524 146.23L48.9358 146.263C50.0631 145.83 50.8794 145.008 51.6124 144.08C51.9068 143.136 51.4014 141.959 52.4288 141.232C55.2165 140.532 54.4835 138.033 55.0055 136.178C54.7778 135.229 54.6001 134.246 53.3673 134.085C51.307 134.085 49.53 136.783 47.2587 134.712C47.4641 134.29 47.9861 134.279 48.2249 133.946C47.0254 133.918 46.3979 132.585 45.1706 132.696C44.9318 132.696 44.693 132.668 44.4598 132.624C43.3602 132.23 43.1103 130.997 42.2496 130.369C42.1107 127.587 39.7561 127.198 37.868 126.315C36.9073 125.638 37.296 124.422 36.7685 123.572C36.7518 122.445 37.5015 122.223 38.4067 122.178C38.6344 120.968 37.5015 119.674 38.6344 118.524C39.1786 116.83 39.0564 115.17 38.4122 113.532C37.9291 112.66 37.8514 111.138 36.1854 112.116C35.1191 112.254 34.6249 111.46 34.0418 110.811C34.2695 108.956 33.6642 106.94 35.0858 105.307C36.4408 104.763 35.58 103.325 36.2242 102.497L36.1798 102.564C36.8184 101.648 36.352 100.615 36.4963 99.6429C36.0354 98.7488 35.8744 97.5604 34.486 97.5549C33.281 97.566 31.9537 97.355 31.6983 99.0876C31.6983 99.343 31.6983 99.604 31.7038 99.8595C31.3207 100.881 30.6098 101.292 29.538 101.009C28.6828 100.276 27.4889 100.77 26.5837 100.204C25.1232 100.109 24.1513 99.2875 23.4294 98.0935C22.0744 97.9991 21.0026 97.6215 21.2247 95.9278C21.5246 95.2891 20.5806 94.8171 20.9804 94.1618C21.9578 92.6402 21.1859 91.113 21.0082 89.5914C20.9582 88.7806 20.7083 88.0643 20.0086 87.5756C19.6532 87.3423 19.3366 87.0202 18.8535 87.098C18.4092 87.0813 18.0649 86.9314 17.9261 86.4649C17.454 85.6097 16.7155 85.0988 15.7881 84.8378C15.577 84.8378 15.366 84.8322 15.1605 84.8267C14.5108 84.1381 13.7555 83.5994 12.8837 83.2273C12.6227 82.7831 12.2173 82.572 11.723 82.5165C11.4454 81.739 11.6286 80.9283 11.5675 80.1341C11.4009 79.0124 10.2736 78.4737 9.94598 77.4463C9.93487 76.9188 9.79604 76.369 10.1903 75.9081C10.1903 75.6304 10.1903 75.3472 10.1959 75.0695C9.7405 74.4087 8.91306 74.9862 8.39105 74.5309C7.71355 74.1255 6.76393 74.3587 6.24747 73.5923C6.18639 73.4257 6.20305 73.2703 6.28635 73.1148C5.56997 72.3928 4.77029 71.8097 3.77625 71.5321H0C2.83774 68.8776 1.94366 64.7459 4.21496 62.0248C4.99242 61.0918 3.57633 60.6753 3.5319 59.8979C3.13207 59.3314 3.06543 58.765 3.53746 58.2041C5.29971 57.0601 6.18453 56.1272 6.19194 55.4053C5.89761 54.6833 6.26969 53.5838 5.04796 53.3783C4.47041 53.0007 4.38156 52.3565 4.17609 51.7734C4.05392 51.1625 4.10945 50.535 4.00949 49.9186C3.99283 49.1911 3.97617 48.4581 3.96506 47.7306C5.53665 46.9476 7.33592 47.9361 8.8964 47.0864C9.70718 46.5977 10.5679 46.5366 11.462 46.7976C12.1062 47.0586 12.7448 47.3307 13.4168 47.5029C15.0106 47.986 16.5155 47.4585 18.0427 47.1142C19.0534 47.1308 20.0808 47.092 20.9637 47.7306C21.8578 47.2086 22.9851 47.7528 23.8404 47.092C24.7955 46.3978 25.9617 46.781 26.9946 46.4866C27.4833 46.2312 28.0886 46.9198 28.5329 46.2923C29.7657 45.9646 31.1318 45.998 32.1037 44.965C32.6368 44.3153 33.2699 43.7766 33.9751 43.3213L33.9529 43.2324C34.6749 42.4327 35.3746 41.6108 36.3186 41.05C37.9069 41.8219 38.8787 43.0269 38.9787 44.8429C39.434 45.6037 39.8894 46.37 40.1227 47.2363C40.2948 47.6639 40.4614 48.0915 40.6336 48.5136C41.0223 49.3744 41.561 49.2522 41.9886 48.6191C42.5272 47.8194 42.9548 46.942 43.9655 46.6199C44.1544 46.4311 44.3487 46.2479 44.5375 46.059C44.9318 45.6481 45.4094 45.5592 45.9481 45.6814C47.4364 46.3811 48.808 46.0757 50.1242 45.2149C50.5129 45.165 50.8794 45.226 51.1737 45.5148C52.5287 46.4533 53.9171 47.3863 51.6458 48.8357C49.2245 49.3744 50.4296 50.5239 51.1793 51.6012C51.3626 51.579 51.5403 51.579 51.7235 51.6012C52.5676 52.362 52.1511 53.8948 53.4395 54.3779C54.0559 54.339 54.6945 54.2057 55.1332 54.8222C55.3609 55.9384 56.255 56.6103 56.8936 57.4489C57.2102 58.0764 57.9821 57.8487 58.4153 58.2485C58.5874 58.4374 58.7596 58.6262 58.9317 58.8205C60.7254 60.3588 61.4474 59.0704 62.1082 57.621C62.8468 56.888 62.136 55.5163 63.2855 54.961C65.1459 55.8939 64.2962 53.1062 65.6012 53.2783C66.4231 53.7781 67.606 53.4005 68.2502 54.3501L68.861 54.3779C70.2494 53.6504 70.105 52.1566 70.5714 50.9626C70.9324 49.4577 72.4318 50.1463 73.2704 49.5687C73.6813 48.2637 74.9419 48.1249 75.9415 47.6195C76.3302 47.2863 76.6967 46.892 77.2965 47.0697C78.4571 47.6084 78.2017 48.8246 78.5682 49.7409C78.8181 50.7183 79.8844 50.3573 80.423 50.8571C81.1505 51.6012 80.4619 52.7286 81.1394 53.4838C81.2338 53.6171 81.2171 53.7337 81.0839 53.8337C82.2945 55.533 83.8328 55.7273 85.9597 54.4334C86.7982 54.389 86.4428 52.5897 87.7423 53.2339C88.542 53.8503 88.8863 53.034 89.3861 52.7063C90.2246 52.6675 91.0909 52.5786 91.0521 53.8337C91.7851 54.7278 92.507 54.3668 93.2345 53.8281L96.0334 51.6068C95.5003 50.9404 95.7668 50.4184 96.3221 49.9408C97.0496 49.5687 97.7882 50.1018 98.5157 49.9186C99.7874 48.6858 100.632 47.0364 102.275 46.1757C103.852 46.8309 105.43 46.8809 107.018 46.2201C108.789 45.2316 110.855 46.6477 112.616 45.537C113.848 46.1368 115.381 47.3807 115.087 44.4819C115.009 43.7044 115.836 43.7766 115.998 43.2713C116.508 43.0547 116.903 43.3268 117.303 43.5656C117.858 43.9543 118.391 43.6434 118.93 43.5101C120.174 43.5434 121.495 44.4486 122.628 43.1824C122.428 42.7159 122.228 42.2439 122.023 41.7774C122.062 40.9944 121.418 40.2058 122.056 39.4284C122.056 39.234 122.056 39.0341 122.056 38.8397C121.157 37.4459 122.739 37.2293 123.178 36.474C123.367 36.3519 123.556 36.2241 123.739 36.102C124.289 34.8525 123.55 33.3864 124.389 32.1869C125.233 31.576 125.027 29.3103 127.026 30.5098C127.271 30.7874 126.993 30.4098 127.171 30.7208C127.415 31.154 127.832 31.3261 128.187 31.5927C128.015 31.2261 127.371 31.2539 127.437 30.6875C129.703 30.382 131.897 30.382 133.64 32.2146C134.262 32.8255 134.218 33.7529 134.701 34.4304C135.867 35.6355 136.989 34.7803 138.116 34.3527C138.888 34.7192 139.666 34.9524 140.499 34.5526C141.026 34.2805 141.498 33.864 142.137 33.8695C143.642 34.2472 145.452 34.2749 145.302 36.5851C145.68 37.307 145.769 38.1011 145.863 38.8897C145.213 39.8005 145.375 40.7001 145.874 41.6053C146.246 42.2828 147.035 42.5105 147.479 43.1102C148.679 43.2935 149.95 43.8322 150.845 42.4494C150.928 42.255 151.028 41.8829 151.1 41.8885C151.583 41.9163 151.805 42.2828 151.944 42.7048C152.388 43.3157 153.01 43.2268 153.666 43.238C155.109 43.2657 155.554 44.1043 155.243 45.4371C154.96 46.0701 154.637 46.6921 154.971 47.414C154.76 48.0638 154.754 48.7802 154.382 49.3799C153.693 49.8686 153.566 50.4184 154.188 51.057C155.109 51.2458 156.037 51.4346 156.959 51.6235C157.72 51.9622 158.136 52.6508 158.625 53.2728L158.602 53.2395C159.13 53.5227 159.552 53.967 160.085 54.2391C162.362 55.6718 161.829 55.4219 162.673 53.6226C163.734 51.3513 164.111 48.9634 164.939 46.6866C165.239 45.8591 166.088 45.2594 167.171 45.5259C167.96 44.9706 169.015 44.7374 169.42 43.7044C169.604 43.1102 170.02 42.9492 170.592 43.0658C171.336 43.7266 172.464 43.9155 172.913 44.9428C173.136 44.9484 173.358 44.9539 173.58 44.965C174.18 44.4264 174.99 44.493 175.679 44.2098C176.49 43.7822 177.745 43.8988 177.767 42.5049C178.006 41.9385 178.444 41.8108 179.005 41.9551C179.922 42.4549 180.46 43.3157 181.071 44.1098C181.86 44.4652 182.598 44.8928 183.187 45.5481C183.381 45.3538 183.576 45.1594 183.77 44.965C184.009 44.9539 184.248 44.9262 184.481 44.8873C185.275 44.8706 185.836 44.5985 185.847 43.6878C185.964 43.349 186.052 42.9936 186.319 42.7271C186.491 42.3772 186.663 42.0218 186.836 41.6719C187.502 40.7667 188.651 41.0777 189.496 40.6057C190.279 40.7667 191.056 40.9278 191.839 41.0944C192.405 42.1106 192.95 41.6997 193.494 41.0722C193.427 38.7842 195.377 36.8294 194.61 34.4249C195.782 33.4752 195.771 32.3424 195.115 31.1151L195.16 31.1651C194.283 29.8489 196.054 29.7767 196.204 28.9437C196.426 28.7105 196.654 28.4828 196.876 28.2496C197.831 28.1107 198.853 28.0608 198.947 26.7446C199.636 26.3726 199.019 25.9338 199.003 25.5285C198.309 23.5959 199.181 21.5412 198.52 19.6086C197.431 17.9315 199.93 17.9426 199.864 16.7431C201.124 15.849 202.49 15.1438 203.868 14.4552C204.995 14.4107 206.411 14.8328 206.361 12.9002C206.544 12.3116 206.727 11.7285 206.905 11.1398C207.366 10.2735 207.222 9.14064 208.088 8.45203C208.721 8.07441 209.81 8.63529 210.071 7.49131C211.681 5.90862 212.292 7.8967 213.319 8.3965C214.03 8.7297 214.735 9.22949 215.474 8.44093C215.635 7.24141 215.757 6.03634 216.146 4.8757L216.163 4.67023C216.229 3.99828 216.357 3.37075 217.201 3.28745C219.411 4.63691 218.256 2.13237 218.956 1.75474C218.923 1.57704 218.928 1.39378 218.961 1.21607C220.083 0.505247 220.911 1.21607 221.766 1.79917L221.699 1.74363C222.327 2.34339 223.182 2.06573 223.898 2.33229C224.681 2.89317 225.509 2.26565 226.308 2.4378C227.164 2.89872 226.558 4.02049 227.253 4.55361C227.73 4.77574 227.824 5.19224 227.813 5.66427C229.018 6.36954 230.407 5.59208 231.634 6.1363C232.872 7.66346 232.167 8.93517 231.101 10.1569C230.568 11.2731 230.979 12.4615 230.857 13.6055C231.012 14.8494 231.828 15.5936 232.839 16.1822L232.811 16.1434C233.722 17.0152 235.027 17.1041 236.038 17.7705C237.36 19.5364 238.687 21.3024 240.008 23.0683C240.203 23.2572 240.331 23.4904 240.403 23.757C240.453 24.9287 240.991 26.1615 239.992 27.2111C239.298 27.6165 238.603 28.0163 237.909 28.4217C236.893 28.8327 236.693 29.8378 236.282 30.6875C236.093 31.3095 235.782 31.837 235.216 32.1924C234.6 32.8366 233.311 33.2642 234.5 34.4748L234.472 34.4249C234.927 35.1801 235.777 34.4915 236.327 34.9247C236.904 35.5466 237.72 35.9964 237.809 36.9683C237.92 37.5125 237.626 37.8624 237.221 38.1567C237.704 38.7065 237.809 39.3506 237.72 40.0504C237.559 40.95 236.643 41.7885 237.482 42.7826C237.598 43.3101 237.571 43.7711 236.982 44.0099C236.099 43.56 236.016 44.7373 235.383 44.804C234.877 44.9706 234.361 44.9539 233.85 44.8595C233.339 44.7373 232.922 44.3875 232.162 44.2153C232.489 45.1316 232.734 45.9813 232.523 46.8476C232.434 47.9064 232.721 48.3303 233.383 48.1193C234.366 49.7353 234.239 50.3351 232.667 51.5068C231.434 51.9733 231.845 52.6175 232.473 53.2894C233.011 56.1827 230.89 58.0653 229.452 59.959C228.707 60.9364 227.68 62.408 226.07 62.7079C225.714 63.3298 224.359 62.3691 224.459 63.7186C224.509 64.124 224.554 64.5349 224.604 64.9403C223.432 65.5734 224.132 66.5674 224.126 67.4282C223.887 67.8058 223.593 67.9613 223.182 67.6892C222.838 67.6614 222.493 67.6336 222.149 67.6059C221.255 67.4226 220.983 68.1668 220.555 68.6777C219.928 69.4107 219.667 70.3714 219.05 71.11C218.811 71.21 218.578 71.21 218.339 71.1045C217.978 70.7546 217.612 70.3103 217.062 70.4936C216.54 70.6657 216.818 71.21 216.74 71.5931C216.729 72.0929 216.751 72.5983 216.579 73.0814C216.14 74.0144 215.352 74.6475 214.646 75.3472C214.469 75.5193 214.28 75.6693 214.091 75.8192C213.602 76.1691 213.219 76.6744 212.608 76.841C211.531 77.2131 210.631 75.7415 209.515 76.5523C208.893 76.7022 208.416 76.4301 207.983 76.0303C207.405 74.342 205.894 75.0529 204.767 74.7974C203.068 74.5753 203.434 75.4583 203.906 76.4023C204.512 77.3353 204.445 78.5959 205.356 79.3733C205.533 79.7399 205.528 80.1119 205.411 80.4951C204.895 81.367 204.723 82.411 204.062 83.2162L204.029 83.194C202.413 83.4772 200.758 83.4661 199.175 83.9548C198.475 84.1714 197.92 84.6323 197.309 85.0155C197.17 85.4153 196.248 84.1325 196.487 85.4098C196.626 86.165 196.887 86.9592 196.304 87.67C194.927 87.7144 193.799 87.3257 192.766 86.2872C192.122 85.6375 191.056 85.4042 190.179 84.9877C189.695 84.4102 189.162 84.177 188.518 84.7601C188.313 85.5431 187.924 85.0988 187.569 84.8989C186.708 84.649 186.836 83.6549 186.275 83.1774C185.93 83.3717 185.592 83.5661 185.247 83.7549C184.125 84.5657 184.742 85.3987 185.208 86.2372C185.308 86.8925 185.142 87.8199 184.42 87.2979C183.281 86.4649 182.671 87.5256 181.821 87.5867C181.188 87.2035 180.521 86.7592 180.716 88.1142C180.727 88.3197 180.738 88.5252 180.749 88.7307C181.204 89.3637 181.343 90.0524 181.149 90.8076C180.266 91.8016 180.405 93.2344 179.638 94.284L179.677 94.2507C178.833 94.6505 177.989 94.8338 177.145 94.2507L177.006 94.3062C175.379 92.979 174.002 94.2895 172.541 94.7227C171.508 94.6116 171.32 96.1055 170.248 95.9166C169.481 95.8611 168.743 95.9666 168.054 96.322C167.827 96.8885 167.349 96.9995 166.816 97.0218C165.722 98.1991 164.322 96.9551 163.145 97.4771C162.168 97.5049 161.574 97.9991 161.357 98.9488C160.974 99.0432 160.591 99.1431 160.202 99.2375C158.969 99.8484 158.13 100.742 158.075 102.197C158.053 102.88 159.036 103.525 158.164 104.247C157.086 104.696 157.459 106.085 156.592 106.668C156.059 107.079 155.587 107.579 154.91 107.767C153.638 107.606 152.355 107.606 151.078 107.573C150.5 107.429 149.978 107.145 149.417 106.973C148.107 106.312 146.657 105.757 146.935 103.841C146.641 102.942 147.113 101.87 146.313 101.081C145.108 100.615 143.786 101.142 142.581 100.648C141.526 100.509 140.526 100.57 139.76 101.459C139.777 101.637 139.777 101.814 139.76 101.992C138.988 103.78 137.9 105.374 136.656 106.862C136.078 107.34 135.456 107.362 134.812 107.018C134.368 105.824 133.474 106.357 132.685 106.462C131.502 107.64 131.936 108.9 132.485 110.166C132.752 110.816 133.129 111.444 132.957 112.193C132.385 113.354 132.485 114.587 132.557 115.814C132.296 117.036 130.936 116.819 130.297 117.541C129.114 118.785 130.658 119.985 130.358 121.212C130.442 121.984 130.803 122.461 131.652 122.423C131.769 122.6 131.886 122.778 132.008 122.956C132.28 123.883 132.707 124.672 133.729 124.949C134.529 125.96 135.473 125.999 136.523 125.355C137.25 125.221 137.889 124.699 138.683 124.866C139.382 125.171 140.177 125.171 140.86 125.532C141.487 125.971 141.365 126.993 142.215 127.254C143.37 127.754 144.658 127.854 145.774 128.459C146.841 129.908 147.585 131.636 149.301 132.524C150.372 133.857 151.705 133.218 152.983 133.024C154.121 132.28 155.093 132.357 155.842 133.59C157.381 133.557 158.886 133.957 160.424 133.935C161.324 134.801 163.134 134.657 163.201 136.439C163.04 137.15 161.512 136.928 162.051 138.116C162.273 138.905 162.495 139.693 162.179 140.504C161.335 142.498 160.124 144.48 161.862 146.607C162.834 147.224 163.367 148.262 164.178 149.034L164.122 149.001C164.65 149.428 165.239 149.65 165.927 149.495C166.799 149.051 167.499 149.467 168.176 149.956C169.509 150.572 170.736 151.35 171.847 152.31C171.864 152.533 171.886 152.76 171.903 152.982C172.625 153.971 171.569 155.331 172.602 156.253C173.263 157.231 174.057 157.569 175.09 156.786C175.657 156.387 176.018 156.898 176.456 157.092C176.906 157.342 177.428 157.47 177.756 157.914C178.844 159.335 178.106 160.913 178.122 162.423C178.122 162.556 178.089 162.679 178.011 162.79C177.623 163.678 177.939 164.378 178.6 164.983C178.805 165.594 179.25 165.944 179.844 166.144C180.532 167.149 181.682 167.615 182.515 168.448C182.465 168.826 182.415 169.198 182.365 169.576C181.749 170.309 181.582 171.031 182.421 171.73C183.298 171.669 183.953 171.958 184.225 172.863C183.715 173.519 183.015 173.996 182.526 174.674C182.332 174.818 182.115 174.924 181.882 174.996C180.36 174.962 180.216 176.54 179.294 177.217C178.606 177.689 177.856 177.872 177.034 177.695C175.829 177.2 174.54 177.034 173.274 176.784C171.447 173.208 167.105 173.552 164.489 171.181C163.728 170.492 163.223 171.575 162.584 171.797C162.096 171.769 161.612 171.708 161.196 171.419C160.541 170.942 159.841 170.992 159.124 171.258C158.08 170.786 157.52 169.57 156.276 169.415C155.942 168.526 155.387 167.754 154.998 166.893C154.621 166.138 154.132 165.444 153.838 164.65C151.883 164.733 150.15 164.161 148.634 162.923C147.835 162.173 146.702 163.001 145.885 162.34C145.674 162.345 145.458 162.351 145.247 162.356C144.769 161.585 144.747 160.479 143.642 160.174C142.542 158.924 141.443 157.159 140.31 160.146C139.41 160.563 138.411 160.724 137.55 161.246C136.611 163.745 137.678 165.405 139.805 166.621C139.86 167.604 140.388 168.593 139.76 169.57L139.805 169.515C139.31 170.07 139.105 170.764 138.877 171.442C138.777 172.019 138.877 172.569 139.121 173.097C139.149 173.208 139.177 173.319 139.199 173.43C138.96 174.479 138.383 175.307 137.55 175.973C137.822 176.795 138.466 177.339 139.027 177.945C139.333 178.428 139.716 178.766 140.338 178.7C140.56 178.728 140.754 178.816 140.91 178.977C140.371 180.449 139.832 181.915 139.294 183.387C138.189 182.998 138.644 184.281 138.1 184.497C138.189 185.597 137.433 186.374 137.028 187.285C136.145 187.674 135.284 188.113 134.312 188.251C132.846 187.946 131.475 187.419 130.27 186.508C129.392 186.252 130.186 183.97 128.32 184.908C127.715 185.192 126.971 185.092 126.454 185.608L126.466 185.591Z" fill="#95A2B4"/>
<path d="M130.347 186.114C131.636 186.675 132.924 187.235 134.212 187.791C134.651 188.596 134.34 189.357 134.079 190.129C133.94 190.379 133.729 190.517 133.446 190.556L133.224 190.523C132.696 191.106 132.169 191.706 131.569 190.595C130.964 190.756 130.353 190.917 129.747 191.078C128.87 190.406 127.648 191.278 126.81 190.423C126.327 189.512 126.515 188.646 126.993 187.802C127.198 187.68 127.398 187.557 127.604 187.435C127.182 186.741 127.293 186.175 128.004 185.747C128.859 185.392 129.642 185.525 130.353 186.114H130.347Z" fill="#95A2B4"/>
<path d="M199.031 83.6163C200.663 83.0943 202.224 81.7171 204.034 83.1776C203.212 86.4596 202.246 86.6817 199.564 84.205C199.303 84.0828 198.997 84.005 199.031 83.6163Z" fill="#95A2B4"/>
<path d="M196.309 87.6535C196.154 87.037 195.737 86.3373 195.904 85.832C196.148 85.0878 195.182 84.7769 195.56 84.0105C196.143 84.2937 196.704 84.5658 197.264 84.8379C197.67 84.8657 198.097 84.477 198.486 84.9046C198.686 85.8375 200.185 86.5039 198.903 87.7645C197.881 88.7697 197.142 88.281 196.304 87.6535H196.309Z" fill="#95A2B4"/>
<path d="M136.467 106.485C137.633 105.03 137.928 102.942 139.771 101.986C139.955 102.353 140.138 102.719 140.321 103.086C140.454 103.908 141.393 104.547 140.865 105.513C139.744 105.818 138.622 106.124 137.506 106.424C137.172 106.718 136.828 106.751 136.467 106.485Z" fill="#95A2B4"/>
<path d="M163.206 136.439C162.556 135.156 160.368 135.723 160.163 133.907C160.196 133.79 160.224 133.668 160.257 133.552C160.552 132.83 160.951 132.952 161.39 133.413C162.368 134.362 163.634 133.474 164.689 133.935C165.033 134.557 166.099 134.734 165.811 135.745C165.028 136.295 164.134 136.423 163.212 136.439H163.206Z" fill="#95A2B4"/>
<path d="M223.948 66.9064C223.51 66.6454 222.666 66.2233 222.699 66.14C223.015 65.3126 223.676 64.8794 224.604 64.9405C225.986 65.3459 227.114 66.0345 227.23 67.6283C227.28 68.3447 227.125 69.0222 226.175 68.3003C225.725 67.3673 224.287 68.0059 223.948 66.9008V66.9064Z" fill="#95A2B4"/>
<path d="M178.133 162.424C176.506 161.13 178.544 159.269 177.434 157.898C178.511 157.492 178.617 158.564 179.128 159.019L179.078 158.969C180.205 159.891 180.521 160.963 179.655 162.235C179.239 163.04 178.617 162.174 178.133 162.424Z" fill="#95A2B4"/>
<path d="M48.9526 146.23C48.4417 147.657 47.6364 148.951 47.7808 150.617C47.8586 151.494 47.6476 152.711 46.2092 152.727C45.9538 152.183 46.5647 152 46.6702 151.605C46.8645 149.573 46.0427 147.113 48.947 146.23H48.9526Z" fill="#95A2B4"/>
<path d="M117.069 43.8714C116.708 43.6715 116.347 43.4771 115.992 43.2772C116.653 42.1221 117.575 41.8111 118.702 42.5663C119.929 43.3827 121.268 43.2883 122.623 43.1883C121.662 45.3874 120.129 44.0657 118.774 43.8047C118.208 43.888 117.647 43.9991 117.075 43.8714H117.069Z" fill="#95A2B4"/>
<path d="M179.127 176.734C180.049 175.995 179.633 173.635 181.865 174.496C182.037 174.635 182.143 174.818 182.176 175.04C182.143 175.262 182.032 175.44 181.854 175.579C180.888 176.123 181.493 178.178 179.649 177.889C179.144 177.656 178.855 177.323 179.122 176.734H179.127Z" fill="#95A2B4"/>
<path d="M232.284 47.203C232.184 46.4978 232.278 45.6592 231.917 45.1205C231.595 44.6374 230.207 44.6096 230.884 43.7155C231.417 43.0158 232.545 43.1324 233.317 43.8766C233.517 44.0654 233.694 44.2709 233.883 44.4708C234.089 45.4926 233.394 45.2038 232.872 45.1705C233.344 45.8813 232.722 46.5311 232.761 47.2141C232.6 47.464 232.439 47.4529 232.278 47.2141L232.284 47.203Z" fill="#95A2B4"/>
<path d="M140.932 34.8972C139.793 35.7357 138.722 36.2633 138.116 34.353C138.86 33.8309 139.604 33.3089 140.354 32.7925C141.82 33.1423 141.287 34.0475 140.937 34.8972H140.932Z" fill="#95A2B4"/>
<path d="M46.6756 151.605C46.5201 151.977 46.3647 152.355 46.2147 152.727C44.471 152.827 43.4047 155.659 41.2167 153.954C41.2167 153.843 41.2167 153.727 41.2167 153.616C43.2492 153.521 44.7431 151.961 46.6812 151.605H46.6756Z" fill="#95A2B4"/>
<path d="M121.406 185.219C123.117 183.837 124.505 185.131 125.977 185.769C125.322 186.269 124.622 186.669 123.767 186.691C123.072 186.28 122.156 186.808 121.518 186.158C121.484 185.847 121.445 185.53 121.412 185.219H121.406Z" fill="#95A2B4"/>
<path d="M112.605 45.543C111.105 47.2868 108.873 45.7207 107.212 46.7426C106.829 46.6648 106.596 46.4371 106.507 46.0539C108.412 44.3435 110.572 45.693 112.605 45.543Z" fill="#95A2B4"/>
<path d="M151.422 106.962C152.616 107.112 153.915 106.573 154.982 107.523C155.509 107.667 155.604 107.962 155.27 108.395C154.532 110.316 153.282 107.501 152.461 108.695C150.717 108.956 150.978 108.012 151.422 106.962Z" fill="#95A2B4"/>
<path d="M161.968 146.719C161.624 146.674 160.974 146.613 160.974 146.591C161.102 144.664 160.124 142.654 161.401 140.827C161.474 140.721 161.751 140.76 161.929 140.732C162.085 140.849 162.129 140.96 162.073 141.065C162.018 141.165 161.957 141.221 161.901 141.221C162.612 142.948 159.991 144.708 161.957 146.419C161.957 146.519 161.962 146.619 161.968 146.719Z" fill="#95A2B4"/>
<path d="M80.512 164.473C81.8392 163.751 83.1442 163.556 84.4048 164.617C83.3108 165.084 82.5556 166.755 80.9951 165.6C80.6897 165.284 80.4842 164.928 80.512 164.473Z" fill="#95A2B4"/>
<path d="M154.76 45.5041C154.943 44.5545 155.093 43.6049 153.616 43.777C152.738 43.8826 151.933 43.9603 151.95 42.7108C152.488 42.7497 153.038 42.8719 153.566 42.8052C155.754 42.5387 156.298 43.5494 155.743 45.4819C155.421 45.8318 155.093 45.8706 154.76 45.5041Z" fill="#95A2B4"/>
<path d="M205.089 80.429C205.095 80.0236 205.1 79.6182 205.111 79.2128C204.961 79.074 204.923 78.9518 204.989 78.8407C205.056 78.7408 205.117 78.6908 205.178 78.6908C207.033 79.5349 206.011 81.4064 206.528 82.7336C206.639 83.0224 205.667 83.8387 204.834 83.2612C204.484 82.2782 204.528 81.3342 205.084 80.429H205.089Z" fill="#95A2B4"/>
<path d="M106.507 46.0537C106.74 46.2814 106.979 46.5146 107.212 46.7423C105.507 47.0144 103.719 48.0585 102.259 46.1814C103.675 46.137 105.091 46.0981 106.507 46.0537Z" fill="#95A2B4"/>
<path d="M182.526 168.443C181.027 168.46 179.938 167.921 179.65 166.305C179.938 165.828 180.294 165.894 180.677 166.172C181.377 166.533 182.099 166.86 182.776 167.255C183.82 167.86 182.943 168.11 182.526 168.438V168.443Z" fill="#95A2B4"/>
<path d="M21.358 89.2085C21.6579 90.8689 22.8296 92.5516 21.2358 94.1676C20.9138 94.1342 20.6916 93.9788 20.5917 93.6622C21.147 92.3905 20.4584 91.0855 20.6972 89.8027C20.3806 89.4473 20.4029 89.0641 20.5917 88.6642C21.097 88.4921 21.358 88.6587 21.358 89.2029V89.2085Z" fill="#95A2B4"/>
<path d="M42.2497 130.375C43.7213 130.27 43.8102 131.691 44.5154 132.424C44.7098 132.546 44.7709 132.663 44.7098 132.791C44.6487 132.913 44.5876 132.98 44.521 132.98L44.4766 133.013C44.2933 133.191 44.1101 133.368 43.9268 133.546C42.1275 133.146 42.3219 131.686 42.2441 130.375H42.2497Z" fill="#95A2B4"/>
<path d="M204.489 74.4313C205.367 74.3869 206.244 74.3202 207.122 74.3036C208.555 74.2813 208.455 75.0644 207.977 76.0195C206.789 75.0366 205.317 75.3143 203.956 75.1088C203.99 74.77 204.167 74.5424 204.489 74.4313Z" fill="#95A2B4"/>
<path d="M172.547 94.7116C173.935 93.5288 175.312 92.196 177.012 94.2951C175.468 93.8176 174.085 95.0893 172.547 94.7116Z" fill="#95A2B4"/>
<path d="M138.155 171.042C138.594 170.409 138.905 169.637 139.805 169.498C139.982 170.453 139.682 171.486 140.688 172.28C141.232 172.708 141.071 172.913 139.199 173.419L139.277 173.358C138.444 172.808 138.816 171.675 138.15 171.048L138.155 171.042Z" fill="#95A2B4"/>
<path d="M129.87 121.39C130.519 120.163 127.859 118.563 130.308 117.541C130.514 118.813 130.719 120.085 130.925 121.357C130.586 121.651 130.236 121.701 129.875 121.39H129.87Z" fill="#95A2B4"/>
<path d="M162.978 97.1163C164.239 96.2833 165.55 97.3385 166.821 97.0108C166.866 98.3603 165.838 98.1992 165.116 98.0326C164.2 97.816 163.35 97.8882 162.473 98.0826C162.168 97.5162 162.601 97.3329 162.973 97.1163H162.978Z" fill="#95A2B4"/>
<path d="M189.495 40.6171C189.151 42.3219 187.585 40.978 186.835 41.6833C187.069 39.4064 187.235 39.3398 189.495 40.6171Z" fill="#95A2B4"/>
<path d="M45.0706 132.43C46.67 132.108 47.7306 133.202 48.9413 133.902C48.1249 134.79 47.1587 134.285 46.2424 134.19C46.0091 133.641 45.6426 133.218 45.0762 132.991C44.9318 132.869 44.8873 132.746 44.9318 132.624C44.9818 132.502 45.0262 132.441 45.0762 132.441L45.0706 132.43Z" fill="#95A2B4"/>
<path d="M204.017 14.4553C203.034 15.9325 201.391 16.2213 199.875 16.7488C200.708 14.9995 202.518 14.7219 204.04 14.0166C204.217 14.1221 204.273 14.2221 204.206 14.322C204.145 14.4109 204.078 14.4609 204.017 14.4609V14.4553Z" fill="#95A2B4"/>
<path d="M132.496 110.161C130.941 108.307 131.014 106.946 132.696 106.457C132.247 107.673 132.491 108.923 132.496 110.161Z" fill="#95A2B4"/>
<path d="M142.581 100.604C144.047 100.482 145.558 99.6319 146.929 100.898C146.702 101.32 146.174 101.115 145.88 101.403C144.847 100.887 143.431 101.848 142.598 100.559L142.581 100.604Z" fill="#95A2B4"/>
<path d="M32.4147 45.0098C31.6094 46.7924 29.8768 46.3426 28.4607 46.6425C28.1331 46.3037 28.1275 45.965 28.4607 45.6207C29.5325 45.393 30.6098 45.1653 31.6816 44.9376C31.9537 44.6822 32.1981 44.7044 32.4202 45.0043L32.4147 45.0098Z" fill="#95A2B4"/>
<path d="M171.853 152.305C170.359 151.977 169.204 151.039 168.015 150.161C167.854 150.039 167.799 149.912 167.854 149.789C167.904 149.662 167.96 149.601 168.015 149.601C169.626 150.034 171.159 150.578 171.858 152.305H171.853Z" fill="#95A2B4"/>
<path d="M62.3636 57.7321C61.612 59.8387 60.4644 60.2052 58.9205 58.8317C60.1867 59.2593 60.9975 58.5318 61.7749 57.7099C61.9804 57.4933 62.1748 57.51 62.3636 57.7321Z" fill="#95A2B4"/>
<path d="M181.854 175.579C181.893 175.379 181.926 175.179 181.965 174.979C182.576 174.624 183.287 174.485 183.848 174.041C184.087 173.802 184.325 173.563 184.636 173.413C186.136 172.897 185.497 174.091 185.558 174.624C185.63 175.251 185.303 175.657 184.598 175.634C183.681 175.612 182.771 175.595 181.854 175.579Z" fill="#95A2B4"/>
<path d="M159.13 171.247C159.197 170.497 159.547 170.07 160.357 170.109C161.046 170.142 161.296 170.564 161.368 171.169C161.668 171.814 161.307 172.108 160.768 172.313C159.969 172.352 159.458 171.947 159.136 171.253L159.13 171.247Z" fill="#95A2B4"/>
<path d="M180.816 44.3874C180.316 43.5988 179.161 43.3322 179.078 42.2105C179.022 41.1442 179.655 41.3775 180.272 41.5718C180.794 42.266 181.21 43.0046 181.299 43.8876C181.438 44.3429 181.343 44.5706 180.821 44.3818L180.816 44.3874Z" fill="#95A2B4"/>
<path d="M216.157 4.88672C216.396 6.38056 216.157 7.83553 215.779 9.27383C215.396 9.11279 215.13 8.85178 215.057 8.42418C215.124 7.15247 214.791 5.75303 216.157 4.88672Z" fill="#95A2B4"/>
<path d="M50.0686 45.5539C48.8857 47.4365 47.6362 46.8534 46.3645 45.6594C46.6033 45.1818 46.9143 45.2207 47.2641 45.5261H48.9579C49.1911 45.1818 49.441 44.8097 49.9186 44.943C50.1963 45.0208 50.163 45.3095 50.0686 45.5483V45.5539Z" fill="#95A2B4"/>
<path d="M85.9485 54.4505C85.4098 56.6274 83.6939 55.1169 82.5721 55.4945C81.0616 55.9998 81.678 54.3172 81.0727 53.8507C82.611 54.7781 84.1603 55.5833 85.9485 54.4505Z" fill="#95A2B4"/>
<path d="M165.805 135.745C165.483 135.145 164.445 135.068 164.6 134.118C164.828 133.857 165.089 133.824 165.372 134.023C165.977 134.473 167.071 133.34 167.288 134.418C167.399 134.973 167.155 136.261 165.805 135.745Z" fill="#95A2B4"/>
<path d="M105.574 181.693C105.78 179.811 107.312 180.716 108.273 180.41C108.862 180.433 109.261 180.705 109.417 181.288C109.389 181.416 109.356 181.543 109.328 181.671C108.279 181.704 107.223 181.738 106.174 181.765C105.946 181.988 105.741 181.965 105.574 181.693Z" fill="#95A2B4"/>
<path d="M158.086 102.187C157.825 99.971 158.136 99.5378 160.213 99.2268C159.663 100.326 158.997 101.348 158.086 102.187Z" fill="#95A2B4"/>
<path d="M217.251 73.7478C217.556 74.7752 217.229 75.6637 216.212 75.8414C215.063 76.0413 215.213 77.1742 214.541 77.6518C213.93 77.0409 213.625 76.3578 214.019 75.5026L213.974 75.3083C215.002 74.9917 215.779 74.2809 216.607 73.6423C216.846 73.5423 217.062 73.5812 217.256 73.7478H217.251Z" fill="#95A2B4"/>
<path d="M150.85 42.4498C150.067 44.8433 148.596 44.0825 147.113 43.2662C147.141 43.044 147.263 42.9052 147.485 42.8663L150.85 42.4554V42.4498Z" fill="#95A2B4"/>
<path d="M31.6928 99.0931C31.865 97.1828 32.0593 97.044 34.575 97.0773C34.9804 97.3216 35.4191 97.5493 35.0914 98.1491C33.8642 98.1324 32.5036 97.6271 31.6928 99.0931Z" fill="#95A2B4"/>
<path d="M96.894 185.658C97.155 185.631 97.416 185.597 97.677 185.57C98.3656 186.192 99.3263 185.553 100.037 186.08C100.426 186.603 100.248 187.158 100.12 187.708C99.7206 188.33 100.137 189.59 98.7599 189.451L98.7821 189.468C97.8769 188.752 98.6211 187.347 97.6215 186.669C97.4382 186.669 97.255 186.658 97.0661 186.652C96.8107 186.358 96.7274 186.031 96.8884 185.664L96.894 185.658Z" fill="#95A2B4"/>
<path d="M214.019 75.5028C214.191 76.2192 214.363 76.9355 214.541 77.6519C213.625 78.1406 212.875 77.874 212.22 77.1521C212.297 76.8023 212.619 76.7634 212.869 76.6357C212.969 75.9693 213.175 75.4139 214.019 75.5028Z" fill="#95A2B4"/>
<path d="M205.178 78.6848C205.1 78.8514 205.078 79.0236 205.106 79.2068C204.04 78.5404 203.484 77.6241 203.684 76.3358C203.662 76.1081 203.762 75.997 203.99 75.9915C205.822 76.258 204.706 77.8185 205.173 78.6848H205.178Z" fill="#95A2B4"/>
<path d="M80.5119 164.473C81.1561 164.645 81.0672 165.128 80.995 165.6C79.5401 165.278 77.6686 166.638 76.6579 164.523C77.9463 164.661 79.2457 165.767 80.5119 164.467V164.473Z" fill="#95A2B4"/>
<path d="M179.644 94.2675C179.644 93.0402 179.705 91.8351 180.605 90.8633C181.16 90.63 181.354 90.8411 181.277 91.4019C180.088 91.9906 181.998 94.3452 179.644 94.273V94.2675Z" fill="#95A2B4"/>
<path d="M179.127 176.734C179.305 177.118 179.477 177.501 179.655 177.889C178.528 178.6 177.411 178.556 176.306 177.845C176.173 177.362 176.256 177.084 176.839 177.306C177.656 177.334 178.433 177.201 179.127 176.734Z" fill="#95A2B4"/>
<path d="M179.655 162.229C179.877 161.068 179.6 159.991 179.078 158.964C180.816 158.381 180.26 160.063 180.61 160.685C180.893 161.196 181.077 162.396 179.661 162.235L179.655 162.229Z" fill="#95A2B4"/>
<path d="M176.834 177.306C176.656 177.484 176.479 177.661 176.301 177.845C175.146 177.906 174.063 177.756 173.285 176.767C174.64 175.823 175.712 176.712 176.834 177.306Z" fill="#95A2B4"/>
<path d="M208.443 8.36339C207.722 9.18528 208.31 10.4959 207.372 11.24C207.094 11.1289 206.927 10.9124 206.8 10.6569C206.733 10.4848 206.666 10.3126 206.594 10.1405C207.111 9.32411 206.233 7.29716 208.477 7.96911C208.649 8.07462 208.699 8.16347 208.632 8.24677C208.571 8.32452 208.51 8.36339 208.443 8.36339Z" fill="#95A2B4"/>
<path d="M68.2113 165.161C69.8273 164.895 71.3712 165.184 72.8872 165.744C72.6706 165.894 72.4541 166.044 72.2375 166.189C71.2934 166.733 70.3549 166.322 69.4164 166.155C69.0166 165.822 68.1114 166.1 68.2113 165.161Z" fill="#95A2B4"/>
<path d="M12.8837 83.2332C14.5663 82.4502 14.8995 83.5942 15.1605 84.8326C13.9832 84.8937 12.7948 84.977 12.8837 83.2332Z" fill="#95A2B4"/>
<path d="M34.0362 110.811C34.958 110.789 35.4301 111.572 36.1242 111.96C36.313 112.016 36.3963 112.099 36.363 112.21C36.3297 112.338 36.2853 112.399 36.2353 112.399C34.3194 113.165 34.0806 112.993 34.0306 110.816L34.0362 110.811Z" fill="#95A2B4"/>
<path d="M234.511 34.475C234.044 34.1473 232.928 34.9081 233.045 33.964C233.15 33.0977 233.128 31.615 234.799 31.8094C235.094 31.8094 235.288 31.9537 235.388 32.2314C235.594 33.0255 234.999 33.4643 234.599 33.9863C234.455 34.1251 234.427 34.2917 234.516 34.4694L234.511 34.475Z" fill="#95A2B4"/>
<path d="M132.569 115.814C131.747 114.498 131.425 113.243 132.968 112.193C132.807 113.398 133.152 114.659 132.569 115.814Z" fill="#95A2B4"/>
<path d="M156.492 106.679C156.675 105.935 156.831 105.185 157.042 104.452C157.264 103.68 157.608 103.325 158.175 104.23C158.041 105.28 157.864 106.302 156.881 106.94C156.609 107.062 156.481 106.974 156.492 106.679Z" fill="#95A2B4"/>
<path d="M138.649 125.405C137.85 125.094 137.333 125.938 136.606 125.91C136.217 125.844 135.989 125.61 135.9 125.233C137.167 124.816 138.288 123.456 139.804 124.628C140.043 125.81 138.971 125.055 138.649 125.405Z" fill="#95A2B4"/>
<path d="M138.65 125.405C138.722 124.683 139.655 125.238 139.805 124.627C141.343 124.194 141.954 124.883 141.92 126.36C141.326 126.599 141.149 126.055 140.832 125.777C140.088 125.738 139.277 126.11 138.65 125.399V125.405Z" fill="#95A2B4"/>
<path d="M145.78 128.459C144.391 128.609 143.148 128.21 142.009 127.438C142.253 127.038 142.764 127.271 143.064 126.999C143.808 127.787 145.569 126.682 145.785 128.454L145.78 128.459Z" fill="#95A2B4"/>
<path d="M235.927 30.6598C236.021 29.4103 236.221 28.2497 237.915 28.4218C237.848 29.3326 237.509 30.0934 236.699 30.5876C236.46 30.7986 236.199 30.8208 235.927 30.6598Z" fill="#95A2B4"/>
<path d="M36.3187 41.0668C36.4076 42.7439 35.0359 42.8383 33.953 43.2493C34.003 42.6662 34.053 42.0886 34.1029 41.5055C34.6694 40.6503 35.358 40.4004 36.2299 41.0835L36.3132 41.0613L36.3187 41.0668Z" fill="#95A2B4"/>
<path d="M160.257 133.552C160.118 133.64 160.085 133.763 160.163 133.907C158.702 134.118 157.236 134.346 155.848 133.585C157.308 132.069 158.797 134.468 160.257 133.552Z" fill="#95A2B4"/>
<path d="M27.4055 46.7422C26.3448 47.5474 25.1342 46.9421 24.0069 47.0976C23.8625 46.9921 23.8181 46.8921 23.8736 46.8032C23.9291 46.7144 23.9791 46.67 24.0346 46.67C24.751 45.576 25.8672 46.2923 26.7724 46.0702C27.3944 45.9092 27.5277 46.2035 27.4055 46.7422Z" fill="#95A2B4"/>
<path d="M43.96 46.637C43.4047 47.4089 42.8938 48.2141 42.2885 48.9416C41.5166 49.869 40.8668 49.9356 40.6336 48.5306C41.972 49.0749 41.872 47.7254 42.1219 47.2034C42.605 46.1816 43.1604 46.1983 43.9656 46.637H43.96Z" fill="#95A2B4"/>
<path d="M78.2905 49.9463C77.9073 49.0578 77.5241 48.1637 77.1409 47.2752C77.2353 47.0142 77.413 46.8365 77.6741 46.7421C79.6843 47.0531 78.8569 48.5802 78.9402 49.7131C78.8291 50.0796 78.6126 50.1573 78.296 49.9463H78.2905Z" fill="#95A2B4"/>
<path d="M184.636 173.413C184.636 173.769 184.625 174.13 184.625 174.485C183.881 174.863 183.154 175.002 182.448 174.396C182.215 172.93 183.181 172.836 184.237 172.852C184.37 173.041 184.503 173.225 184.642 173.413H184.636Z" fill="#95A2B4"/>
<path d="M51.8457 144.781C50.5573 144.653 50.8239 147.552 48.9413 146.269C49.691 145.536 50.4462 144.797 51.1959 144.064C51.779 143.97 52.04 144.17 51.8457 144.781Z" fill="#95A2B4"/>
<path d="M236.749 43.9265C236.926 43.51 237.098 43.099 237.276 42.6825C237.082 41.9273 237.21 41.2165 237.521 40.5167C237.615 40.1169 237.804 39.8392 238.276 39.9503C238.259 41.4441 238.809 43.0046 237.782 44.3818C237.182 44.7928 236.743 44.8483 236.749 43.9154V43.9265Z" fill="#95A2B4"/>
<path d="M51.8457 144.78C51.6291 144.542 51.4125 144.303 51.196 144.064C51.2682 142.97 50.735 141.615 52.4344 141.237C52.1123 142.398 52.4843 143.675 51.8457 144.78Z" fill="#95A2B4"/>
<path d="M9.05735 47.1534C7.46355 48.2251 5.68094 47.6698 3.97052 47.7476C5.43659 46.2926 7.52464 47.7254 9.06846 46.6425C9.20729 46.7591 9.24616 46.8757 9.19618 46.9868C9.1462 47.0978 9.10178 47.1534 9.0518 47.1534H9.05735Z" fill="#95A2B4"/>
<path d="M204.017 14.4553C204.062 14.3109 204.067 14.1665 204.04 14.0165C204.584 13.9943 205.123 13.9721 205.667 13.9499C206.067 13.6445 205.883 13.1058 206.155 12.7559C206.383 12.6893 206.589 12.7226 206.777 12.867C207.022 15.4104 205.889 15.5715 204.017 14.4608V14.4553Z" fill="#95A2B4"/>
<path d="M89.2083 181.044C90.1912 181.566 91.0298 182.193 91.0187 183.459C90.1801 183.876 89.5748 183.337 88.9362 182.943L88.8251 181.143L88.9862 180.971L89.2139 181.044H89.2083Z" fill="#95A2B4"/>
<path d="M51.1681 51.6181C50.3573 51.2071 49.3022 50.8462 49.7409 49.68C50.0019 48.9914 50.6072 48.2139 51.6346 48.8525C50.1963 49.5578 51.0571 50.6518 51.1681 51.6181Z" fill="#95A2B4"/>
<path d="M218.995 70.9101C218.689 69.694 219.733 69.0165 220.133 68.0835C221.072 68.1446 221.149 68.8332 221.194 69.544L221.216 69.6107C220.583 70.2271 220.516 71.8098 218.995 70.9157V70.9101Z" fill="#95A2B4"/>
<path d="M216.124 71.5768C216.246 70.9437 215.868 69.9663 216.679 69.7886C217.379 69.6387 218.3 69.8775 218.489 70.9159C218.65 71.0714 218.689 71.2047 218.606 71.3158C218.528 71.4157 218.456 71.4657 218.384 71.4657C218.034 71.3102 217.684 71.1547 217.334 70.9992C216.984 71.3047 216.795 71.9433 216.124 71.5768Z" fill="#95A2B4"/>
<path d="M88.9305 182.943C89.6247 183.115 90.3189 183.287 91.013 183.459C91.374 184.309 92.9345 183.765 92.8956 185.081C91.7405 184.065 89.7635 184.559 88.925 182.943H88.9305Z" fill="#95A2B4"/>
<path d="M218.384 71.4656C218.417 71.2823 218.456 71.0991 218.489 70.9158C218.656 70.9547 218.828 70.9491 218.995 70.9047C220.133 71.1546 220.233 69.6219 221.216 69.6052C221.05 71.4045 220.661 72.8706 218.384 71.4656Z" fill="#95A2B4"/>
<path d="M236.049 17.7818C234.727 17.7263 233.267 17.954 232.822 16.1547C234.177 16.1436 235.283 16.6323 236.049 17.7818Z" fill="#95A2B4"/>
<path d="M203.995 75.9972C203.834 76.0583 203.734 76.1693 203.69 76.3415C202.54 75.9028 202.607 74.942 203.051 74.1812C203.446 73.5037 204.095 73.8147 204.49 74.4367C204.312 74.6644 204.134 74.8921 203.957 75.1142C203.968 75.4085 203.984 75.7028 203.995 76.0027V75.9972Z" fill="#95A2B4"/>
<path d="M133.713 190.051C133.601 189.235 133.84 188.502 134.212 187.791C135.173 187.736 136.017 187.019 137.033 187.275C136.728 188.041 136.156 188.374 135.345 188.33C134.695 188.802 134.984 190.168 133.713 190.051Z" fill="#95A2B4"/>
<path d="M193.494 41.0834C193.822 42.6883 192.761 42.8216 191.733 42.4884C190.49 42.0885 191.839 41.5832 191.839 41.1056C192.389 41.1 192.944 41.0889 193.494 41.0834Z" fill="#95A2B4"/>
<path d="M123.173 36.48C123.078 37.4018 121.906 37.8128 122.051 38.8457C121.534 38.5569 120.507 38.3348 120.718 37.8294C121.101 36.9076 122.19 36.6466 123.173 36.48Z" fill="#95A2B4"/>
<path d="M198.531 19.6144C199.653 21.5081 198.781 23.5683 199.014 25.5342C197.798 23.6461 198.742 21.5858 198.531 19.6144Z" fill="#95A2B4"/>
<path d="M138.672 178.339C138.322 177.534 137.333 177.034 137.555 175.962C138.616 177.029 140.265 177.44 140.915 178.967C140.688 179 140.46 179.033 140.238 179.067C139.594 179.083 139.083 178.822 138.672 178.339Z" fill="#95A2B4"/>
<path d="M135.901 125.233C136.134 125.46 136.367 125.682 136.606 125.91C135.345 126.732 134.396 126.421 133.729 125.105C133.652 124.855 133.746 124.727 134.007 124.722C134.49 125.449 135.223 125.244 135.901 125.233Z" fill="#95A2B4"/>
<path d="M151.422 106.962C151.383 107.773 151.383 108.556 152.461 108.695C152 109.983 151.095 109.684 150.845 108.817C150.584 107.906 149.784 107.651 149.423 106.968C150.089 106.968 150.756 106.968 151.422 106.968V106.962Z" fill="#95A2B4"/>
<path d="M20.7193 88.5753C20.7138 88.9862 20.7082 89.3971 20.7026 89.8081C20.0862 88.9084 19.4754 88.0033 18.8589 87.1036C19.3199 86.4761 19.7919 86.2373 20.275 87.0814C20.3917 87.5923 20.9637 87.9588 20.7193 88.5753Z" fill="#95A2B4"/>
<path d="M91.0799 166.272C92.1516 167.777 91.2242 169.709 92.1572 171.248C90.0914 169.959 91.3797 167.944 91.0799 166.272Z" fill="#95A2B4"/>
<path d="M140.932 34.8972C140.649 34.2197 141.321 33.2812 140.349 32.7925C141.659 31.7873 141.837 31.8984 142.137 33.8698L140.932 34.8972Z" fill="#95A2B4"/>
<path d="M97.6271 186.664C99.6152 186.936 98.5323 188.474 98.7877 189.462C97.0884 189.074 97.877 187.652 97.6271 186.664Z" fill="#95A2B4"/>
<path d="M89.2084 181.043H88.9974L88.8197 181.143C88.5253 179.716 89.6915 178.878 90.1858 177.767L90.158 177.723C90.5079 179.022 89.8637 180.033 89.2028 181.043H89.2084Z" fill="#95A2B4"/>
<path d="M154.165 49.3525C154.338 48.6528 154.51 47.9475 154.682 47.2478C154.443 46.6536 154.726 46.5425 155.237 46.648C155.67 48.0031 155.465 49.1859 154.299 50.1078C153.993 49.9023 153.949 49.6524 154.16 49.3581L154.165 49.3525Z" fill="#95A2B4"/>
<path d="M128.232 185.942C127.671 186.291 127.665 186.869 127.604 187.43C126.827 187.063 127.337 185.903 126.466 185.592C126.51 184.431 127.365 184.492 128.165 184.47C128.587 184.942 128.626 185.431 128.232 185.942Z" fill="#95A2B4"/>
<path d="M29.4491 100.887C30.4543 101.115 30.9263 100.154 31.7038 99.8651C32.1869 100.62 33.0032 101.526 31.1651 101.431C30.4043 101.392 29.5546 101.57 28.8882 100.976C29.0382 100.704 29.2214 100.659 29.4491 100.887Z" fill="#95A2B4"/>
<path d="M18.0482 47.1311C16.5765 47.7586 15.1604 48.7749 13.45 47.8086C13.8554 47.1755 14.6551 47.7198 15.1105 47.2533C16.0878 47.2144 17.0652 47.17 18.0482 47.1311Z" fill="#95A2B4"/>
<path d="M221.194 69.5389C220.838 69.0502 220.488 68.5671 220.133 68.0784C220.538 66.7956 221.255 66.7956 222.154 67.6008C221.299 67.984 222.432 69.3501 221.194 69.5389Z" fill="#95A2B4"/>
<path d="M168.01 149.601C168.01 149.79 168.01 149.978 168.01 150.162C167.282 149.628 166.549 149.356 165.822 150.167C165.378 149.751 164.783 149.479 164.528 148.868C165.85 148.335 167.021 148.501 168.004 149.595L168.01 149.601Z" fill="#95A2B4"/>
<path d="M9.05756 47.1531C9.05756 46.9809 9.06311 46.8088 9.06866 46.6422C9.99606 45.7981 10.9179 45.7648 11.8287 46.6644C11.9675 46.7755 12.0175 46.8865 11.973 47.0032C11.9286 47.1198 11.8842 47.1753 11.8398 47.1753C10.9124 47.1698 9.9794 47.1587 9.052 47.1531H9.05756Z" fill="#95A2B4"/>
<path d="M126.993 187.802L127.049 190.662C127.071 190.756 127.099 190.851 127.121 190.951C125.266 189.979 125.793 188.907 126.987 187.807L126.993 187.802Z" fill="#95A2B4"/>
<path d="M23.4294 98.0992C24.5345 98.699 25.2175 100.054 26.7225 99.9374C26.7725 100.332 26.7614 100.654 26.2338 100.326C24.9954 99.9652 23.2628 100.221 23.4294 98.0992Z" fill="#95A2B4"/>
<path d="M216.124 71.5766C216.529 71.3822 216.929 71.1878 217.334 70.999C217.306 71.9153 217.279 72.8316 217.251 73.7479C217.023 73.7923 216.796 73.8368 216.568 73.8812C216.207 73.8257 215.974 73.6535 216.007 73.2481C216.046 72.6928 216.085 72.1319 216.124 71.5766Z" fill="#95A2B4"/>
<path d="M195.121 31.1211C195.626 31.1378 196.576 31.4598 196.221 31.6986C195.154 32.4095 196.804 34.5808 194.616 34.4309C195.315 33.4091 195.165 32.2595 195.121 31.1211Z" fill="#95A2B4"/>
<path d="M161.968 146.719C161.984 146.619 161.979 146.519 161.957 146.419C162.812 147.191 164.356 147.385 164.183 149.034C162.706 148.968 162.79 147.413 161.968 146.719Z" fill="#95A2B4"/>
<path d="M35.0913 98.149C34.9191 97.7936 34.747 97.4327 34.5748 97.0772C36.5851 96.5552 36.1187 98.4045 36.6851 99.2708C36.5018 99.4818 36.3408 99.4763 36.2075 99.2208C35.8354 98.8654 35.4634 98.5044 35.0913 98.149Z" fill="#95A2B4"/>
<path d="M223.948 66.9065C224.648 67.4396 226.131 66.7288 226.175 68.3059C225.198 68.0172 224.043 68.5891 223.187 67.6895C223.443 67.4285 223.693 67.1675 223.948 66.9065Z" fill="#95A2B4"/>
<path d="M133.713 190.051C134.451 189.662 134.357 188.485 135.345 188.329C134.884 189.212 135.723 191.212 133.446 190.551C133.535 190.384 133.624 190.217 133.713 190.051Z" fill="#95A2B4"/>
<path d="M232.878 45.1595C233.217 44.9263 233.55 44.6931 233.889 44.4598C234.455 44.4321 235.027 44.3987 235.594 44.371C236.777 44.8208 235.994 45.1429 235.521 45.4872C234.594 45.7315 233.744 45.3817 232.878 45.1595Z" fill="#95A2B4"/>
<path d="M47.2641 45.5317C46.9421 45.4539 46.6089 45.3096 46.359 45.6705C45.8536 46.2481 45.1539 45.9982 44.5319 46.0759C44.8059 44.9578 45.7166 44.7764 47.2641 45.5317Z" fill="#95A2B4"/>
<path d="M100.087 186.191C99.2765 186.014 98.3213 186.397 97.6771 185.569C98.9766 185.403 100.276 185.236 101.581 185.07C101.381 185.425 101.187 185.786 100.987 186.141C100.704 186.436 100.404 186.436 100.087 186.191Z" fill="#95A2B4"/>
<path d="M217.212 3.5601C216.468 3.56566 216.74 4.51527 216.174 4.68187C215.646 4.09322 215.446 3.17693 215.974 2.82151C216.401 2.53274 217.468 2.56051 217.89 3.45459C217.695 3.69338 217.473 3.7267 217.218 3.5601H217.212Z" fill="#95A2B4"/>
<path d="M240.081 23.8851C240.058 23.613 240.036 23.3464 240.02 23.0743C241.697 22.7577 241.608 23.9628 241.702 25.0124C241.974 25.5344 241.652 25.6843 241.23 25.7676C240.347 25.44 240.281 24.6237 240.086 23.8795L240.081 23.8851Z" fill="#95A2B4"/>
<path d="M20.5972 93.6677C20.8138 93.8343 21.0248 94.0065 21.2414 94.1731C20.3973 94.7562 23.2461 95.3615 21.2247 95.9335C20.6083 95.2893 19.6198 94.7506 20.5972 93.6677Z" fill="#95A2B4"/>
<path d="M179.127 159.014C178.561 158.642 178 158.27 177.434 157.892C176.995 157.848 176.54 157.825 176.301 157.353C176.928 156.759 177.772 157.287 178.444 156.937C179.544 157.342 178.966 158.297 179.127 159.008V159.014Z" fill="#95A2B4"/>
<path d="M129.87 121.39C130.22 121.379 130.569 121.367 130.919 121.356C131.164 121.712 131.408 122.073 131.658 122.428C130.375 123.267 129.703 123.05 129.87 121.39Z" fill="#95A2B4"/>
<path d="M240.081 23.885C240.442 24.4459 240.797 25.0068 241.158 25.5732C241.513 26.2951 240.814 26.6672 240.614 27.2003C240.408 27.2003 240.203 27.2114 240.003 27.217C240.264 26.1119 239.57 24.9846 240.086 23.8906L240.081 23.885Z" fill="#95A2B4"/>
<path d="M205.089 80.4287C205.073 81.3783 205.323 82.3502 204.839 83.2609C204.578 83.2442 204.323 83.222 204.062 83.2054C204.029 82.1447 203.79 81.0063 205.084 80.4287H205.089Z" fill="#95A2B4"/>
<path d="M221.783 1.81056C220.85 1.6162 219.911 1.42183 218.978 1.22747C220.27 0.320427 221.205 0.514792 221.783 1.81056Z" fill="#95A2B4"/>
<path d="M93.2235 53.845C92.807 54.6558 92.3794 55.5276 91.2909 55.3499C91.1299 55.3222 91.1188 54.3725 91.0355 53.8505C91.7629 53.8505 92.4904 53.8505 93.2179 53.845H93.2235Z" fill="#95A2B4"/>
<path d="M185.214 86.2261C184.176 86.0262 183.987 85.2931 184.131 84.4157C184.231 83.8104 184.381 83.1329 185.253 83.7438C185.242 84.5712 185.225 85.3987 185.214 86.2261Z" fill="#95A2B4"/>
<path d="M52.3454 170.176C53.6115 169.804 54.8888 169.642 56.1771 170.059C55.0221 171.203 53.5449 170.342 52.2565 170.692C52.1343 170.553 52.101 170.431 52.1677 170.326C52.2287 170.226 52.2843 170.176 52.3398 170.176H52.3454Z" fill="#95A2B4"/>
<path d="M53.4285 54.3893C51.7625 54.1394 51.5792 52.9732 51.7125 51.6126C53.9227 51.5293 52.39 53.7507 53.4285 54.3893Z" fill="#95A2B4"/>
<path d="M182.432 171.72C181.454 172.053 181.465 171.32 181.415 170.731C181.36 170.07 181.46 169.465 182.371 169.565C182.387 170.281 182.41 170.998 182.426 171.72H182.432Z" fill="#95A2B4"/>
<path d="M15.7881 84.8435C17.0209 84.7047 18.015 84.8824 17.9261 86.4707C16.9376 86.2874 16.4434 85.4544 15.7881 84.8435Z" fill="#95A2B4"/>
<path d="M198.486 84.9046C198.092 84.6824 197.62 85.8709 197.265 84.8379C197.181 83.4607 198.236 83.7328 199.03 83.6162C199.208 83.8106 199.386 84.0049 199.564 84.2049C199.203 84.4381 198.847 84.6713 198.486 84.9046Z" fill="#95A2B4"/>
<path d="M180.721 88.0976C179.599 87.5756 179.81 86.5816 180.521 86.2262C181.704 85.6375 181.349 87.1314 181.826 87.5701C181.41 87.6423 180.932 87.5812 180.721 88.0976Z" fill="#95A2B4"/>
<path d="M217.212 3.56008C217.434 3.52676 217.662 3.48788 217.884 3.45456C218.684 3.1769 218.101 2.00515 218.967 1.76636C218.795 2.66044 219.689 3.78221 218.617 4.42639C217.984 4.80957 217.562 4.05432 217.206 3.55452L217.212 3.56008Z" fill="#95A2B4"/>
<path d="M206.305 12.8506C206.105 13.2227 206.328 13.8447 205.667 13.9502C205.583 12.5841 205.622 11.2457 206.6 10.1406C206.711 10.1906 206.816 10.185 206.922 10.1295C207.244 11.1569 206.944 12.0399 206.305 12.8506Z" fill="#95A2B4"/>
<path d="M232.85 16.1935C231.468 16.0991 230.596 15.4826 230.59 13.9832C230.773 13.7111 230.962 13.7056 231.157 13.9777C231.723 14.7163 232.289 15.4549 232.856 16.199L232.85 16.1935Z" fill="#95A2B4"/>
<path d="M181.277 91.3967C181.054 91.219 180.827 91.0413 180.605 90.8581C180.655 90.1417 180.705 89.4253 180.755 88.7145C182.226 89.3531 182.271 90.275 181.277 91.3967Z" fill="#95A2B4"/>
<path d="M112.044 182.732C113.265 182.937 114.693 182.793 114.987 184.52C113.91 184.081 112.666 183.914 112.044 182.732Z" fill="#95A2B4"/>
<path d="M10.2792 77.635C11.0844 78.1959 11.8563 78.7734 11.8175 79.9063C11.6009 80.1173 11.4121 80.0896 11.2455 79.8397C10.6513 79.7008 10.2959 79.3343 10.1737 78.7401C9.85715 78.3403 9.82383 77.9682 10.2792 77.635Z" fill="#95A2B4"/>
<path d="M105.574 181.693C105.774 181.715 105.974 181.743 106.174 181.765C106.085 183.265 104.819 183.137 103.863 183.437C103.253 183.642 103.13 183.354 103.253 182.826C104.136 182.665 104.946 182.371 105.574 181.688V181.693Z" fill="#95A2B4"/>
<path d="M124.388 32.1929C123.916 33.4535 124.877 34.9584 123.739 36.108C123.617 34.7474 122.922 33.2924 124.388 32.1929Z" fill="#95A2B4"/>
<path d="M90.158 177.717L90.1857 177.762C90.9243 176.806 89.7137 175.34 91.0243 174.535C91.2464 175.735 91.774 177.017 90.158 177.717Z" fill="#95A2B4"/>
<path d="M8.56318 74.2976C9.20736 74.342 10.057 73.9644 10.1959 75.0751C8.88527 75.5693 7.85235 74.6808 6.70282 74.3809C7.30258 73.8811 7.92455 73.9533 8.56318 74.2976Z" fill="#95A2B4"/>
<path d="M36.2353 41.089C35.5244 41.2278 34.8136 41.3722 34.1083 41.511C34.0806 40.6392 34.5248 40.1283 35.3689 40.0838C35.9909 40.0505 36.3852 40.3782 36.2353 41.089Z" fill="#95A2B4"/>
<path d="M180.271 41.5774C179.783 41.6163 179.344 41.7606 179.078 42.216C178.556 42.2105 178.083 42.3104 177.839 42.8435L177.573 42.8102C177.65 40.6 178.894 40.9443 180.271 41.5774Z" fill="#95A2B4"/>
<path d="M3.77625 71.5378C4.94799 71.5378 6.24191 71.3379 6.28634 73.1205C5.14791 73.065 4.51484 72.2209 3.77625 71.5378Z" fill="#95A2B4"/>
<path d="M47.7972 168.976C49.5965 168.154 49.1967 169.62 49.3688 170.487C48.3137 170.537 48.3581 169.443 47.7972 168.976Z" fill="#95A2B4"/>
<path d="M155.143 166.688C155.704 167.516 156.77 168.138 156.281 169.404C155.365 168.76 155.032 167.76 154.682 166.772C154.799 166.55 154.954 166.533 155.143 166.688Z" fill="#95A2B4"/>
<path d="M177.567 42.8105C177.567 42.8105 177.839 42.8439 177.834 42.8439C177.945 44.4099 176.823 44.3877 175.768 44.4432C175.618 44.3099 175.562 44.1711 175.601 44.0267C175.64 43.8823 175.685 43.8046 175.735 43.8046C176.112 43.0493 177.228 43.6491 177.567 42.8105Z" fill="#95A2B4"/>
<path d="M143.642 160.158C145.28 160.074 145.358 161.141 145.252 162.34C144.308 161.913 144.103 160.941 143.642 160.158Z" fill="#95A2B4"/>
<path d="M235.521 45.4873C235.566 45.1152 236.227 44.782 235.593 44.3711C235.877 43.9601 236.015 43.1827 236.743 43.9268C236.976 44.3378 237.354 44.41 237.781 44.3933C237.226 45.1652 236.471 45.5206 235.521 45.4929V45.4873Z" fill="#95A2B4"/>
<path d="M145.88 101.403C146.063 100.887 146.452 100.804 146.929 100.898C147.318 101.875 147.307 102.853 146.946 103.83C145.813 103.364 146.763 101.981 145.885 101.398L145.88 101.403Z" fill="#95A2B4"/>
<path d="M169.57 43.8045C169.465 45.3428 168.299 45.4095 167.171 45.5316C167.71 44.8152 168.343 44.221 169.187 43.8712C169.276 43.6213 169.404 43.5935 169.57 43.8045Z" fill="#95A2B4"/>
<path d="M35.8077 157.898C37.4015 158.403 36.5296 159.73 36.7462 160.696C36.5518 160.68 36.363 160.658 36.1686 160.641C35.63 159.78 34.8581 158.953 35.8077 157.898Z" fill="#95A2B4"/>
<path d="M35.8076 157.897C35.2523 158.903 36.2741 159.697 36.1686 160.641C34.386 159.808 34.8414 158.608 35.6299 157.353C35.691 157.536 35.7521 157.714 35.8132 157.897H35.8076Z" fill="#95A2B4"/>
<path d="M56.6103 57.6992C55.5496 57.0384 54.811 56.211 55.122 54.8337C55.583 55.1447 56.0328 55.4613 56.1549 56.0555C56.6825 56.4997 57.3933 56.8885 56.6159 57.6937L56.6103 57.6992Z" fill="#95A2B4"/>
<path d="M11.8452 47.1756C11.8619 47.0034 11.8563 46.8313 11.8341 46.6647C12.9281 46.859 14.0221 47.0534 15.1106 47.2533C14.7163 47.9142 14.0221 47.6809 13.4501 47.8087C12.9226 47.581 12.2006 47.8364 11.8452 47.1811V47.1756Z" fill="#95A2B4"/>
<path d="M161.896 141.221C161.896 141.06 161.901 140.899 161.923 140.738C161.968 139.866 162.012 138.994 162.057 138.117C162.79 139.194 163.545 140.266 161.901 141.221H161.896Z" fill="#95A2B4"/>
<path d="M232.284 47.2034C232.445 47.2256 232.606 47.2256 232.767 47.2034C233.106 47.4199 232.795 48.0752 233.389 48.1197C233.428 48.8138 233.589 49.769 232.428 49.2859C231.251 48.7972 231.695 47.9475 232.289 47.2034H232.284Z" fill="#95A2B4"/>
<path d="M165.378 134.023C165.122 134.057 164.861 134.085 164.606 134.118C163.445 134.085 162.279 134.051 161.118 134.001C161.096 134.001 161.035 133.807 161.074 133.751C161.157 133.624 161.285 133.524 161.396 133.413C162.69 133.846 164.184 132.979 165.383 134.023H165.378Z" fill="#95A2B4"/>
<path d="M152.988 133.019C151.633 133.768 150.295 134.435 149.306 132.519C150.439 133.368 151.777 132.741 152.988 133.019Z" fill="#95A2B4"/>
<path d="M134.007 124.728C133.857 124.816 133.763 124.944 133.729 125.111C132.18 125.172 132.041 124.111 132.013 122.962C132.68 123.55 133.341 124.139 134.007 124.728Z" fill="#95A2B4"/>
<path d="M36.2409 112.393C36.2853 112.227 36.252 112.082 36.1298 111.96C37.8625 111.083 38.1845 111.305 38.4067 113.532C37.657 113.204 37.5903 111.577 36.2409 112.393Z" fill="#95A2B4"/>
<path d="M70.5602 50.9739C70.3547 52.2956 71.1544 54.1171 68.8498 54.3892C69.4218 53.2507 69.5828 51.9068 70.5602 50.9739Z" fill="#95A2B4"/>
<path d="M38.6288 118.524C38.0457 119.713 39.1064 121.001 38.4011 122.178C37.9124 120.923 36.8573 119.635 38.6288 118.524Z" fill="#95A2B4"/>
<path d="M178.444 156.942C177.817 157.53 177.023 157.258 176.301 157.358C175.901 157.17 175.501 156.981 175.101 156.786C176.256 155.998 177.323 157.053 178.444 156.942Z" fill="#95A2B4"/>
<path d="M4.64247 51.6178C4.84239 52.1232 5.03676 52.6285 5.23667 53.1339C5.531 53.3616 5.51989 53.5726 5.20891 53.7669C3.5096 53.9891 4.40923 52.1676 3.58734 51.7011C3.90943 51.2846 4.26485 51.2957 4.64802 51.6178H4.64247Z" fill="#95A2B4"/>
<path d="M89.3749 52.7231C89.2805 53.7949 88.5586 54.117 87.6256 54.1781C87.6589 53.8671 87.6978 53.5561 87.7311 53.2507C88.2809 53.073 88.8307 52.9009 89.3749 52.7231Z" fill="#95A2B4"/>
<path d="M36.7627 123.573C37.6402 124.283 37.2737 125.494 37.8623 126.316C36.0464 125.983 36.8905 124.583 36.7627 123.573Z" fill="#95A2B4"/>
<path d="M98.7656 189.446C99.754 189.224 99.2043 188.096 99.8207 187.657C100.165 187.741 100.198 188.08 100.359 188.307C100.276 189.318 100.132 190.245 98.76 189.44L98.7656 189.446Z" fill="#95A2B4"/>
<path d="M81.1282 53.5006C80.0953 52.9786 80.9893 51.5347 79.9342 51.0238C79.6621 50.463 80.0953 50.2852 80.4507 50.0631C81.7613 50.9961 80.9505 52.3511 81.1282 53.5062V53.5006Z" fill="#95A2B4"/>
<path d="M80.4508 50.0576C80.2787 50.3797 80.1065 50.7017 79.9344 51.0238C79.1736 50.9905 78.0074 51.5792 78.2962 49.9465C78.5127 49.8687 78.7293 49.791 78.9403 49.7133C79.4457 49.8299 79.9455 49.9409 80.4508 50.0576Z" fill="#95A2B4"/>
<path d="M143.059 126.999C142.709 127.143 142.359 127.293 142.004 127.438C140.921 127.377 140.804 126.627 140.826 125.783C141.187 125.977 141.548 126.171 141.915 126.366C142.298 126.577 142.676 126.788 143.059 127.004V126.999Z" fill="#95A2B4"/>
<path d="M231.651 6.14772C230.368 6.05332 228.985 6.79746 227.83 5.67569C229.107 5.80897 230.49 5.09259 231.651 6.14772Z" fill="#95A2B4"/>
<path d="M208.444 8.36363C208.505 8.23591 208.516 8.10818 208.482 7.96935C209.016 7.81385 209.554 7.65281 210.087 7.49731C210.11 7.8916 210.904 8.24146 210.348 8.59132C209.765 8.96339 209.054 8.69683 208.449 8.36363H208.444Z" fill="#95A2B4"/>
<path d="M96.8941 185.658C96.9552 185.986 97.0107 186.319 97.0718 186.647C96.2166 186.996 95.5002 186.813 94.9171 186.091C94.806 185.608 94.8893 185.325 95.4724 185.558C95.9445 185.592 96.4221 185.625 96.8941 185.653V185.658Z" fill="#95A2B4"/>
<path d="M95.4725 185.564C95.2892 185.741 95.106 185.919 94.9171 186.097C94.334 185.914 93.4677 186.48 93.2123 185.447C93.962 185.558 94.7783 184.403 95.4725 185.564Z" fill="#95A2B4"/>
<path d="M231.157 13.9778C230.968 13.9778 230.779 13.9778 230.59 13.9833C230.796 12.7172 229.979 11.3066 231.118 10.1682L231.157 13.9778Z" fill="#95A2B4"/>
<path d="M96.6221 49.9745C96.4221 50.5243 96.2222 51.0685 96.0223 51.6183C95.3726 51.6516 94.9339 51.2628 94.8783 50.7131C94.8117 50.0022 95.3115 49.6135 96.0223 49.5358C96.2889 49.5913 96.4888 49.7412 96.6165 49.9745H96.6221Z" fill="#95A2B4"/>
<path d="M76.2081 47.7532C75.2252 48.364 74.2422 48.9749 73.2537 49.5802C73.2704 48.1363 74.0367 47.5477 75.4362 47.681C75.7138 47.4588 75.9693 47.481 76.2081 47.7532Z" fill="#95A2B4"/>
<path d="M103.253 182.826C103.458 183.032 103.664 183.232 103.864 183.437C103.092 183.97 102.325 184.498 101.553 185.031C101.603 183.904 102.281 183.254 103.247 182.832L103.253 182.826Z" fill="#95A2B4"/>
<path d="M212.875 76.6304C212.658 76.8026 212.442 76.9748 212.225 77.1469C211.326 76.9414 210.42 76.7415 209.521 76.536C210.681 75.0311 211.748 76.9359 212.881 76.6304H212.875Z" fill="#95A2B4"/>
<path d="M235.927 30.6597C236.182 30.6375 236.443 30.6153 236.699 30.5875C236.715 31.2206 236.754 31.8648 236.071 32.2313C235.699 32.5701 235.316 32.5589 234.922 32.2757C234.838 32.1313 234.794 31.9703 234.794 31.8037C235.172 31.4205 235.549 31.0373 235.921 30.6542L235.927 30.6597Z" fill="#95A2B4"/>
<path d="M134.701 34.4304C133.69 34.0083 133.552 33.1642 133.64 32.2146C134.768 32.5811 134.818 33.4696 134.701 34.4304Z" fill="#95A2B4"/>
<path d="M177.15 94.2343C177.995 94.2343 178.839 94.2343 179.683 94.2343C178.839 94.2232 178 96.761 177.15 94.2343Z" fill="#95A2B4"/>
<path d="M168.06 96.3111C168.66 95.4726 169.32 94.945 170.253 95.9057C169.631 96.6332 168.837 96.4333 168.06 96.3111Z" fill="#95A2B4"/>
<path d="M238.276 39.9563C238.081 40.1784 237.881 40.4005 237.687 40.6227C237.465 40.7226 237.287 40.6726 237.16 40.4616C237.187 39.6952 237.21 38.9233 237.237 38.157C238.359 38.3069 238.742 38.8845 238.281 39.9563H238.276Z" fill="#95A2B4"/>
<path d="M68.239 54.3613C67.4504 53.7782 66.1676 54.4057 65.5901 53.2895C66.5175 53.5339 68.0113 52.3788 68.239 54.3613Z" fill="#95A2B4"/>
<path d="M160.768 172.303C160.968 171.92 161.168 171.542 161.368 171.159C161.923 171.075 162.434 171.075 162.595 171.775C162.057 172.197 161.74 173.38 160.768 172.303Z" fill="#95A2B4"/>
<path d="M52.3456 170.175C52.3844 170.359 52.3567 170.531 52.2623 170.692C51.4904 171.63 50.7462 171.203 50.0076 170.642C50.7296 170.209 51.5126 170.053 52.3456 170.175Z" fill="#95A2B4"/>
<path d="M147.485 42.8606C147.363 42.9939 147.235 43.1272 147.113 43.2605C146.974 42.5052 145.119 43.0272 145.88 41.6056C146.613 41.7722 147.213 42.1054 147.485 42.8606Z" fill="#95A2B4"/>
<path d="M224.465 63.7188C223.921 63.5466 223.36 63.2356 223.748 62.6303C224.493 61.4697 225.27 63.2245 226.081 62.7081C225.82 63.4855 224.692 62.8858 224.47 63.7188H224.465Z" fill="#95A2B4"/>
<path d="M26.2339 100.326C26.3949 100.198 26.5615 100.065 26.7226 99.9374C27.439 100.804 28.8217 99.7486 29.4493 100.881C29.2604 100.909 29.0772 100.943 28.8884 100.97C28.0443 100.576 26.9947 101.042 26.2339 100.326Z" fill="#95A2B4"/>
<path d="M180.816 44.3878C180.977 44.2212 181.138 44.0546 181.293 43.8936C182.298 44.0157 183.043 44.4378 183.181 45.5484C182.393 45.1597 181.604 44.7765 180.816 44.3878Z" fill="#95A2B4"/>
<path d="M186.319 42.7383C186.28 43.1326 186.236 43.5324 186.197 43.9267C185.847 44.8708 185.125 45.0707 184.225 44.9152C184.075 44.9596 183.925 44.9818 183.77 44.9707C184.492 44.0766 185.242 43.2214 186.324 42.7383H186.319Z" fill="#95A2B4"/>
<path d="M172.919 44.9486C172.236 44.3655 171.098 44.3766 170.781 43.316C170.964 43.0994 171.153 43.0994 171.342 43.3104C172.308 43.4326 173.041 43.7824 172.919 44.9486Z" fill="#95A2B4"/>
<path d="M37.8403 155.381C38.7511 157.531 36.874 156.398 36.2521 156.731C36.4131 155.848 37.2184 155.72 37.8403 155.381Z" fill="#95A2B4"/>
<path d="M178.35 165.167C177.112 164.528 177.273 163.701 178.022 162.79C178.195 163.351 178.367 163.917 178.539 164.484C178.833 164.811 178.767 165.039 178.345 165.172L178.35 165.167Z" fill="#95A2B4"/>
<path d="M175.74 43.8043C175.751 44.0153 175.762 44.2319 175.773 44.4429C175.201 45.2759 174.329 44.865 173.585 44.9705C173.891 43.821 174.835 43.8487 175.74 43.8043Z" fill="#95A2B4"/>
<path d="M140.865 105.513C140.449 104.758 140.138 103.975 140.321 103.086C140.143 103.975 143.398 104.097 140.865 105.513Z" fill="#95A2B4"/>
<path d="M41.7054 162.862C43.9878 163.318 42.3662 165.111 42.8494 166.189C41.5554 165.395 42.4551 163.845 41.7054 162.862Z" fill="#95A2B4"/>
<path d="M62.3636 57.7325C62.1692 57.727 61.9693 57.7214 61.7749 57.7103C62.619 56.9828 61.5306 55.2058 63.2798 54.9725C62.3969 55.7 63.3243 57.0273 62.3691 57.7325H62.3636Z" fill="#95A2B4"/>
<path d="M56.6105 57.6992C56.9437 57.0161 56.405 56.5774 56.1495 56.0609C57.7489 55.9277 57.2269 57.9657 58.3986 58.2656C57.7656 58.1879 57.0047 58.5155 56.6049 57.6992H56.6105Z" fill="#95A2B4"/>
<path d="M142.581 100.604C142.581 100.604 142.598 100.565 142.598 100.559C141.654 100.854 140.715 101.154 139.771 101.448C140.11 99.1823 141.659 100.926 142.581 100.598V100.604Z" fill="#95A2B4"/>
<path d="M137.55 161.229C138.272 160.374 139.205 160.041 140.31 160.13C139.666 161.19 138.699 161.429 137.55 161.229Z" fill="#95A2B4"/>
<path d="M227.264 4.56491C225.742 4.39831 226.847 3.05996 226.32 2.4491C227.819 2.6268 227.175 3.75968 227.264 4.56491Z" fill="#95A2B4"/>
<path d="M36.2241 102.497C35.7077 103.38 37.4403 105.168 35.0857 105.307C36.052 104.608 35.1357 103.147 36.2241 102.497Z" fill="#95A2B4"/>
<path d="M158.63 53.2786C157.792 53.0176 157.27 52.4345 156.964 51.6293C158.563 51.1239 158.336 52.4623 158.63 53.2786Z" fill="#95A2B4"/>
<path d="M41.2111 153.616C41.2166 153.727 41.2222 153.843 41.2111 153.955C40.4558 154.16 39.7006 154.365 38.9509 154.571C39.384 153.494 40.1893 153.31 41.2111 153.616Z" fill="#95A2B4"/>
<path d="M232.478 53.2896C230.906 52.5343 231.279 51.5625 232.373 50.8184C232.806 50.524 232.606 51.2404 232.672 51.507C232.128 52.0512 232.245 52.6621 232.478 53.2896Z" fill="#95A2B4"/>
<path d="M155.143 166.688C154.982 166.683 154.832 166.711 154.682 166.772C154.049 166.2 153.766 165.489 153.843 164.634C154.487 165.183 154.904 165.883 155.143 166.688Z" fill="#95A2B4"/>
<path d="M178.35 165.167C178.417 164.939 178.478 164.712 178.544 164.478C178.7 165.745 180.244 165.261 180.677 166.172C180.333 166.217 179.994 166.261 179.649 166.305C178.85 166.339 178.294 166.1 178.35 165.167Z" fill="#95A2B4"/>
<path d="M32.4147 45.0094C32.1703 44.9872 31.9204 44.965 31.6761 44.9427C32.3591 44.2875 32.8312 43.3212 33.9807 43.3434C33.6975 44.1264 32.9978 44.5151 32.4147 45.0149V45.0094Z" fill="#95A2B4"/>
<path d="M69.4164 166.155C70.3604 165.589 71.2934 166.45 72.2375 166.189C71.2878 167.127 70.3493 167.121 69.4164 166.155Z" fill="#95A2B4"/>
<path d="M172.608 156.248C171.108 155.426 172.241 154.049 171.908 152.977C173.102 153.86 172.047 155.226 172.608 156.248Z" fill="#95A2B4"/>
<path d="M50.0687 45.5537C49.7133 44.9318 49.3245 45.526 48.958 45.526C49.1135 45.0151 49.1302 44.3931 49.8743 44.3431C50.7129 44.2876 50.9294 44.9207 51.1682 45.526C50.8017 45.5315 50.4407 45.5426 50.0742 45.5482L50.0687 45.5537Z" fill="#95A2B4"/>
<path d="M4.64265 51.6183C4.28724 51.6461 3.93738 51.6739 3.58197 51.7016C3.50423 51.0574 3.39316 50.4021 4.02068 49.9357C4.73151 50.3077 4.62599 50.9852 4.64265 51.6183Z" fill="#95A2B4"/>
<path d="M139.76 169.554C140.088 168.576 139.221 167.582 139.805 166.605C140.776 167.604 140.676 168.582 139.76 169.554Z" fill="#95A2B4"/>
<path d="M164.534 148.873C165.239 149.034 165.933 149.206 165.827 150.173C164.611 150.722 164.528 149.628 164.123 149.001C164.234 148.884 164.372 148.84 164.534 148.879V148.873Z" fill="#95A2B4"/>
<path d="M36.2075 99.2154C36.363 99.2487 36.5241 99.2654 36.6851 99.2654C36.5574 100.37 37.357 101.62 36.1742 102.558C36.1853 101.442 36.1964 100.326 36.202 99.2098L36.2075 99.2154Z" fill="#95A2B4"/>
<path d="M215.052 8.42456C215.291 8.70778 215.535 8.99099 215.774 9.27421C214.635 9.88508 214.036 8.99099 213.33 8.40234C213.902 8.4079 214.48 8.419 215.052 8.42456Z" fill="#95A2B4"/>
<path d="M171.336 43.3103C171.147 43.3103 170.964 43.3103 170.775 43.3158C170.214 43.0826 169.787 43.1881 169.565 43.8045C169.431 43.7879 169.304 43.8045 169.182 43.8711C169.076 43.1825 169.237 42.5439 169.992 42.4884C170.509 42.4495 171.314 42.3607 171.336 43.3103Z" fill="#95A2B4"/>
<path d="M40.1227 47.2531C39.2786 46.6756 38.9954 45.837 38.9788 44.8596C39.7507 45.4705 40.7669 45.9647 40.1227 47.2531Z" fill="#95A2B4"/>
<path d="M162.978 97.1163C162.812 97.4383 162.645 97.7604 162.479 98.0825C162.107 98.3657 161.74 98.6545 161.368 98.9377C161.312 97.8104 161.329 96.7442 162.978 97.1163Z" fill="#95A2B4"/>
<path d="M27.4057 46.7424C27.1946 46.5203 26.9836 46.2926 26.7726 46.0705C27.178 45.3319 27.8166 45.4818 28.4497 45.6262C28.4497 45.965 28.4497 46.3037 28.4497 46.648C28.1498 47.1867 27.75 46.7313 27.4001 46.748L27.4057 46.7424Z" fill="#95A2B4"/>
<path d="M121.512 186.153C122.284 186.23 123.2 185.708 123.761 186.686C122.867 187.125 121.873 187.98 121.512 186.153Z" fill="#95A2B4"/>
<path d="M100.359 188.313C100.182 188.096 99.9984 187.88 99.8207 187.663C99.9095 187.174 99.9984 186.68 100.087 186.191C100.387 186.175 100.687 186.158 100.987 186.141C101.248 187.002 100.365 187.53 100.359 188.313Z" fill="#95A2B4"/>
<path d="M96.6219 49.9743C96.422 49.8299 96.2221 49.6799 96.0277 49.5356C96.8718 49.5411 97.7992 49.0635 98.5045 49.9298C97.9047 51.1071 97.2494 50.0131 96.6219 49.9743Z" fill="#95A2B4"/>
<path d="M24.0346 46.6703C24.0235 46.8147 24.0124 46.9591 24.0068 47.1034C23.1794 48.1863 22.0299 47.7643 20.9692 47.7476C21.7577 46.7314 23.1961 47.5533 24.0346 46.6703Z" fill="#95A2B4"/>
<path d="M186.28 83.161C187.191 83.372 187.302 84.1884 187.574 84.8825C185.975 85.188 186.369 83.994 186.28 83.161Z" fill="#95A2B4"/>
<path d="M145.869 38.8898C145.063 38.2734 145.374 37.3793 145.308 36.5852C146.091 37.2072 146.874 37.8347 145.869 38.8898Z" fill="#95A2B4"/>
<path d="M240.614 27.2002C240.797 26.6559 240.975 26.1117 241.158 25.573C241.341 25.3898 241.519 25.201 241.702 25.0177C242.546 26.3449 241.408 26.6892 240.619 27.2002H240.614Z" fill="#95A2B4"/>
<path d="M237.82 36.9742C237.359 36.269 236.243 36.0857 236.238 35.0139C236.565 34.6918 236.882 34.7029 237.187 35.0417C237.704 35.5859 238.47 36.0524 237.815 36.9798L237.82 36.9742Z" fill="#95A2B4"/>
<path d="M237.193 35.036C236.876 35.0249 236.56 35.0194 236.243 35.0083C235.793 34.403 234.561 36.1689 234.488 34.4252C235.344 34.8472 236.482 33.9809 237.193 35.0305V35.036Z" fill="#95A2B4"/>
<path d="M234.927 32.2812C235.31 32.2646 235.694 32.2479 236.077 32.2368C236.077 33.2309 235.527 33.7751 234.6 33.9917C234.711 33.4197 234.822 32.8532 234.927 32.2812Z" fill="#95A2B4"/>
<path d="M136.467 106.485C136.811 106.463 137.161 106.446 137.505 106.424C136.917 108.006 135.956 107.923 134.818 107.012C135.384 106.896 136.1 107.223 136.467 106.479V106.485Z" fill="#95A2B4"/>
<path d="M198.959 26.7505C199.475 28.9107 198.026 28.3665 196.887 28.2554C197.598 27.7834 198.52 27.6001 198.959 26.7505Z" fill="#95A2B4"/>
<path d="M53.3728 134.09C55.3998 133.629 55.1443 134.957 55.011 136.184C54.4668 135.484 53.917 134.79 53.3728 134.09Z" fill="#95A2B4"/>
<path d="M46.2368 134.185C47.1365 134.09 48.0361 133.996 48.9357 133.896C49.1079 135.668 47.7196 134.235 47.2586 134.712C46.9088 134.546 46.3812 134.729 46.2368 134.179V134.185Z" fill="#95A2B4"/>
<path d="M111.538 181.682C111.611 181.887 111.688 182.093 111.76 182.304C110.716 182.976 109.989 182.454 109.328 181.665L109.295 181.699C110.039 181.043 110.783 181.204 111.533 181.682H111.538Z" fill="#95A2B4"/>
<path d="M196.209 28.9492C196.97 30.2098 194.588 29.9932 195.165 31.1705C193.727 29.5878 195.404 29.4712 196.209 28.9492Z" fill="#95A2B4"/>
<path d="M156.492 106.68C156.565 106.852 156.692 106.941 156.881 106.941C156.737 107.857 155.632 107.707 155.276 108.384C155.182 108.096 155.082 107.807 154.987 107.513C155.332 106.952 155.798 106.602 156.492 106.674V106.68Z" fill="#95A2B4"/>
<path d="M127.437 30.6935C127.693 31.4487 128.681 30.8267 129.048 31.6375C128.154 31.5153 126.904 32.3539 127.021 30.5157C127.121 30.6601 127.26 30.7212 127.432 30.6935H127.437Z" fill="#95A2B4"/>
<path d="M138.105 184.487C138.138 183.731 138.416 183.093 139.038 182.632C139.127 182.882 139.21 183.126 139.299 183.376C138.994 183.842 138.755 184.381 138.105 184.487Z" fill="#95A2B4"/>
<path d="M5.20355 53.7675C5.21466 53.5565 5.22577 53.3454 5.23132 53.1344C6.89176 53.3288 6.20315 54.5172 6.19204 55.4168C5.40347 55.1447 6.05876 54.0007 5.20355 53.7675Z" fill="#95A2B4"/>
<path d="M11.2509 79.8347C11.4397 79.8569 11.6285 79.8791 11.8229 79.9013C11.7896 80.7732 11.7563 81.645 11.723 82.5169C10.8233 81.7505 11.3453 80.7398 11.2509 79.8291V79.8347Z" fill="#95A2B4"/>
<path d="M76.2081 47.753C75.9527 47.7308 75.6972 47.7086 75.4362 47.6808C75.886 46.6701 76.6135 46.3203 77.6686 46.7423C77.4909 46.92 77.3132 47.0977 77.1355 47.2699C76.8245 47.4309 76.5136 47.5864 76.2026 47.7475L76.2081 47.753Z" fill="#95A2B4"/>
<path d="M122.051 39.4342C122.039 40.2172 122.028 41.0002 122.017 41.7833C121.473 40.9947 120.984 40.2061 122.051 39.4342Z" fill="#95A2B4"/>
<path d="M160.085 54.2445C159.258 54.4055 158.775 54.0612 158.602 53.2449C159.752 52.6063 159.763 53.6558 160.085 54.2445Z" fill="#95A2B4"/>
<path d="M155.243 46.6421C155.059 46.842 154.871 47.0419 154.687 47.2418C153.827 46.6254 154.637 46.0756 154.76 45.5037C155.087 45.4981 155.415 45.4926 155.742 45.4814C155.576 45.8702 155.409 46.2534 155.243 46.6421Z" fill="#95A2B4"/>
<path d="M10.2793 77.6353C10.246 78.0018 10.2126 78.3683 10.1738 78.7404C9.14085 77.7963 9.24637 76.8578 10.1849 75.9193C10.2182 76.4913 10.246 77.0633 10.2793 77.6408V77.6353Z" fill="#95A2B4"/>
<path d="M8.56324 74.298C7.94127 74.3258 7.32485 74.3535 6.70288 74.3813C6.26972 74.2813 5.75327 74.2369 6.24751 73.5983C6.96389 74.0148 8.03568 73.2595 8.56324 74.298Z" fill="#95A2B4"/>
<path d="M56.1273 170.098C56.4883 169.371 57.1824 169.154 57.8822 168.949C58.1987 170.703 56.9714 170.115 56.1273 170.098Z" fill="#95A2B4"/>
<path d="M154.165 49.3525C154.21 49.6024 154.26 49.8523 154.304 50.1022C154.265 50.4243 154.232 50.7464 154.193 51.0685C153.31 50.5132 152.388 49.9523 154.165 49.3525Z" fill="#95A2B4"/>
<path d="M59.5204 168.376C59.4981 167.621 59.015 166.583 60.5144 166.76C60.0479 167.216 60.9364 168.499 59.5204 168.376Z" fill="#95A2B4"/>
<path d="M3.5375 58.2155C3.5375 58.782 3.5375 59.3428 3.53194 59.9093C3.02104 59.6705 2.52124 59.3595 2.52124 58.7486C2.52124 58.06 3.121 58.2488 3.54305 58.2155H3.5375Z" fill="#95A2B4"/>
<path d="M145.891 162.323C146.791 162.596 147.929 161.74 148.64 162.907C147.718 162.729 146.613 163.434 145.891 162.323Z" fill="#95A2B4"/>
<path d="M223.909 2.34333C222.949 2.99307 222.254 2.64876 221.71 1.75468C222.438 1.96571 223.393 1.33263 223.909 2.34333Z" fill="#95A2B4"/>
<path d="M127.121 190.945C127.187 190.823 127.165 190.728 127.049 190.656C127.959 190.728 128.998 189.951 129.748 191.073C128.876 191.028 127.998 190.984 127.126 190.939L127.121 190.945Z" fill="#95A2B4"/>
<path d="M188.524 84.7435C188.602 84.4159 188.474 83.8272 188.913 83.8716C189.496 83.9272 190.212 84.0882 190.184 84.9712C189.629 84.8935 189.079 84.8157 188.524 84.7435Z" fill="#95A2B4"/>
<path d="M131.569 190.595C132.147 191.145 132.674 190.639 133.224 190.523C133.313 191.111 133.329 191.672 132.513 191.683C131.797 191.695 131.586 191.223 131.569 190.601V190.595Z" fill="#95A2B4"/>
<path d="M43.9323 133.546C43.9711 133.219 44.1266 133.019 44.482 133.013C44.4987 133.396 44.2877 133.546 43.9323 133.546Z" fill="#95A2B4"/>
<path d="M45.0707 132.43C45.0707 132.613 45.0707 132.796 45.0707 132.985C44.8874 132.985 44.7042 132.985 44.5209 132.985C44.5209 132.802 44.5153 132.619 44.5209 132.435C44.7042 132.435 44.8874 132.435 45.0762 132.435L45.0707 132.43Z" fill="#95A2B4"/>
<path d="M128.232 185.942C128.209 185.453 128.187 184.959 128.159 184.47C130.897 182.349 129.664 185.503 130.347 186.114C129.642 186.058 128.937 186.003 128.226 185.942H128.232Z" fill="#95A2B4"/>
<path d="M111.538 181.682C110.794 181.688 110.044 181.693 109.3 181.699C109.195 181.082 108.728 180.749 108.273 180.405C109.772 179.783 110.783 180.405 111.538 181.682Z" fill="#95A2B4"/>
<path d="M237.154 40.4615C237.332 40.5171 237.504 40.5671 237.681 40.6226C237.726 41.3445 237.992 42.1109 237.27 42.6829C234.983 42.0609 236.254 41.2501 237.154 40.4615Z" fill="#95A2B4"/>
<path d="M216.007 73.2482C216.196 73.4593 216.379 73.6703 216.568 73.8758C216.474 75.7528 215.052 75.2141 213.975 75.303C214.652 74.6143 215.33 73.9313 216.007 73.2427V73.2482Z" fill="#95A2B4"/>
<path d="M184.225 44.9151C184.881 44.5875 185.541 44.2543 186.197 43.9266C186.386 44.3931 187.035 44.954 186.469 45.3372C185.73 45.837 184.797 45.9869 184.225 44.9151Z" fill="#95A2B4"/>
<path d="M138.155 171.042C139.81 171.192 138.961 172.558 139.283 173.352C137.656 173.191 138.233 171.958 138.155 171.042Z" fill="#95A2B4"/>
<path d="M117.069 43.871C117.603 42.9714 118.18 43.2046 118.769 43.8044C118.236 44.6374 117.702 45.6425 117.069 43.871Z" fill="#95A2B4"/>
<path d="M206.305 12.8506C206.006 11.8288 206.911 11.0791 206.922 10.1295C207.422 10.3572 207.288 10.8459 207.377 11.2402C207.244 11.8066 207.399 12.4786 206.778 12.8617L206.544 12.8451H206.311L206.305 12.8506Z" fill="#95A2B4"/>
<path d="M20.7193 88.5756C20.5027 88.098 20.0751 87.6815 20.2751 87.0818C20.8637 87.676 22.1465 87.9148 21.3635 89.2087C21.1525 88.9977 20.9359 88.7867 20.7249 88.5756H20.7193Z" fill="#95A2B4"/>
<path d="M138.672 178.339C139.31 178.333 139.816 178.611 140.238 179.066C139.294 179.733 138.799 179.433 138.672 178.339Z" fill="#95A2B4"/>
<path d="M182.448 174.396C183.176 174.424 183.898 174.457 184.625 174.485C183.887 175.44 182.876 174.946 181.965 174.979C181.915 174.824 181.882 174.663 181.86 174.496C182.054 174.463 182.254 174.43 182.448 174.396Z" fill="#95A2B4"/>
</svg>
