<svg width="90" height="163" viewBox="0 0 90 163" fill="none" xmlns="http://www.w3.org/2000/svg">
<path d="M80.7012 161.939C80.5071 162.277 80.3078 162.609 80.1137 162.946H79.0971C78.8927 162.435 78.6935 161.929 78.4891 161.418C79.3627 160.999 80.0779 161.27 80.6961 161.939H80.7012Z" fill="#95A2B4"/>
<path d="M3.8147e-05 2.14055C0.720358 1.88511 1.44068 1.62968 2.16611 1.36914C2.36023 2.31935 1.77274 2.56456 1.01666 2.66163C0.679488 2.66163 0.342318 2.65141 3.8147e-05 2.65141V2.14055Z" fill="#95A2B4"/>
<path d="M57.9574 55.3523C57.4772 55.8172 56.9102 56.2258 56.5475 56.7725C56.2052 57.2884 56.0672 57.9168 57.1145 57.881C59.8272 57.7891 62.545 57.7584 64.9308 56.2769C66.6677 57.0534 62.7596 59.4545 65.9934 59.7508C66.3458 60.8338 66.0649 61.9475 66.1824 63.0459C66.024 63.475 65.7022 63.71 65.2781 63.8326C64.2513 64.2975 63.9754 65.4776 63.6791 66.2592C62.8158 68.507 65.8605 68.5888 66.213 68.5939C69.0023 68.645 69.8248 71.1176 71.4954 72.456C72.4558 73.2274 71.6486 76.7626 70.4072 77.534C69.5132 78.0857 68.2616 78.4025 69.9474 79.506C70.5452 79.8942 70.254 80.2825 70.0394 80.7831C69.1301 82.893 69.2578 85.0488 69.9219 87.1996C69.6205 87.5776 69.738 88.114 69.4366 88.4921C65.8145 88.7015 62.4122 88.0425 59.5309 85.6874C58.5654 84.8956 57.6049 84.0731 56.7007 83.1995C54.2894 80.8597 54.0544 79.5928 55.4338 76.4816C55.7301 75.8124 56.6445 75.0308 55.2907 74.4535C54.6113 74.4739 53.9369 74.5557 53.2626 74.5557C51.7607 74.6119 50.2485 74.8162 48.7772 74.2645C48.3021 74.0857 47.6993 73.8967 47.357 74.3411C46.417 75.5774 45.3646 75.935 43.878 75.322C43.1168 75.0103 42.7694 75.8175 42.3454 76.3386C41.2624 77.6668 40.0159 78.2748 38.4884 76.9567C35.9596 73.6055 35.7399 69.6361 35.3466 65.6717C35.2137 64.3333 34.4372 63.0561 33.957 61.7534C34.5394 59.2297 35.3517 57.1607 37.8702 55.5413C39.6174 54.4225 42.1564 53.9678 43.0811 51.9601C43.8065 50.3816 44.8282 49.135 45.804 47.7915C46.6878 47.0252 47.1527 45.5743 48.7466 45.9524C49.1399 48.4505 51.1425 48.992 53.1093 49.3445C55.8629 49.8349 57.8246 51.3011 59.2499 53.6307C58.9077 54.2743 58.3048 54.7188 57.9574 55.3574V55.3523Z" fill="#95A2B4"/>
<path d="M1.01685 2.66132C1.23652 2.08915 2.1101 2.10447 2.16118 1.37394C2.8815 1.24111 3.62226 1.17981 4.31703 0.970354C5.28768 0.679161 6.27365 0.142753 5.71169 1.98697C5.34387 3.19262 6.49332 3.48381 7.1319 4.0713C7.09614 4.69456 7.39755 4.96532 8.00548 4.91423C8.57254 4.65369 9.16003 4.22967 9.53296 5.15945C11.3312 4.84782 11.7961 6.6103 12.5879 7.48899C13.4768 8.47496 13.9519 7.99985 14.6723 7.70866C14.9737 7.93855 15.0605 8.24507 15.0043 8.60778C14.7591 9.46604 15.2547 10.1046 15.6531 10.7687L18.1768 12.2349C18.3811 12.3882 18.514 12.5874 18.5702 12.8377C18.5702 13.6807 18.2534 14.5491 18.7336 15.3614C20.8639 17.3742 22.5447 19.76 24.2612 22.1151C25.5384 23.8673 27.2395 24.981 29.3647 25.3386C30.504 25.5276 30.7798 27.8265 32.4504 26.5647C33.3444 27.1828 33.3955 28.1381 33.467 29.0935C33.9727 30.5545 35.2192 31.142 36.5117 31.6784C37.1043 34.1459 36.6446 34.9122 34.2946 34.9837C33.0992 35.0195 32.2256 35.3822 31.6432 36.4295C29.9011 37.8855 27.6636 38.5904 26.0339 40.2508C25.3187 40.9762 24.4758 40.593 23.8832 39.8114C22.1105 39.8012 21.901 38.0183 20.8895 37.1447C20.1487 36.501 19.4233 35.8369 18.6928 35.1779C17.9878 34.8356 17.6455 34.0795 16.9814 33.6861C16.4041 33.303 16.1998 32.8483 16.7055 32.2557C16.7821 31.8164 17.385 31.9441 17.482 31.5303C17.2317 31.5303 16.9865 31.4945 16.7464 31.4077C15.7962 30.9428 15.413 30.0181 14.9328 29.1803C14.7234 28.9555 14.473 28.7869 14.1767 28.695C13.7578 28.5775 13.3389 28.4702 12.9915 28.1892C12.2252 27.1982 11.4232 26.2377 10.759 25.17C10.6824 24.4752 10.2839 23.8826 10.1562 23.2032C9.75775 22.5186 10.3401 21.502 9.42057 20.9911C8.84841 20.9911 8.54189 20.6846 8.312 20.1635C6.08463 15.1213 3.81639 10.0893 1.60434 5.03684C1.2825 4.30119 1.20587 3.45316 1.01685 2.66132Z" fill="#95A2B4"/>
<path d="M88.8854 120.672C87.5929 123.757 86.0501 126.736 85.6108 130.143C85.5086 130.94 85.6823 132.253 84.3336 132.534C83.7972 132.733 83.4754 133.402 82.7806 133.259C81.8661 133.055 80.9619 133.019 80.1139 133.53C77.9478 133.811 75.9043 133.315 73.8966 132.57C73.0231 131.89 72.1342 132.084 71.235 132.524C69.0179 133.275 66.8518 133.479 64.8339 131.967C64.4201 131.461 64.5529 130.838 64.6296 130.598C64.7113 130.817 64.3537 131.252 64.1647 131.727C62.4431 134.184 60.0931 133.167 57.8708 132.886C57.4928 132.861 57.1505 132.733 56.8542 132.498C56.6601 131.793 56.4659 131.088 56.2718 130.383C55.5362 129.668 55.7099 128.391 54.7137 127.829C52.2155 125.402 51.7762 122.076 51.0865 118.95C50.2743 115.287 49.8502 111.537 49.2985 107.818C49.2576 107.553 49.5846 107.236 49.7378 106.945C49.9115 106.786 50.1057 106.674 50.3356 106.613C50.5706 106.592 50.8004 106.613 51.0252 106.679C51.2398 106.771 51.4339 106.899 51.6127 107.052C52.5374 108.109 52.1645 109.754 53.273 110.73C53.4263 110.909 53.5591 111.098 53.6817 111.297C53.8145 111.496 53.9218 111.706 54.0189 111.92C54.0649 112.033 54.1006 112.145 54.1466 112.253C54.2181 112.477 54.2641 112.707 54.2948 112.942C54.3816 113.785 54.2232 114.602 54.024 115.425C53.4416 117.831 53.4569 117.836 56.0624 117.949C56.609 118.102 57.0228 118.516 57.5439 118.72C58.8108 119.108 59.0458 120.14 59.1327 121.264C59.7559 122.102 60.3894 121.749 61.0229 121.29C61.7687 120.631 62.2847 119.68 63.3371 119.4C64.8237 119.461 66.1622 120.094 67.5568 120.518C68.5785 120.626 69.5952 120.288 70.6169 120.452C71.9758 120.697 73.207 121.469 74.6374 121.438C76.4663 121.79 77.9274 120.912 79.5928 120.324C82.5916 119.272 85.8151 119.599 88.8803 120.672H88.8854Z" fill="#95A2B4"/>
<path d="M38.499 76.9464C40.098 77.1457 41.789 77.539 42.1364 75.1635C42.1466 75.0818 42.1824 74.9438 42.2232 74.9336C44.2718 74.5454 46.2897 74.3257 48.3179 73.4828C49.1608 73.1303 51.5465 73.8455 53.2579 73.8966C54.1009 74.2899 54.9438 74.3104 55.7816 73.871C57.6411 74.3461 56.8493 75.47 56.3027 76.3794C54.5913 79.2249 54.6986 80.267 57.0945 82.6119C59.6846 85.1458 62.1725 87.8227 66.3156 87.4345C67.3833 87.3323 68.1139 89.2021 69.4626 88.1292C70.0449 88.7014 69.3808 89.6108 70.0092 90.1727C70.4179 90.3924 70.5405 90.7653 70.5609 91.1944C68.778 92.257 66.7652 92.257 64.7984 92.4869C64.2722 92.4358 63.8839 92.1191 63.4854 91.8126C62.714 91.1485 61.7792 91.3375 60.8851 91.317C57.539 91.3784 54.2132 91.3426 51.7407 94.3107C51.0612 95.1281 49.784 95.2354 48.6908 94.6275C48.1697 94.0502 47.6078 94.1626 47.0254 94.5355C46.6882 94.6326 46.3561 94.5815 46.0343 94.4742C44.9155 94.137 45.8351 92.584 44.7112 92.2519C44.3433 89.6159 43.5975 87.1126 42.1211 84.875C41.835 84.4408 41.5642 84.0219 42.0444 83.557C42.7494 83.0615 43.0151 82.5506 42.1006 81.9938C41.4161 81.6055 40.9818 80.9363 40.3382 80.5071C39.3982 79.4956 38.4786 78.4688 38.5144 76.9515L38.499 76.9464Z" fill="#95A2B4"/>
<path d="M57.6767 132.452C58.2131 132.309 58.7036 131.783 59.3115 132.233C61.1455 133.597 62.5453 132.595 63.9042 131.39C64.2464 131.114 64.5785 131.088 64.9055 131.42C67.0153 132.907 69.2529 132.555 71.5161 131.896C72.359 131.707 73.2019 131.645 74.0346 131.947C75.981 132.769 78.0091 133.096 80.1139 132.938C80.9415 132.529 81.7742 132.585 82.612 132.902C83.1842 132.784 83.7564 132.662 84.3336 132.544C84.2008 133.627 84.1855 134.905 82.9543 135.277C80.9466 135.88 81.9019 136.928 82.423 137.919C82.612 138.276 82.9901 138.527 83.2608 138.843C84.7526 140.601 85.621 142.46 84.1242 144.667C83.7462 145.009 83.3017 145.178 82.7908 145.173C81.672 145.152 80.7985 144.478 79.8227 144.054C78.9798 143.686 78.1471 142.833 77.1356 143.717C76.686 144.432 76.1138 144.989 75.3067 145.265C74.5302 145.495 73.8098 146.052 72.926 145.699C72.4611 144.774 71.8328 144.069 70.6885 144.1C69.9835 143.916 69.3653 143.436 68.5939 143.467C67.6079 143.993 66.5249 144.223 65.4674 144.539C64.9259 144.734 64.3895 144.963 63.8122 144.677C63.6538 144.371 63.4955 144.059 63.3371 143.753C63.5976 142.854 62.7087 142.951 62.3409 142.593C61.4929 142.266 60.8134 141.719 60.2719 140.994C60.2106 140.325 60.9565 139.998 60.9463 139.354C60.982 139.032 61.0638 138.726 61.2783 138.465C61.6513 138.246 62.0957 138.307 62.4635 138.128C62.5861 138.005 62.6219 137.862 62.5504 137.694C62.4993 137.566 62.4533 137.505 62.3971 137.505C62.249 137.398 62.1059 137.295 61.9424 137.219C61.4673 137.071 61.217 137.444 60.8901 137.648C60.1902 137.755 59.8326 138.475 59.1429 138.598H58.9181C58.2233 137.408 58.8517 135.982 58.2387 134.777C58.1978 134.664 58.2233 134.578 58.3255 134.506C57.8709 133.903 57.2731 133.346 57.6818 132.468L57.6767 132.452Z" fill="#95A2B4"/>
<path d="M23.8831 39.8071C24.8231 40.1034 25.477 40.3435 26.3608 39.2043C27.5664 37.6614 29.6303 37.0484 31.4286 36.2157C33.9063 37.6768 36.5883 39.0203 36.9306 42.3359C37.1094 44.0677 38.5705 45.3346 39.5207 45.3653C42.1363 45.4419 43.7353 47.6029 46.0955 47.9503C45.5131 49.7179 43.909 50.9235 43.4952 52.8188C43.3982 53.2633 42.6421 53.8661 42.1772 53.8712C39.5207 53.9172 38.407 56.5021 36.2154 57.4268C34.9025 57.9785 35.398 60.6044 33.9574 61.7436C31.965 58.8317 31.1425 55.4089 29.9215 52.1751C29.3289 50.6068 28.6648 49.2938 27.2242 48.4254C26.1105 47.7561 25.1858 46.9387 25.288 45.4572C25.4361 44.9821 25.1807 44.6705 24.8589 44.3844C24.7822 42.8007 23.1219 41.5645 23.878 39.802L23.8831 39.8071Z" fill="#95A2B4"/>
<path d="M63.8072 144.672C64.3385 144.488 64.8647 144.304 65.396 144.115C66.3156 143.461 67.7716 144.437 68.4612 143.093C69.3501 142.383 69.907 143.007 70.4689 143.599C71.5775 143.941 73.0539 143.819 72.9926 145.622C73.6771 145.29 74.3617 144.953 75.0463 144.621C76.4563 145.014 76.9671 144.509 76.5584 143.093C77.8458 141.362 78.9084 143.206 80.0017 143.436C80.8957 143.625 81.6415 144.544 82.6888 144.636C83.6135 145.198 83.2354 145.719 82.6428 146.24C82.8983 148.406 83.7872 150.281 85.4986 151.63C86.6582 152.539 86.2904 153.551 85.6314 154.235C83.7821 156.161 82.745 158.46 82.1524 160.984C81.9327 161.909 81.3912 161.955 80.6913 161.934C79.9557 161.76 79.22 161.587 78.4844 161.413C75.2966 160.304 73.4166 157.653 71.6694 155.083C69.2122 151.472 65.6668 148.708 63.797 144.667L63.8072 144.672Z" fill="#95A2B4"/>
<path d="M48.8185 94.1985C49.7432 94.7349 50.954 94.4948 51.3729 93.9328C53.8301 90.6122 57.3244 90.6684 60.8494 90.6837C61.7741 91.3377 62.9286 90.5714 63.8635 91.1793C64.0627 91.542 64.2569 91.9047 64.4561 92.2674C64.6145 92.4769 64.7626 92.7681 64.64 92.9622C63.368 95.0006 64.3488 96.104 66.096 97.1922C68.3744 98.6073 68.3489 99.2254 66.4178 100.947C64.8699 102.321 63.9861 104.114 63.2862 106.02C61.8252 107.583 60.3539 109.054 57.9732 107.583C57.3704 107.21 56.6859 107.512 56.0626 107.782C55.2299 108.145 54.4227 108.63 53.4521 108.293C53.2375 108.186 53.0638 108.022 52.931 107.823C52.6449 107.205 52.4763 106.531 52.0319 105.989C51.6283 105.192 51.2554 104.37 50.2541 104.16C49.9271 104.012 49.6717 103.793 49.4724 103.501C49.3652 103.307 49.2936 103.098 49.2477 102.878C49.1608 102.408 49.2323 101.872 48.7164 101.565C48.4814 101.376 48.3843 101.085 48.1902 100.87C46.7751 99.1028 46.9283 96.8039 46.1314 94.8269C45.9577 94.7043 45.8964 94.5816 45.9577 94.459C46.0139 94.3364 46.0752 94.2751 46.1314 94.2751C46.4379 94.2547 46.7393 94.2343 47.0458 94.2087C47.6384 94.127 48.231 94.1372 48.8237 94.2087L48.8185 94.1985Z" fill="#95A2B4"/>
<path d="M11.0553 24.9513C11.9902 25.8811 12.9353 26.8006 13.1805 28.1902C13.3389 28.5529 13.1601 28.747 12.8434 28.8747C10.2737 28.7011 10.9327 26.3971 10.2788 24.9564C10.5342 24.7367 10.7948 24.7367 11.0553 24.9513Z" fill="#95A2B4"/>
<path d="M49.7072 103.399C49.8706 103.573 50.0341 103.741 50.1976 103.915C50.7544 104.533 50.7595 105.187 50.3406 105.877C49.983 106.229 49.6101 106.27 49.2116 105.948C48.4964 105.442 48.7161 104.518 48.287 103.884C48.5679 103.164 49.0124 102.908 49.7021 103.399H49.7072Z" fill="#95A2B4"/>
<path d="M15.234 28.5527C15.704 29.462 16.174 30.3662 16.6389 31.2756C16.7462 31.6638 16.7257 31.909 16.2353 31.6536C15.234 31.2807 14.6567 30.499 14.2583 29.5539C13.9875 29.0584 14.2583 28.7519 14.6363 28.4862C14.8509 28.3994 15.0501 28.43 15.234 28.5578V28.5527Z" fill="#95A2B4"/>
<path d="M61.452 138.562C61.4418 138.874 61.4315 139.186 61.4213 139.497C60.5426 140.212 59.9602 139.61 59.3625 139.037C59.2859 138.884 59.2093 138.731 59.1326 138.583C59.4851 137.975 59.383 136.769 60.6755 137.408C60.8594 137.265 61.0535 137.234 61.2681 137.326C61.6614 137.689 61.4009 138.148 61.4469 138.562H61.452Z" fill="#95A2B4"/>
<path d="M54.7242 127.834C56.8545 127.696 56.1393 129.305 56.2823 130.388C54.3768 130.388 55.0511 128.804 54.7242 127.834Z" fill="#95A2B4"/>
<path d="M59.3678 139.038C60.0524 139.191 60.7369 139.344 61.4266 139.497C62.479 141.117 60.1086 140.065 60.272 140.989C59.4291 140.591 59.0613 139.973 59.3678 139.038Z" fill="#95A2B4"/>
<path d="M16.2354 31.648C16.3682 31.5203 16.5062 31.3977 16.639 31.27C17.0273 31.1474 17.4462 31.0912 17.7936 30.8971C18.6467 30.422 18.8255 31.0554 18.9072 31.6072C19.0298 32.4501 18.3351 32.1334 17.9264 32.1793C17.5228 32.2253 17.1141 32.2304 16.7105 32.256C16.5521 32.0516 16.3938 31.8524 16.2354 31.648Z" fill="#95A2B4"/>
<path d="M49.7074 103.4C49.2374 103.563 48.7623 103.721 48.2923 103.885C47.2246 102.914 48.5579 101.862 48.185 100.866C48.3485 101.029 48.512 101.193 48.6703 101.351C49.1556 101.709 49.2731 102.322 49.6461 102.761C49.6665 102.976 49.6869 103.185 49.7074 103.4Z" fill="#95A2B4"/>
<path d="M40.3274 80.5022C41.0835 80.8394 41.8396 81.1765 42.5957 81.5137C43.0453 82.2442 42.7847 82.7398 42.0746 83.0821C40.9098 82.6172 40.9098 81.3656 40.3274 80.5073V80.5022Z" fill="#95A2B4"/>
<path d="M58.2334 134.756C60.0878 135.742 58.2078 137.387 58.9077 138.577C58.1261 137.402 57.84 136.14 58.2334 134.756Z" fill="#95A2B4"/>
<path d="M42.0695 83.0825C42.2432 82.5614 42.4169 82.0352 42.5906 81.5142C43.0248 82.1119 44.0874 82.4797 43.7911 83.3073C43.5612 83.9459 42.6519 83.5729 42.0286 83.5525C42.0235 83.3941 42.0389 83.2358 42.0695 83.0774V83.0825Z" fill="#95A2B4"/>
<path d="M9.42557 20.9918C10.7027 21.1502 10.2532 22.3201 10.6057 23.02C10.3094 23.3009 10.0284 23.306 9.75763 22.9842C8.80231 22.4631 9.70143 21.6304 9.42557 20.9918Z" fill="#95A2B4"/>
<path d="M57.6766 132.452C57.8912 133.132 58.1057 133.811 58.3203 134.491C57.2679 134.245 56.9307 133.474 56.8694 132.498C57.1402 132.483 57.4109 132.468 57.6766 132.452Z" fill="#95A2B4"/>
<path d="M14.7079 28.6285C14.5598 28.935 14.4065 29.2364 14.2584 29.5429C13.7884 29.3182 13.3133 29.0985 12.8433 28.8737C12.9557 28.6438 13.0681 28.4139 13.1804 28.184C13.6709 28.184 14.1613 28.1789 14.6466 28.1738C14.8152 28.2505 14.8816 28.3475 14.8408 28.4548C14.7999 28.5672 14.7539 28.6234 14.7079 28.6234V28.6285Z" fill="#95A2B4"/>
<path d="M9.75774 22.9835C10.0387 22.9937 10.3248 23.0091 10.6058 23.0193C10.759 23.663 10.9072 24.3118 11.0604 24.9555C10.7999 24.9555 10.5445 24.9555 10.2839 24.9555C10.1102 24.2964 9.93143 23.6374 9.75774 22.9835Z" fill="#95A2B4"/>
<path d="M62.3357 142.587C62.9896 142.832 63.7201 141.647 64.2207 142.541C64.5426 143.113 63.8069 143.466 63.3318 143.752C62.8874 143.461 62.4736 143.144 62.3357 142.592V142.587Z" fill="#95A2B4"/>
<path d="M46.1261 94.2704C46.1261 94.4544 46.1261 94.6383 46.1261 94.8222C44.5118 94.6025 45.4262 92.9677 44.7008 92.2576C46.1466 92.2372 45.273 93.872 46.1261 94.2704Z" fill="#95A2B4"/>
<path d="M24.864 44.3895C25.3544 44.3027 25.9674 44.1954 26.1309 44.7676C26.2842 45.2989 25.666 45.3295 25.2931 45.4623C24.7465 45.2682 24.8333 44.8187 24.864 44.3895Z" fill="#95A2B4"/>
<path d="M16.9861 33.682C17.8954 33.7893 18.3194 34.4534 18.6975 35.1737C17.7115 35.1584 17.2466 34.5352 16.9861 33.682Z" fill="#95A2B4"/>
<path d="M49.217 105.948C49.544 105.948 49.8709 105.948 50.1979 105.953C50.2541 106.025 50.3052 106.101 50.3613 106.173C50.3562 106.265 50.346 106.357 50.3409 106.449C50.2745 106.51 50.2081 106.576 50.1417 106.638C49.9527 106.674 49.7841 106.633 49.6461 106.495C49.5031 106.311 49.3601 106.127 49.217 105.943V105.948Z" fill="#95A2B4"/>
<path d="M49.646 106.501C49.8401 106.48 50.0291 106.46 50.2232 106.439C50.3305 106.546 50.3714 106.659 50.3356 106.771C50.305 106.884 50.2692 106.94 50.2335 106.94L49.9933 106.96L49.7532 106.945C49.7124 106.797 49.6817 106.649 49.6511 106.501H49.646Z" fill="#95A2B4"/>
<path d="M62.9539 105.897C62.8466 103.542 64.1902 101.81 65.8812 100.656C67.7867 99.3528 67.5108 98.7654 65.8147 97.6721C62.6065 95.6031 62.6474 95.5367 64.4558 92.2672C66.3971 91.3782 68.4559 91.1892 70.5556 91.1994C71.2452 91.179 71.7203 91.4855 71.9911 92.119C72.4713 92.9721 73.4726 92.0526 74.009 92.7167C75.5672 92.8802 76.4867 91.8636 77.3552 90.8316C77.7128 90.4076 77.8763 89.9427 78.4893 89.6311C83.1279 87.2913 83.1126 87.2607 85.6823 93.7691C85.294 94.2238 85.1816 94.7602 85.2174 95.3426C84.7883 96.165 83.9198 96.3694 83.2046 96.7832C82.3668 98.0706 83.9147 98.4537 84.1599 99.3324C85.8457 101.207 84.5941 103.082 84.1599 104.957C83.5264 105.596 83.5315 106.244 84.119 106.909C84.7065 108.952 83.7308 110.694 82.9287 112.411C82.52 113.289 82.004 114.071 82.8112 114.858C83.695 115.726 84.6503 116.554 86.1012 115.93C86.8522 115.609 88.1498 114.561 88.3847 115.813C88.6759 117.366 91.1792 118.858 88.8905 120.671C86.3464 120.722 83.8125 120.579 81.2837 120.263C80.9057 120.217 80.405 120.329 80.1138 120.559C78.474 121.836 76.8443 123.077 74.5761 122.234C74.3973 122.061 74.2338 121.867 74.0907 121.662C73.1814 119.394 73.6974 116.901 72.8187 114.561C71.5211 111.103 68.8646 109.371 65.7637 108.073C64.5938 107.583 63.337 107.368 62.959 105.907L62.9539 105.897Z" fill="#95A2B4"/>
<path d="M46.1003 47.9546C45.712 48.1027 45.1143 48.4961 44.9662 48.3684C42.514 46.2228 38.6672 46.7438 36.5624 43.9239C36.1946 43.4334 36.2968 43.0656 36.3479 42.5599C36.5011 41.109 36.0311 39.9442 34.5854 39.3363C33.1243 38.7233 32.7616 36.971 31.4282 36.22C31.2086 34.4013 32.6799 34.2174 33.7016 34.3911C36.072 34.7896 36.4756 33.5175 36.5062 31.6784C39.0044 32.2813 41.2164 30.8815 43.6021 30.6823C44.3174 31.5712 43.3212 32.787 44.1641 33.6555C46.9534 32.6899 48.2101 35.372 49.6252 36.5878C51.2702 38.0081 52.5627 38.5955 54.4325 38.0591C55.0659 40.8127 55.2907 43.3721 52.2511 44.7974C51.1681 45.3083 50.1361 45.1448 49.1961 44.4041C48.7414 44.6799 48.813 45.012 49.099 45.3645C48.9815 45.5586 48.8589 45.7579 48.7414 45.952C47.8576 46.6212 46.979 47.2905 46.0952 47.9597L46.1003 47.9546Z" fill="#95A2B4"/>
<path d="M18.2788 12.8842C18.2482 12.6696 18.2124 12.45 18.1818 12.2354C18.6467 11.1626 19.5509 11.2188 19.9851 11.9697C20.5318 12.92 19.5764 13.1856 18.8204 13.3491C18.5087 13.3491 18.473 13.0221 18.284 12.8791L18.2788 12.8842Z" fill="#95A2B4"/>
<path d="M65.2832 63.8279C65.4927 63.6235 65.697 63.4141 65.9065 63.2097C66.0955 63.0156 66.167 62.6989 66.4838 62.6324C66.9589 62.7653 67.5821 62.8981 67.1785 63.5622C66.7137 64.3285 66.0036 64.3694 65.2832 63.8279Z" fill="#95A2B4"/>
<path d="M84.114 106.904C83.5572 106.884 83.2149 106.628 83.1893 106.036C83.1587 105.356 83.4499 104.968 84.1549 104.953C84.1395 105.601 84.1293 106.255 84.114 106.904Z" fill="#95A2B4"/>
<path d="M14.7332 8.79198C14.7128 8.42927 14.6975 8.07166 14.677 7.70895C15.2237 7.09591 15.6988 7.2696 15.9798 7.9184C16.3067 8.67959 15.6119 8.6234 15.193 8.75111C15.0551 8.99633 14.9018 8.99633 14.7332 8.78687V8.79198Z" fill="#95A2B4"/>
<path d="M84.1548 99.3273C83.4651 98.6172 81.9274 98.2289 83.1995 96.7781C82.9542 97.8407 84.3387 98.2902 84.1548 99.3273Z" fill="#95A2B4"/>
<path d="M82.6529 146.245C82.8726 145.719 83.0412 145.188 82.6989 144.641C83.174 144.646 83.6491 144.652 84.1242 144.657C84.16 145.678 83.6031 146.143 82.6529 146.245Z" fill="#95A2B4"/>
<path d="M74.004 92.7172C73.2837 92.6814 72.2926 93.5703 71.9861 92.1195C72.543 92.707 73.8457 90.7708 74.004 92.7172Z" fill="#95A2B4"/>
<path d="M9.53267 5.15424C9.07289 4.72001 8.59268 4.93457 8.11246 5.10826C7.9541 5.00098 7.8979 4.88859 7.93877 4.77109C7.97964 4.64849 8.02562 4.58718 8.0767 4.58718C8.13801 4.1836 8.12268 3.64208 8.74083 3.80045C9.38963 3.96904 9.65528 4.47479 9.53267 5.15424Z" fill="#95A2B4"/>
<path d="M8.08193 4.58773C8.09215 4.76143 8.10237 4.93512 8.11769 5.10881C7.70389 5.24675 7.30031 5.83935 6.85586 5.31827C6.48292 4.87893 6.72814 4.41915 7.13172 4.06665C7.44846 4.24034 7.7652 4.41404 8.08193 4.58773Z" fill="#95A2B4"/>
<path d="M33.4669 29.0941C33.1298 28.2512 32.7926 27.4082 32.4503 26.5653C33.8501 26.9791 33.8194 27.9702 33.4669 29.0941Z" fill="#95A2B4"/>
<path d="M44.1693 33.6457C42.8104 32.8794 44.0774 31.6125 43.6074 30.6725C44.5474 31.5205 43.9088 32.67 44.1693 33.6457Z" fill="#95A2B4"/>
<path d="M66.484 62.6319C66.2898 62.826 66.1008 63.015 65.9067 63.2092C65.9373 62.0546 65.968 60.9001 65.9986 59.7506C66.8518 60.5935 66.2439 61.6868 66.484 62.637V62.6319Z" fill="#95A2B4"/>
<path d="M57.9578 55.3521C57.8454 54.3661 58.6475 54.0698 59.2503 53.6254C59.378 54.6216 58.576 54.9179 57.9578 55.3521Z" fill="#95A2B4"/>
<path d="M70.004 90.1775C69.1202 89.6871 69.5698 88.8339 69.4574 88.1341C69.5698 87.7969 69.4727 87.3576 69.9274 87.189C69.9529 88.1852 69.9784 89.1813 70.004 90.1775Z" fill="#95A2B4"/>
<path d="M49.1093 45.3597C48.6802 45.3188 48.1949 45.2575 48.3532 44.67C48.4503 44.3073 48.7108 43.8066 49.2064 44.4043C49.1757 44.7262 49.14 45.0429 49.1093 45.3648V45.3597Z" fill="#95A2B4"/>
<path d="M18.2787 12.8846C18.4575 13.043 18.6363 13.1963 18.8151 13.3546C18.7896 14.0239 18.764 14.6931 18.7334 15.3623C17.8394 14.6727 18.4013 13.7174 18.2736 12.8846H18.2787Z" fill="#95A2B4"/>
<path d="M14.7333 8.79197C14.8866 8.7511 15.0399 8.73577 15.1931 8.7562C15.3464 9.42544 15.5048 10.0998 15.658 10.769C14.8917 10.3246 14.6312 9.64511 14.7333 8.79197Z" fill="#95A2B4"/>
<path d="M85.2123 95.3381C84.2927 94.4952 84.9057 94.1069 85.6772 93.7646C85.6874 94.3368 85.6976 94.9141 85.2123 95.3381Z" fill="#95A2B4"/>
<path d="M43.1323 70.8825C41.8551 71.4343 41.4515 72.078 41.3034 72.926C41.0479 71.843 40.8487 70.811 43.1323 70.8825Z" fill="#95A2B4"/>
<path d="M53.8965 61.4269C54.9591 61.1153 55.6028 61.0693 56.4151 61.4014C55.6181 61.8356 54.9591 61.7028 53.8965 61.4269Z" fill="#95A2B4"/>
<path d="M52.6598 68.0528V66.3721C53.4874 66.8983 53.186 67.4653 52.6598 68.0528Z" fill="#95A2B4"/>
<path d="M55.7811 73.8817C54.9484 74.6531 54.1055 74.648 53.2575 73.9073C54.1004 73.897 54.9382 73.8919 55.7811 73.8817Z" fill="#95A2B4"/>
<path d="M53.6205 64.6756C53.4621 64.8187 53.2731 65.0179 53.2578 65.0026C53.0892 64.8646 52.8644 64.7114 52.8133 64.5223C52.7469 64.272 52.8746 63.9757 53.2067 64.129C53.3855 64.2107 53.4826 64.4866 53.6154 64.6756H53.6205Z" fill="#95A2B4"/>
<path d="M14.7076 28.6292C14.6974 28.476 14.677 28.3278 14.6463 28.1797C14.8405 28.3023 15.0397 28.4249 15.2338 28.5475C15.0601 28.5731 14.8813 28.5986 14.7076 28.6292Z" fill="#95A2B4"/>
<path d="M62.954 105.897C64.0523 106.837 65.5287 107.031 66.6833 107.644C68.88 108.809 71.5365 109.846 72.5838 112.401C73.5646 114.802 74.9184 117.208 74.1368 120.038C73.9989 120.533 74.3412 121.162 74.4638 121.734C73.0793 121.632 71.8277 121.014 70.4892 120.717C69.4726 120.886 68.4509 121.055 67.4343 121.223C66.5147 119.558 64.7982 120.033 63.3831 119.701C62.6986 120.38 62.0191 121.06 61.3345 121.744C60.3332 122.219 59.3268 122.087 58.3255 121.754C58.3102 120.768 58.9182 119.537 57.3089 119.195C56.9769 118.797 57.1097 118.209 56.747 117.821C56.3178 117.238 55.4494 117.637 55.0356 117.039C54.5707 116.247 54.7648 115.297 54.4174 114.475C54.2642 113.964 54.0343 113.468 54.019 112.922C54.019 112.6 53.9934 112.288 53.7431 112.048L53.7737 112.084C53.5847 111.895 53.411 111.696 53.2322 111.501C53.2322 111.363 53.222 111.231 53.2067 111.093C53.2016 110.991 53.1965 110.888 53.1862 110.786C53.1454 110.582 53.1198 110.372 53.1045 110.163C53.0892 109.427 52.798 108.671 53.2527 107.971C54.4276 108.109 55.337 107.43 56.3127 106.97C56.8389 106.72 57.5439 106.194 57.9424 106.638C60.0472 108.998 61.355 106.592 62.954 105.907V105.897Z" fill="#95A2B4"/>
<path d="M55.2043 117.024C56.0217 116.958 56.9617 116.508 57.3857 117.703C57.3499 118.449 56.9208 118.521 56.3333 118.327C52.8952 119.021 52.3639 118.5 53.4571 115.267C53.7688 114.347 53.6206 113.443 53.8199 112.549C53.9322 112.549 54.0497 112.549 54.1621 112.549C54.3869 113.085 54.6066 113.617 54.8314 114.153C55.2911 115.067 54.7241 116.11 55.2043 117.019V117.024Z" fill="#95A2B4"/>
<path d="M53.2527 107.961C53.4111 108.834 53.5745 109.703 53.7329 110.576C53.5592 110.719 53.3957 110.878 53.2425 111.041L53.2067 111.087C51.0662 110.444 52.1901 108.211 51.2297 106.995C51.2859 106.924 51.3421 106.857 51.3983 106.786C51.5617 106.709 51.7303 106.668 51.9142 106.668C52.0879 106.689 52.2565 106.74 52.42 106.811C52.5784 106.888 52.7265 106.98 52.8593 107.092C52.9819 107.215 53.1046 107.338 53.2272 107.46C53.2425 107.629 53.2527 107.797 53.2578 107.966L53.2527 107.961Z" fill="#95A2B4"/>
<path d="M63.3832 119.69C64.9771 119.547 66.7344 118.965 67.4343 121.213C66.0856 120.707 64.7319 120.196 63.3832 119.69Z" fill="#95A2B4"/>
<path d="M70.4892 120.707C71.9247 120.6 73.207 121.121 74.4637 121.724C74.4995 121.892 74.5352 122.056 74.571 122.224C73.1661 121.841 71.7152 121.576 70.4892 120.707Z" fill="#95A2B4"/>
<path d="M58.3254 121.744C59.3318 121.744 60.3331 121.734 61.3395 121.734C60.3382 122.95 59.3318 122.47 58.3254 121.744Z" fill="#95A2B4"/>
<path d="M74.0348 131.936C73.1919 132.095 72.3489 132.171 71.5162 131.885C72.3694 131.155 73.2123 131.124 74.0348 131.936Z" fill="#95A2B4"/>
<path d="M56.3332 118.332C56.6857 118.123 57.0331 117.918 57.3856 117.709C58.1059 118.245 57.4009 118.695 57.3039 119.185C56.7419 119.175 56.3383 118.981 56.3332 118.332Z" fill="#95A2B4"/>
<path d="M64.9056 131.41C64.5735 131.4 64.2363 131.39 63.9043 131.379C64.1393 130.863 64.3691 130.347 64.6246 129.775C65.1252 130.301 64.7983 130.889 64.9056 131.405V131.41Z" fill="#95A2B4"/>
<path d="M82.6119 132.892C81.7792 132.902 80.9465 132.917 80.1138 132.927C80.9363 132.166 81.769 132.171 82.6119 132.892Z" fill="#95A2B4"/>
<path d="M51.2295 106.99C51.0507 106.965 50.8719 106.944 50.688 106.919C50.5296 106.75 50.4581 106.551 50.4785 106.316C50.5092 106.081 50.6216 105.902 50.8259 105.79C51.0609 105.78 51.255 105.866 51.4032 106.05C51.5258 106.393 51.5002 106.704 51.1988 106.949L51.2295 106.99Z" fill="#95A2B4"/>
<path d="M50.7084 106.46C50.7084 106.613 50.6982 106.771 50.6879 106.924L50.4632 106.965L50.2333 106.945C50.2128 106.776 50.2077 106.608 50.2231 106.439L50.2026 106.46C50.3712 106.23 50.5398 106.23 50.7084 106.46Z" fill="#95A2B4"/>
<path d="M54.1619 112.554H53.9933H53.8247C53.7991 112.38 53.7685 112.212 53.743 112.038C53.886 112.207 54.0239 112.38 54.167 112.549L54.1619 112.554Z" fill="#95A2B4"/>
<path d="M48.8184 94.1986C48.2258 94.9496 47.6383 94.9547 47.0406 94.1986C47.6281 92.9879 48.2207 92.6405 48.8184 94.1986Z" fill="#95A2B4"/>
<path d="M63.8635 91.1794C62.8571 91.0415 61.7332 91.6034 60.8494 90.6839C61.8558 90.8525 62.9797 90.2599 63.8635 91.1794Z" fill="#95A2B4"/>
<path d="M61.4519 138.562C60.7929 138.24 61.3446 137.862 61.4008 137.504C61.5694 137.024 61.8452 136.738 62.3919 136.973H62.3663C62.8465 137.417 62.8976 138.01 62.9385 138.608C62.4225 139.277 61.9423 138.745 61.4468 138.562H61.4519Z" fill="#95A2B4"/>
<path d="M68.4659 143.098C67.9397 144.947 66.4173 143.767 65.4007 144.12C66.4224 143.778 67.4442 143.44 68.4659 143.098Z" fill="#95A2B4"/>
<path d="M72.9977 145.632C72.5839 144.422 71.4294 144.135 70.4741 143.609C71.9147 143.533 73.3656 143.441 72.9977 145.632Z" fill="#95A2B4"/>
<path d="M76.5682 143.098C77.2885 143.665 77.1302 144.268 76.5529 144.784C76.0523 145.228 75.4954 145.254 75.0561 144.631C76.0267 144.585 76.5325 144.079 76.5682 143.103V143.098Z" fill="#95A2B4"/>
<path d="M62.9439 138.603C62.29 138.225 62.4024 137.571 62.3717 136.973C62.9899 136.998 63.4088 137.295 63.5927 137.887C63.7817 138.495 63.2657 138.465 62.9388 138.603H62.9439Z" fill="#95A2B4"/>
<path d="M62.3971 136.973C62.065 137.152 61.7329 137.325 61.406 137.504C61.1659 137.474 60.9258 137.438 60.6856 137.407C60.9615 136.089 61.3906 135.379 62.4022 136.973H62.3971Z" fill="#95A2B4"/>
<path d="M51.1886 105.959L50.9485 105.938L50.7084 105.949C50.5398 106.153 50.3712 106.143 50.2026 105.949C50.2026 105.269 50.2026 104.59 50.2026 103.91C52.4147 103.062 52.0213 104.814 52.2359 105.959C52.1592 106.025 52.0826 106.092 52.006 106.163C51.6892 106.265 51.4134 106.219 51.1886 105.954V105.959Z" fill="#95A2B4"/>
<path d="M49.3649 97.289C48.8132 97.7692 48.6446 98.0399 48.476 98.0348C48.006 98.0246 47.7966 97.6466 47.7608 97.2277C47.7404 96.9671 47.6433 96.4869 48.1848 96.6708C48.5629 96.7985 48.9052 97.0438 49.3598 97.289H49.3649Z" fill="#95A2B4"/>
<path d="M49.6461 102.761C48.982 102.526 48.5068 102.163 48.6703 101.351C50.7291 100.61 49.1914 102.383 49.6461 102.761Z" fill="#95A2B4"/>
<path d="M53.2217 107.456L52.9714 107.466L52.7211 107.451C52.6087 107.318 52.5321 107.164 52.4861 106.996C52.3788 106.751 52.1285 106.613 52.0212 106.368C51.9957 106.173 52.0723 106.035 52.2511 105.954H52.2358C53.232 106.01 53.2626 106.705 53.2217 107.445V107.456Z" fill="#95A2B4"/>
<path d="M50.2026 105.949C50.3712 105.949 50.5398 105.949 50.7084 105.949C50.7084 106.117 50.7084 106.286 50.7084 106.46C50.5398 106.46 50.3712 106.46 50.2026 106.46C50.2026 106.291 50.2026 106.123 50.2026 105.949Z" fill="#95A2B4"/>
<path d="M55.2042 117.024C54.2489 116.176 54.9947 115.109 54.8312 114.158C55.6231 115.027 55.2042 116.054 55.2042 117.024Z" fill="#95A2B4"/>
<path d="M52.2511 105.964C52.2204 106.127 52.2051 106.296 52.2102 106.464C52.0876 106.674 51.9241 106.842 51.7198 106.97C51.5461 106.97 51.3724 106.965 51.2038 106.96C51.2038 106.628 51.1987 106.296 51.1936 105.969C51.5461 105.969 51.8986 105.969 52.2511 105.969V105.964Z" fill="#95A2B4"/>
<path d="M51.7147 106.965C51.8782 106.797 52.0416 106.628 52.2051 106.46C52.3788 106.608 52.5525 106.761 52.7262 106.909C52.6036 107.124 52.4503 107.139 52.2715 106.981C52.0876 106.976 51.8986 106.965 51.7147 106.96V106.965Z" fill="#95A2B4"/>
<path d="M52.2718 106.985C52.4251 106.975 52.5784 106.95 52.7265 106.914C52.7265 107.093 52.7214 107.277 52.7163 107.455C52.5681 107.297 52.42 107.144 52.2718 106.985Z" fill="#95A2B4"/>
</svg>
