<svg width="238" height="201" viewBox="0 0 238 201" fill="none" xmlns="http://www.w3.org/2000/svg">
<path d="M150.8 87.5297C150.919 88.0122 150.816 88.4118 150.367 88.6816C150.063 89.4651 149.185 89.7609 148.835 90.508L148.896 90.6533C147.524 91.4991 147.462 92.5888 148.308 93.8445C148.535 93.8808 148.762 93.9171 148.984 93.9534C149.578 94.5034 150.104 95.095 150.15 95.9667C149.686 97.1497 151.745 97.7049 150.898 98.9814C150.542 99.1526 150.186 99.329 149.83 99.5003C148.504 99.9361 148.608 101.425 147.823 102.261C146.58 102.821 146.533 103.667 147.235 104.699C148.061 106.853 145.811 106.375 145.104 107.221C144.155 106.962 143.185 106.63 142.772 108C142.287 108.991 141.523 109.696 140.589 110.241C139.294 110.921 138.025 110.822 136.771 110.127C135.765 109.624 135.744 110.215 135.853 110.957C133.727 110.454 132.607 111.279 132.452 113.489C132.416 114.039 132.468 114.709 131.787 115.01C130.693 114.6 130.409 115.658 129.795 116.115C130.063 117.018 129.062 117.127 128.81 117.703C128.65 117.791 128.485 117.822 128.319 117.781C127.865 117.666 127.308 116.727 127.03 117.952C126.132 118.465 124.775 117.21 124.13 118.709C124.615 119.96 125.564 121.257 123.794 122.295C122.577 123.011 123.449 124.381 122.86 125.299C122.241 126.42 121.039 126.544 120.023 126.98L120.054 126.949C119.605 127.344 118.676 126.809 118.526 127.759C118.49 127.966 118.444 128.174 118.418 128.381C118.433 128.703 118.568 128.973 118.784 129.201C119.006 129.429 119.176 129.673 119.037 130.011C118.702 130.145 118.366 130.275 118.036 130.41C117.861 130.711 117.598 130.887 117.273 130.996C116.55 131.142 116.416 131.946 115.859 132.273C115.694 132.221 115.529 132.164 115.358 132.112C114.894 130 113.408 131.178 112.293 131.152C111.556 133.726 109.419 135.64 107.144 135.76C106.463 136.377 106.628 137.109 106.871 137.851C106.896 138.333 106.69 138.738 106.453 139.133C105.818 140.326 104.616 141.172 104.378 142.609C103.811 143.958 102.485 142.51 101.773 143.32C101.541 143.574 101.288 143.756 100.942 143.517L100.983 143.548C100.493 142.946 99.9823 142.941 99.4405 143.481C99.2548 143.662 99.0742 143.839 98.8884 144.02C97.6914 143.46 96.4995 143.725 95.3127 144.052L94.7555 144.508C93.6874 143.777 94.3014 141.997 92.9031 141.488C92.7845 141.483 92.6451 141.467 92.5007 141.457C92.5574 141.722 92.8361 141.597 92.9857 141.732C93.2695 141.955 93.4294 142.194 93.1869 142.531C91.6751 143.128 90.282 143.335 89.5699 141.384C89.0746 141.208 88.4193 141.504 88.0685 140.881C88.0685 140.684 88.0736 140.482 88.0788 140.284C87.2119 139.688 86.3709 139.843 85.5454 140.378C85.7105 140.741 85.8756 141.099 86.0407 141.462C85.6486 141.929 84.9262 142.303 85.5712 143.071C85.7621 143.87 85.953 144.669 86.1387 145.468C86.4948 146.195 86.8869 146.9 87.1449 147.668C85.824 149.204 87.764 150.449 87.5215 151.892C86.7889 152.421 86.4947 153.386 85.6434 153.796C85.4215 153.822 85.2048 153.848 84.9829 153.874C84.663 154.538 84.1161 154.932 83.4454 155.182C82.5579 155.285 81.6756 155.135 80.7933 155.047C79.8439 154.766 78.9357 154.881 78.0638 155.337C77.3053 155.441 76.5468 155.394 75.7883 155.42C74.1062 154.891 72.5119 155.368 70.9175 155.866C69.091 155.861 67.218 155.576 65.5875 156.754C64.7413 157.127 63.8281 157.101 62.9354 157.184C62.2853 157.267 61.8725 157.6 61.6042 158.222C60.1337 161.642 57.9305 164.174 53.9575 164.563C53.8182 164.578 53.7202 164.796 53.6531 164.962C53.5344 165.279 53.3435 165.544 53.1216 165.788L53.1423 165.756C52.5179 166.322 51.455 166.171 51.0371 167.069C51.0577 167.297 51.0784 167.526 51.099 167.754C50.903 168.05 50.6243 168.169 50.2786 168.164C49.6853 168.019 49.0713 167.624 48.5501 168.325C45.6452 169.674 48.6172 170.67 48.7565 171.838C49.3602 172.787 48.7359 173.737 48.772 174.686C48.3936 175.098 48.3145 175.345 48.5346 175.428C49.0145 175.766 49.417 176.165 49.644 176.71C48.6052 178.128 49.0076 179.628 50.8514 181.209C51.455 182.179 51.2848 182.988 50.3457 183.632C48.2509 183.222 46.414 183.902 44.3707 184.415C40.5267 185.38 36.5744 186.32 32.5653 186.589C31.2702 186.678 29.9803 186.465 29.1392 185.24C28.7677 184.576 28.6645 183.813 28.2827 183.134C27.0495 180.939 27.1889 180.711 29.8306 180.046C30.0061 180.005 30.1763 179.927 30.3105 179.808C30.3311 179.403 29.9751 179.512 29.7739 179.413C29.3559 179.289 29.0928 178.972 28.8193 178.671C28.3446 178.163 27.6687 178.241 27.0753 178.085C25.5429 177.758 23.9692 177.566 22.7205 176.471C22.4213 176.212 22.251 175.885 22.2046 175.496C22.1839 175.335 22.1839 175.174 22.2149 175.013C21.5235 173.675 21.4151 172.087 20.4864 170.847C20.3677 170.395 20.1974 169.949 20.3987 169.477C20.7031 168.849 21.5957 168.283 20.5844 167.521C20.0014 166.851 19.5576 166.156 20.1561 165.263C20.1665 164.791 20.1768 164.319 20.1871 163.852C19.0158 162.794 19.7485 161.195 19.1087 159.986C19.1087 159.374 19.1087 158.762 19.1087 158.15C19.1552 157.605 18.6547 157.184 18.7682 156.624C18.9127 156.09 18.8869 155.54 18.8714 154.995C18.5773 154.04 19.3358 153.101 18.9075 152.141C18.9178 151.456 18.5928 150.823 18.5979 150.138C18.4792 149.842 18.3554 149.541 18.2367 149.246C17.3441 148.462 17.7724 147.149 17.0655 146.293C16.5547 145.478 17.1325 144.519 16.7095 143.693C16.5805 143.029 16.1367 142.536 15.7962 141.986C15.6827 141.675 15.662 141.359 15.7085 141.037C15.8684 140.43 15.8994 139.823 15.6414 139.226C15.533 138.795 15.275 138.463 14.9603 138.167C14.7952 137.783 14.6301 137.399 14.465 137.021C14.9603 136.434 15.1099 135.822 14.6249 135.153C14.4185 134.603 14.2225 134.047 14.0728 133.472C13.7787 132.346 14.4443 131.043 13.4485 130.042L13.4795 130.094C14.0625 128.879 12.9944 128.148 12.6384 127.209C12.3804 125.714 10.9822 124.718 10.8738 123.161L10.8841 122.969C11.0389 122.295 10.7138 121.807 10.2753 121.361C10.1308 120.951 9.95537 120.557 9.85733 120.136C9.86249 119.809 9.86765 119.488 9.87797 119.161C10.0328 118.237 9.12465 117.272 9.97601 116.369C10.5591 116.042 11.1524 116.037 11.7561 116.322C12.1483 116.525 12.1431 116.971 12.3185 117.308C12.6178 116.68 12.2308 116.125 12.1534 115.549C12.0451 115.056 12.0244 114.449 11.3072 114.496C9.7593 114.605 9.04726 113.536 8.33522 112.441C8.15462 112.166 7.97919 111.891 7.7986 111.611C7.62833 110.563 7.4787 109.515 7.61285 108.451C7.69541 107.579 8.38681 106.728 7.72121 105.825C7.59737 105.021 7.31875 104.3 6.67894 103.76C6.59123 103.537 6.58607 103.314 6.65314 103.086C6.98853 101.84 7.53546 100.683 8.10303 99.5366C8.31974 99.272 8.58288 99.0592 8.84603 98.8517C9.80574 97.8969 8.9131 97.4455 8.31973 96.9214C8.22686 96.8177 8.22686 96.7087 8.31458 96.5997C8.2217 95.9356 9.0421 95.7695 9.08853 95.178C8.79443 93.9846 10.3475 93.6525 10.2804 92.5784C10.0947 92.293 9.82638 92.2515 9.52195 92.3189C9.23301 92.4487 8.95954 92.6043 8.67576 92.7392C7.75733 93.1699 6.89565 93.0921 6.10621 92.4331C5.78631 92.0751 5.56444 91.6703 5.45609 91.2033C5.57992 89.7245 4.80596 88.3443 4.98139 86.8655C4.95044 86.6476 4.9556 86.4296 4.98139 86.2169C5.08459 85.7914 5.36321 85.3037 4.63569 85.1272C4.49122 84.9612 4.38802 84.7796 4.32095 84.572C4.24355 84.2348 4.20743 83.8819 4.33643 83.5706C4.53766 83.0984 4.99171 82.6418 4.19712 82.2941C3.53667 81.796 3.44895 81.1526 3.70694 80.4158C3.38188 80.0214 3.43863 79.5441 3.41284 79.0874C3.93913 78.0601 3.88237 77.2247 2.63888 76.8044L2.66468 76.8407C1.64305 75.7043 3.24773 74.3085 2.30866 73.1618C2.06099 72.0773 2.28286 70.9202 1.79268 69.8721C1.59661 69.0315 1.26639 68.2947 0.342799 68.0301C-0.229931 67.6409 0.00225728 67.3036 0.404716 66.9767C0.956807 66.7588 1.10128 66.214 1.35927 65.7625C1.81848 65.1606 2.09195 64.4861 2.18998 63.7337C2.546 62.6544 1.94747 61.5285 2.32929 60.4544C2.42217 60.252 2.55116 60.0756 2.71111 59.9199C3.22709 59.536 3.63986 59.0482 4.05264 58.5553C4.35707 58.2595 4.78016 58.1246 5.06395 57.8081C5.53864 57.3359 5.36837 56.5835 5.79663 56.0958L6.78214 55.608C7.55094 56.2826 8.41261 56.35 9.34136 56.0024C10.4868 56.5212 11.2608 57.3411 11.4465 58.6331C11.6787 59.6812 12.4011 59.0638 12.9377 59.0742C13.8561 59.7435 14.8004 60.3247 16.018 59.9718C16.7043 59.3751 17.3338 58.7213 18.0819 58.2024C18.438 57.5071 18.7888 56.8066 19.1448 56.1113C20.0478 55.4731 20.9714 56.2774 21.8795 56.075C23.6286 55.0009 22.0188 53.2263 22.736 51.9343C22.3284 51.0886 22.1684 50.248 22.736 49.4074C23.4119 47.8715 24.609 46.4964 24.1807 44.6233C24.996 43.7983 26.1724 43.6218 27.0908 42.9784C27.4933 42.7345 27.937 42.6775 28.3962 42.6723C29.0825 42.8643 29.0876 43.6011 29.4746 44.0369C30.424 45.1785 31.4921 44.4157 32.524 44.2185C33.2154 43.8605 33.912 43.4973 34.6034 43.1393C34.8304 42.8954 34.9284 42.5737 35.1142 42.3039C35.5837 41.6812 35.852 40.9236 36.3938 40.3477C36.7859 39.9637 37.4825 39.8288 37.4206 39.0712C37.3587 38.1061 37.5702 37.1254 37.2658 36.1707C36.8169 34.8994 36.595 33.5607 36.0791 32.3102C35.7746 32.1442 35.4702 31.9833 35.1658 31.8173C33.8862 31.7291 33.0451 30.7587 31.9771 30.2347L32.0235 30.2814C31.5695 29.5861 31.7243 28.8908 32.0184 28.1955C32.3744 27.5936 32.7562 27.0072 33.2515 26.5091C33.6592 26.1459 34.2474 26.0058 34.495 25.4558C34.9852 24.3921 36.3783 24.335 36.884 23.2868C37.1162 23.0378 37.3638 22.8043 37.5702 22.5293C38.2565 21.367 37.498 19.5613 39.1904 18.8452L39.1749 18.8711C39.9953 18.6221 40.7177 18.2018 41.3265 17.5895C42.7403 17.4287 44.1902 17.5169 45.5575 16.998C46.1147 16.23 47.0125 16.6867 47.6988 16.3805C48.483 15.7371 48.3283 15.2338 47.415 15.021C46.6101 14.8342 45.7587 15.3064 44.9383 14.9328C44.768 14.7824 44.6287 14.6059 44.5152 14.4088C44.1644 13.7031 43.8651 12.9715 43.3904 12.3332C43.4472 11.1035 44.4172 9.85297 43.2924 8.64917C43.2408 5.12596 43.6897 4.65377 47.7504 3.97923C48.4572 3.9896 49.1693 4.11932 49.8813 3.96366C50.1135 3.93772 50.3457 3.95328 50.5727 3.98442C50.7946 4.0363 51.001 4.13489 51.1867 4.2698C51.5789 4.67453 51.7801 5.18822 51.9865 5.69673C52.229 6.35571 52.9823 6.37127 53.4003 6.81232C53.6376 7.05101 53.7614 7.35196 53.8904 7.65291C54.2981 8.46237 53.8853 9.7025 55.1494 10.0605C55.2423 10.2058 55.2887 10.3615 55.2887 10.5327C55.7273 12.2969 57.1256 11.9752 58.3742 11.97C59.0244 12.2035 59.6745 12.4422 60.3246 12.6757C61.3927 13.07 62.4453 13.1634 63.4617 12.5252C64.2047 12.6186 64.9684 12.629 65.5566 13.1998C69.4264 12.4163 70.7885 15.2286 72.2384 17.9112C72.7028 18.4301 73.4252 18.4042 73.9773 18.7518C75.004 19.0061 75.9689 19.5613 77.0834 19.4004C78.0431 19.2551 78.879 19.7948 79.7923 19.8882C81.206 19.7481 82.6198 19.9867 84.0336 19.9141C86.4019 19.9141 88.7702 19.8985 91.1385 19.9193C92.2685 19.9297 93.3417 19.8311 94.1879 18.9645L95.4108 18.949C96.7471 20.4434 98.7388 20.2202 100.4 20.874L100.462 22.4722C101.159 22.9236 101.417 23.5618 101.272 24.3713C101.417 25.0043 102.18 25.6218 101.324 26.286C99.9874 26.9968 101.086 27.5261 101.458 28.1124C101.938 29.2955 102.774 29.1035 103.671 28.6936C105.364 29.0257 107.051 29.2747 108.728 28.6158C109.022 28.0554 109.456 27.936 110.008 28.211C110.668 27.9672 110.451 27.0591 111.081 26.7893C112.304 26.2652 113.635 26.0629 114.858 25.5388C115.91 24.2779 116.008 22.8873 115.441 21.3981C115.637 20.6769 116.199 20.3188 116.803 19.9919C117.422 19.7014 117.938 19.2603 118.485 18.866C118.356 18.2225 118.738 17.7659 119.042 17.2782C119.785 17.0395 120.043 16.4947 119.992 15.7527C119.749 14.113 121.163 13.8639 122.092 13.205C124.305 13.1219 125.007 10.7455 126.823 10.0553C127.953 9.29258 129.217 9.61948 130.435 9.6091C132.112 10.1591 133.593 10.1332 134.439 8.23406C134.908 7.81896 135.342 7.13403 135.982 8.02651C136.802 8.7737 137.715 8.57652 138.639 8.28076C139.392 8.27038 140.037 8.55058 140.605 9.03314C141.157 9.63504 141.745 10.2162 141.647 11.1398C142.019 11.8092 142.086 12.5512 142.179 13.288C142.529 14.554 142.586 15.6385 140.749 15.0833C139.924 14.8342 138.964 14.3309 138.525 15.3116C138.221 15.9862 138.572 16.9253 139.17 17.5999C139.743 18.2485 140.079 19.0164 140.094 19.8985C141.203 19.9556 142.266 20.7236 143.417 20.1061C144.222 19.8207 145.027 19.8622 145.826 20.1061C146.518 20.3136 147.163 20.0334 147.828 19.9297C148.422 19.9452 148.912 19.5613 149.49 19.5146C150.609 19.8051 151.724 20.132 152.885 19.7066C153.385 19.4471 153.963 19.3797 154.433 19.0476C155.264 18.757 156.11 18.4872 156.579 17.6362C157.647 17.3456 158.153 16.3546 158.942 15.7163C159.644 15.8357 159.711 15.0729 160.155 14.8394C160.351 14.3154 160.779 14.2323 161.259 14.2427C162.09 14.6111 162.415 13.1375 163.292 13.6771L163.241 13.6668C164.123 14.0871 164.984 14.0352 165.826 13.5526C166.218 13.5786 166.527 13.6719 166.352 14.1753C167.069 14.6059 166.821 16.2456 168.287 15.7267C169.185 15.6748 170.082 15.1975 170.975 15.7527C171.3 15.9187 171.62 16.0848 171.945 16.2456C172.796 17.2522 174.282 16.3546 175.149 17.3197C175.412 17.1329 175.675 16.9513 175.939 16.7645C177.368 16.7489 178.787 16.64 180.18 16.3079C180.376 16.1159 180.572 15.9187 180.773 15.7267C181.248 15.1248 180.892 14.3206 181.269 13.6927C182.461 12.629 183.694 11.8144 185.448 12.1257C186.826 12.3696 187.481 9.6091 189.266 11.0827C190.21 10.8596 190.897 9.12135 192.125 10.595L192.063 10.5535C193.368 11.3785 194.921 10.3148 196.232 11.1035C198.301 10.8181 198.125 12.3436 198.249 13.6304C198.972 14.7357 199.967 15.13 201.247 14.7772C201.789 14.6526 202.119 13.9418 202.805 14.2168C203.755 13.5526 204.864 13.6979 205.922 13.6045C207.263 14.746 208.589 15.8616 210.504 14.6786C211.009 14.3621 211.644 14.3984 212.206 14.7149C213.068 14.4347 214.038 14.6993 214.848 14.1701C215.457 12.8988 216.747 12.6549 217.872 12.162C218.635 12.8002 219.92 12.5615 220.39 13.6875C222.423 14.1908 223.135 15.9498 224.022 17.5428C224.012 17.9631 223.991 18.3834 223.95 18.8037C223.965 19.4471 224.311 19.7117 224.925 19.6754C225.462 19.6132 226.003 19.4315 226.54 19.6858C227.195 19.9141 227.737 20.3292 228.294 20.7287C228.996 21.1854 229.749 21.4967 230.596 21.5382C230.993 21.7717 231.602 21.8703 231.204 22.5708C231.504 23.7435 231.117 24.4647 229.909 24.8072C228.557 25.1911 227.242 25.6945 225.911 26.1459C225.513 26.7893 224.92 27.3653 225.209 28.2422C224.971 29.0828 225.266 29.97 224.982 30.8054C224.729 31.4281 224.977 32.0352 225.044 32.6527C225.106 32.9899 225.245 33.2909 225.441 33.5711C226.194 34.1834 227.52 33.5244 228.005 34.7334C228.227 36.015 228.062 37.3122 228.134 38.5991C228.176 39.3359 227.928 40.2024 228.888 40.5916C229.084 41.7123 228.279 41.9407 227.484 42.169C225.668 43.0511 226.695 43.6374 227.701 44.2237C228.537 43.5025 229.687 43.2379 230.487 43.6997C231.184 44.0992 230.554 45.0851 230.193 45.7596C229.724 46.7299 229.894 47.721 230.08 48.7173C229.945 48.9404 229.816 49.1635 229.682 49.3866C229.048 49.9366 229.254 50.4503 229.744 50.9536C230.756 52.3806 229.894 52.8009 228.65 53.0136C227.593 52.6296 226.932 54.4302 225.782 53.5325C225.317 54.5547 223.842 54.4872 223.511 55.6547C224.043 56.1425 223.666 56.7029 223.64 57.2373C224.337 58.8822 226.06 57.7251 227.066 58.5086C227.268 58.7836 227.03 58.41 227.247 58.6746C227.51 58.9911 227.629 59.4062 227.938 59.6864C227.747 59.3025 227.794 58.9652 228.129 58.685C229.254 60.2416 228.805 61.8035 228.15 63.3653C227.639 64.5172 227.133 65.664 226.623 66.8107C226.132 67.5371 225.358 67.8796 224.615 68.3155C225.348 68.6839 226.05 68.44 226.757 68.2324C227.433 68.1079 227.907 68.4607 228.33 68.9173C228.604 69.3013 228.877 69.6853 229.151 70.0693C229.713 70.749 230.673 70.5882 231.302 71.1174C232.107 71.8594 231.617 72.8245 231.731 73.6859C232.427 74.5213 233.599 74.4175 234.403 75.035C234.739 75.5072 235.317 75.7355 235.611 76.244C235.812 77.3233 236.72 77.7695 237.499 78.3351C237.654 79.2742 236.669 78.9629 236.354 79.3936C235.74 79.4247 235.415 79.762 235.327 80.3587C236.137 81.3965 236.235 82.3045 234.842 82.922C234.816 84.6135 233.372 83.5498 232.721 84.022C232.401 83.7989 232.076 83.2541 231.762 84.022C229.615 84.1102 229.873 81.355 228.155 80.945C227.541 81.0748 227.206 81.6767 226.623 81.8635C226.607 82.0762 226.586 82.289 226.571 82.5017C226.272 82.7819 225.678 82.0918 225.524 82.8338C224.884 83.2852 224.631 83.9753 224.404 84.6862C224.234 85.2466 223.052 85.2414 223.584 86.1909C223.227 87.0419 222.562 87.6438 221.963 88.308C222.335 90.1863 220.751 91.4939 220.539 93.2166C220.436 94.0728 220.075 95.2662 220.679 95.6554C224.099 97.8917 221.231 99.1215 220.018 100.631C219.461 100.522 219.389 100.979 219.234 101.332C219.043 101.861 218.465 102.157 218.398 102.759C217.17 103.33 215.947 103.376 214.745 102.686C214.317 101.846 213.672 101.176 213.047 100.491C212.727 100.159 212.289 100.04 211.907 99.8168C211.345 99.464 210.622 99.4847 210.096 99.0437L210.122 99.0644C209.518 98.3743 210.153 97.8554 210.369 97.2846C210.194 95.4686 210.818 93.6006 210.019 91.8208C208.192 90.918 207.924 89.8854 209.436 88.2976C210.524 87.1561 209.265 85.1324 210.689 83.9649C211.737 82.2734 212.304 80.5818 210.664 78.9058C210.137 77.4374 208.146 78.1223 207.542 76.768C207.294 75.9171 206.799 75.2529 206.066 74.7652L206.004 74.734C205.148 73.7741 204.487 74.5472 203.791 74.9883C203.063 75.4812 201.985 74.926 201.381 75.7925L201.397 75.7718C200.649 76.2595 200.721 77.3648 199.885 77.7851C198.708 77.2506 197.166 78.0601 196.185 76.7784C195.865 76.3426 195.308 76.2647 194.911 75.9482C194.235 75.2996 193.373 75.3515 192.532 75.3152C192.016 74.6251 191.382 74.1996 190.479 74.4331C190.056 74.5472 189.715 74.8637 189.287 74.9675C187.976 75.0402 186.232 76.2595 186.041 73.6029C185.035 73.9972 184.818 74.9156 184.282 75.5487C184.132 75.7303 183.941 75.8652 183.714 75.9378C182.827 75.7407 182.92 74.9156 182.682 74.3085C182.466 73.8571 182.832 73.167 182.125 72.9127C181.614 72.7415 181.088 72.6014 180.629 72.2953C180.159 71.8127 179.922 71.1952 179.659 70.5985C179.54 70.4169 179.401 70.2561 179.241 70.1056C178.911 69.5971 178.472 69.2339 177.873 69.099C177.002 68.2376 175.944 69.457 175.051 68.8343C173.679 69.2754 172.714 67.9885 171.45 67.9834C170.583 67.6409 169.731 67.5216 168.916 68.1235C167.471 68.2013 166.465 67.2258 165.304 66.6239C165.01 66.5305 164.783 66.3489 164.598 66.1258C164.489 66.0427 164.345 65.7833 164.314 66.1984C164.541 66.6239 164.582 67.1013 164.804 67.5112C164.825 67.6772 164.835 67.8433 164.819 68.0093C165.242 68.8343 165.119 69.6801 164.897 70.5259C164.376 71.4962 163.385 72.2019 163.271 73.4057C163.468 75.227 163.715 77.0482 163.271 78.8695C159.871 79.6842 160.893 82.4809 160.645 84.7225C160.614 85.0183 160.33 85.2881 160.165 85.5683C160 85.4178 159.871 85.2466 159.783 85.0442C159.665 84.6291 159.685 84.2244 159.809 83.7989C159.902 83.4772 159.665 83.3527 159.763 83.6796C159.861 84.0116 159.319 83.7989 159.649 83.8767C159.257 84.3593 158.798 84.7381 158.328 85.1169C158.127 85.2362 157.911 85.2985 157.673 85.314C156.858 85.2258 156.022 85.1999 155.496 84.4112C154.825 83.7678 154.154 83.1192 153.489 82.4757C152.415 82.2371 151.997 83.1192 151.414 83.7107C151.466 84.0895 151.254 84.2296 150.924 84.2659C151.425 85.3763 149.753 86.4141 150.816 87.5452L150.8 87.5297Z" fill="#95A2B4"/>
<path d="M29.4282 184.877C31.6624 186.802 34.1494 185.904 36.4661 185.297C38.4578 184.779 40.3875 184.296 42.472 184.28C43.7568 184.27 45.1964 184.208 45.9084 182.62C46.5946 181.084 47.6988 182.397 48.5295 182.506C49.1487 182.589 49.5821 183.611 50.5006 183.357C50.9701 182.916 51.4912 182.853 52.0588 183.149C52.6625 184.312 51.646 185.235 51.6047 186.304C51.4035 186.522 51.2074 186.745 51.0062 186.963C50.7585 187.383 50.4954 187.788 50.0259 188.001C49.2519 188.338 48.7359 188.769 49.1023 189.76C49.3603 190.455 49.3035 191.15 48.4418 191.41C47.5905 191.669 46.9971 191.316 46.5431 190.554C45.9806 189.609 45.4079 188.665 44.6082 187.726C45.6607 189.391 45.6969 190.912 44.2676 192.276C43.9322 192.608 43.5453 192.878 43.2202 193.221C42.1728 194.632 41.8425 197.066 39.1388 196.137C38.2101 195.826 38.6693 194.819 38.2153 194.269C38.045 193.786 37.8747 193.304 37.7096 192.821C37.5548 192.64 37.3845 192.484 37.1885 192.349C35.4084 190.87 36.9666 190.341 38.0037 189.708C37.5961 189.033 36.9718 188.727 36.4351 188.328C35.6354 187.731 34.8305 187.881 34.103 188.494C33.3703 189.106 33.4631 189.812 33.9482 190.543C34.2887 191.057 34.5157 191.597 34.2681 192.23C34.0617 192.572 33.7727 192.821 33.4219 193.003C32.1113 193.179 30.7594 193.511 29.8359 192.11C29.4747 191.607 29.5005 190.932 29.1238 190.434C28.9432 190.139 28.7781 189.827 28.5562 189.552C28.1589 188.966 27.8132 188.354 27.6327 187.658C27.4521 187.082 27.4933 186.47 27.2973 185.889C27.0754 185.23 26.8948 184.493 27.7565 184.12C28.5511 183.777 29.0464 184.249 29.4437 184.877H29.4282Z" fill="#95A2B4"/>
<path d="M36.5693 15.7786C35.9037 16.0121 35.1762 16.9616 34.7996 15.3738C34.4281 13.8016 33.6386 12.245 36.0843 11.7468C36.6467 11.0775 36.1875 10.4185 36.0637 9.75952C35.589 8.96045 34.5158 8.48307 34.7789 7.29483C34.7015 6.19999 35.5942 6.16367 36.2804 5.89385C36.7603 5.6863 37.2401 5.48393 37.7767 5.4995C38.463 5.60847 39.0408 5.82121 38.8603 6.71369C37.8077 7.90712 39.3298 8.87743 39.0202 10.0034C39.175 8.94488 38.1173 8.05759 38.7055 6.92643C39.0409 6.5217 39.3556 6.02876 39.9696 6.54245C41.2389 8.59204 41.146 10.6831 40.1812 12.8054C38.4681 13.1634 36.6725 13.428 36.5797 15.7786H36.5693Z" fill="#95A2B4"/>
<path d="M29.4281 184.877C28.8915 184.701 28.3394 184.104 27.7976 184.556C27.0804 185.152 27.9421 185.567 28.1588 186.04C28.4477 186.678 27.9937 187.176 27.9163 187.742C27.8337 188.105 27.648 188.177 27.3487 187.949C27.1372 187.757 26.9204 187.56 26.7089 187.368C26.2239 186.735 25.2539 186.766 24.8514 186.014C24.4335 185.49 24.2787 184.96 24.7998 184.405C23.2932 183.258 23.4634 181.603 23.4892 180C23.9433 179.253 24.2941 179.714 24.5986 180.124C25.0423 180.716 24.9855 181.629 25.8524 182.06C27.132 180.856 26.4045 178.936 27.3642 177.639C28.0711 177.717 28.8863 177.39 29.4126 178.173C28.0659 180.275 30.7438 179.299 30.9553 180.213C30.6819 180.597 30.3001 180.726 29.846 180.737C28.2362 180.763 26.972 180.949 28.9327 182.688C29.5983 183.279 29.3816 184.12 29.4229 184.877H29.4281Z" fill="#95A2B4"/>
<path d="M34.0409 192.059C33.623 190.673 31.4507 189.469 33.5765 187.814C35.4289 186.377 36.7859 187.539 38.081 188.769C38.5402 189.205 39.3399 189.329 39.3864 190.092C39.5721 191.477 35.6559 189.21 37.6424 192.168C37.0593 192.406 36.4505 192.77 36.1048 191.851C35.6353 191.592 35.1812 191.379 35.0574 192.188C34.691 192.401 34.3402 192.443 34.0512 192.059H34.0409Z" fill="#95A2B4"/>
<path d="M50.5727 181.302C49.9587 181.276 49.484 180.975 49.0403 180.566C47.1002 178.77 47.2137 177.701 49.4892 176.586C49.4427 176.15 49.5201 175.859 50.0516 176.103L51.0268 176.326C51.5015 177.214 52.6211 176.928 53.2351 177.556C53.8337 178.314 53.4725 179.258 53.7202 180.088C53.8543 180.623 53.6428 181.027 53.2609 181.37C52.358 181.609 51.455 181.806 50.5676 181.302H50.5727Z" fill="#95A2B4"/>
<path d="M53.0958 164.433C52.7862 163.894 53.0029 163.64 53.555 163.676C57.8376 163.946 59.7364 161.196 60.9489 157.693C61.2275 156.884 61.8467 156.79 62.3781 156.438C62.5433 156.619 62.6464 156.827 62.6877 157.065C62.9457 158.394 60.7477 159.904 62.9767 161.092C62.9148 161.299 62.8528 161.507 62.7909 161.715C62.1614 162 61.2327 161.616 60.9076 162.576C60.6703 162.607 60.4329 162.638 60.1904 162.664C59.7776 162.97 59.2978 163.199 58.9985 163.65C58.2555 164.299 58.3432 165.269 58.0491 166.094C57.5074 166.81 56.8779 167.37 55.9027 167.303L55.9388 167.324C55.2164 166.135 54.298 165.144 53.0958 164.433Z" fill="#95A2B4"/>
<path d="M27.3694 177.644C27.7977 179.112 27.2714 180.477 26.936 181.862C26.8019 182.418 26.9154 183.17 26.095 183.227C25.2643 183.289 25.0476 182.537 24.6451 181.992C24.1446 181.312 24.6606 180.192 23.6338 179.787L23.4068 179.87L23.252 179.683C23.2416 179.538 23.2468 179.398 23.2675 179.252C23.1952 178.194 21.8692 177.307 22.8495 176.103C24.222 177.016 25.8938 177.042 27.3746 177.633L27.3694 177.644Z" fill="#95A2B4"/>
<path d="M50.547 4.35291C50.3664 4.35291 50.191 4.35291 50.0104 4.3581C49.4944 3.87554 48.9785 4.18687 48.4677 4.36329C48.06 4.47225 47.6524 4.67981 47.25 4.67981C44.2264 4.65386 43.5195 6.42325 43.8394 9.02804C42.8229 9.12144 42.7352 8.2601 42.8023 7.70489C43.0345 5.86286 42.1573 4.76283 40.6816 3.94818C40.5784 3.69393 40.6404 3.48119 40.8416 3.29958C40.9912 3.12316 41.146 2.95193 41.2956 2.77551C42.3121 2.40191 43.3079 2.44861 44.2883 2.89485C45.5369 3.48638 46.7753 3.7095 47.9672 2.74957C47.9775 2.57315 47.993 2.39154 48.0033 2.21512C48.5915 1.27075 49.8969 1.56651 50.5419 0.720735C51.8782 0.393839 52.3013 1.63397 53.1063 2.22549C53.2352 2.35003 53.292 2.48494 53.2817 2.63541C53.2714 2.79108 53.2507 2.86372 53.2146 2.86372C52.4561 3.59016 51.1662 3.36704 50.5522 4.35291H50.547Z" fill="#95A2B4"/>
<path d="M71.093 155.446C72.5428 154.382 74.0598 153.926 75.7522 154.886C75.9431 155.093 76.0566 155.332 76.0876 155.612C75.8296 156.385 76.3456 157.262 75.7574 157.984C73.2601 161.024 72.6151 157.366 71.1394 156.697C70.7731 156.292 70.7937 155.872 71.093 155.441V155.446Z" fill="#95A2B4"/>
<path d="M43.8341 192.111C45.0105 190.777 45.3098 189.48 43.7928 188.146C43.3182 187.726 43.0911 187.052 43.7464 186.626C44.3449 186.237 44.928 186.652 45.2737 187.15C45.9341 188.115 46.6204 189.091 47.0848 190.155C47.3582 190.777 47.5027 191.275 48.256 191.021C49.2312 190.684 48.6585 190.18 48.385 189.656C47.4098 187.788 48.9371 187.783 50.0361 187.477C50.2838 188.375 49.8039 189.267 50.0361 190.165C50.0516 191.343 50.1703 192.588 48.4418 192.624C47.9619 191.986 47.3118 192.261 46.7132 192.298C46.2644 192.152 45.8464 191.758 45.3304 192.116C44.8299 192.308 44.3295 192.635 43.8393 192.111H43.8341Z" fill="#95A2B4"/>
<path d="M183.946 75.6162C183.611 74.3916 184.818 73.8727 185.18 72.9647C185.376 72.4769 186.108 72.5599 186.588 72.6793C187.569 72.9128 186.748 73.3902 186.691 73.7845C186.588 74.5161 186.501 75.3515 187.615 74.5006C188.343 73.9454 188.884 74.4435 189.473 74.7496C190.308 76.2233 190.422 77.4323 188.358 77.8577C187.883 77.6606 187.403 77.4686 186.929 77.2714C186.258 76.1299 184.715 76.5813 183.946 75.6162Z" fill="#95A2B4"/>
<path d="M36.5693 15.7787C35.7644 14.3984 36.4352 13.48 37.4671 12.5875C38.5352 11.6639 39.0666 12.5875 39.7426 13.122C40.9293 12.0635 42.5443 12.7588 43.8342 12.1257C44.5256 12.6809 44.83 13.4229 44.8249 14.2998C42.9777 14.8291 41.0067 13.947 39.1853 14.7928C38.4423 15.4725 37.5394 15.7164 36.5693 15.7839V15.7787Z" fill="#95A2B4"/>
<path d="M27.3642 198.851C27.5293 195.722 29.6912 196.609 31.492 196.775C31.9615 197.818 32.0647 198.856 31.492 199.899C30.1092 200.584 28.7367 199.8 27.359 199.862C27.0495 199.525 27.0495 199.188 27.359 198.851H27.3642Z" fill="#95A2B4"/>
<path d="M62.9767 161.092C61.3772 161.216 60.4123 160.915 61.4958 159.042C61.8725 158.393 62.0892 157.657 62.3833 156.956C63.1573 156.557 63.8487 156.484 64.1531 157.522C64.3698 158.264 65.0819 158.471 65.5669 158.928C65.8094 159.618 66.119 160.287 66.0261 161.045C65.0148 161.517 63.9931 161.154 62.9767 161.092Z" fill="#95A2B4"/>
<path d="M94.1776 18.9336C94.3324 20.6148 93.0477 20.3398 92.1189 20.3709C89.4152 20.4539 86.7115 20.4539 84.013 20.4851C83.8014 20.1582 83.2081 20.0232 83.4867 19.4473C87.0417 19.0841 90.6432 19.7223 94.1776 18.9336Z" fill="#95A2B4"/>
<path d="M104.059 142.215C103.728 140.425 105.591 140.035 106.195 138.842C106.355 138.992 106.473 139.179 106.556 139.382C106.736 139.999 106.865 140.632 107.077 141.239C107.154 141.431 107.216 141.634 107.289 141.825C107.479 142.448 108.248 142.656 108.362 143.33C107.892 144.43 107.046 144.306 106.153 144.01C105.766 144.01 105.348 144.114 105.116 143.657C104.745 143.185 104.146 142.884 104.059 142.209V142.215Z" fill="#95A2B4"/>
<path d="M27.3952 43.0977C26.7038 44.4208 25.4035 44.426 24.1807 44.5973C23.6957 43.9279 23.2106 43.2585 22.7256 42.5892C22.7772 41.5462 23.2055 41.0792 24.2581 41.5981C24.8876 41.759 25.517 41.925 26.1465 42.0859C26.4871 42.5217 27.5035 42.1118 27.4003 43.0977H27.3952Z" fill="#95A2B4"/>
<path d="M8.31458 112.436C9.58903 113.251 10.5178 114.408 12.5456 113.728C13.6136 113.37 12.7519 114.87 12.5559 115.539C12.3959 115.762 12.1895 115.923 11.9315 116.006C11.0183 115.944 10.1463 116.572 9.21238 116.172C8.80476 115.612 8.58289 114.999 8.73252 114.294C9.50648 113.469 6.80278 113.427 8.31458 112.431V112.436Z" fill="#95A2B4"/>
<path d="M71.093 155.446C71.1084 155.867 71.1239 156.282 71.1394 156.702C69.2922 156.043 67.5534 155.778 66.5318 158.02C66.3357 158.196 66.1138 158.222 65.8765 158.108C65.4327 157.641 65.149 157.128 65.3657 156.458C65.7372 154.953 66.9497 155.586 67.8423 155.514C68.9207 155.426 70.0094 155.462 71.093 155.446Z" fill="#95A2B4"/>
<path d="M39.1336 195.815C41.7289 196.412 41.4915 193.584 42.864 192.697C43.2923 192.925 43.5451 193.33 43.8444 193.688C43.509 195.182 43.2407 196.739 41.1871 196.718C40.5989 196.21 39.8404 196.905 39.2471 196.438C39.1284 196.319 39.0768 196.184 39.082 196.038C39.0871 195.888 39.1078 195.815 39.1387 195.815H39.1336Z" fill="#95A2B4"/>
<path d="M6.22489 92.4279C7.06593 92.4227 7.9018 92.4175 8.74284 92.4071C9.03694 92.8845 8.80475 93.2736 8.54161 93.6576C8.17527 94.0675 7.71089 93.917 7.26716 93.8963C5.33226 93.2269 6.67379 96.1898 4.89368 95.6605C4.89368 95.1883 3.47476 94.7732 4.5841 93.7666C5.2755 93.4968 5.36322 92.4797 6.22489 92.4227V92.4279Z" fill="#95A2B4"/>
<path d="M228.877 40.5656C227.551 40.7472 227.613 39.8235 227.603 38.957C227.582 37.4419 227.572 35.9216 227.557 34.4064C227.624 34.0536 227.84 33.8356 228.186 33.7474C229.249 35.9371 228.109 38.3499 228.877 40.5707V40.5656Z" fill="#95A2B4"/>
<path d="M48.4365 171.521C48.0857 170.463 45.7999 170.878 46.6719 168.641C47.2291 167.209 47.7658 167.759 48.5242 167.853C49.0402 167.687 49.1537 167.905 49.0144 168.366C49.3395 169.28 47.5955 169.762 48.5191 170.8C48.7203 171.065 48.6945 171.303 48.4417 171.521H48.4365Z" fill="#95A2B4"/>
<path d="M150.898 98.9818C150.976 97.7676 148.54 97.5652 149.681 95.9256C150.243 95.8841 150.8 95.6039 151.373 95.8581C152.395 97.0827 153.262 98.2813 150.898 98.9818Z" fill="#95A2B4"/>
<path d="M226.576 68.5021C225.271 70.5154 224.564 68.2323 223.48 68.0766C224.868 68.3568 225.24 66.3955 226.607 66.795C226.736 66.9247 226.886 66.9766 227.066 66.961C227.706 67.7342 227.133 68.113 226.576 68.5021Z" fill="#95A2B4"/>
<path d="M2.58733 60.0602C2.45317 61.4197 3.32001 62.7532 2.69052 64.1282C2.41705 64.2476 2.13843 64.3721 1.83917 64.4292C1.44703 64.4915 1.04457 64.6264 0.667908 64.3566C1.11164 62.7895 1.55022 61.2225 1.99396 59.6607C2.49961 59.339 2.57185 59.6607 2.58733 60.0654V60.0602Z" fill="#95A2B4"/>
<path d="M38.695 6.95245C38.6795 6.25714 38.2873 5.94581 37.6321 5.9043C37.3173 5.49958 37.3431 5.10523 37.6733 4.72644C37.9468 4.15048 38.3183 3.725 39.0355 3.85472C39.6856 3.47075 40.0675 3.91698 40.4648 4.31652C40.8053 5.22976 40.6969 5.98733 39.7269 6.44913C39.3812 6.61517 39.0355 6.7864 38.6846 6.95245H38.695Z" fill="#95A2B4"/>
<path d="M53.0907 2.81701C53.0907 2.61983 53.0907 2.42266 53.0959 2.22548C54.7109 2.01793 54.6438 3.284 54.6283 4.21799C54.6128 5.30764 54.2878 6.39211 54.0969 7.48176C53.9524 7.63742 53.8234 7.63224 53.7047 7.45582C53.488 7.2794 53.2713 7.10816 53.0598 6.93174C52.8018 5.56189 52.9256 4.19205 53.0907 2.8222V2.81701Z" fill="#95A2B4"/>
<path d="M188.358 77.8577C189.854 77.2298 189.457 75.9119 189.473 74.7496C189.519 74.3241 189.596 73.909 190.02 73.6703C190.499 74.0698 190.721 74.6354 191.01 75.1595C190.706 76.135 190.365 77.1053 190.118 78.0964C189.978 78.6516 189.71 79.1808 189.209 79.1964C188.368 79.2275 188.786 78.2261 188.363 77.8525L188.358 77.8577Z" fill="#95A2B4"/>
<path d="M210.643 78.8904C212.583 80.3951 212.593 82.2164 210.669 83.9495C211.04 82.2631 211.35 80.5716 210.643 78.8904Z" fill="#95A2B4"/>
<path d="M47.8587 16.7594C47.1982 17.3198 46.5223 17.0656 45.8515 16.801C45.6606 16.9462 45.5058 16.9099 45.382 16.7076C45.2066 16.3962 45.0363 16.0849 44.8609 15.7684C45.4388 15.0212 46.3314 15.0004 47.1363 14.7566C47.6987 14.5853 48.1734 14.6424 48.4727 15.1457C48.9319 15.9085 48.612 16.4325 47.8587 16.7646V16.7594Z" fill="#95A2B4"/>
<path d="M100.39 20.8431C98.3982 21.0611 96.4633 21.1337 95.4004 18.9181C96.8451 19.2813 98.166 20.1427 99.7603 19.9507C100.307 19.8832 100.369 20.4073 100.385 20.8431H100.39Z" fill="#95A2B4"/>
<path d="M50.5726 181.302C51.3827 181.131 52.1721 180.602 53.0287 181.136C53.4105 181.463 53.3847 181.821 53.1215 182.205C52.9358 182.475 52.7552 182.745 52.5694 183.02C52.523 183.31 52.3631 183.419 52.0793 183.336C51.553 183.347 51.0267 183.357 50.5004 183.367C50.5262 182.682 50.552 181.992 50.5726 181.302Z" fill="#95A2B4"/>
<path d="M48.4367 171.521C48.4625 171.283 48.4883 171.044 48.5141 170.8C49.2416 170.893 48.9165 171.827 49.4944 172.04C50.0826 172.902 49.6028 173.514 49.0145 174.1C49.3602 174.764 49.706 175.428 50.0517 176.093C49.8659 176.254 49.675 176.414 49.4892 176.575C48.6327 176.778 48.4212 176.254 48.3644 175.558C48.2457 175.444 48.2096 175.325 48.2457 175.211C48.287 175.096 48.3231 175.039 48.3644 175.039C48.3902 173.861 48.4109 172.689 48.4367 171.511V171.521Z" fill="#95A2B4"/>
<path d="M47.8588 16.7593C48.1013 16.2871 48.7721 15.9914 48.22 15.2442C47.7246 14.5748 47.4151 15.1041 46.992 15.2338C46.2902 15.4465 45.5679 15.597 44.8558 15.7682C44.6443 15.431 44.4327 15.0937 44.2212 14.7564C44.4224 14.4762 44.6546 14.4555 44.9074 14.689C45.8259 14.5229 46.7391 14.279 47.6679 14.2116C48.5605 14.1493 49.0404 14.7305 49.0094 15.6126C48.9836 16.2975 49.2571 17.4131 47.8588 16.7541V16.7593Z" fill="#95A2B4"/>
<path d="M29.7791 191.654C30.7646 192.899 32.1319 192.572 33.427 192.546C33.7675 192.593 33.9584 192.801 34.0255 193.133C32.4879 193.942 30.9348 193.89 29.3714 193.205C29.6449 192.723 28.8761 191.965 29.7842 191.649L29.7791 191.654Z" fill="#95A2B4"/>
<path d="M19.1912 152.271C21.3376 153.267 18.1592 153.957 19.0416 154.881C18.8765 155.13 18.6804 155.156 18.4637 154.943C18.1438 154.04 16.4875 153.127 18.4843 152.235C18.732 151.991 18.9642 152.001 19.1912 152.266V152.271Z" fill="#95A2B4"/>
<path d="M7.26724 93.9016C7.62326 93.6992 7.97412 93.5021 8.33015 93.2997C8.68617 93.0454 9.09894 92.9157 9.48076 92.7134C9.96578 92.4954 10.4405 92.2567 10.9513 92.1011C11.9058 92.8638 11.4157 93.5021 10.6365 93.7926C9.80583 94.0988 9.39305 94.5606 9.30017 95.396C9.11442 95.5983 8.93383 95.5932 8.76356 95.3752C8.8874 94.2441 7.14857 95.0276 7.26724 93.9016Z" fill="#95A2B4"/>
<path d="M5.18257 86.6218C6.30223 87.9812 5.24964 89.652 5.81721 91.0893C5.972 91.4266 5.972 91.7172 5.53859 91.8054C5.13097 91.8884 4.99166 91.5719 4.84202 91.2813C5.88429 89.9426 3.94939 89.3822 4.06291 88.2822C4.18158 87.5506 4.03711 86.6425 5.18773 86.6166L5.18257 86.6218Z" fill="#95A2B4"/>
<path d="M45.3821 16.7076C45.5318 16.7803 45.6866 16.8114 45.8517 16.801C46.12 17.7869 45.5215 17.9322 44.7733 17.9166C43.6175 17.8959 42.4617 17.8596 41.306 17.8336C40.7539 17.9322 40.4391 17.8077 40.6868 17.1643C42.2502 17.0138 43.8187 16.8581 45.3821 16.7076Z" fill="#95A2B4"/>
<path d="M130.807 10.0657C129.475 10.0553 128.149 10.045 126.818 10.0346C128.216 8.81002 129.733 8.78408 131.333 9.56759C131.431 10.0294 131.353 10.3044 130.801 10.0657H130.807Z" fill="#95A2B4"/>
<path d="M53.0958 164.433C55.0101 164.433 55.8769 165.481 55.9388 167.323C55.2732 167.899 54.6747 167.936 54.6953 166.898C54.7211 165.601 53.9575 165.689 53.1165 165.772C53.1113 165.326 53.1061 164.879 53.0958 164.438V164.433Z" fill="#95A2B4"/>
<path d="M85.6384 153.786C86.2937 153.184 85.6951 151.326 87.5165 151.882C87.532 153.044 87.5475 154.206 87.5629 155.368C86.2988 155.618 86.6445 154.268 86.0615 153.838C85.9221 153.817 85.7777 153.801 85.6384 153.786Z" fill="#95A2B4"/>
<path d="M0.327393 68.0042C1.51413 67.3349 1.7102 67.4957 2.18489 69.4882C2.31389 70.168 2.88662 71.0189 1.55541 71.1383C0.662774 70.2873 0.910442 68.9797 0.327393 67.999V68.0042Z" fill="#95A2B4"/>
<path d="M13.4383 130.037C15.3577 130.81 14.0058 132.507 14.465 133.69C14.4805 134.229 14.5063 134.774 14.0058 135.148C12.8655 133.55 13.9233 131.707 13.4434 130.031L13.4383 130.037Z" fill="#95A2B4"/>
<path d="M20.6876 170.873C22.0188 171.947 22.6895 173.26 22.2045 175.008C20.5483 174.349 20.605 172.922 20.6463 171.501C20.5121 171.35 20.476 171.21 20.5328 171.07C20.5895 170.935 20.6411 170.868 20.6876 170.868V170.873Z" fill="#95A2B4"/>
<path d="M30.4602 28.6262C28.8556 28.7871 28.1538 27.7285 27.3334 26.4728C28.5614 26.2809 29.4799 27.0799 30.4654 26.6441C30.7285 26.9243 30.8885 27.246 30.904 27.6351C30.8885 28.0243 30.7285 28.3512 30.4602 28.6262Z" fill="#95A2B4"/>
<path d="M8.7326 114.299C8.94415 114.865 9.1557 115.43 9.36725 115.996C9.52204 116.24 9.84194 116.343 9.94513 116.634C9.89354 117.475 10.7862 118.341 9.86258 119.156C9.25889 117.589 7.5407 116.286 8.7326 114.299Z" fill="#95A2B4"/>
<path d="M151.373 95.8578C150.831 96.522 150.284 96.8904 149.681 95.9253C149.449 95.2663 149.216 94.6125 148.984 93.9535C150.857 93.2219 150.718 95.0432 151.373 95.8578Z" fill="#95A2B4"/>
<path d="M23.2469 179.683C23.3552 179.798 23.4791 179.829 23.6287 179.787C23.6132 181.432 24.4955 182.843 24.8051 184.405C22.1633 183.539 23.283 181.416 23.252 179.683H23.2469Z" fill="#95A2B4"/>
<path d="M50.0362 190.165C48.029 189.267 49.6131 188.375 50.0362 187.477C50.3612 187.306 50.6811 187.14 51.0062 186.968C51.1249 188.167 51.3364 189.397 50.0362 190.165Z" fill="#95A2B4"/>
<path d="M58.3691 11.939C57.3062 13.3608 56.2691 12.0947 55.2991 11.8145C54.6644 11.6329 54.5715 10.9583 55.2836 10.5017C56.1453 11.3423 57.6571 10.7767 58.3743 11.939H58.3691Z" fill="#95A2B4"/>
<path d="M5.18264 86.6219C4.80598 87.1771 4.43448 87.7323 4.05782 88.2875C3.96495 88.2305 3.87207 88.1786 3.77404 88.1215C3.19615 87.1201 3.36642 86.0875 3.66052 85.0497C3.71728 84.8733 3.77404 84.7021 3.83079 84.5256C4.27453 84.4478 4.50672 84.7332 4.71827 85.0549C5.12073 85.3299 5.59026 85.5738 5.28584 86.2016C5.32711 86.3625 5.291 86.4974 5.18264 86.6219Z" fill="#95A2B4"/>
<path d="M93.1868 142.516C93.0475 142.334 92.9031 142.153 92.7637 141.966C92.4387 141.618 92.4387 141.271 92.7431 140.912C95.3952 140.98 93.8886 143.408 94.7502 144.488C93.9608 144.047 93.3416 143.465 93.1868 142.516Z" fill="#95A2B4"/>
<path d="M138.562 114.564C135.775 114.408 135.688 114.268 137.003 112.141C137.261 111.746 137.535 111.803 137.829 112.099C138.211 112.68 138.665 113.22 138.814 113.931C138.809 114.175 138.722 114.382 138.562 114.564Z" fill="#95A2B4"/>
<path d="M16.1418 141.032C16.1418 141.276 16.1418 141.52 16.1418 141.763C16.2863 142.381 16.0489 142.63 15.4246 142.521C14.0831 141.203 15.6981 139.553 14.9448 138.168C16.1728 137.68 16.018 138.609 16.0954 139.304C16.0231 139.88 16.0231 140.456 16.1367 141.032H16.1418Z" fill="#95A2B4"/>
<path d="M227.01 58.7993C225.74 58.1352 223.625 59.3908 223.088 57.0611C223.393 56.8483 223.692 56.8172 223.976 57.1078C224.853 58.0885 226.256 56.9988 227.144 57.9224C227.371 58.2545 227.324 58.5451 227.015 58.7993H227.01Z" fill="#95A2B4"/>
<path d="M8.30433 96.9111H10.8223C9.53235 97.7621 10.4972 99.0541 9.33112 99.5522C9.09377 98.8569 7.69549 99.8688 7.87608 98.556C8.6294 98.1668 8.05667 97.4352 8.30433 96.9111Z" fill="#95A2B4"/>
<path d="M147.808 101.908C148.014 100.709 148.22 99.5158 149.825 99.5002C149 100.445 149.691 102.375 147.818 102.645C147.524 102.401 147.519 102.157 147.808 101.903V101.908Z" fill="#95A2B4"/>
<path d="M114.853 25.5129C113.908 26.6908 112.495 26.7738 111.189 27.1059C110.921 26.5766 110.926 26.0629 111.272 25.57C112.479 26.3483 113.64 24.4959 114.853 25.5129Z" fill="#95A2B4"/>
<path d="M2.67504 73.1463C3.8979 74.376 2.33966 75.5902 2.64924 76.8148C1.02393 76.1039 2.13843 74.8378 2.05072 73.8156C1.83401 73.1878 2.12295 73.0477 2.67504 73.1514V73.1463Z" fill="#95A2B4"/>
<path d="M17.1016 143.382C18.149 144.311 17.2512 145.214 17.0603 146.122C17.3131 146.356 17.2977 146.563 17.0139 146.755C16.4411 146.107 14.9448 145.889 15.9664 144.493C16.4411 144.218 16.4773 143.497 17.1016 143.382Z" fill="#95A2B4"/>
<path d="M183.947 75.6165C184.968 76.1146 186.986 74.8122 186.929 77.2717C185.825 77.4325 184.906 77.0641 184.127 76.291C183.766 76.2339 183.678 76.0471 183.864 75.7306L183.947 75.6165Z" fill="#95A2B4"/>
<path d="M43.8444 193.683C43.1479 193.724 42.8073 193.408 42.8589 192.692C43.184 192.495 43.5039 192.303 43.829 192.105C44.4223 192.24 44.7577 191.768 45.1911 191.529C46.1044 191.446 46.2437 191.867 45.8825 192.609C45.2324 193.029 44.2417 192.785 43.8393 193.678L43.8444 193.683Z" fill="#95A2B4"/>
<path d="M130.806 10.0658C130.982 9.89975 131.157 9.7337 131.338 9.56766C132.499 9.41719 133.459 8.78934 134.439 8.21338C134.011 10.2785 132.937 10.8234 130.806 10.0658Z" fill="#95A2B4"/>
<path d="M27.3643 198.851C27.3643 199.188 27.3643 199.525 27.3643 199.863C25.5378 199.743 25.512 199.676 26.4046 196.947C27.2508 197.32 26.5594 198.477 27.3695 198.856L27.3643 198.851Z" fill="#95A2B4"/>
<path d="M20.1509 165.258C20.0426 166.171 20.2283 166.95 21.1364 167.386C21.7298 168.039 21.5699 168.579 20.8991 169.046C20.6308 169.113 20.3676 169.108 20.0993 169.036C19.5885 168.553 19.1345 168.055 19.6453 167.303C19.5782 166.561 18.5669 165.59 20.1509 165.258Z" fill="#95A2B4"/>
<path d="M224.486 30.707C225.111 29.9547 224.244 28.8858 225.023 28.1645L225.214 27.9933L225.436 28.123C225.493 29.8457 225.549 31.5736 225.611 33.2963C225.446 33.4883 225.266 33.4882 225.08 33.3274C224.935 33.1147 224.791 32.8967 224.646 32.684C224.966 31.9939 224.445 31.3764 224.486 30.7122V30.707Z" fill="#95A2B4"/>
<path d="M152.957 19.8569C151.74 21.1385 150.548 19.9036 149.34 19.8154C149.046 19.5196 149.098 19.2291 149.34 18.9385C150.481 19.6545 151.755 19.2602 152.968 19.364C153.097 19.4781 153.138 19.5871 153.091 19.696C153.045 19.805 153.004 19.8569 152.957 19.8569Z" fill="#95A2B4"/>
<path d="M36.6313 6.26227C35.847 6.38161 34.9595 6.3868 35.1453 7.5958C34.9286 7.7359 34.7015 7.75146 34.4642 7.64769C31.6108 4.21788 35.9915 6.51134 36.1669 5.47876C36.5023 5.62924 36.6777 5.8783 36.6313 6.25708V6.26227Z" fill="#95A2B4"/>
<path d="M140.502 109.883C140.925 108.882 142.117 108.737 142.689 107.901C142.968 108.238 142.932 108.581 142.7 108.923C142.359 109.593 142.013 110.267 141.673 110.937C141.492 111.113 141.276 111.149 141.038 111.071C140.625 110.781 140.342 110.433 140.496 109.883H140.502Z" fill="#95A2B4"/>
<path d="M31.4973 199.899C31.1258 198.856 31.1258 197.818 31.4973 196.775C31.8327 196.946 32.1681 197.118 32.5035 197.289C32.8595 198.171 33.004 199.048 32.4261 199.904C32.1165 199.904 31.8069 199.904 31.4973 199.904V199.899Z" fill="#95A2B4"/>
<path d="M223.46 18.8244C223.485 18.3211 223.553 17.8386 224.017 17.5272C224.275 19.0164 225.709 18.7155 226.602 19.2343C226.803 19.5249 226.762 19.7844 226.483 20.0023C225.9 19.7844 225.482 20.1424 225.039 20.4122C224.528 19.8674 223.718 19.6235 223.46 18.8244Z" fill="#95A2B4"/>
<path d="M38.2152 198.405C38.0862 199.017 38.4938 199.852 37.6992 200.169C37.142 200.392 36.853 199.816 36.6002 199.385C36.3216 199.017 36.3629 198.664 36.6363 198.311C37.142 198.14 37.6476 197.969 38.1533 197.792C38.3236 197.912 38.3906 198.036 38.3545 198.176C38.3132 198.322 38.2668 198.394 38.2152 198.394V198.405Z" fill="#95A2B4"/>
<path d="M83.4866 19.4471C83.6621 19.7947 83.8375 20.1372 84.0129 20.4849C82.4805 20.407 80.9429 20.3344 79.4104 20.2565C79.0802 20.0075 79.0544 19.7429 79.3795 19.4678C79.5549 19.4471 79.7304 19.4263 79.9058 19.4108C80.5662 19.5353 81.2318 19.4938 81.8974 19.4315C82.4289 19.4367 82.9603 19.4419 83.4918 19.4471H83.4866Z" fill="#95A2B4"/>
<path d="M22.8392 176.108C21.9569 177.296 24.578 178.012 23.2571 179.258C21.6009 178.376 21.9259 176.928 22.1942 175.491C22.4109 175.698 22.6225 175.901 22.8392 176.108Z" fill="#95A2B4"/>
<path d="M129.795 116.115C130.105 115.534 130.425 114.958 130.719 114.371C130.904 113.998 131.116 113.453 131.555 113.655C132.091 113.904 131.776 114.538 131.787 115.01C131.147 115.425 130.641 116.084 129.795 116.115Z" fill="#95A2B4"/>
<path d="M37.1368 23.619L34.5311 25.5856C34.3041 25.7257 34.139 25.6686 34.0358 25.4247C34.8149 24.9473 33.8965 22.519 36.0687 23.6398C36.4144 23.1364 36.7756 23.1624 37.1368 23.619Z" fill="#95A2B4"/>
<path d="M148.308 93.8445C146.533 93.6421 147.503 92.2722 147.416 91.468C147.307 90.451 148.272 90.7156 148.897 90.6533C148.061 91.5977 148.355 92.7548 148.308 93.8445Z" fill="#95A2B4"/>
<path d="M6.90594 103.091C6.85435 103.241 6.82339 103.397 6.80275 103.553C7.08137 103.921 7.10201 104.29 6.79243 104.653C5.75532 102.806 5.48186 100.948 6.73567 99.08C6.95238 99.2668 7.11749 99.4951 7.23617 99.7597C7.59219 100.917 7.10201 101.991 6.90594 103.091Z" fill="#95A2B4"/>
<path d="M227.691 44.2032C226.793 44.4211 225.859 44.3485 225.792 43.2848C225.74 42.3611 226.478 41.889 227.474 42.1484C226.654 42.9267 227.134 43.5701 227.691 44.2032Z" fill="#95A2B4"/>
<path d="M10.8584 123.156C11.7355 124.5 13.2937 125.486 13.0925 127.406C12.8294 127.675 12.5353 127.717 12.2102 127.535C12.0812 127.364 11.9522 127.188 11.8232 127.016C11.9471 126.389 11.9677 125.792 11.2969 125.429C10.8945 124.723 10.2805 124.054 10.8584 123.156Z" fill="#95A2B4"/>
<path d="M122.608 125.408C123.118 124.412 121.565 122.622 123.8 122.29C123.413 123.457 124.001 124.827 123.041 125.87C122.577 126.015 122.432 125.865 122.608 125.408Z" fill="#95A2B4"/>
<path d="M39.1851 18.8193C38.1841 20.075 38.4524 21.751 37.7868 23.1157C37.4411 23.0482 37.2502 22.8303 37.1883 22.4878C37.761 21.7718 37.6939 20.9104 37.6269 20.0906C37.5237 18.8401 38.277 18.7623 39.1851 18.8193Z" fill="#95A2B4"/>
<path d="M209.998 91.8052C211.556 92.4123 210.55 93.7199 210.715 94.685C210.865 95.5723 210.633 96.5218 210.571 97.4402C210.426 97.6737 210.266 97.6737 210.096 97.4714C210.065 95.5826 210.034 93.6939 209.998 91.8104V91.8052Z" fill="#95A2B4"/>
<path d="M163.261 78.8488C163.179 77.0276 162.632 75.2063 163.261 73.385C164.092 75.2063 164.097 77.0276 163.261 78.8488Z" fill="#95A2B4"/>
<path d="M191.01 75.1647C189.648 75.3567 189.896 74.4746 190.019 73.6755C191.072 73.852 192.367 73.6444 192.517 75.2633C192.362 75.4138 192.218 75.4086 192.089 75.2322C191.717 75.3775 191.413 74.4487 191.01 75.1699V75.1647Z" fill="#95A2B4"/>
<path d="M192.125 10.5796C191.583 10.7871 190.737 9.8272 190.427 11.1659C190.257 11.9079 189.648 11.3787 189.266 11.0673C190.21 8.83095 190.582 8.76868 192.125 10.5796Z" fill="#95A2B4"/>
<path d="M4.83681 91.2815C5.20315 91.4267 5.61077 91.7692 5.81716 91.0895C6.34861 91.4112 6.20414 91.9508 6.22993 92.4334C5.96163 93.2221 5.60561 93.9122 4.58914 93.7773C4.6717 92.9471 4.75425 92.1169 4.84197 91.2866L4.83681 91.2815Z" fill="#95A2B4"/>
<path d="M234.274 75.2686C233.5 75.0766 232.737 74.8483 231.953 74.703C230.988 74.5266 231.669 74.0336 231.72 73.66C232.799 73.7742 233.831 74.0129 234.698 74.7289C234.646 74.978 234.501 75.1544 234.274 75.2634V75.2686Z" fill="#95A2B4"/>
<path d="M135.858 110.958C135.683 110.169 134.609 110.662 134.382 109.92C135.048 108.898 136.018 109.416 136.874 109.396C137.334 109.972 137.07 110.517 136.813 111.067C136.663 111.264 136.467 111.388 136.224 111.435C136.1 111.274 135.977 111.118 135.853 110.958H135.858Z" fill="#95A2B4"/>
<path d="M225.08 33.3219C225.255 33.3115 225.436 33.3011 225.611 33.2908C226.457 33.5087 227.417 33.0884 228.191 33.7474C227.98 33.9653 227.773 34.1884 227.562 34.4064C226.71 34.095 225.312 35.0602 225.08 33.3219Z" fill="#95A2B4"/>
<path d="M2.67509 73.1464C2.4687 73.3695 2.25716 73.5926 2.05077 73.8106C1.38 73.0167 1.79794 72.0152 1.56059 71.1383C2.47386 70.8581 2.17976 70.1161 2.19008 69.4883C3.17043 70.5987 2.4687 71.9322 2.68025 73.1464H2.67509Z" fill="#95A2B4"/>
<path d="M9.32578 55.9767C8.50538 57.2376 7.8759 57.139 6.76656 55.5824C7.62307 55.6758 8.55698 55.2866 9.32578 55.9767Z" fill="#95A2B4"/>
<path d="M175.154 17.3042C174.107 16.8839 172.461 18.2641 171.95 16.2301C173.013 16.5985 174.602 15.3947 175.154 17.3042Z" fill="#95A2B4"/>
<path d="M108.718 28.5846C107.046 29.5653 105.364 29.8714 103.661 28.6624C105.348 28.6365 107.03 28.6105 108.718 28.5846Z" fill="#95A2B4"/>
<path d="M160.114 85.0857C160.124 85.2414 160.14 85.3918 160.15 85.5475C158.638 86.2687 157.137 86.414 155.651 85.48C156.368 84.7432 157.312 85.3711 158.101 85.0598L158.138 84.8366C158.581 84.6135 159.041 84.4994 159.536 84.6498C159.758 84.7536 159.949 84.8989 160.109 85.0857H160.114Z" fill="#95A2B4"/>
<path d="M34.4641 7.65302C34.6911 7.63227 34.9181 7.6167 35.1451 7.59595C35.1245 8.62852 36.5796 8.66485 36.5486 9.70261C36.2958 9.98281 36.0739 10.3564 35.6044 10.0555C35.0265 9.34977 33.2825 9.19929 34.4589 7.64784L34.4641 7.65302Z" fill="#95A2B4"/>
<path d="M201.247 14.7669C199.782 15.6178 198.43 16.1627 198.249 13.6201C199.405 13.5942 200.05 14.9018 201.247 14.7669Z" fill="#95A2B4"/>
<path d="M115.854 132.263C115.926 131.017 116.287 130.455 116.937 130.576C118.083 131.422 117.34 132.05 116.705 132.693C116.008 133.368 115.926 132.833 115.859 132.263H115.854Z" fill="#95A2B4"/>
<path d="M18.0715 58.1768C17.6845 59.1575 17.0396 59.8943 16.0592 60.3146C15.7548 60.0655 15.729 59.7905 15.9767 59.4844C16.2089 58.2961 16.988 57.9952 18.0715 58.1768Z" fill="#95A2B4"/>
<path d="M112.288 131.142C114.238 129.907 115.049 130.161 115.353 132.102C114.822 132.429 114.662 129.601 113.764 131.936C113.588 132.387 112.928 131.199 112.293 131.137L112.288 131.142Z" fill="#95A2B4"/>
<path d="M4.71298 85.0549C4.41887 84.8785 4.12477 84.702 3.8255 84.5256C3.71199 83.7421 3.46432 82.9327 4.1712 82.2737C5.46114 82.9846 4.10929 84.2091 4.70782 85.0549H4.71298Z" fill="#95A2B4"/>
<path d="M12.8604 59.2195C12.298 59.51 12.7727 60.8747 11.813 60.5219C11.1525 60.2832 10.4869 59.4633 11.4311 58.6072C12.1174 58.8978 12.9945 58.4152 13.5776 59.1364C13.3712 59.4322 13.1287 59.4581 12.8604 59.2195Z" fill="#95A2B4"/>
<path d="M146.26 20.4797L143.185 20.3915C143.035 20.267 142.963 20.1269 142.973 19.9712C142.983 19.8052 143.009 19.7222 143.045 19.7222C144.129 19.0528 145.192 19.2033 146.25 19.7896C146.399 20.0179 146.399 20.2462 146.26 20.4797Z" fill="#95A2B4"/>
<path d="M223.486 86.0873C222.866 85.3038 223.671 85.0028 224.001 84.541C224.378 84.1519 224.466 83.5188 225.028 83.2749C225.369 83.1815 225.684 83.2023 225.947 83.4669C225.147 84.5358 224.347 85.6099 223.547 86.6788C223.259 86.5076 223.238 86.3104 223.486 86.0821V86.0873Z" fill="#95A2B4"/>
<path d="M122.087 13.179C121.849 14.362 119.847 14.6474 120.523 16.2922C120.208 16.4531 119.971 16.3753 119.806 16.0588C119.569 15.1974 119.238 14.3153 120.157 13.62C120.735 13.1945 121.385 13.0596 122.087 13.1738V13.179Z" fill="#95A2B4"/>
<path d="M0.667771 64.3512L1.73583 63.8998C2.21569 64.5639 2.0351 65.2229 1.71519 65.8767C1.55008 66.5824 1.30242 67.1843 0.389145 66.9508C0.48202 66.0843 0.574896 65.2177 0.667771 64.3512Z" fill="#95A2B4"/>
<path d="M106.7 142.069C106.69 141.826 106.68 141.582 106.669 141.343C107.097 140.71 106.246 139.511 107.567 139.267C107.835 140.482 108.32 141.602 109.079 142.593C108.14 143.107 107.438 142.5 106.705 142.075L106.7 142.069Z" fill="#95A2B4"/>
<path d="M143.05 19.7223C143.097 19.9455 143.143 20.1686 143.19 20.3917C141.941 21.554 141.105 20.1841 140.099 19.878C141.038 18.9025 142.091 20.1841 143.05 19.7275V19.7223Z" fill="#95A2B4"/>
<path d="M2.6182 76.7785C3.31476 76.654 4.28479 76.2337 4.54278 77.0691C4.72853 77.671 4.37251 78.6932 3.25801 78.6724L3.22189 78.4701C3.47472 77.7437 2.5924 77.4219 2.6182 76.7733V76.7785Z" fill="#95A2B4"/>
<path d="M44.9126 14.6891C44.6856 14.7099 44.4585 14.7306 44.2264 14.7566C42.5494 14.7669 40.8674 14.7773 39.1905 14.7877C40.9706 13.4697 42.9467 14.4297 44.83 14.2948C44.8352 14.4297 44.8662 14.5594 44.9126 14.6891Z" fill="#95A2B4"/>
<path d="M31.9719 30.2087C33.1999 30.4007 34.2422 30.9663 35.1606 31.7913C33.2257 33.0315 32.8748 31.0597 31.9719 30.2087Z" fill="#95A2B4"/>
<path d="M53.7046 7.45068C53.8336 7.47144 53.9678 7.48182 54.0968 7.47663C54.8862 8.1408 54.4889 9.30309 55.139 10.0243C53.1216 10.0347 53.7511 8.54553 53.6995 7.45068H53.7046Z" fill="#95A2B4"/>
<path d="M35.6198 199.354C34.8871 199.233 34.6394 198.503 34.8768 197.164C35.7849 197.439 35.5837 198.197 35.6146 198.845C35.7952 198.954 35.8571 199.069 35.8004 199.183C35.7436 199.297 35.6817 199.354 35.6198 199.354Z" fill="#95A2B4"/>
<path d="M141.147 112.981C141.75 113.121 142.251 113.246 141.91 114.117C141.492 115.192 140.636 114.382 140.053 114.668C139.79 114.372 139.743 114.029 139.826 113.656C139.955 113.303 140.177 113.023 140.496 112.831C140.739 112.753 140.956 112.794 141.141 112.981H141.147Z" fill="#95A2B4"/>
<path d="M30.4602 28.6261C30.4757 28.2836 30.4911 27.936 30.5066 27.5935C30.9452 27.2303 31.4354 27.1058 31.9875 27.2562C32.3796 27.4171 32.6582 27.6558 32.6066 28.1332C32.3538 28.8285 31.6211 29.3837 32.0133 30.2606C31.2238 29.9752 31.5386 28.6313 30.4602 28.6261Z" fill="#95A2B4"/>
<path d="M106.153 144.021C106.845 143.85 107.541 143.683 108.233 143.512C108.387 143.357 108.547 143.346 108.707 143.507C108.233 145.567 107.294 145.302 106.153 144.021Z" fill="#95A2B4"/>
<path d="M38.2151 198.404C38.1944 198.202 38.1738 198 38.1532 197.797C38.3234 197.47 38.4937 197.149 38.664 196.822C38.8033 196.63 38.989 196.562 39.2161 196.604C39.5463 196.837 40.1139 196.324 40.3203 196.952C41.1355 199.665 38.4473 197.237 38.2151 198.404Z" fill="#95A2B4"/>
<path d="M180.185 16.2925C178.818 16.8996 177.497 17.927 175.944 16.7491C177.265 15.7217 178.777 16.4689 180.185 16.2925Z" fill="#95A2B4"/>
<path d="M53.5034 180.451C52.5746 179.735 53.3176 178.718 53.0493 177.883C52.8584 177.545 52.9048 177.239 53.1783 176.964C54.6179 177.504 54.0348 178.687 54.0297 179.683C53.8904 179.963 53.8646 180.321 53.5034 180.446V180.451Z" fill="#95A2B4"/>
<path d="M124.135 118.704C124.589 116.655 126.111 117.729 127.231 117.63C127.736 117.833 127.984 118.175 127.834 118.741C127.623 118.881 127.406 118.886 127.184 118.756C126.168 118.735 125.167 117.599 124.135 118.704Z" fill="#95A2B4"/>
<path d="M140.605 9.00728C139.764 8.99172 138.974 8.80492 138.314 8.23415C138.2 8.46246 138.169 8.45208 138.226 8.20301C139.614 7.35205 139.8 7.41431 140.605 9.00728Z" fill="#95A2B4"/>
<path d="M12.2102 127.536C12.5043 127.494 12.7984 127.448 13.0925 127.406C14.0677 128.179 14.9501 128.968 13.4641 130.089C12.396 129.559 12.494 128.454 12.2051 127.536H12.2102Z" fill="#95A2B4"/>
<path d="M78.3527 154.896C79.2092 154.16 80.1276 154.362 81.0512 154.736C81.2421 155.005 81.1802 155.203 80.8758 155.322C80.2153 155.374 79.5549 155.42 78.8944 155.472C78.363 155.612 78.2082 155.395 78.3527 154.896Z" fill="#95A2B4"/>
<path d="M79.3744 19.4678C79.3847 19.7325 79.395 19.9919 79.4053 20.2565C78.5695 19.8362 77.7026 19.6858 76.7842 19.9244C76.4798 19.5924 76.4695 19.2551 76.779 18.9178C77.7233 18.7258 78.5953 18.8815 79.3744 19.4678Z" fill="#95A2B4"/>
<path d="M34.0358 25.4246C34.2009 25.4765 34.366 25.5336 34.5311 25.5855C34.7736 26.4883 34.206 26.644 33.525 26.7011C32.9987 26.8723 32.6014 27.3912 31.9719 27.2563C31.6262 27.1266 31.3991 26.8931 31.3217 26.5195C32.2247 26.1511 33.1328 25.7878 34.0358 25.4194V25.4246Z" fill="#95A2B4"/>
<path d="M104.058 142.215C104.409 142.698 104.765 143.18 105.116 143.663C104.11 143.642 103.104 143.621 102.103 143.595C101.747 143.574 101.685 143.263 101.546 143.03C102.098 141.873 103.506 143.377 104.058 142.215Z" fill="#95A2B4"/>
<path d="M76.7789 18.9127C76.7789 19.25 76.7789 19.5821 76.784 19.9194C75.6695 19.8467 74.6943 19.4005 73.7604 18.8193C74.0184 18.5547 74.4157 18.6118 74.6995 18.4094C75.3909 18.5755 76.0823 18.7467 76.7789 18.9127Z" fill="#95A2B4"/>
<path d="M147.808 101.908C147.808 102.157 147.818 102.401 147.818 102.65C146.941 103.138 147.452 104.025 147.235 104.705C145.837 103.553 145.976 102.868 147.808 101.913V101.908Z" fill="#95A2B4"/>
<path d="M213.182 100.076C213.336 101.156 215.452 101.052 214.724 102.66C213.569 102.847 213.512 101.856 213.161 101.187C212.908 100.813 212.862 100.44 213.182 100.076Z" fill="#95A2B4"/>
<path d="M36.0739 32.2842C37.0595 33.296 37.1781 34.6814 37.627 35.9267C37.5135 36.1499 37.3484 36.3211 37.1368 36.4508C36.4454 35.1484 36.1255 33.7526 36.0739 32.2842Z" fill="#95A2B4"/>
<path d="M192.089 75.227C192.233 75.2374 192.377 75.2529 192.517 75.2581C193.559 74.6926 194.431 74.8586 195.128 75.8497C195.221 76.2336 195.179 76.4723 194.705 76.244C193.833 75.9067 192.961 75.5695 192.089 75.227Z" fill="#95A2B4"/>
<path d="M201.361 75.7719C201.572 73.9091 203.053 75.061 203.894 74.6926C204.069 74.7964 204.126 74.9001 204.08 75.0143C204.028 75.1336 203.977 75.1907 203.925 75.1907C203.228 76.0884 202.243 75.694 201.361 75.7667V75.7719Z" fill="#95A2B4"/>
<path d="M35.1814 42.6307C35.0782 42.9057 34.9698 43.1703 34.5931 43.1132C34.557 41.9717 33.5302 40.5033 35.589 40.0518C35.785 39.865 35.9914 39.8391 36.2133 40.0103C36.1359 40.991 35.5322 41.7641 35.1762 42.6359L35.1814 42.6307Z" fill="#95A2B4"/>
<path d="M234.274 75.2686L234.698 74.7341C235.214 75.6162 237.185 74.9832 236.818 76.7889C236.715 76.8304 236.612 76.8719 236.509 76.9134C236.018 76.9394 235.678 76.6436 235.327 76.3634C234.976 76.0002 234.625 75.637 234.274 75.2738V75.2686Z" fill="#95A2B4"/>
<path d="M122.608 125.408C122.752 125.564 122.897 125.714 123.041 125.87C122.288 126.934 121.302 127.354 120.028 126.975C120.699 126.135 121.746 125.922 122.608 125.408Z" fill="#95A2B4"/>
<path d="M118.021 127.919C118.036 127.286 117.587 126.456 118.366 126.098C119.109 125.756 119.362 126.897 120.054 126.949C120.074 127.115 120.038 127.271 119.95 127.416C119.383 127.878 118.82 128.355 118.021 127.925V127.919Z" fill="#95A2B4"/>
<path d="M27.3488 187.949C27.5397 187.882 27.7254 187.809 27.9163 187.742C28.3652 188.271 28.9431 188.733 28.9173 189.532C29.0824 190.087 28.8348 190.212 28.3446 190.077C27.4262 189.646 27.3539 188.816 27.3488 187.949Z" fill="#95A2B4"/>
<path d="M205.922 13.5944C205.019 14.5077 203.863 14.0977 202.805 14.2067C203.574 12.6241 204.699 12.8576 205.922 13.5944Z" fill="#95A2B4"/>
<path d="M118.021 127.919C118.666 127.748 119.306 127.582 119.95 127.411C119.306 128.153 119.966 129.362 119.032 130C118.851 129.844 118.671 129.689 118.485 129.533C118.268 129.206 118.181 128.817 117.995 128.475C118.005 128.288 118.01 128.101 118.021 127.914V127.919Z" fill="#95A2B4"/>
<path d="M150.8 87.53C149.526 87.5922 149.629 86.871 150.001 86.0563C150.274 85.444 150.61 84.8525 150.914 84.2506C151.879 85.3766 150.512 86.4247 150.806 87.53H150.8Z" fill="#95A2B4"/>
<path d="M120.162 13.6255C120.141 14.4816 120.116 15.343 120.095 16.1991C119.93 16.4171 119.744 16.443 119.533 16.2666C119.125 15.234 118.072 14.051 120.167 13.6255H120.162Z" fill="#95A2B4"/>
<path d="M78.3526 154.896C78.5332 155.088 78.7138 155.28 78.8944 155.472C78.1823 156.162 77.2536 155.83 76.428 156.001C76.0307 156.006 75.9895 155.607 75.7727 155.415C75.7727 155.239 75.7624 155.062 75.7573 154.88C76.6241 154.88 77.4909 154.891 78.3578 154.896H78.3526Z" fill="#95A2B4"/>
<path d="M80.8706 155.322C80.9274 155.13 80.9841 154.932 81.046 154.735C81.8355 154.766 82.6198 154.803 83.4092 154.839C83.7446 154.886 83.9355 155.088 84.0077 155.415C82.9293 156.515 81.918 155.394 80.8758 155.322H80.8706Z" fill="#95A2B4"/>
<path d="M107.562 139.262C106.303 139.537 108.31 141.234 106.664 141.338C106.035 140.632 106.019 139.9 106.556 139.138C106.736 138.551 107.067 138.463 107.541 138.832C107.577 138.977 107.583 139.117 107.562 139.262Z" fill="#95A2B4"/>
<path d="M108.707 143.507H108.47L108.233 143.512C108.006 142.729 106.597 143.206 106.7 142.064C107.588 141.81 108.243 142.594 109.074 142.583C109.115 142.957 109.094 143.305 108.707 143.502V143.507Z" fill="#95A2B4"/>
<path d="M12.8603 59.2196C13.0977 59.1936 13.3402 59.1625 13.5775 59.1366C14.3979 59.1054 15.0635 60.1432 15.9716 59.4894C15.9974 59.7644 16.0232 60.0394 16.0542 60.3196C14.7746 60.5946 13.6756 60.3196 12.8603 59.2196Z" fill="#95A2B4"/>
<path d="M52.0795 183.331C52.2446 183.227 52.4097 183.118 52.5696 183.015C53.4468 184.468 52.1414 185.277 51.5996 186.31C51.3468 185.251 51.708 184.291 52.0795 183.331Z" fill="#95A2B4"/>
<path d="M65.9228 157.989C66.1241 157.999 66.3305 158.01 66.5317 158.02C65.1902 158.835 67.027 160.178 66.026 161.05C65.5307 160.459 65.3965 159.769 65.4894 159.016C65.0766 158.435 65.1334 158.056 65.9228 157.989Z" fill="#95A2B4"/>
<path d="M234.837 82.9014C235.926 82.2217 235.121 81.1839 235.322 80.3381C237.221 81.7547 237.2 81.8688 234.837 82.9014Z" fill="#95A2B4"/>
<path d="M85.5453 140.362C86.3605 139.527 87.1654 138.411 88.0787 140.269C87.2325 140.3 86.3915 140.331 85.5453 140.362Z" fill="#95A2B4"/>
<path d="M5.2498 58.2441C5.03825 58.7162 4.59968 58.6799 4.19206 58.7214C3.89279 58.9705 3.55741 59.0224 3.19107 58.9134C2.85053 58.7422 2.63898 58.462 2.52547 58.104C3.03628 57.336 3.83604 57.7044 4.51712 57.6006C5.14145 57.3827 5.39943 57.5799 5.2498 58.2441Z" fill="#95A2B4"/>
<path d="M196.232 11.0934C194.854 10.808 193.322 11.7316 192.063 10.5433C193.425 10.9221 195.04 9.41217 196.232 11.0934Z" fill="#95A2B4"/>
<path d="M95.3075 144.031C96.4943 143.502 97.6758 142.428 98.8832 144C97.6913 144.01 96.4994 144.021 95.3075 144.031Z" fill="#95A2B4"/>
<path d="M158.107 85.0653C157.426 86.02 156.456 85.2521 155.656 85.4856C155.599 85.1224 155.542 84.7592 155.491 84.4011C156.316 84.8007 157.389 84.2403 158.112 85.0705L158.107 85.0653Z" fill="#95A2B4"/>
<path d="M156.579 17.621C156.626 19.105 155.439 19.0531 154.5 19.3177C154.206 19.2814 154.025 19.1154 153.948 18.83C154.825 18.4252 155.702 18.0257 156.584 17.621H156.579Z" fill="#95A2B4"/>
<path d="M29.7791 191.654C29.2115 192.059 30.3828 192.925 29.3663 193.21C28.3808 192.718 29.2683 191.752 28.8452 191.119C28.9122 190.689 29.0464 190.289 29.4334 190.035C29.9545 190.486 30.0113 191.042 29.7791 191.654Z" fill="#95A2B4"/>
<path d="M226.576 68.5025C226.426 67.8902 227.422 67.6412 227.066 66.9614C227.995 67.2728 228.939 67.5737 228.315 68.902C227.737 68.7723 227.154 68.6374 226.576 68.5077V68.5025Z" fill="#95A2B4"/>
<path d="M87.145 147.658C86.113 147.248 85.9531 146.433 86.1388 145.458C87.0985 145.904 87.8673 146.433 87.145 147.658Z" fill="#95A2B4"/>
<path d="M17.1015 143.382C16.9054 143.943 16.6681 144.456 15.9664 144.493C16.4565 143.652 16.0644 143.05 15.4298 142.516C15.6671 142.262 15.9045 142.013 16.147 141.758C16.761 142.122 17.1583 142.614 17.1015 143.377V143.382Z" fill="#95A2B4"/>
<path d="M19.1036 159.981C19.991 161.123 19.6505 162.607 20.182 163.847C17.8859 163.105 19.5009 161.258 19.1036 159.981Z" fill="#95A2B4"/>
<path d="M32.5137 44.1929C32.0854 45.2722 30.8832 44.6495 30.135 45.2462C29.7687 45.542 28.4014 45.184 29.4643 44.0061C30.4807 44.0684 31.4972 44.1306 32.5137 44.1877V44.1929Z" fill="#95A2B4"/>
<path d="M55.9027 167.308C56.5993 166.893 57.4455 166.665 57.7447 165.772C57.8944 165.58 58.0801 165.518 58.3175 165.575C58.627 165.746 58.8231 166.006 58.9005 166.353C57.7808 166.291 57.4197 168.626 55.9079 167.308H55.9027Z" fill="#95A2B4"/>
<path d="M17.0138 146.755C17.0293 146.542 17.0448 146.335 17.0603 146.122C18.2109 146.874 17.9271 148.166 18.2315 149.24C16.6784 148.981 16.7816 147.897 17.0087 146.755H17.0138Z" fill="#95A2B4"/>
<path d="M138.226 8.20297C138.226 8.20297 138.324 8.24449 138.319 8.2393C137.411 9.3964 136.596 9.7233 135.982 8.00061C136.73 8.06807 137.478 8.13552 138.226 8.20297Z" fill="#95A2B4"/>
<path d="M220.384 13.672C219.678 12.9404 218.166 13.5474 217.867 12.1465C219.007 12.1568 220.426 11.695 220.384 13.672Z" fill="#95A2B4"/>
<path d="M24.2531 41.5984C23.5307 41.5984 23.0199 41.9253 22.7206 42.5894C21.2965 42.2158 22.2201 41.8474 22.6381 41.2767C23.5152 40.0781 23.8816 40.6696 24.2479 41.5984H24.2531Z" fill="#95A2B4"/>
<path d="M65.5515 13.1685C64.7879 13.1893 64.05 13.127 63.4154 12.6393C63.1884 12.8883 62.982 12.8676 62.8065 12.577C63.854 12.1671 65.0304 11.1241 65.5567 13.1685H65.5515Z" fill="#95A2B4"/>
<path d="M44.3914 3.49177C43.4936 2.65637 42.3275 2.98326 41.2852 2.77571C42.4926 1.89361 43.7 2.02333 44.9022 2.78609C44.8764 2.99364 44.799 3.18044 44.6597 3.34129C44.572 3.39318 44.4791 3.43988 44.3914 3.49177Z" fill="#95A2B4"/>
<path d="M20.2749 168.813C20.4245 168.833 20.5742 168.854 20.7238 168.875C20.8786 169 20.9302 169.119 20.8786 169.238C20.8218 169.358 20.7702 169.415 20.7135 169.415C20.7083 169.902 20.698 170.39 20.6928 170.873L20.6516 171.501C20.084 170.909 19.7899 170.183 19.6351 169.389C19.5061 168.813 19.7383 168.641 20.2749 168.808V168.813Z" fill="#95A2B4"/>
<path d="M74.6996 18.4095C74.3849 18.5496 74.0753 18.6845 73.7606 18.8246C73.2136 18.5703 72.2023 19.0736 72.2281 17.8802C73.1672 17.5222 73.8534 18.3316 74.6945 18.4147L74.6996 18.4095Z" fill="#95A2B4"/>
<path d="M210.075 99.0231C210.798 99.075 211.582 98.8674 212.165 99.5212C212.464 99.8533 212.48 100.191 212.175 100.528C211.582 99.874 210.38 100.082 210.075 99.0231Z" fill="#95A2B4"/>
<path d="M236.344 79.3732C236.684 79.0255 237.025 78.6778 237.365 78.3302C236.973 77.8736 236.457 77.4585 236.849 76.7476L236.818 76.7891C237.959 76.5349 238.026 77.2561 237.995 78.0863C237.959 79.1967 237.319 79.4977 236.338 79.3732H236.344Z" fill="#95A2B4"/>
<path d="M127.804 118.678C127.613 118.331 127.422 117.983 127.226 117.63C127.829 115.85 128.268 118.009 128.81 117.698C128.799 117.832 128.789 117.967 128.768 118.102C128.887 119.041 128.433 119.01 127.804 118.678Z" fill="#95A2B4"/>
<path d="M219.074 101.005C218.904 100.538 218.599 99.905 219.182 99.6818C219.843 99.4276 219.946 100.087 219.998 100.6C219.812 101.119 220.354 101.939 219.363 102.121C218.955 101.83 219.084 101.399 219.069 101L219.074 101.005Z" fill="#95A2B4"/>
<path d="M183.859 75.7356C183.946 75.9224 184.034 76.1092 184.122 76.296C183.389 76.1247 182.259 76.6436 182.244 75.2115C182.698 74.9728 182.44 74.3346 182.868 74.0803C183.384 74.5214 183.111 75.4346 183.859 75.7356Z" fill="#95A2B4"/>
<path d="M86.0666 153.838C87.0934 153.828 86.9231 155 87.5681 155.369C87.0314 156.355 86.3813 155.566 85.9892 155.322C85.3494 154.933 86.2678 154.362 86.0666 153.838Z" fill="#95A2B4"/>
<path d="M47.9568 2.74976C47.1106 4.67481 45.6969 3.82384 44.3915 3.49176L44.3553 3.24788C45.3202 2.80164 46.4141 3.3776 47.3738 2.8691C47.5699 2.82759 47.7608 2.79127 47.9568 2.74976Z" fill="#95A2B4"/>
<path d="M142.7 108.923C142.7 108.581 142.695 108.244 142.689 107.901C142.999 105.893 144.093 106.697 145.104 107.221C143.732 106.977 143.03 107.688 142.695 108.923H142.7Z" fill="#95A2B4"/>
<path d="M7.82437 108.415C7.48899 109.473 8.29391 110.553 7.77793 111.611C6.78211 110.439 7.36516 109.089 7.36 107.808C7.80889 107.782 8.15459 107.839 7.82437 108.42V108.415Z" fill="#95A2B4"/>
<path d="M203.925 75.1958C203.977 75.0246 203.966 74.8586 203.894 74.6925C204.596 73.8831 205.303 72.8712 205.984 74.7133C205.199 74.4642 204.57 74.8534 203.925 75.1958Z" fill="#95A2B4"/>
<path d="M225.436 28.1179H225.224L225.023 28.1646C224.27 27.0282 224.879 26.4834 225.905 26.1254C225.751 26.7895 225.596 27.4537 225.436 28.1179Z" fill="#95A2B4"/>
<path d="M101.448 28.0812C100.116 28.294 100.158 27.1317 99.9925 26.4156C99.8945 26.0005 100.565 26.0576 100.957 26.1302C101.148 26.234 101.221 26.3482 101.174 26.4727C101.128 26.6076 101.076 26.675 101.014 26.675C101.159 27.142 101.298 27.6142 101.442 28.0812H101.448Z" fill="#95A2B4"/>
<path d="M140.146 113.505C140.12 113.894 140.089 114.283 140.058 114.672C139.485 115.689 139 115.466 138.557 114.568C138.582 114.382 138.608 114.195 138.634 114.008C138.923 113.588 139.31 113.354 139.821 113.349C139.929 113.401 140.032 113.453 140.141 113.505H140.146Z" fill="#95A2B4"/>
<path d="M106.566 137.846C106.091 136.964 105.519 136.056 107.139 135.75C107.108 136.336 107.077 136.922 107.046 137.509C107.113 137.95 106.938 138.038 106.566 137.846Z" fill="#95A2B4"/>
<path d="M116.968 20.3189C116.457 20.6718 115.946 21.0246 115.436 21.3723C114.533 19.6132 116.39 20.0335 116.953 19.4316C117.247 19.7222 117.195 20.018 116.968 20.3189Z" fill="#95A2B4"/>
<path d="M180.748 72.0776C181.294 72.3163 181.847 72.555 182.394 72.7937C182.523 72.9701 182.481 73.0998 182.285 73.1828L179.736 72.6121C179.597 72.4772 179.545 72.3371 179.581 72.1918C179.623 72.0465 179.664 71.9738 179.71 71.9738C180.077 71.7974 180.428 71.813 180.753 72.0776H180.748Z" fill="#95A2B4"/>
<path d="M50.5366 0.720947C50.2632 2.19976 48.8133 1.66531 47.998 2.21533C48.2302 0.669059 49.6595 1.17237 50.5366 0.720947Z" fill="#95A2B4"/>
<path d="M36.6312 6.26239C36.4764 6.00295 36.3216 5.74351 36.1668 5.48407C36.3474 4.5864 37.1936 5.01708 37.6786 4.72131C37.6631 5.11566 37.6528 5.50483 37.6373 5.89918C37.3019 6.01852 36.9717 6.14305 36.6363 6.26239H36.6312Z" fill="#95A2B4"/>
<path d="M7.82446 108.415C7.66967 108.212 7.51488 108.01 7.36008 107.802C7.04018 107.175 7.70063 106.822 7.78318 106.308C7.64903 106.158 7.60775 106.012 7.66967 105.877C7.72642 105.743 7.77802 105.675 7.82446 105.675C8.64485 106.588 8.62938 107.502 7.82446 108.415Z" fill="#95A2B4"/>
<path d="M7.82449 105.675C7.80901 105.888 7.79869 106.096 7.78321 106.308C6.91638 106.085 7.58714 104.928 6.79254 104.658C6.79254 104.29 6.7977 103.927 6.80286 103.558C8.49009 103.61 7.5923 104.918 7.82449 105.675Z" fill="#95A2B4"/>
<path d="M219.074 101.005C219.172 101.379 219.27 101.752 219.368 102.126C219.249 102.676 218.749 102.598 218.382 102.733C217.041 101.519 219.125 101.695 219.074 101.005Z" fill="#95A2B4"/>
<path d="M166.352 14.1548L165.856 13.6774C165.645 13.8798 165.449 13.8694 165.263 13.6411C165.227 12.7797 165.696 12.3023 166.439 12.6967C167.059 13.0236 167.157 13.7137 166.352 14.1548Z" fill="#95A2B4"/>
<path d="M163.292 13.6566C162.58 13.7137 162.322 15.4416 161.259 14.2222C161.837 13.6774 162.162 12.1986 163.292 13.6566Z" fill="#95A2B4"/>
<path d="M39.2161 196.676C39.0304 196.728 38.8498 196.775 38.664 196.827C37.8127 196.1 38.3699 195.12 38.2048 194.269C39.1078 194.419 38.5144 195.488 39.1336 195.815C39.1387 196.028 39.1439 196.246 39.1542 196.458L39.2161 196.676Z" fill="#95A2B4"/>
<path d="M160.15 14.8189C160.057 15.2652 160.325 15.8463 159.83 16.1317C159.443 16.3548 159.082 16.168 158.937 15.6958C159.314 15.3638 158.922 13.9628 160.15 14.8189Z" fill="#95A2B4"/>
<path d="M10.4044 121.174C11.0081 121.18 11.6324 121.361 11.7511 121.963C11.8388 122.43 11.3022 122.747 10.8688 122.964C10.7088 122.892 10.5488 122.814 10.3889 122.741C10.0277 122.217 10.0174 121.693 10.4044 121.174Z" fill="#95A2B4"/>
<path d="M40.6868 17.1641C40.8931 17.3872 41.0995 17.6104 41.3059 17.8335C41.0325 19.1047 40.2224 19.2293 39.1698 18.8453C39.629 18.2434 40.4752 17.9943 40.6816 17.1589L40.6868 17.1641Z" fill="#95A2B4"/>
<path d="M8.7635 95.3755C8.94409 95.3807 9.11952 95.3911 9.30011 95.3962C9.27947 96.0604 8.66031 96.2161 8.29912 96.5897C7.94826 96.4496 7.31877 96.6052 7.37037 96.0085C7.45293 95.0953 8.28364 95.5727 8.7635 95.3807V95.3755Z" fill="#95A2B4"/>
<path d="M24.8515 186.014C25.5326 186.377 26.6626 186.117 26.709 187.368C25.8938 187.192 24.9392 187.202 24.8515 186.014Z" fill="#95A2B4"/>
<path d="M149.34 18.9385C149.34 19.2291 149.34 19.5248 149.34 19.8154C148.933 20.3187 148.365 20.3187 147.797 20.3083C147.395 20.1786 147.245 19.8984 147.312 19.4885C147.988 19.3069 148.664 19.1253 149.34 18.9385Z" fill="#95A2B4"/>
<path d="M148.835 90.5029C148.778 89.4132 149.495 88.9773 150.367 88.6764C150.8 90.0826 149.965 90.4146 148.835 90.5029Z" fill="#95A2B4"/>
<path d="M223.485 86.0874C223.506 86.2846 223.527 86.4818 223.547 86.6789C223.408 87.6077 222.928 88.1941 221.948 88.2771C221.865 87.1252 222.975 86.819 223.485 86.0874Z" fill="#95A2B4"/>
<path d="M147.312 19.4888C147.472 19.7638 147.637 20.0388 147.797 20.3086C147.318 20.6667 146.853 21.1544 146.265 20.4799C146.265 20.2516 146.26 20.0181 146.255 19.7898C146.471 19.2034 146.9 19.3747 147.312 19.4888Z" fill="#95A2B4"/>
<path d="M53.5034 180.451C53.6789 180.197 53.8543 179.943 54.0297 179.689C54.071 180.654 54.4116 181.728 53.1216 182.205C53.0907 181.847 53.0597 181.494 53.0287 181.136C53.1887 180.908 53.3435 180.68 53.5034 180.451Z" fill="#95A2B4"/>
<path d="M226.483 20.0023C226.525 19.7481 226.561 19.4938 226.602 19.2344C227.489 19.3226 227.923 20.132 228.619 20.5212C228.661 20.8948 228.619 21.1594 228.15 20.9C227.593 20.599 227.041 20.2981 226.483 20.0023Z" fill="#95A2B4"/>
<path d="M231.194 22.5499C231.194 21.7923 230.559 22.031 230.162 21.8961C229.837 21.7301 229.595 21.5122 229.677 21.097C230.451 21.2268 231.452 20.8584 231.788 21.9843C231.927 22.4565 231.509 22.4825 231.189 22.5499H231.194Z" fill="#95A2B4"/>
<path d="M37.1369 36.451C37.302 36.2745 37.4619 36.1033 37.627 35.9269C37.6477 37.1255 37.6683 38.3241 37.6889 39.5175C37.4464 39.7718 37.2297 39.751 37.0388 39.4553C37.0698 38.4538 37.1007 37.4524 37.1369 36.4458V36.451Z" fill="#95A2B4"/>
<path d="M14.0007 135.153C14.011 134.618 13.8923 134.047 14.4599 133.695C15.0842 134.234 14.9346 134.81 14.5476 135.397L14.5837 135.433C14.2587 135.614 14.1142 135.422 14.0059 135.153H14.0007Z" fill="#95A2B4"/>
<path d="M106.566 137.846C106.726 137.732 106.886 137.623 107.046 137.509C108.057 137.628 107.619 138.297 107.546 138.832C107.216 138.936 106.886 139.039 106.556 139.143C106.391 139.107 106.267 139.008 106.195 138.847C106.318 138.515 106.442 138.178 106.566 137.846Z" fill="#95A2B4"/>
<path d="M22.7308 49.3813C22.7308 50.2219 22.7308 51.0677 22.7308 51.9083C22.2097 51.0625 20.6618 50.2167 22.7308 49.3813Z" fill="#95A2B4"/>
<path d="M58.1421 165.601C58.0079 165.658 57.8789 165.715 57.7448 165.767C57.6519 164.765 58.0131 163.914 58.6219 163.152C59.1946 163.302 59.2411 163.779 59.303 164.252C59.1173 164.407 58.9315 164.558 58.7458 164.713C58.4981 164.973 58.6684 165.523 58.1472 165.601H58.1421Z" fill="#95A2B4"/>
<path d="M151.404 83.6901C151.42 82.1282 152.116 81.7287 153.478 82.4552C152.741 82.7872 152.328 83.6745 151.404 83.6901Z" fill="#95A2B4"/>
<path d="M59.303 164.257C58.6786 164.137 58.6941 163.619 58.6219 163.157C58.9624 162.41 59.628 162.71 60.1904 162.669C59.8963 163.198 59.5971 163.727 59.303 164.257Z" fill="#95A2B4"/>
<path d="M225.771 53.5065C226.855 54.0461 227.448 51.8513 228.64 52.9876C227.691 53.1952 227.035 55.0476 225.771 53.5065Z" fill="#95A2B4"/>
<path d="M21.8691 56.0493C20.9816 57.7668 20.0374 55.3643 19.1344 56.0856C20.0374 55.2346 20.9455 55.2398 21.8691 56.0493Z" fill="#95A2B4"/>
<path d="M88.0685 140.866C88.5897 140.98 89.1985 140.819 89.57 141.369C89.0076 141.66 88.4607 142.277 87.8002 141.686C87.5526 141.463 87.7641 141.073 88.0685 140.866Z" fill="#95A2B4"/>
<path d="M223.976 57.1078C223.682 57.0923 223.382 57.0767 223.088 57.0611C223.099 56.5474 223.785 56.2309 223.501 55.629C225.054 55.6705 224.672 56.3347 223.976 57.1027V57.1078Z" fill="#95A2B4"/>
<path d="M199.869 77.7643C200.401 77.1157 199.905 75.6836 201.381 75.7511C201.128 76.6124 201.097 77.6398 199.869 77.7643Z" fill="#95A2B4"/>
<path d="M85.5711 143.06C85.1635 143.112 84.5753 143.216 84.5598 142.708C84.534 141.805 85.1635 141.416 86.0407 141.452C85.8859 141.986 85.7259 142.526 85.5711 143.06Z" fill="#95A2B4"/>
<path d="M2.53051 58.1037C2.74721 58.3009 2.96392 58.4981 3.18579 58.6952C3.51601 59.2504 3.7224 59.7901 2.9794 60.1896C2.84525 60.1533 2.71626 60.1066 2.59242 60.0547C2.39635 59.9198 2.19512 59.7849 1.99905 59.65C2.17964 59.1311 2.35507 58.6174 2.53566 58.0985L2.53051 58.1037Z" fill="#95A2B4"/>
<path d="M206.046 74.7444C207.274 74.8637 207.8 75.5071 207.521 76.7473C207.047 76.0675 206.097 75.7406 206.046 74.7444Z" fill="#95A2B4"/>
<path d="M231.292 71.0966C230.523 70.858 229.342 71.4702 229.141 70.0485C230.121 69.8461 230.823 70.2353 231.292 71.0966Z" fill="#95A2B4"/>
<path d="M84.0077 155.415C83.8065 155.223 83.6104 155.031 83.4092 154.839C83.9303 154.512 84.4566 154.185 84.9777 153.858C85.0397 154.621 85.1635 155.425 84.0077 155.415Z" fill="#95A2B4"/>
<path d="M164.789 67.4855C164.206 67.1742 163.834 66.7175 163.793 66.0326C164.061 65.659 164.381 65.6123 164.747 65.8873C164.928 66.1208 165.108 66.3595 165.289 66.593C165.124 66.894 164.954 67.1897 164.789 67.4855Z" fill="#95A2B4"/>
<path d="M175.036 68.8033C176.006 68.5698 177.007 68.0043 177.858 69.068C176.945 68.6944 175.866 70.0487 175.036 68.8033Z" fill="#95A2B4"/>
<path d="M101.024 24.5271C100.926 23.8059 100.937 23.0535 100.452 22.4412C102.314 22.2803 101.458 23.6813 101.623 24.496C101.432 24.7139 101.231 24.7243 101.019 24.5271H101.024Z" fill="#95A2B4"/>
<path d="M47.3789 2.86879C46.4553 3.67824 45.3872 3.28389 44.3604 3.24757C44.541 3.09191 44.7268 2.94143 44.9074 2.78577C45.7329 2.81171 46.5533 2.84284 47.3789 2.86879Z" fill="#95A2B4"/>
<path d="M19.1912 152.271C18.9539 152.26 18.7217 152.25 18.4844 152.24C18.6701 151.544 17.9013 150.802 18.5927 150.133C19.4389 150.662 19.0107 151.549 19.1912 152.271Z" fill="#95A2B4"/>
<path d="M136.229 111.434C136.42 111.393 136.503 111.274 136.482 111.071C136.957 110.319 137.323 110.724 137.695 111.18C137.757 111.46 137.695 111.709 137.504 111.927C137.339 112 137.174 112.073 137.008 112.145C136.859 111.793 136.209 111.99 136.235 111.44L136.229 111.434Z" fill="#95A2B4"/>
<path d="M142.179 13.2619C141.234 12.7379 141.781 11.8402 141.647 11.1138C142.091 11.7624 143.376 12.2034 142.179 13.2619Z" fill="#95A2B4"/>
<path d="M99.4353 143.46C99.5282 143.076 99.5488 142.635 100.106 142.625C100.71 142.619 100.963 142.962 100.978 143.527C100.462 143.507 99.9513 143.481 99.4353 143.46Z" fill="#95A2B4"/>
<path d="M62.8065 12.5824C63.0077 12.6032 63.2141 12.6239 63.4154 12.6447C62.3834 13.4022 61.3515 13.4853 60.3195 12.6447C61.1502 12.6239 61.9758 12.6032 62.8065 12.5824Z" fill="#95A2B4"/>
<path d="M6.84404 99.5887C6.80792 99.4174 6.77181 99.2514 6.73569 99.0802C7.11751 98.9037 7.49417 98.7273 7.87599 98.5509C8.00498 99.4071 9.16076 98.7481 9.33103 99.5472C8.97501 99.5731 8.62415 99.599 8.26813 99.6198C7.78311 99.983 7.31358 99.9519 6.84404 99.5835V99.5887Z" fill="#95A2B4"/>
<path d="M227.01 58.7992C227.051 58.5086 227.097 58.218 227.139 57.9222C227.464 58.1661 227.789 58.4152 228.119 58.6591C228.222 59.1312 228.475 59.8421 227.949 59.9666C227.221 60.1379 227.108 59.3803 227.015 58.7992H227.01Z" fill="#95A2B4"/>
<path d="M165.263 13.6408C165.459 13.6511 165.66 13.6667 165.857 13.6771C164.974 14.388 164.097 14.6785 163.241 13.646C163.916 13.7445 164.587 13.07 165.263 13.646V13.6408Z" fill="#95A2B4"/>
<path d="M181.269 13.6775C181.903 14.5492 181.671 15.2134 180.773 15.7115C180.954 15.037 179.886 14.0563 181.269 13.6775Z" fill="#95A2B4"/>
<path d="M36.0998 191.846C36.6106 191.95 37.1266 192.059 37.6374 192.162C37.658 192.38 37.6786 192.598 37.6993 192.821C36.9511 192.853 35.6096 193.864 36.0998 191.846Z" fill="#95A2B4"/>
<path d="M75.7676 155.415C76.1339 155.446 76.3351 155.659 76.4229 156.002C76.3094 156.702 77.1246 157.714 75.7573 157.984C75.7573 157.128 75.7624 156.271 75.7676 155.415Z" fill="#95A2B4"/>
<path d="M46.93 192.136C47.4151 192.344 48.3851 191.057 48.4367 192.624C47.931 192.629 47.4305 192.64 46.9249 192.645C46.7443 192.531 46.6875 192.417 46.7494 192.302C46.8114 192.188 46.8681 192.136 46.93 192.136Z" fill="#95A2B4"/>
<path d="M10.4043 121.174C10.4043 121.698 10.394 122.217 10.3888 122.741C9.54264 122.01 9.63036 121.081 9.83675 120.131C10.425 120.261 10.3992 120.728 10.3992 121.179L10.4043 121.174Z" fill="#95A2B4"/>
<path d="M214.843 14.1545C214.121 15.1145 213.125 14.7305 212.201 14.6994C212.934 13.7965 213.966 14.3569 214.843 14.1545Z" fill="#95A2B4"/>
<path d="M46.9299 192.136C46.9454 192.308 46.9454 192.474 46.9299 192.645C46.5842 192.635 46.2385 192.624 45.8928 192.619C45.8928 192.111 45.6812 191.732 45.2014 191.54C46.5171 189.594 46.2643 192.214 46.9351 192.142L46.9299 192.136Z" fill="#95A2B4"/>
<path d="M170.975 15.737C170.082 15.5139 169.179 16.3233 168.287 15.7111C169.19 15.0158 170.088 14.8186 170.975 15.737Z" fill="#95A2B4"/>
<path d="M210.091 97.4664C210.246 97.43 210.406 97.4197 210.566 97.4352C210.411 97.9697 210.256 98.5093 210.101 99.0438C209.43 98.9815 209.1 98.5768 209.167 97.9385C209.224 97.3989 209.719 97.5027 210.091 97.4612V97.4664Z" fill="#95A2B4"/>
<path d="M58.1421 165.601C58.2195 165.222 58.2969 164.843 58.7406 164.714C58.3485 165.3 60.6033 165.632 58.8954 166.348C58.6426 166.099 58.3898 165.85 58.1421 165.601Z" fill="#95A2B4"/>
<path d="M230.069 48.6914C229.404 47.6796 229.249 46.6885 230.183 45.7338C230.147 46.7196 230.105 47.7055 230.069 48.6914Z" fill="#95A2B4"/>
<path d="M51.0319 167.054C51.2641 165.855 52.1722 165.751 53.1371 165.741C52.7862 166.748 51.7801 166.691 51.0319 167.054Z" fill="#95A2B4"/>
<path d="M27.3952 43.098C26.9772 42.7607 26.5593 42.4234 26.1413 42.0862C26.9514 42.0291 27.7821 41.8734 28.391 42.6414C28.1433 42.9786 27.8286 43.1706 27.3952 43.098Z" fill="#95A2B4"/>
<path d="M81.8923 19.4319C81.2215 20.0701 80.5559 20.1479 79.9006 19.4111C80.5714 18.9078 81.2318 19.0479 81.8923 19.4319Z" fill="#95A2B4"/>
<path d="M14.5837 135.433C14.5837 135.433 14.5527 135.391 14.5476 135.391C15.0068 135.365 15.3112 135.537 15.3473 136.04C15.3886 136.678 14.8365 136.766 14.4547 137.016C14.496 136.486 14.5424 135.957 14.5837 135.433Z" fill="#95A2B4"/>
<path d="M11.2968 125.429C12.6074 125.579 12.7622 126.114 11.8231 127.016C11.6477 126.487 11.4723 125.958 11.2968 125.429Z" fill="#95A2B4"/>
<path d="M153.943 18.8297C154.128 18.9906 154.314 19.1566 154.495 19.3175C154.19 20.101 153.483 19.7222 152.952 19.8623C152.942 19.6962 152.952 19.5354 152.962 19.3694C153.107 18.8557 153.525 18.8505 153.937 18.8297H153.943Z" fill="#95A2B4"/>
<path d="M116.7 132.693C116.968 132.008 117.427 131.344 116.932 130.576C117.298 130.519 117.66 130.462 118.026 130.405C118.026 131.427 117.861 132.351 116.7 132.698V132.693Z" fill="#95A2B4"/>
<path d="M3.65536 85.0497C3.69147 86.0719 3.73275 87.0941 3.76887 88.1215C2.86592 87.1304 2.86076 86.1082 3.65536 85.0497Z" fill="#95A2B4"/>
<path d="M229.682 21.0973C229.842 21.362 230.002 21.6318 230.167 21.8964C229.233 22.0988 228.728 21.4346 228.155 20.9001C228.31 20.7756 228.47 20.6459 228.625 20.5214C228.981 20.7133 229.331 20.9053 229.687 21.0973H229.682Z" fill="#95A2B4"/>
<path d="M31.3218 26.525C31.5488 26.7325 31.781 26.9401 32.008 27.1476C32.168 27.2929 32.2041 27.4123 32.1267 27.516C32.0545 27.6094 31.9874 27.6509 31.9203 27.6509C31.4508 27.6302 30.9761 27.6094 30.5065 27.5887C30.4911 27.2722 30.4808 26.9556 30.4653 26.6391C30.7491 26.5976 31.038 26.5613 31.3218 26.5198V26.525Z" fill="#95A2B4"/>
<path d="M111.272 25.5701C111.246 26.0838 111.215 26.5923 111.189 27.106C110.648 27.3031 110.73 28.1956 110.003 28.1852C110.24 27.2253 110.126 26.089 111.272 25.5753V25.5701Z" fill="#95A2B4"/>
<path d="M101.025 24.527C101.226 24.5166 101.427 24.5062 101.628 24.4958C102.211 25.4402 102.603 26.3379 101.025 26.6752L100.963 26.1303C101.995 25.6374 101.03 25.0614 101.025 24.527Z" fill="#95A2B4"/>
<path d="M53.1784 176.965C53.1372 177.271 53.0907 177.577 53.0494 177.883C52.3322 177.421 51.1145 177.613 51.0268 176.326C51.744 176.539 52.4612 176.752 53.1784 176.97V176.965Z" fill="#95A2B4"/>
<path d="M164.881 70.5002L164.804 67.9836C165.712 68.7931 165.475 69.6441 164.881 70.5002Z" fill="#95A2B4"/>
<path d="M37.1883 22.4879C37.3896 22.6955 37.5856 22.9082 37.7869 23.1158C37.5701 23.2818 37.3586 23.453 37.1419 23.6191C36.7859 23.6243 36.4298 23.6295 36.0738 23.6398C36.0222 22.8408 36.7704 22.8252 37.1935 22.4879H37.1883Z" fill="#95A2B4"/>
<path d="M231.751 84.0013C232.025 83.4824 230.967 82.7819 231.643 82.6003C232.401 82.3979 232.319 83.5291 232.711 83.9961C232.391 83.9961 232.071 83.9961 231.751 83.9961V84.0013Z" fill="#95A2B4"/>
<path d="M49.0145 174.105C49.1744 173.42 49.3344 172.73 49.4943 172.045C50.2218 172.943 50.2064 173.664 49.0145 174.105Z" fill="#95A2B4"/>
<path d="M141.147 112.981L140.894 112.991L140.646 112.955C139.95 112.052 140.177 111.383 141.152 110.9L141.668 110.931C141.492 111.616 141.317 112.296 141.141 112.981H141.147Z" fill="#95A2B4"/>
<path d="M50.0053 167.821C50.3665 167.796 50.7328 167.77 51.094 167.744C50.9495 168.989 50.3716 169.129 49.448 168.397C49.4945 168.071 49.6905 167.889 50.0053 167.821Z" fill="#95A2B4"/>
<path d="M37.0387 39.4606C37.2554 39.4814 37.4721 39.5021 37.6888 39.5229C37.7198 40.239 37.1626 40.3375 36.6672 40.4932C36.4092 40.4465 36.2338 40.3012 36.1306 40.0573C35.95 40.0573 35.7694 40.0522 35.5888 40.047C35.8933 39.4036 36.5124 39.5488 37.0387 39.4554V39.4606Z" fill="#95A2B4"/>
<path d="M50.0051 167.822C49.8194 168.014 49.6336 168.206 49.4479 168.398L49.2312 168.367L49.0093 168.377C48.8442 168.206 48.6842 168.035 48.5191 167.863C48.999 167.111 49.4995 167.433 50.0051 167.827V167.822Z" fill="#95A2B4"/>
<path d="M116.968 20.3191C116.963 20.0234 116.958 19.7276 116.953 19.4319C117.463 19.2347 117.969 19.0375 118.48 18.8403C118.119 19.4786 117.732 20.0908 116.968 20.3191Z" fill="#95A2B4"/>
<path d="M20.2749 168.813C20.0634 169.005 19.8467 169.197 19.6351 169.394C18.8715 168.693 18.9437 167.998 19.6506 167.308C19.857 167.811 20.0634 168.309 20.2749 168.813Z" fill="#95A2B4"/>
<path d="M225.947 83.4671L225.049 83.493C224.739 82.9793 225.188 82.7718 225.456 82.4968C225.812 81.7703 226.189 82.3878 226.561 82.4812C226.354 82.8133 226.153 83.1402 225.952 83.4723L225.947 83.4671Z" fill="#95A2B4"/>
<path d="M119.527 16.2664C119.713 16.2457 119.904 16.2197 120.09 16.199C120.234 16.2353 120.379 16.2664 120.523 16.2924C120.079 16.6919 120.353 18.2226 119.037 17.2523C119.202 16.9254 119.367 16.5985 119.527 16.2716V16.2664Z" fill="#95A2B4"/>
<path d="M29.4333 190.035C29.4126 190.491 29.3249 190.912 28.8451 191.119C28.6748 190.772 28.5097 190.424 28.3394 190.076C28.5303 189.895 28.7212 189.713 28.9121 189.531C29.0876 189.698 29.2578 189.869 29.4333 190.035Z" fill="#95A2B4"/>
<path d="M60.9078 162.576C60.8717 160.822 62.1306 161.927 62.7911 161.715C62.1616 162 61.5321 162.291 60.9078 162.576Z" fill="#95A2B4"/>
<path d="M226.612 81.8429C227.097 81.4952 227.242 80.5716 228.145 80.9244C227.784 81.4848 227.541 82.2424 226.612 81.8429Z" fill="#95A2B4"/>
<path d="M19.0933 156.956C19.3306 157.351 19.7434 157.74 19.1087 158.14C18.4019 158.056 17.7621 157.927 18.2264 156.962C18.5154 156.671 18.8043 156.64 19.0933 156.956Z" fill="#95A2B4"/>
<path d="M3.22202 78.4751L3.25814 78.6775C3.40261 79.2482 3.54192 79.8242 3.6864 80.395C3.1859 79.8398 1.91145 79.4765 3.21686 78.4751H3.22202Z" fill="#95A2B4"/>
<path d="M34.0255 193.133C33.8243 192.936 33.6282 192.739 33.427 192.547C33.6334 192.386 33.8346 192.22 34.041 192.059C34.3764 192.1 34.7117 192.147 35.0471 192.189C34.7066 192.505 34.366 192.822 34.0255 193.138V193.133Z" fill="#95A2B4"/>
<path d="M5.24965 58.2438C5.00714 58.0311 4.76463 57.8131 4.51697 57.6004C5.07938 57.2061 4.98134 56.2617 5.78626 56.0697C5.63663 56.8013 6.1268 57.6938 5.24965 58.249V58.2438Z" fill="#95A2B4"/>
<path d="M194.704 76.2388C194.844 76.1091 194.988 75.9742 195.128 75.8445C195.773 75.803 196.237 75.969 196.17 76.7525C195.613 76.7785 195.004 76.9601 194.71 76.2388H194.704Z" fill="#95A2B4"/>
<path d="M127.804 118.678C128.196 118.606 128.614 118.575 128.768 118.102C129.145 118.294 129.284 118.678 128.985 118.907C128.397 119.343 127.731 119.441 127.179 118.756C127.386 118.73 127.592 118.704 127.798 118.678H127.804Z" fill="#95A2B4"/>
<path d="M39.2162 196.677C39.2162 196.677 39.1543 196.454 39.1543 196.459C39.856 196.376 40.6093 195.867 41.1872 196.718C40.8983 196.796 40.6093 196.874 40.3204 196.957C39.954 196.848 39.4226 197.419 39.211 196.677H39.2162Z" fill="#95A2B4"/>
<path d="M19.0933 156.956C18.8043 156.956 18.5154 156.956 18.2264 156.961C18.309 156.287 18.3916 155.617 18.4689 154.943C18.6599 154.922 18.8559 154.901 19.0468 154.88C19.0623 155.571 19.0778 156.266 19.0933 156.956Z" fill="#95A2B4"/>
<path d="M212.175 100.533C212.175 100.196 212.165 99.8585 212.165 99.5264C212.598 99.5367 212.96 99.682 213.187 100.082C213.182 100.45 213.171 100.824 213.166 101.192C212.836 100.974 212.511 100.756 212.181 100.533H212.175Z" fill="#95A2B4"/>
<path d="M182.285 73.1879C182.378 73.0737 182.414 72.944 182.393 72.7987C183.095 73.0218 182.889 73.5926 182.873 74.0855C182.817 74.5473 182.75 75.004 182.249 75.2167L182.29 73.1931L182.285 73.1879Z" fill="#95A2B4"/>
<path d="M101.546 143.035C101.731 143.221 101.917 143.413 102.103 143.6C101.953 144.046 102.397 144.607 101.798 145.006C101.51 144.498 101.226 144 100.942 143.502C101.143 143.346 101.344 143.19 101.546 143.035Z" fill="#95A2B4"/>
<path d="M35.6044 10.0606C35.9191 9.94126 36.2339 9.82192 36.5486 9.70776C36.7137 10.4601 37.0078 11.2488 36.0791 11.747C35.9191 11.1866 35.7592 10.621 35.6044 10.0606Z" fill="#95A2B4"/>
<path d="M179.798 72.0671C179.777 72.2487 179.752 72.4303 179.731 72.6171C178.673 71.9477 179.318 70.9359 179.225 70.0746C179.349 70.1576 179.473 70.1576 179.602 70.085C180.226 70.692 180.149 71.3666 179.798 72.0723V72.0671Z" fill="#95A2B4"/>
<path d="M168.901 68.0926C169.685 67.0082 170.547 67.2417 171.434 67.9525C170.588 67.9992 169.747 68.0459 168.901 68.0926Z" fill="#95A2B4"/>
<path d="M32.4259 199.904C32.4517 199.032 32.4775 198.161 32.5033 197.289C33.2876 198.181 33.3443 199.058 32.4259 199.904Z" fill="#95A2B4"/>
<path d="M40.243 4.37345C39.8405 4.19703 39.4432 4.02061 39.0407 3.84419C39.5877 3.48617 40.0417 2.83237 40.8363 3.29418C40.8157 3.48098 40.795 3.66777 40.7692 3.84938C40.7022 4.12958 40.5267 4.306 40.243 4.36827V4.37345Z" fill="#95A2B4"/>
<path d="M229.734 50.9279C229.125 50.9279 228.883 50.5647 228.883 50.0147C228.883 49.501 229.213 49.3401 229.672 49.3609C229.693 49.885 229.713 50.4038 229.734 50.9279Z" fill="#95A2B4"/>
<path d="M36.6312 198.316C36.6209 198.674 36.6054 199.032 36.5951 199.39C36.43 199.401 36.2648 199.39 36.0997 199.354C35.9604 199.235 35.9191 199.126 35.9656 199.012C36.0172 198.903 36.0636 198.846 36.1152 198.846C36.2855 198.669 36.4609 198.493 36.6312 198.316Z" fill="#95A2B4"/>
<path d="M36.1152 198.846C36.1255 199.017 36.1152 199.183 36.0997 199.354L35.8572 199.385L35.6147 199.359C35.5992 199.193 35.594 199.022 35.6095 198.856C35.7798 198.82 35.9449 198.814 36.1152 198.856V198.846Z" fill="#95A2B4"/>
<path d="M40.2431 4.3735C40.4185 4.20227 40.5939 4.02585 40.7693 3.85461C42.7713 4.07254 44.1799 4.6952 43.3595 7.18584C43.1686 7.76699 43.2099 8.53493 43.8342 9.02268C44.7785 10.1071 44.7785 10.1954 43.8342 12.1204C42.9055 14.2426 41.0944 12.7431 39.7426 13.1219C40.3669 10.8958 40.3617 8.66465 39.7271 6.44384C40.0521 5.79523 40.3101 5.12588 40.2379 4.37869L40.2431 4.3735Z" fill="#95A2B4"/>
<path d="M141.157 110.905C140.858 111.559 140.362 112.161 140.651 112.96C140.481 113.142 140.316 113.323 140.146 113.505L139.991 113.51C139.258 112.742 138.809 111.637 137.592 111.435C137.344 110.937 136.936 110.931 136.482 111.066C136.245 110.418 136.699 109.94 136.88 109.396C137.979 110.376 139.238 110.153 140.502 109.883C140.718 110.226 140.94 110.563 141.157 110.905Z" fill="#95A2B4"/>
<path d="M65.9228 157.989C65.4275 158.181 65.5513 158.637 65.4894 159.016C64.4781 158.964 63.1985 159.364 63.5287 157.454C63.6474 156.79 62.8167 157.039 62.3781 156.961C62.3781 156.79 62.3781 156.614 62.3781 156.442C63.3739 156.442 64.3697 156.453 65.3656 156.458C65.6958 156.915 66.0724 157.356 65.9228 157.989Z" fill="#95A2B4"/>
<path d="M53.0906 2.81696C54.0039 4.192 53.8542 5.56185 53.0596 6.92651C52.6572 6.45433 51.4859 7.09774 51.5891 5.89912C52.1773 5.11042 52.2031 4.52408 51.0422 4.36842C50.8771 4.36842 50.712 4.35804 50.5468 4.35285C50.4282 2.22025 52.0328 2.96744 53.0957 2.81696H53.0906Z" fill="#95A2B4"/>
<path d="M11.8852 115.591C12.107 115.576 12.3289 115.555 12.5508 115.539C13.0719 115.939 13.1906 116.499 13.1441 117.111C13.0977 117.76 13.3557 118.476 12.8345 119.016C12.7313 119.125 12.2205 119.068 12.1741 118.964C11.8645 118.253 11.0957 117.578 11.8594 116.717C11.6117 116.338 11.6014 115.959 11.88 115.591H11.8852Z" fill="#95A2B4"/>
<path d="M51.0424 4.36869C51.2797 3.93802 51.548 3.37244 52.1104 3.56443C52.8379 3.81349 52.8483 4.66446 52.8844 5.23523C52.9411 6.09657 52.1104 5.82675 51.5893 5.89421C51.4087 5.3857 51.2229 4.87201 51.0424 4.3635V4.36869Z" fill="#95A2B4"/>
<path d="M6.84407 99.5886C7.31877 99.599 7.79346 99.6094 8.26815 99.6249C8.39199 101.01 7.63867 102.048 6.90599 103.096C6.88535 101.929 6.86471 100.761 6.84407 99.5938V99.5886Z" fill="#95A2B4"/>
<path d="M30.9607 180.218C30.13 180.052 29.0206 180.695 28.5253 179.564C28.2054 178.833 28.5408 178.262 29.4179 178.179C29.4437 178.589 29.516 178.973 29.9442 179.165C30.9968 178.827 31.4148 179.108 30.9555 180.228L30.9607 180.218Z" fill="#95A2B4"/>
<path d="M236.854 76.7473C237.025 77.2766 237.2 77.8006 237.37 78.3299C235.869 78.5323 235.095 77.9771 235.332 76.3633C235.915 76.1817 236.395 76.4412 236.854 76.7473Z" fill="#95A2B4"/>
<path d="M226.101 64.9427C225.823 65.5186 225.255 65.7521 224.713 65.5913C224.394 65.4979 223.511 65.7003 223.769 64.9012C223.965 64.2941 224.584 64.1696 225.224 64.2733C225.647 64.3408 226.055 64.346 226.101 64.9427Z" fill="#95A2B4"/>
<path d="M48.3645 175.05C48.3645 175.221 48.3645 175.397 48.3645 175.569C47.4409 175.325 46.4089 175.174 46.5121 173.773C47.6524 173.675 47.637 174.863 48.3696 175.05H48.3645Z" fill="#95A2B4"/>
<path d="M36.1307 40.0574C36.3113 40.2027 36.4867 40.3479 36.6673 40.4932C36.0946 41.1522 36.4455 42.4598 35.1813 42.631C34.6499 41.4584 35.7696 40.898 36.1307 40.0574Z" fill="#95A2B4"/>
<path d="M48.4676 4.36316C48.545 3.8339 48.674 3.34096 49.3654 3.42398C49.902 3.48625 49.9484 3.94287 50.0155 4.35797C49.4995 4.50845 48.9887 5.18299 48.4728 4.36316H48.4676Z" fill="#95A2B4"/>
<path d="M10.9512 92.1063C10.7913 92.729 10.394 93.1129 9.79543 93.2997C9.43424 92.8691 9.12466 92.4228 9.25365 91.8157C10.0586 90.5237 10.461 91.5563 10.9512 92.1063Z" fill="#95A2B4"/>
<path d="M186.681 12.5927C185.556 14.0818 184.581 12.7276 183.647 12.7535C184.545 12.7068 185.438 12.6601 186.681 12.5927Z" fill="#95A2B4"/>
<path d="M11.8851 115.591C11.8799 115.964 11.8748 116.343 11.8645 116.717C11.2246 116.691 10.5797 116.66 9.93987 116.634C9.74897 116.421 9.55805 116.208 9.36198 115.995C10.203 115.861 11.0441 115.726 11.8851 115.591Z" fill="#95A2B4"/>
<path d="M223.46 18.8243C223.883 19.4574 225.054 19.3432 225.039 20.4121C223.718 20.6768 223.057 20.2824 223.46 18.8243Z" fill="#95A2B4"/>
<path d="M159.66 85.0546C159.154 84.9819 158.648 84.9093 158.143 84.8366C158.251 83.9442 159.066 83.8663 159.639 83.5083C160.011 84.0168 160.005 84.5305 159.66 85.0546Z" fill="#95A2B4"/>
<path d="M20.7082 169.414C20.7082 169.233 20.7134 169.051 20.7185 168.87C21.2809 168.496 21.1416 167.92 21.1365 167.386C21.5183 167.401 22.1839 167.339 22.0549 167.806C21.8743 168.46 21.7763 169.42 20.703 169.409L20.7082 169.414Z" fill="#95A2B4"/>
<path d="M225.451 82.4967C225.317 82.8288 225.178 83.1609 225.044 83.493C224.842 83.9911 224.492 84.3387 224.001 84.5411C223.97 83.493 224.13 82.5745 225.456 82.4967H225.451Z" fill="#95A2B4"/>
<path d="M228.134 63.3553C227.293 63.7704 227.103 63.3189 227.128 62.5873C227.139 62.25 227.211 61.7986 227.608 61.8972C228.413 62.084 228.047 62.8312 228.134 63.3501V63.3553Z" fill="#95A2B4"/>
<path d="M1.71518 65.8767C1.72034 65.2177 1.73066 64.5588 1.73582 63.8998C2.05056 63.9724 2.37047 64.0503 2.68521 64.1229C2.61813 64.8493 2.50978 65.555 1.71518 65.8767Z" fill="#95A2B4"/>
<path d="M164.747 65.8871C164.427 65.9338 164.113 65.9857 163.793 66.0324C163.174 65.8663 163.029 65.4408 163.334 64.9375C163.468 64.7196 163.886 64.4705 164.087 64.5328C164.721 64.7248 164.938 65.2333 164.747 65.8871Z" fill="#95A2B4"/>
<path d="M179.798 72.0673C179.731 71.4031 179.669 70.7441 179.602 70.08C180.417 70.4951 180.655 71.2423 180.748 72.0777C180.433 72.0777 180.113 72.0673 179.798 72.0673Z" fill="#95A2B4"/>
<path d="M92.7433 140.918C92.7485 141.27 92.7536 141.618 92.7639 141.971C92.2789 141.758 91.4224 142.5 91.3192 141.753C91.2109 140.964 91.9642 140.689 92.7485 140.918H92.7433Z" fill="#95A2B4"/>
<path d="M5.28577 86.2012C5.09486 85.8225 4.90911 85.4385 4.7182 85.0597C5.1671 84.7899 5.61599 84.5201 6.12681 84.2087C6.28676 85.1479 5.76046 85.6616 5.28577 86.2012Z" fill="#95A2B4"/>
<path d="M16.142 141.032C15.3732 140.471 15.4145 139.895 16.1007 139.304C16.6218 139.87 16.498 140.445 16.142 141.032Z" fill="#95A2B4"/>
<path d="M159.66 85.0545C159.655 84.5408 159.649 84.0271 159.639 83.5082C159.665 83.1813 159.686 82.8492 159.711 82.5223C159.846 82.5068 159.98 82.486 160.114 82.4705C160.114 83.3422 160.114 84.2139 160.114 85.0804C159.964 85.0649 159.809 85.0545 159.66 85.0493V85.0545Z" fill="#95A2B4"/>
<path d="M9.25362 91.8104C9.51161 92.2774 10.0947 92.625 9.79539 93.2944C9.30522 93.2944 8.82021 93.2944 8.33003 93.2996C8.46934 93.0038 8.60866 92.7028 8.74281 92.4071C8.91308 92.2047 9.08335 92.0075 9.24846 91.8052L9.25362 91.8104Z" fill="#95A2B4"/>
<path d="M224.486 30.7072C225.302 31.3039 224.961 31.9888 224.646 32.6789C224.533 32.0251 223.511 31.4492 224.486 30.7072Z" fill="#95A2B4"/>
<path d="M30.9606 180.223C30.9606 179.548 30.5994 179.211 29.9493 179.159C30.3157 178.723 30.7749 178.511 31.2134 178.972C31.652 179.429 31.4302 179.881 30.9606 180.223Z" fill="#95A2B4"/>
<path d="M117.995 128.48C118.862 128.501 118.918 128.906 118.485 129.539C117.819 129.419 117.169 129.3 117.995 128.48Z" fill="#95A2B4"/>
<path d="M31.9203 27.6507C31.9513 27.4846 31.9823 27.3134 32.0081 27.1474C32.5034 26.9658 32.8852 26.3898 33.525 26.7011C33.2206 27.1785 32.9162 27.6559 32.6066 28.128C32.3796 27.9672 32.1474 27.8115 31.9203 27.6507Z" fill="#95A2B4"/>
<path d="M23.5718 51.6959C23.1539 50.9175 23.1539 50.3935 23.4583 49.8279C23.9485 50.3156 23.7576 50.8397 23.5718 51.6959Z" fill="#95A2B4"/>
<path d="M2.97437 60.1948C3.04144 59.6967 3.11368 59.1986 3.18075 58.7004C3.51614 58.7108 3.85668 58.716 4.19206 58.7264C4.16626 59.5358 3.77928 60.0443 2.97437 60.2V60.1948Z" fill="#95A2B4"/>
<path d="M38.6899 6.94739C38.7621 8.23422 40.439 9.17858 39.4071 10.7871C37.8643 9.72341 37.7508 8.45215 38.695 6.95258L38.6899 6.94739Z" fill="#95A2B4"/>
<path d="M137.586 111.44C140.146 110.07 139.562 112.379 139.986 113.515C139.532 113.682 139.083 113.848 138.634 114.008C137.906 113.505 137.328 112.919 137.493 111.923C137.509 111.756 137.54 111.596 137.586 111.44Z" fill="#95A2B4"/>
</svg>
