<svg width="227" height="202" viewBox="0 0 227 202" fill="none" xmlns="http://www.w3.org/2000/svg">
<path d="M226.793 41.5398C225.918 41.5244 225.038 41.509 224.164 41.4987C224.74 40.5878 225.105 39.3887 225.244 37.9529C226.073 38.1484 226.155 39.1005 226.793 39.4865V41.5398Z" fill="#95A2B4"/>
<path d="M225.244 37.9528C225.99 39.4709 226.165 40.8141 224.169 41.4986C221.477 42.3117 218.883 43.449 215.945 43.2637C214.509 43.1711 213.279 44.1437 211.977 44.6944C211.509 45.1061 210.814 45.1781 210.423 45.7082C205.94 49.29 201.582 52.9851 199.58 58.6305C199.291 59.4436 198.509 59.387 198.098 59.8451C197.531 60.4678 198.293 60.37 198.592 60.5038C199.281 61.2448 199.075 62.3101 199.544 63.1335C200.789 66.5198 202.431 69.7156 204.175 72.8652C204.592 73.6886 204.906 74.5171 204.268 75.3765C203.686 76.0044 202.904 74.9803 202.348 75.6133C205.524 76.5756 206.28 77.5689 205.997 80.3839C206.023 81.0735 205.58 81.5264 205.199 82.0152C201.983 84.6193 197.943 86.297 195.9 90.2339C195.37 91.5616 195.082 92.9202 195.267 94.3663C195.339 94.9479 195.385 95.6117 194.433 95.4625C194.099 95.4419 193.764 95.4265 193.43 95.4059C193.028 95.4316 192.699 95.1743 192.292 95.1331C192.581 95.658 193.059 96.008 193.384 96.4763C193.733 97.9687 193.147 98.9156 191.742 99.4817C189.061 100.562 186.92 102.127 185.891 105.071C185.221 106.985 182.741 107.68 182.149 109.79C181.882 110.062 181.557 110.145 181.192 110.109C180.734 110.037 180.327 109.764 179.864 109.743C179.525 109.728 179.525 110.062 179.823 109.893C180.122 109.723 179.936 110.366 180.019 110.042C180.183 110.176 180.286 110.33 180.353 110.521C180.513 111.205 179.967 111.498 179.612 111.889C174.795 115.06 169.175 115.77 163.741 117.031C162.429 117.756 160.833 117.653 159.557 118.472C156.716 119.624 153.701 120.329 151.071 122.022C150.618 122.316 149.918 122.918 149.295 122.105C148.709 121.353 148.379 120.54 148.482 120.041C148.487 120.921 148.945 122.321 148.245 123.618C144.247 125.44 140.454 127.611 136.965 130.293C136.213 130.946 135.405 131.162 134.495 130.612C134.67 131.466 134.932 132.341 133.882 132.855C130.733 135.912 127.166 138.455 123.708 141.131C123.229 141.697 122.663 142.18 122.174 142.731C121.603 144.265 119.642 144.821 119.452 146.622C118.804 147.075 118.412 146.581 117.98 146.231C117.46 145.392 116.946 144.553 116.426 143.709C115.309 143.148 116.436 141.692 115.392 141.105C113.441 141.043 112.499 142.582 111.29 143.688C111.676 144.105 112.17 144.589 111.794 145.14C111.434 145.67 110.811 145.515 110.292 145.201C110.142 145.186 109.993 145.16 109.849 145.134C109.237 144.81 109.34 144.023 108.871 143.632C108.49 143.997 108.948 144.28 108.948 144.599C108.99 144.836 108.902 145.011 108.712 145.14C107.708 146.267 107.302 148.14 105.14 147.81C104.348 147.687 104.564 148.361 104.59 148.876C104.641 149.807 104.59 150.749 104.59 151.686C103.612 152.226 102.809 153.003 101.913 153.652C101.605 153.811 101.383 154.022 101.347 154.403C101.095 157.341 100.817 157.671 97.9611 157.717C96.8289 157.738 95.8614 158.155 94.8373 158.468C94.5285 158.515 94.2198 158.556 93.911 158.602C93.0258 159.122 92.1612 159.173 91.3224 158.504C91.1062 158.139 90.7872 157.959 90.36 157.974C87.9979 157.254 85.3424 158.597 83.1141 156.94C82.7744 156.091 82.4348 155.242 82.0951 154.393C81.4004 153.157 82.5583 153.029 83.1707 152.576C83.8603 152.061 84.5447 152.422 85.224 152.576C85.4196 152.55 85.4814 152.447 85.399 152.262C85.3733 152.211 85.2961 152.19 85.1726 152.19C84.3698 151.644 83.6493 152.288 82.8979 152.319C82.3987 152.329 81.9356 152.247 81.6165 151.804C81.2666 151.264 80.8291 150.759 80.5769 150.178C79.9388 148.706 79.4705 149.632 78.9559 150.24C78.6471 150.605 78.3177 150.6 77.9729 150.286C76.6349 148.135 75.4307 145.891 73.9177 143.874C72.8009 142.381 71.7408 144.424 71.7871 144.64C72.1782 146.472 70.3513 146.678 69.744 147.728C69.4044 148.037 69.075 148.042 68.7456 147.708C68.4008 147.255 68.056 146.802 67.6186 146.231C66.5739 147.311 67.1246 148.701 66.6305 149.859C65.9358 151.475 65.3234 150.378 64.6389 150.281C63.7383 150.337 62.8789 148.31 61.9474 150.234C61.0828 151.722 61.4122 153.482 62.5341 154.207C65.6218 156.194 63.6148 157.29 62.1069 158.607C61.6129 158.993 60.9284 159.035 60.4807 159.508L60.5064 159.539C60.0175 160.753 58.6435 160.362 57.8458 161.016C57.6142 161.119 57.2643 161.366 57.1768 161.299C54.5779 159.143 53.7957 161.242 52.823 163.085C52.2724 164.129 51.5828 165.107 50.9241 166.095C49.8794 167.665 49.8845 169.497 51.3666 170.372C53.3171 171.525 52.5143 172.343 51.6651 173.47C51.274 173.99 50.8263 174.448 51.1248 175.281C51.3152 175.811 53.1678 176.316 51.3666 177.067C50.0955 177.597 48.4538 178.961 47.4812 177.391C46.4983 175.806 44.8051 176.156 43.6729 175.132C43.0039 174.525 41.6505 175.549 41.8409 176.233C42.6797 179.275 40.0139 179.846 38.5987 181.303C38.187 181.724 37.7856 182.162 37.379 182.594C36.9056 183.027 36.9056 183.773 36.3704 184.164C34.6361 184.051 34.7647 182.805 34.8265 181.606C35.444 180.932 35.4183 180.248 34.8522 179.553C33.9773 178.405 31.6975 178.323 32.2276 176.105C31.4865 171.88 28.1929 170.794 24.6883 169.96C23.9472 169.759 23.2937 169.451 23.0569 168.638C23.0518 168.514 23.0466 168.39 23.0415 168.267C23.0775 167.413 23.5047 166.389 22.11 166.172C21.1631 165.72 20.8492 165.092 21.5594 164.181C23.8392 161.551 27.4467 161.356 30.1588 159.513C31.1829 159.189 31.8519 158.345 31.5792 157.434C30.9205 155.257 32.3305 154.856 33.8127 154.387C33.298 152.175 32.7834 149.962 32.2636 147.754C31.9137 147.229 31.7439 146.663 31.8931 146.035C31.9394 145.649 32.4232 145.556 32.4901 145.181C32.3974 145.289 32.2739 145.371 32.0938 145.438C31.749 145.531 31.4814 145.428 31.2653 145.17C29.4229 143.74 29.8294 141.666 29.7162 139.746C29.6751 139.036 30.0662 138.748 30.7609 138.563C33.1436 137.924 31.8931 136.921 30.8021 136.355C29.6082 135.737 28.9597 135.212 29.7883 133.854C30.2617 133.082 30.0868 132.258 29.2273 131.95C27.9047 131.476 27.5599 130.38 27.1688 129.263C25.0074 127.987 23.5047 126.448 24.8942 123.716C25.0897 123.33 25.0485 122.902 24.9147 122.491C24.7655 122.033 25.0177 121.472 24.5494 121.096C24.9611 117.73 22.4908 116.14 20.3706 114.339C20.1184 114.123 19.8457 113.871 19.542 113.783C16.2381 112.831 16.1763 110.273 16.3204 107.525C16.3822 106.362 16.3719 105.21 17.6173 104.741C18.9811 104.227 20.6124 104.294 21.2815 105.611C22.2541 107.525 24.3847 107.304 25.6404 108.534C26.2888 109.172 27.0916 107.196 27.6886 108.652C28.3525 109.373 29.0163 109.388 29.6751 108.652C29.9427 107.484 30.5036 107.87 31.0851 108.39C32.3769 109.543 33.2363 111.025 33.7869 112.6C34.492 114.617 35.408 115.018 37.1886 113.752C38.4752 112.836 39.8647 111.817 41.5115 111.905C42.7826 111.972 44.6096 111.648 44.5993 113.896C44.2905 115.759 43.4722 117.509 43.4156 119.563C43.8788 118.358 42.9731 115.981 45.6543 116.897C49.1074 115.801 50.6513 113.243 49.7353 110.062C49.4574 109.095 49.0714 108.164 48.7317 107.211C48.3612 106.815 48.459 106.27 48.284 105.817C48.2068 105.616 48.3097 105.179 48.2377 105.261C47.0489 106.681 45.294 105.276 44.028 106.151C42.865 106.136 41.7071 106.12 40.544 106.105C40.086 105.693 39.4273 105.59 39.0156 105.107C37.801 103.573 37.4151 101.916 37.7907 99.9398C38.0686 98.4782 37.8988 96.9292 37.9245 95.4213C38.6502 94.567 38.892 93.7076 37.9194 92.8585C36.8953 91.8704 37.7444 91.1293 38.3157 90.4552C39.2574 89.3436 39.0567 88.1908 38.0172 87.599C35.8763 86.3793 35.6293 84.362 35.3823 82.3343C34.9448 78.8194 33.3649 75.4795 33.7458 71.841C34.1317 70.4001 34.8882 70.3692 35.8918 71.275C37.1114 72.7365 38.2076 72.4123 39.0619 70.9507C39.6537 69.9369 40.0397 68.8099 40.5183 67.7292C40.7653 67.3072 41.038 66.8646 41.6093 67.0035C42.196 67.1476 42.1805 67.6828 42.196 68.1666C42.2063 68.8974 42.2783 69.5818 43.2355 69.6539C43.8685 69.6076 44.4655 69.376 45.0933 69.2473C44.2236 69.3348 43.2252 70.0038 42.6334 68.7636C42.3606 67.5027 42.3143 66.2728 43.0194 65.12C43.817 63.5195 44.1567 61.9036 44.1001 60.0458C44.0075 56.8911 46.4777 58.0696 48.1605 58.0336C49.3133 58.9753 50.2087 58.2291 51.1196 57.5807C52.5297 57.1999 54.0839 57.8483 55.4168 56.9683C56.8423 56.2272 57.9693 56.4845 58.6744 57.9924C59.3537 59.4385 60.8152 59.8296 62.0297 60.5604C62.884 61.2963 63.7435 61.0905 64.5977 60.5604C66.3115 59.1812 68.0149 57.8534 68.2259 55.3524C68.37 53.6798 69.5588 52.3263 69.9705 50.6332C70.377 48.9658 72.2811 49.7995 73.578 49.7686C74.2316 49.7532 75.0241 50.0362 75.3329 49.1665C75.5696 48.5129 75.652 47.6895 75.0962 47.2367C71.993 44.6892 73.5214 41.9514 74.7256 39.2548C75.1734 38.2564 75.8372 37.3558 76.4033 36.414C76.8407 35.5494 77.1444 34.6386 77.3091 33.6762C77.8237 32.7756 77.5046 31.7052 77.8906 30.7737C78.9867 29.4768 81.071 30.2591 82.0797 28.7769C82.656 28.2211 82.6406 27.6602 82.0951 27.0941C82.0694 26.9552 82.0282 26.8162 81.9716 26.6875C81.1533 25.6068 80.8857 24.31 80.5255 23.044C80.5409 22.1074 80.5306 21.1913 81.2305 20.3988C81.6731 19.8996 81.9973 19.2872 81.9716 18.541C81.8172 14.1512 83.1758 12.2985 87.4627 11.3259C89.0735 10.9605 90.1851 10.029 91.1989 8.85567C92.5832 7.25003 94.3021 6.57072 96.3915 7.06991C99.9373 7.91905 103.236 7.96022 106.082 5.0783C107.276 3.86892 109.005 3.66307 110.636 4.29606C112.324 4.94964 113.935 4.87759 115.623 4.33209C116.416 4.07477 117.409 3.80717 118.135 4.05933C121.15 5.10918 123.785 4.01302 126.441 2.88598C127.943 2.24784 128.602 2.54118 128.659 4.32179C128.787 8.35648 128.494 12.2574 126.235 15.7774C125.972 16.1891 125.664 16.3641 125.231 16.4361C124.727 16.889 124.428 17.4654 124.259 18.1035C124.156 18.4998 124.094 18.9733 124.578 19.1534C125.216 19.3953 125.38 18.7983 125.664 18.4278C125.839 18.2579 126.019 18.0933 126.194 17.9234C127.053 17.4294 127.907 17.2596 128.756 17.9543C129.261 19.1379 130.45 18.9064 131.371 19.2409C132.606 19.6937 134.145 19.7555 134.438 21.5001C134.757 21.7008 134.628 22.7249 135.431 22.0456C136.543 19.3284 139.559 18.716 141.349 16.7346C141.833 16.1994 142.636 16.4207 143.238 16.8273C145.194 18.1499 147.54 18.8343 149.295 20.4914C150.237 21.7523 151.657 20.97 152.815 21.3148C153.237 21.6287 153.366 22.0971 153.469 22.5757C153.546 23.255 153.737 23.8725 154.375 24.2585C154.694 24.5158 155.085 24.6393 155.44 24.8194C155.203 24.5415 154.869 24.3563 154.745 23.9806C154.606 23.5586 154.668 23.1984 155.003 22.8896C155.368 22.7352 155.713 22.7609 156.021 23.0234C156.176 23.0388 156.325 23.0697 156.474 23.116C157.715 24.0578 159.274 23.6255 160.633 24.0629C162.192 24.2791 163.267 23.6512 163.906 22.2257C165.084 19.5908 167.153 17.1875 166.016 13.9608C165.938 13.7395 165.907 13.3124 166.016 13.2403C168.949 11.3876 166.165 8.85567 166.798 6.71996C167.05 5.86568 166.643 4.98567 165.969 4.40928C164.678 3.30283 164.626 2.69557 166.093 1.43473C167.06 0.601032 167.493 0.343717 168.244 1.18256C169.51 2.59779 170.966 3.14844 172.896 3.24622C174.615 3.33371 175.927 4.69747 177.126 5.93258C178.13 6.96698 179.01 8.14034 180.096 9.08211C181.146 9.98785 182.113 10.5539 183.904 10.0084C186.23 9.29825 188.237 11.3362 190.342 12.2985C191.006 12.6897 191.248 13.4667 191.84 13.9248C194.855 16.045 197.392 19.0968 201.566 19.0093C202.806 19.4725 204.18 19.6011 205.225 20.5274C205.652 21.4178 207.134 21.6802 206.733 23.0594C206.301 23.9652 205.791 24.8297 205.282 25.6943C205.307 27.372 206.28 28.2829 207.778 28.7666C208.55 29.1989 209.301 29.6827 210.15 30.012C210.171 29.0343 209.908 28.0719 210.34 27.1507C211.709 25.7252 212.584 24.2534 213.917 27.583C214.828 29.8731 216.665 32.3536 220.118 32.3999C222.429 32.4308 224.693 33.2233 224.39 36.4552C224.344 36.9235 224.941 37.4484 225.239 37.9528H225.244Z" fill="#95A2B4"/>
<path d="M5.54935 184.102C7.46377 182.111 10.2839 181.164 11.7969 178.668C11.9616 178.395 12.7644 178.513 13.2739 178.452C14.1179 178.184 14.3341 177.556 14.3186 176.748C14.3083 175.945 14.2414 175.107 14.8744 174.448C17.0822 172.713 19.2848 170.984 21.4925 169.25C21.9248 168.916 22.388 168.797 22.9078 169.018C23.5871 169.816 24.5597 170.068 25.4861 170.423C27.3765 171.47 27.958 172.818 27.2306 174.468C26.6697 175.307 26.1088 176.141 25.5478 176.98C25.0486 177.51 25.0332 178.03 25.5838 178.539C25.5684 178.951 25.7176 179.532 25.5066 179.754C24.2252 181.066 24.8839 181.735 26.7057 182.183C24.1892 183.567 23.7054 185.487 24.0914 187.741C25.6353 188.929 24.5391 190.638 24.9354 192.053C24.8222 192.275 24.6627 192.573 24.4362 192.542C22.5424 192.295 22.1204 193.448 22.0638 194.971C20.5353 194.909 19.5781 193.633 18.2041 193.18C14.9104 192.1 13.1556 192.691 10.953 195.326C9.83106 196.664 7.92179 196.999 6.33159 197.719C5.0759 198.291 3.56289 198.496 2.96592 200.03C1.84403 199.829 2.21971 199.15 2.47702 198.507V198.527C3.12031 197.179 3.12546 195.599 3.99003 194.328C4.02605 194.024 4.06208 193.715 4.0981 193.412C5.33836 191.379 5.46187 189.146 5.36924 186.845C5.33321 185.939 5.15309 184.993 5.55965 184.107L5.54935 184.102Z" fill="#95A2B4"/>
<path d="M24.4825 169.332C25.6249 169.61 26.7777 169.878 27.915 170.176C30.5911 170.876 32.2739 173.207 32.2225 176.11C31.3013 174.309 30.3647 172.518 28.1723 171.952C27.1174 171.391 26.0881 170.758 24.889 170.526C24.3435 170.269 24.1685 169.883 24.4825 169.332Z" fill="#95A2B4"/>
<path d="M203.697 75.3509C204.695 74.6819 204.026 73.6887 204.175 72.8601C205.133 75.3355 206.785 77.6153 206.327 80.492C206.152 80.6979 205.961 80.7133 205.76 80.5281C205.977 78.027 205.035 76.4779 202.338 76.3956C201.664 76.375 201.201 76.1589 201.144 75.4178C201.978 74.7025 202.842 75.0782 203.702 75.3509H203.697Z" fill="#95A2B4"/>
<path d="M153.397 20.5018C153.598 20.3474 153.788 20.1776 154.004 20.0489C154.997 19.4674 156.083 18.3661 157.174 19.1895C158.147 19.9254 156.757 20.9907 156.866 21.9634C156.258 22.5809 155.574 22.3442 154.894 22.1435C154.673 22.0611 154.457 21.9531 154.251 21.8347C153.834 21.4745 153.114 21.3046 153.397 20.4967V20.5018Z" fill="#95A2B4"/>
<path d="M194.433 95.4574C195.658 94.459 194.331 93.1055 194.927 91.9579C195.231 91.3712 194.861 90.4243 195.9 90.2288C196.585 91.7212 194.32 93.8466 196.898 94.9633C196.919 94.9736 196.801 95.6221 196.595 95.7919C195.782 96.4815 195.061 96.1727 194.428 95.4574H194.433Z" fill="#95A2B4"/>
<path d="M94.8219 158.469C95.2542 158.211 95.6762 157.763 96.1291 157.733C98.8463 157.563 101.476 157.383 101.389 153.631C101.389 153.544 101.831 153.451 102.063 153.358C102.197 153.477 102.243 153.595 102.202 153.713C102.16 153.837 102.119 153.893 102.073 153.893C101.672 156.484 99.2546 158.005 94.8219 158.458V158.469Z" fill="#95A2B4"/>
<path d="M24.5443 121.096C25.2699 121.966 25.6816 122.856 25.131 124.024C24.2406 125.898 24.4928 127.385 26.6748 128.188C26.9322 128.28 27.0042 128.893 27.1637 129.268C26.6491 129.114 26.1345 128.965 25.6199 128.81C25.2648 129.073 24.9148 129.083 24.5855 128.764C23.8032 126.212 24.5597 123.654 24.5443 121.096Z" fill="#95A2B4"/>
<path d="M45.6492 116.892C43.1275 116.629 44.7177 119.526 43.2099 120.067C42.546 117.741 43.6473 115.831 44.5994 113.886C44.234 115.137 45.3147 115.883 45.6544 116.892H45.6492Z" fill="#95A2B4"/>
<path d="M5.5493 184.102C5.53386 186.356 5.63164 188.626 5.44123 190.864C5.36403 191.765 5.18391 192.907 4.08775 193.407C5.45152 190.442 4.43255 187.102 5.5493 184.102Z" fill="#95A2B4"/>
<path d="M33.8025 154.388C31.5999 155.113 31.9807 157.069 31.7182 158.731C31.5741 159.652 30.8176 159.539 30.1537 159.518C30.8742 158.777 31.5227 158 31.2808 156.853C30.8279 154.707 31.9549 154.177 33.8076 154.388H33.8025Z" fill="#95A2B4"/>
<path d="M43.0194 65.1147C43.0348 66.4785 43.0554 67.8371 43.0709 69.2009C42.9679 69.2524 42.865 69.3038 42.7569 69.3604C42.0519 69.309 41.8821 68.6708 41.527 68.2334C41.5424 67.9503 41.563 67.6673 41.5784 67.3843C41.2234 67.4975 40.8683 67.6107 40.5183 67.7239C40.5183 66.0565 42.2835 66.0771 43.0194 65.1147Z" fill="#95A2B4"/>
<path d="M210.341 27.1506C210.207 28.6019 210.593 29.8885 212.07 31.0875C209.713 31.2831 208.874 29.801 207.778 28.7666C209.481 29.5745 209.893 28.3291 210.346 27.1506H210.341Z" fill="#95A2B4"/>
<path d="M2.46155 198.501C2.56962 199.026 2.37406 199.649 2.95044 200.025C2.78576 200.786 2.15277 201.08 1.5558 201.409C1.07205 201.677 0.531689 201.816 0.186888 201.317C-0.281424 200.627 0.207473 200.354 0.804442 200.004C1.43744 199.639 1.91089 199.011 2.4564 198.496L2.46155 198.501Z" fill="#95A2B4"/>
<path d="M83.0987 156.945C85.4248 157.923 88.0134 157.033 90.3446 157.979C88.1472 157.851 85.9394 158.715 83.7368 157.882C83.217 157.686 83.145 157.372 83.1038 156.95L83.0987 156.945Z" fill="#95A2B4"/>
<path d="M133.882 132.85C134.973 131.775 133.512 130.854 133.697 129.557C134.783 130.066 135.766 130.956 136.965 130.287C136.044 131.275 135.174 132.315 133.882 132.855V132.85Z" fill="#95A2B4"/>
<path d="M25.0898 170.3C26.4278 170.274 27.5497 170.645 28.1724 171.952C28.054 172.863 28.6973 174.062 27.2255 174.468C28.3371 172.183 26.5204 171.628 25.0846 170.85C24.9096 170.727 24.853 170.609 24.9096 170.485C24.9662 170.362 25.0229 170.305 25.0846 170.305L25.0898 170.3Z" fill="#95A2B4"/>
<path d="M55.422 56.9632C54.2075 58.8365 52.2725 57.4676 50.7595 58.0028C50.5382 58.1829 50.3529 58.1572 50.214 57.8947C51.6755 56.0472 53.6877 57.2668 55.422 56.9581V56.9632Z" fill="#95A2B4"/>
<path d="M148.246 123.607C148.765 122.218 147.335 120.864 148.204 119.259C149.409 119.984 149.326 121.05 149.295 122.094C148.642 122.388 149.079 123.432 148.251 123.607H148.246Z" fill="#95A2B4"/>
<path d="M83.6184 152.977C83.2788 153.641 81.9767 153.26 82.0797 154.398C80.6644 153.77 81.0092 152.813 81.6011 151.814C82.1106 151.84 82.6149 151.871 83.1244 151.897C83.5824 152.123 83.9632 152.38 83.6236 152.977H83.6184Z" fill="#95A2B4"/>
<path d="M44.023 106.146C45.186 104.608 47.6974 106.841 48.7267 104.52C48.7267 105.415 48.7267 106.311 48.7267 107.206C47.4453 105.58 45.6029 106.445 44.023 106.141V106.146Z" fill="#95A2B4"/>
<path d="M193.378 96.4711C193.137 96.4094 192.838 96.4248 192.668 96.2807C192.061 95.7661 191.114 95.5808 190.944 94.6442C190.913 94.4641 191.15 94.0575 191.248 94.0627C192.205 94.109 192.982 94.495 193.425 95.4007C193.409 95.7558 193.389 96.116 193.373 96.4711H193.378Z" fill="#95A2B4"/>
<path d="M125.664 18.4225C125.586 19.3643 125.206 20.2031 124.151 19.7811C123.245 19.4209 123.662 18.5306 123.96 17.8461C124.223 17.2337 124.501 16.6213 125.236 16.4309C125.586 17.0485 123.502 18.1961 125.669 18.4225H125.664Z" fill="#95A2B4"/>
<path d="M14.8744 174.448C14.8487 175.343 14.7921 176.239 14.7972 177.134C14.8024 178.194 14.3083 178.621 13.2739 178.452C14.401 177.35 12.9651 175.23 14.8744 174.448Z" fill="#95A2B4"/>
<path d="M153.397 20.5017C153.747 20.826 154.102 21.145 154.452 21.4692C153.968 21.9736 153.459 21.9427 152.934 21.5362C151.719 21.2016 150.062 22.3956 149.3 20.4915C150.664 21.1347 152.033 20.615 153.397 20.5069V20.5017Z" fill="#95A2B4"/>
<path d="M22.0534 194.971C22.0071 193.221 21.7549 191.271 24.606 192.398C24.9096 192.079 25.2235 192.079 25.5426 192.372C24.5957 193.53 22.2541 192.815 22.0534 194.971Z" fill="#95A2B4"/>
<path d="M61.9372 150.245C62.2203 149.354 61.7725 148.299 62.6114 147.121C63.1054 148.541 63.4451 149.73 64.6287 150.291C63.7333 150.276 62.8327 150.26 61.9372 150.245Z" fill="#95A2B4"/>
<path d="M25.5427 192.372C25.2287 192.383 24.92 192.393 24.606 192.398C24.4671 190.844 24.8788 189.223 24.0863 187.741C24.8942 187.885 25.7794 188.209 25.3574 189.161C24.8325 190.345 25.8309 191.292 25.5427 192.372Z" fill="#95A2B4"/>
<path d="M154.884 21.5671C155.548 21.7009 156.207 21.8296 156.866 21.9634C156.588 22.3134 156.305 22.6684 156.027 23.0184C155.666 23.0338 155.306 23.0493 154.946 23.0699C154.756 23.25 154.529 23.3683 154.272 23.4352C153.865 23.4661 153.51 23.3632 153.243 23.0338C152.836 21.4797 154.298 22.02 154.879 21.5723L154.884 21.5671Z" fill="#95A2B4"/>
<path d="M159.547 118.466C160.638 117.108 162.223 117.18 163.731 117.025C162.629 118.353 160.998 118.147 159.547 118.466Z" fill="#95A2B4"/>
<path d="M110.276 145.191C111.599 145.34 111.547 144.579 111.28 143.678C111.707 143.683 112.077 143.802 112.319 144.188C112.741 144.429 113.122 144.697 112.988 145.279C112.53 145.778 112.165 146.447 111.3 146.231C110.961 145.881 110.621 145.536 110.281 145.186L110.276 145.191Z" fill="#95A2B4"/>
<path d="M57.8355 161.021C58.1855 159.554 59.7808 160.347 60.4961 159.544C60.5528 161.742 58.9523 160.939 57.8355 161.021Z" fill="#95A2B4"/>
<path d="M77.9575 150.301C78.2869 150.286 78.6111 150.27 78.9405 150.255C78.9405 150.337 78.9713 150.43 78.9507 150.502C78.7089 151.248 79.6043 152.632 78.8015 152.648C77.2782 152.674 78.22 151.13 77.9575 150.301Z" fill="#95A2B4"/>
<path d="M3.97457 194.323C3.74814 195.82 3.39819 197.277 2.45642 198.522C2.66742 197.014 2.51303 195.378 3.97457 194.323Z" fill="#95A2B4"/>
<path d="M35.8919 71.2699C35.0376 70.9302 34.3017 71.0486 33.7459 71.836C33.2981 71.3574 33.0357 70.7192 33.7716 70.4465C34.5847 70.1429 35.614 69.9216 35.8919 71.275V71.2699Z" fill="#95A2B4"/>
<path d="M108.696 145.135C108.722 144.98 108.727 144.821 108.707 144.666C108.315 143.977 108.176 143.287 108.737 142.613C110.353 142.906 109.509 144.27 109.834 145.129C109.453 145.129 109.077 145.129 108.696 145.135Z" fill="#95A2B4"/>
<path d="M91.307 158.505C92.1716 158.535 93.031 158.566 93.8956 158.602C92.9795 160.069 92.1098 160.187 91.307 158.505Z" fill="#95A2B4"/>
<path d="M80.5358 23.0389C81.1637 24.1969 81.7401 25.3702 81.9819 26.6825C80.3814 25.9106 80.5564 24.4387 80.5358 23.0389Z" fill="#95A2B4"/>
<path d="M205.225 20.5274C203.939 20.1775 202.642 19.8584 201.566 19.0093C203.053 18.8703 204.391 19.0865 205.225 20.5274Z" fill="#95A2B4"/>
<path d="M135.431 22.0404C135.894 22.272 136.378 22.519 136.219 23.1469C136.188 23.2807 135.797 23.4505 135.627 23.399C134.685 23.1263 134.227 22.5036 134.438 21.4897C134.767 21.6699 135.102 21.8551 135.431 22.0353V22.0404Z" fill="#95A2B4"/>
<path d="M160.638 24.063C159.212 23.9189 157.555 24.7886 156.48 23.1161C157.864 23.43 159.253 23.7491 160.638 24.063Z" fill="#95A2B4"/>
<path d="M128.757 17.9491C127.902 17.9388 127.048 17.9286 126.194 17.9183C127.058 16.8633 127.923 15.9884 128.757 17.9491Z" fill="#95A2B4"/>
<path d="M115.381 141.095C117.409 141.295 115.613 143.014 116.416 143.699C114.692 143.38 115.762 141.949 115.381 141.095Z" fill="#95A2B4"/>
<path d="M32.31 145.747C32.2894 146.416 32.274 147.085 32.2534 147.754C31.0543 147.224 31.2653 146.153 31.255 145.17C31.5947 145.186 31.9343 145.201 32.274 145.217C32.4232 145.325 32.4798 145.443 32.4386 145.567C32.3975 145.69 32.3512 145.752 32.3048 145.752L32.31 145.747Z" fill="#95A2B4"/>
<path d="M111.3 146.236C111.805 145.875 112.314 145.52 112.818 145.16C113.168 144.857 113.518 144.877 113.863 145.17C113.148 145.86 112.716 147.229 111.3 146.236Z" fill="#95A2B4"/>
<path d="M64.603 60.5553C63.7487 61.5948 62.8944 62.3102 62.035 60.5553C62.8893 60.5553 63.7487 60.5553 64.603 60.5553Z" fill="#95A2B4"/>
<path d="M50.214 57.8997C50.3941 57.9357 50.5742 57.9717 50.7595 58.0077C49.9052 59.0421 49.0458 59.7009 48.1657 58.0283C48.8502 57.9871 49.5347 57.9408 50.2191 57.8997H50.214Z" fill="#95A2B4"/>
<path d="M102.073 153.904C102.073 153.723 102.068 153.543 102.063 153.363C102.629 152.401 103.411 151.763 104.574 151.68C103.849 152.545 103.231 153.528 102.073 153.898V153.904Z" fill="#95A2B4"/>
<path d="M181.12 109.774C181.46 109.774 181.804 109.78 182.144 109.785C182.18 110.546 182.144 111.257 181.125 111.334C180.605 111.169 180.482 110.588 180.06 110.325H180.055C180.024 109.383 180.507 109.45 181.12 109.78V109.774Z" fill="#95A2B4"/>
<path d="M205.282 25.6945C205.307 24.5623 205.781 23.6823 206.733 23.0596C206.975 24.3358 206.131 25.0152 205.282 25.6945Z" fill="#95A2B4"/>
<path d="M37.9143 92.8533C39.8287 93.7024 39.0156 94.5618 37.9194 95.4161C38.1047 94.5618 38.1716 93.7076 37.9143 92.8533Z" fill="#95A2B4"/>
<path d="M199.544 63.1285C198.73 62.4338 198.509 61.5229 198.592 60.4988C200.233 60.895 199.369 62.2022 199.544 63.1285Z" fill="#95A2B4"/>
<path d="M77.9061 30.7685C77.8855 31.8286 78.2663 32.9453 77.4481 33.8871C77.2782 34.0878 77.1084 34.093 76.9437 33.8768C77.2422 32.8321 77.2422 31.6999 77.9061 30.7633V30.7685Z" fill="#95A2B4"/>
<path d="M82.1106 27.0891C82.5583 27.2075 83.2994 26.9965 83.3766 27.5574C83.4795 28.3397 82.8002 28.6484 82.1003 28.7771C82.1003 28.2161 82.1106 27.6552 82.1157 27.0943L82.1106 27.0891Z" fill="#95A2B4"/>
<path d="M180.06 110.32C180.78 110.268 181.105 110.644 181.125 111.329C180.749 111.874 180.178 111.884 179.602 111.879C179.756 111.359 179.905 110.84 180.06 110.32Z" fill="#95A2B4"/>
<path d="M117.975 146.22C118.464 146.349 118.958 146.483 119.447 146.611C119.462 146.997 119.56 147.522 119.02 147.527C118.212 147.538 118.037 146.889 117.975 146.22Z" fill="#95A2B4"/>
<path d="M21.5491 164.181C21.4616 164.922 21.6005 165.596 22.0997 166.172C21.4719 166.229 20.8801 166.064 20.6742 165.442C20.4426 164.742 20.9727 164.407 21.5491 164.181Z" fill="#95A2B4"/>
<path d="M68.7354 147.723C69.07 147.728 69.3993 147.733 69.7338 147.744C69.7132 148.222 69.8882 148.994 69.3479 149.035C68.4318 149.107 68.8538 148.222 68.7354 147.728V147.723Z" fill="#95A2B4"/>
<path d="M60.4705 159.513C60.5991 158.468 61.3247 158.499 62.0967 158.613C61.9217 159.58 61.1961 159.544 60.4705 159.513Z" fill="#95A2B4"/>
<path d="M23.0261 169.363C22.5166 169.327 22.002 169.291 21.4925 169.255C21.5646 168.236 22.3159 168.272 23.0364 168.272L23.0879 168.236C23.3092 168.627 23.3349 169.008 23.021 169.368L23.0261 169.363Z" fill="#95A2B4"/>
<path d="M29.67 108.647C29.0112 110.083 28.3525 110.083 27.6835 108.652C28.3474 108.652 29.0061 108.652 29.67 108.647Z" fill="#95A2B4"/>
<path d="M25.5787 178.539C25.064 178.462 24.6009 178.323 24.6678 177.659C24.7192 177.144 25.1412 177.062 25.5478 176.985C25.5581 177.505 25.5684 178.024 25.5838 178.544L25.5787 178.539Z" fill="#95A2B4"/>
<path d="M34.8471 179.558C36.1028 180.258 36.0668 180.942 34.8214 181.611C34.8316 180.927 34.8368 180.243 34.8471 179.558Z" fill="#95A2B4"/>
<path d="M36.3601 184.164C36.3961 183.449 36.3498 182.677 37.3687 182.594C37.4048 183.356 37.4459 184.123 36.3601 184.164Z" fill="#95A2B4"/>
<path d="M76.9437 33.8822C77.1135 33.8616 77.2833 33.8668 77.448 33.8925C77.4635 34.8806 77.2113 35.7555 76.4136 36.409C76.1718 35.4776 76.815 34.7365 76.9437 33.8822Z" fill="#95A2B4"/>
<path d="M113.863 145.17C113.513 145.17 113.168 145.165 112.818 145.16C112.654 144.836 112.484 144.512 112.319 144.188C113.065 144.152 113.817 144.105 113.863 145.17Z" fill="#95A2B4"/>
<path d="M24.5855 128.759C24.9303 128.774 25.2751 128.79 25.6199 128.805C25.553 129.222 25.4809 129.706 24.9251 129.598C24.534 129.521 24.076 129.289 24.5855 128.759Z" fill="#95A2B4"/>
<path d="M39.0157 105.102C39.7207 105.132 40.4 105.204 40.5441 106.1C39.7413 106.218 39.2318 105.889 39.0157 105.102Z" fill="#95A2B4"/>
<path d="M191.845 13.9198C190.913 13.7757 190.677 12.9935 190.347 12.2936C191.392 12.3347 191.572 13.1684 191.845 13.9198Z" fill="#95A2B4"/>
<path d="M205.76 80.5281C205.951 80.5178 206.136 80.5024 206.326 80.4921C206.764 81.5985 205.802 81.6706 205.199 82.0102C205.385 81.5162 205.57 81.0221 205.755 80.5281H205.76Z" fill="#95A2B4"/>
<path d="M210.423 45.7084C210.665 44.9519 211.154 44.5659 211.977 44.6946C211.823 45.59 211.143 45.6775 210.423 45.7084Z" fill="#95A2B4"/>
<path d="M122.169 142.726C122.375 141.903 122.9 141.383 123.703 141.125C123.569 142.021 123.039 142.536 122.169 142.726Z" fill="#95A2B4"/>
<path d="M181.12 109.774C180.688 109.8 180.276 109.872 180.055 110.315C179.447 110.217 178.696 110.608 178.3 109.846C178.223 109.702 178.356 109.311 178.511 109.213C179.545 108.555 180.322 109.249 181.125 109.769L181.12 109.774Z" fill="#95A2B4"/>
<path d="M83.6185 152.977C83.4538 152.617 83.2839 152.257 83.1193 151.897C83.953 151.171 84.7918 151.32 85.6358 151.871C85.9755 152.447 85.3836 152.602 85.1623 152.926C84.658 153.296 84.1073 152.164 83.6185 152.977Z" fill="#95A2B4"/>
<path d="M41.4961 83.0961C42.3812 83.9298 41.9078 84.8561 42.0519 86.2713C40.7447 85.0619 41.4806 83.9246 40.9969 83.1012C41.1616 82.849 41.3262 82.8593 41.4961 83.0961Z" fill="#95A2B4"/>
<path d="M23.0261 169.363C23.0467 168.987 23.0673 168.612 23.0879 168.231C23.551 168.601 23.7466 169.312 24.4825 169.332C24.6832 169.656 24.8839 169.976 25.0846 170.3C25.0846 170.48 25.0846 170.665 25.0846 170.85C24.2355 170.578 23.1754 170.603 23.021 169.363H23.0261Z" fill="#95A2B4"/>
<path d="M154.395 23.0748C154.581 23.0748 154.761 23.0748 154.946 23.0748C154.812 24.2276 155.924 24.3923 156.706 25.0253C155.589 25.1025 154.668 25.4164 153.906 24.6187C153.855 24.0372 153.942 23.502 154.395 23.08V23.0748Z" fill="#95A2B4"/>
<path d="M105.902 16.6936C104.96 16.6833 104.342 16.426 103.905 15.5768C105.037 15.1857 105.619 15.5048 105.902 16.6936Z" fill="#95A2B4"/>
<path d="M41.4961 83.0961C41.3314 83.0961 41.1616 83.0961 40.9969 83.1013C40.6933 82.3602 40.1375 81.6397 40.8888 80.7083C41.8718 81.3361 41.3623 82.3087 41.4961 83.0961Z" fill="#95A2B4"/>
<path d="M43.0709 69.2009C44.1465 69.52 45.078 68.3003 46.3851 69.0105C45.1655 69.4428 44.1002 69.8185 43.0349 70.1942C42.7467 69.9008 42.7467 69.6024 43.0246 69.3039L43.0709 69.2009Z" fill="#95A2B4"/>
<path d="M203.697 75.3507C202.842 75.3713 201.993 75.397 201.139 75.4176C201.937 73.3385 202.832 74.8875 203.697 75.3507Z" fill="#95A2B4"/>
<path d="M43.0297 69.3041C43.0297 69.6026 43.0348 69.9011 43.04 70.1944C41.5681 70.287 41.5321 69.2681 41.5321 68.2285C42.0313 68.5836 42.5305 68.9438 43.0297 69.2989V69.3041Z" fill="#95A2B4"/>
<path d="M154.395 23.075C154.395 23.6411 154.545 24.2535 153.906 24.6137C153.361 24.238 152.831 23.8521 152.949 23.0647C153.098 22.8125 153.248 22.8228 153.397 23.0647C153.731 23.0647 154.066 23.0647 154.4 23.0698L154.395 23.075Z" fill="#95A2B4"/>
<path d="M32.31 145.747C32.2997 145.567 32.2894 145.392 32.2791 145.212C32.6291 144.44 33.0768 143.966 34.0237 144.687C33.7458 145.531 32.7268 145.191 32.31 145.742V145.747Z" fill="#95A2B4"/>
<path d="M108.737 142.613C108.727 143.297 108.717 143.982 108.707 144.666C107.837 143.966 106.828 143.266 108.737 142.613Z" fill="#95A2B4"/>
<path d="M85.1623 152.926C85.3219 152.576 85.4814 152.221 85.6358 151.871C86.1401 151.912 86.8863 151.969 86.7165 152.566C86.5364 153.204 85.6924 152.782 85.1572 152.926H85.1623Z" fill="#95A2B4"/>
<path d="M153.392 23.0696C153.242 23.0696 153.093 23.0696 152.944 23.0696C152.944 22.5601 152.934 22.0455 152.934 21.536C153.438 21.5154 153.948 21.4948 154.452 21.4691C154.591 21.5154 154.735 21.5463 154.884 21.572C154.514 22.1999 153.315 21.994 153.397 23.0696H153.392Z" fill="#95A2B4"/>
</svg>
