<svg width="219" height="222" viewBox="0 0 219 222" fill="none" xmlns="http://www.w3.org/2000/svg">
<path d="M58.7648 0.00038534C58.4351 -0.00738352 57.9938 0.104168 57.7279 0.167999L57.7114 0.436481L57.1791 2.33692L56.993 3.29493L56.988 3.6181L57.4731 3.81934L59.3908 4.17564L59.5187 4.51287L59.2298 5.2847L59.4038 5.5612L60.0685 5.73182L60.542 5.97974L60.8907 6.58344L60.9303 7.31059L60.7738 8.05181L60.5591 8.77294L60.1533 9.64864L59.7349 9.8293L59.6767 10.3738L59.7289 10.9544L59.0452 11.2279L58.5195 11.4909L58.3805 11.8657L58.1628 12.1985L57.5694 12.3129L56.5445 12.2471L55.8799 13.301L55.6827 13.6804L55.8403 13.84L56.6394 14.1471L56.8982 14.7031L57.0637 15.3685L57.2503 15.8227L57.7806 16.4706L57.8929 16.86L57.8423 17.8019L57.9496 18.242L57.9025 18.6089L57.6341 18.8422L57.301 18.8788L57.2659 19.1744L57.1194 19.332L56.521 19.2261L56.1864 19.3425L56.4813 19.7636L56.8475 20.1565L57.0387 20.4702L57.0622 20.8179L57.2363 21.7508L57.2754 22.2597L57.4997 22.8187L57.8423 23.2142L57.9511 23.6006L57.9466 24.3217L57.784 24.8341L57.1635 25.2441L56.8319 25.246L56.3408 25.0207L55.8738 24.9751L55.5357 25.2937L55.2628 25.7173L54.7371 26.2598L54.404 26.3179L53.7519 26.1072L53.2513 26.0465L52.7587 26.4239L52.244 27.1094L51.8512 27.4822L50.997 27.2504L51.2859 28.1216L51.2558 28.7187L51.1389 29.1649L51.1204 29.6005L50.9543 30.0034L50.8595 30.4215L51.002 30.8295L51.2638 31.1983L51.8006 31.5687L51.6887 31.934L51.7123 32.5056L51.5874 33.1228L51.0506 34.4176L51.0571 35.3776L51.2257 36.0149L51.0602 36.4369L50.3498 36.7185L49.2618 37.0587L48.7015 36.5519L48.0288 36.1775L46.564 36.2287L46.3368 35.9933L45.6466 35.7278L45.2663 36.172L44.3253 36.5398L43.9811 36.4324L43.8156 36.1218L43.7915 35.6832L43.8898 35.2998L43.6922 34.8617L43.002 34.687L42.7025 34.4401L42.2189 33.4887L41.8638 33.2307L41.021 32.9828L40.4647 32.8067L40.0037 32.1568L39.4544 31.8186L39.2442 31.5787L38.5048 31.0663L38.0609 31.0006L37.8793 31.3654L37.2954 31.5732L37.0662 31.8963L36.542 32.3269L36.1948 32.4443L35.8592 32.3359L35.5236 32.1548L35.2442 32.6275L34.558 32.8172L34.3383 32.9883L33.7885 33.183L33.8848 33.5479L33.788 33.9654L33.8452 34.1566L34.567 34.389L35.5136 34.4628L35.9214 34.5305L36.1913 35.0655L35.9069 35.6647L35.4509 35.612L35.0627 35.4433L34.1392 35.7123L34.1753 36.2061L34.0328 36.6482L33.8668 36.8625L33.8246 37.2765L33.6606 37.6986L33.333 38.1713L33.3516 38.4478L33.0235 38.8588L32.9147 39.3331L33.6586 39.733L33.3691 39.9468L33.4344 40.1907L33.4158 40.3453L33.2287 40.4411L33.2177 40.7297L33.1409 40.8852L33.168 41.1091L32.5495 42.0259L32.1953 42.1694L32.3478 42.326L32.6006 43.0762L32.9523 43.3261L32.8966 44.3052L33.1118 44.4919L33.1098 44.6284L33.0265 44.7122L32.7907 44.8071L32.3413 44.8201L32.0644 44.9069L31.8968 44.5421L31.7293 44.2882L31.3435 43.8967L30.8394 43.9143L30.6723 43.9891L30.5439 44.1557L30.5188 44.388L30.6016 44.936L30.3854 45.466L30.2344 45.5327L30.1848 45.6491L30.3789 45.9904L30.3001 46.1986L30.3799 46.723L30.2394 46.7837L30.0564 46.7587L29.6265 46.5339L29.3511 46.5589L28.9773 46.4626L28.4792 46.1454L28.3644 46.2939L28.4386 46.7306L28.2485 47.9535L28.4015 48.2722L28.5038 48.3871L28.6182 48.4348L28.6744 48.6631L28.6969 49.0952L28.8409 49.5268L28.7842 50.4963L29.5422 50.7708L29.8432 50.3407L31.4504 50.4426L31.2221 51.6465L31.3476 51.6907L31.2126 52.2191L31.9997 52.4204L32.1672 52.1775L33.4113 52.0641L33.1419 53.1927L32.9066 53.2504L32.7366 53.7286L32.7025 54.2766L33.5683 54.5582L34.2435 54.3283L34.9031 54.4242L34.9588 55.0801L35.2297 55.6868L35.8191 55.7611L35.8482 56.6142L36.2164 56.6468L37.2477 57.0834L37.2086 57.3564L37.624 57.53L37.4785 57.7699L38.255 57.9957L38.7988 58.5814C38.7775 58.7374 38.6924 58.858 38.4301 58.9573C38.1678 59.0566 37.6503 59.0566 37.4589 59.007C37.2675 58.9574 36.9983 58.7655 36.7928 58.7726C36.5872 58.7794 36.0764 59.0352 35.9204 59.0777C35.7644 59.1203 34.9424 59.3759 34.7085 59.3121C34.7085 59.3121 34.3142 59.8047 34.1507 59.9138C33.9871 60.0229 33.2128 60.3393 33.1038 60.4156C32.9947 60.492 32.6347 61.1355 32.5911 61.4082C32.5475 61.681 32.2861 62.4778 32.1988 62.6523C32.1116 62.8269 31.5553 63.9943 31.3917 64.2562C31.2281 64.518 30.6389 65.7832 30.399 65.8595C30.159 65.9359 29.5813 65.6086 29.3305 65.5649C29.0797 65.5213 28.7852 65.7069 28.6543 65.8595C28.5234 66.0123 28.2947 66.645 28.1311 66.8632C27.9675 67.0814 27.4981 67.2564 27.5091 67.5291C27.52 67.8019 27.3781 68.5438 27.3781 68.9147C27.3781 69.2856 27.9236 69.7873 27.9781 69.9946C28.0326 70.2019 28.4253 71.1402 28.5344 71.4675L27.0767 73.0699L27.1374 73.5215L26.6779 73.6977L25.8437 73.5421L24.258 74.2793L23.8908 74.2517L23.1504 74.6888L22.9086 75.0155L22.2515 74.5247L22.4747 74.2532L22.6212 73.8056L22.4787 73.8036L22.4396 73.6446L21.9926 73.5738L21.6676 74.0465L21.3817 73.7519L20.6989 73.8593L20.6713 74.1685L20.5379 74.1976L20.4065 73.908L19.6781 73.921L19.7278 74.5955L19.4649 74.9749L19.4654 75.2379L19.8467 75.1395L19.9023 75.3021L19.6365 75.678L19.1318 75.956L19.0892 76.3298L19.498 76.8176L19.9776 76.9516L20.0267 77.2818L19.8823 77.8785L19.4574 77.9167L19.3305 77.5067L18.567 77.3631L18.252 78.2765L17.7042 78.2434L17.5803 78.3628L16.9608 78.3392L16.9432 78.4657L17.0867 78.6042L17.1358 78.7572L17.6335 78.7553L18.9492 78.9951L18.9302 79.3384L19.0335 79.4317L18.8961 79.5602L18.4401 79.7619L18.0543 79.8021L17.6921 79.9943L16.9563 79.6977L16.3172 79.5988L15.9936 79.7032L15.8582 80.4113L16.3964 80.6215L16.3533 80.7445L16.8334 80.7846L17.4258 80.9221L17.1118 82.5491L16.6964 82.6841L16.1025 83.1944L15.6159 83.7956L15.5146 84.6261L15.9344 85.1581L16.731 85.4537L17.33 85.5977L18.0558 86.3128L18.2334 86.8402L17.4198 87.3742L17.1479 87.7496L17.7388 88.1937L18.257 87.7957L18.4702 87.8589L18.4531 87.9914L18.9618 88.1947L19.7132 88.294L19.9911 88.4672L19.7774 88.7427L19.3972 89.3439L18.8379 89.6384L18.3583 90.4901L18.5855 90.892L18.8168 91.4511L19.024 91.7748L18.4586 92.6831L17.9179 92.6495L17.9194 93.2196L18.2249 93.2642L18.3558 93.8142L18.6287 94.3903L18.7266 94.7225L19.2508 95.1898L19.7123 95.2761L19.484 96.5708L19.6511 96.9392L19.8632 98.1059L19.6977 98.9214L19.2869 99.1382L18.6257 99.3234L18.0835 99.3555L17.7158 99.6345L17.5141 100.118L17.0175 100.038L16.9272 100.573L17.0516 100.884L16.702 101.272C16.9985 101.37 17.2968 101.468 17.4168 101.49C17.6437 101.533 18.75 101.575 18.9769 101.646C19.2037 101.717 19.3594 101.802 19.4303 102.043C19.5012 102.284 19.6005 102.994 19.9124 102.852C20.2243 102.71 20.522 102.171 20.7205 102.44C20.919 102.71 20.7063 103.05 21.0466 103.221C21.3869 103.391 21.9399 103.646 22.2661 103.66C22.5922 103.675 23.1029 103.575 23.1454 103.632C23.1879 103.689 22.8336 104.441 22.9754 104.753C23.1171 105.065 23.4853 105.065 23.3436 105.405C23.2018 105.746 22.8618 106.185 22.72 106.497L22.0122 106.186L21.7444 106.139L21.5412 105.976L21.4288 105.467L21.1078 105.749L21.3892 105.96L21.3827 106.247L21.1369 106.507L20.9087 106.466L20.7366 106.81L20.8836 107.243L20.8374 107.688L20.852 108.138L20.7271 108.711L20.076 108.571L19.8272 108.67L19.0431 108.424L18.9297 108.955L19.0451 109.271L19.4359 109.973L19.7193 110.104L19.6621 110.462L19.4504 110.498L18.8354 110.178L18.6453 110.422L18.3784 110.336L18.094 110.696L18.0193 111.591L17.8111 111.614L17.8818 112L17.6526 112.18L17.3912 112.62L17.1474 113.294L16.8821 113.348L16.8234 112.849L15.8748 112.82L15.8793 113.637L15.4489 113.853L15.0646 114.191L14.8574 114.649L14.722 115.209L14.9829 115.344L15.7167 115.369L15.9615 115.528L16.3307 115.634L16.4642 115.862L17.4002 116.356L18.0172 116.203L17.808 117.12L17.4107 117.443L17.2633 117.808L16.8474 117.861L16.5926 118.292L16.3046 118.305L15.9605 118.201L15.6937 118.369L14.9914 118.589L14.7762 118.883L14.1772 118.801L14.0413 118.974L13.9129 119.3L13.652 119.47L13.4709 119.299L13.342 119.505L13.0992 119.592L12.9603 119.452L12.2269 119.725L12.0533 119.988L11.8241 120.139L11.8808 120.331L11.8592 120.703L11.7574 121.498L11.5728 121.965L11.5392 122.453L11.6741 122.524L11.8507 123.32L11.9801 123.406L11.7438 123.837L11.5828 124.404L11.6204 124.677L11.342 124.71L11.2989 124.846L11.3832 125.292L11.2683 126.066L12.4095 126.306L12.6217 126.433L12.8329 126.783L12.9919 126.732L13.0992 126.947L13.953 126.883L14.255 127.759L14.2499 127.95L14.3192 128.12L14.5755 128.254L15.0069 127.806L15.2326 127.37L15.958 126.507L16.2073 126.513L16.4541 126.607L16.8429 127.51L17.0816 127.788L17.3184 127.758L17.4965 127.641L17.7483 127.568L19.0641 127.307L19.0651 127.107L19.3018 127.067L19.4102 127.483L19.4423 127.806L19.4042 128.692L19.807 128.619L20.0227 128.797L20.2745 128.778L20.7365 128.868L20.9853 129.252L21.6249 129.207L22.2755 129.437L22.5208 129.314L22.882 129.299L23.1278 129.65L23.3891 129.912L24.0784 130.173L24.2434 130.089L24.3086 130.231L24.436 130.143L24.5634 130.528L24.5088 130.903L24.3869 131.246L24.3507 131.913L23.3264 131.729L22.426 131.466L22.4726 130.908L22.6753 130.276L22.4185 130.485L22.2188 130.726L22.131 131.345L22.0157 131.745L21.672 131.95L21.2732 132.007L20.6878 131.996L20.4365 132.076L20.3909 132.361L20.4631 132.995L20.419 133.464L20.0904 133.524L19.6304 133.547L19.3369 133.255L18.4134 132.928L18.3477 133.772L18.3803 134.261L17.5883 133.949L17.1092 133.97L16.2855 133.644L15.7438 133.876L15.036 134.385L15.0651 135.179L15.9243 135.532L16.292 135.526L16.3949 135.633L16.292 135.917L15.6364 136.594L15.9178 136.998L16.1104 137.049L15.9951 137.36L15.6098 137.904L15.0169 138.056L14.4475 138.337L14.0859 138.26L13.5622 138.316L13.1263 138.062L13.0154 137.846L13.1729 137.578L13.3861 137.499L11.9003 137.452L11.808 137.854L11.802 138.557L11.975 138.622L12.1556 138.83L12.0889 139.211L11.9499 139.75L11.8897 139.789L11.7969 140.452L11.7077 140.532L11.3038 141.376L11.1609 141.437L10.9607 141.892L11.656 141.862L11.967 141.978L12.0588 142.559L11.8 142.884L11.4142 142.953L11.1398 143.343L10.3492 143.783L10.2359 143.993L10.2113 144.41L10.0909 144.887L9.9394 145.044L9.43175 144.638L9.0766 144.937L8.91658 144.886L8.72395 145.117L8.28352 145.401L8.08688 145.591L8.13705 145.777L8.31362 145.96L8.77462 146.038L9.08714 146.037L9.0756 146.185L8.78917 146.284L8.68483 147.071L8.16062 146.998L7.89325 147.037L7.57271 147.195L7.40065 147.567L7.4458 147.929L7.18746 148.308L7.26019 148.552L6.99734 148.732L7.36604 149.287L7.82353 149.428L7.87369 150.012L9.08262 150.333L9.34247 150.802L9.77437 150.947L10.4029 151.295L10.9527 151.451L11.2125 151.266L11.7378 151.432L11.9494 151.641L12.5002 151.831L12.3748 152.437L12.5659 152.768L12.8112 153.071L13.2662 153.333L13.3164 153.546L13.1865 153.676L13.3279 154.156L13.5958 154.563L13.7949 155.035L14.0688 155.35L14.1416 155.666L14.0774 156.278L14.4084 156.626L14.4731 157.051L14.1606 157.131L13.6068 157.518L13.5411 157.598L13.3465 157.973L13.4343 158.787L13.3916 159.172L13.1002 159.634L12.8559 159.939L12.5825 160.001L12.6141 160.343L12.5955 160.697L12.6848 160.98L12.5539 161.278L12.6116 161.501L12.7867 161.538L12.7797 161.921L12.6522 162.085L12.3713 162.147L12.0107 162.358L12.0398 162.507L12.1416 162.595L12.0583 163.595L11.951 163.839L11.9635 163.845L12.2379 163.963L12.3839 165.299L12.3894 165.861L12.1878 166.96L12.3372 167.284L12.5158 167.998L12.6783 168.197L12.9994 168.441L12.9929 169.041L12.9673 169.367L12.7631 169.504L11.5422 169.32L11.1659 169.15L11.0445 169.451L11.1494 170.233L11.0501 170.965L10.8329 171.674L10.6478 172.049L10.5334 172.18L10.568 172.413L10.6317 172.501L10.5901 172.649L10.4501 172.681L10.4115 172.856L10.5198 173.006L10.7651 173.009L10.9402 173.148L11.1604 173.233L11.5908 172.894L11.7539 172.907L12.1737 173.062L12.4291 172.928L12.7381 172.994L12.8429 173.168L12.7727 173.509L12.7757 173.811L12.6443 174.81L12.4657 175.131L11.647 175.035L11.1494 175.443L10.0473 175.649L10.0629 176.084L10.2956 176.233L10.6648 176.335L10.7822 176.624L10.9001 176.714L11.1007 176.742L10.9252 177.006L11.2156 177.084L11.5211 177.106L11.7604 176.94L12.095 176.615L12.4516 176.401L12.8785 176.503L12.9834 176.687L12.6904 177.097L12.5083 177.459L12.4476 177.698L12.1381 177.957L12.0458 178.292L12.0488 178.636L12.571 178.775L12.6282 179.174L12.6026 179.297L12.3954 179.277L12.3127 179.465L12.4496 179.54L12.6021 179.726L12.6016 179.887L12.3984 179.928L12.1848 180.062L11.481 180.006L11.1308 180.052L10.2861 180.919L10.0889 180.987L9.2773 180.86L9.032 181.017L8.70394 180.919L8.64374 181.214L8.76714 181.231L8.88503 181.295L8.97783 181.441L9.00643 181.584L9.18751 181.728L9.24821 181.914L10.0027 182.062L9.98612 183.474L9.80753 183.692L9.19705 183.578L8.81782 183.638L8.55998 183.786L8.15567 183.818L8.0443 183.861L7.71323 184.116L7.50957 184.327L7.41376 184.777L7.40725 185.145L7.3596 185.299L6.92368 185.351L6.57354 185.343L6.37289 185.225L6.14365 185.26L6.14666 185.411L5.41227 185.486L5.11581 185.473L4.53642 185.117L4.29464 185.021L3.62646 184.906L3.63901 185.208L3.58233 185.452L3.37866 185.869L3.022 185.983L1.20861 186.182L0.832386 185.949L0.530404 185.912L0.333313 186.174L1.25932 186.97L1.56833 187.292L1.89991 188.224L2.16075 188.599L2.45672 188.888L2.64132 189.266L2.98794 189.682L3.51917 189.865L4.18433 190.165L5.56482 190.472L6.1121 190.934L6.62727 191.101L7.73387 190.921L8.53497 191.358L9.23124 191.669L9.80109 191.849L10.3609 191.841L10.6599 191.719L11.0572 191.309L11.2132 191.213L11.7956 191.139L12.4572 191.158L13.5322 191.03L14.235 191.137L15.0742 191.438L15.5418 191.441L16.066 192.075L16.4151 192.367L16.9077 192.538L17.1846 192.811L17.4545 192.978L18.3825 193.279L19.1645 193.172L19.4419 193.195L19.0557 193.705L19.1761 194.116L19.4018 194.572L19.4103 194.971L19.2699 195.455L19.4791 195.753L19.3737 195.929L18.8591 195.972L18.5189 195.817L18.2461 195.502L18.0173 195.344L17.1871 195.726L16.85 195.92L16.6654 196.16L16.3464 197.24L15.92 197.004L15.8443 196.855L15.5709 196.797L15.2373 196.804L14.6012 196.962L14.5465 197.349L14.4803 197.5L13.8693 197.935L13.9421 198.367L13.9351 199.31L14.1954 199.382L14.6564 199.284L15.1139 199.363L15.136 199.694L15.0086 199.816L14.6624 199.776L14.2867 199.921L14.2009 200.29L14.2672 200.874L14.2667 201.317L13.9165 201.774L13.6622 202.861L13.8332 203.156L13.903 203.462L13.9301 204.593L13.8282 205.169L14.0189 205.149L14.2983 205.23L14.6885 205.509L15.0472 205.828L14.7292 205.937L14.4307 206.17L14.1633 206.896L14.1698 207.12L14.7021 207.464L14.5205 208.489L14.3429 208.46L14.2506 208.731L14.3138 208.841L14.0494 209.763L14.1222 210.038L14.4838 210.491L14.4708 210.667L14.5626 210.804L14.6388 211.117L15.0888 211.294L14.9985 211.64L14.844 212.563L14.845 212.891L15.0326 213.174L15.3471 213.405L15.4023 213.711L15.3321 214.468L15.2097 215.237C15.4207 215.327 15.6517 215.423 15.779 215.452C15.9996 215.502 16.5311 215.421 16.7416 215.572C16.9522 215.722 17.5133 215.822 17.764 215.802C18.0146 215.782 18.2954 215.772 18.6162 215.794C18.9371 215.814 19.288 215.733 19.4484 216.014C19.6089 216.295 19.8599 216.445 20.0504 216.375C20.2409 216.305 20.4313 215.893 20.7522 215.924C21.073 215.954 21.4937 215.994 21.6441 216.245C21.7945 216.496 22.0109 216.9 22.3654 217.113C22.7199 217.326 23.4149 217.453 23.7835 217.539C24.1522 217.624 24.7758 217.78 25.2011 217.794C25.6265 217.809 26.1086 217.226 26.4773 217.184C26.8459 217.141 27.2712 216.986 27.4981 217.298C27.725 217.61 28.0086 217.723 28.3489 217.751C28.6892 217.78 29.1005 217.539 29.455 217.794C29.8094 218.049 30.1214 218.177 30.4617 218.177C30.802 218.177 31.5111 218.134 31.8939 218.077C32.2767 218.021 32.8152 217.851 33.1555 217.851C33.4958 217.851 33.6237 218.077 34.0349 217.765C34.446 217.453 34.9564 216.744 35.2684 216.659C35.5803 216.574 36.0342 216.545 36.2611 216.758C36.488 216.971 37.2961 217.524 37.7073 217.638C38.1185 217.751 39.0825 217.765 39.3802 217.723C39.678 217.68 39.9616 217.453 40.387 217.738C40.8124 218.021 40.7413 218.475 41.1525 218.518C41.5637 218.561 42.2587 218.83 42.5706 219.227C42.8825 219.624 43.1946 219.837 43.5207 219.837C43.8468 219.837 44.414 220.022 44.6408 220.22C44.8677 220.419 44.8961 220.873 45.2789 221.142C45.6617 221.412 47.2922 221.355 47.4765 221.326C47.6609 221.298 48.2991 220.886 48.4693 220.745C48.6394 220.603 48.7812 220.333 48.7387 219.993C48.6961 219.652 48.3417 219.227 48.4126 218.901C48.4835 218.575 49.0505 217.965 49.3908 217.766C49.7311 217.568 50.0289 217.44 50.4542 217.355C50.8796 217.27 51.5119 216.677 51.8026 216.606C52.0934 216.536 52.2942 216.376 52.3042 216.195C52.3143 216.014 52.4543 215.684 52.6148 215.653C52.7752 215.623 53.2866 215.583 53.5975 215.613C53.9083 215.643 54.5602 215.272 54.6905 215.062C54.8209 214.851 55.0111 214.771 55.0712 214.46C55.1314 214.149 54.8405 213.487 54.8405 213.487C54.7903 213.377 55.312 212.233 55.3221 212.012C55.3322 211.791 55.342 211.18 55.292 210.889C55.2418 210.598 55.3623 210.167 55.5528 210.046C55.7433 209.926 56.4548 210.077 56.5049 210.117C56.555 210.157 57.1969 210.718 57.5277 210.869C57.8586 211.019 58.7106 210.909 58.8109 210.628C58.9111 210.347 58.5503 209.896 58.8009 209.645C59.0515 209.394 59.6233 209.003 60.0143 208.993C60.4053 208.984 60.9465 209.114 61.2272 208.883C61.508 208.652 61.7987 208.131 61.9491 208.031C62.0995 207.93 62.6511 207.639 63.002 207.559C63.3529 207.479 63.864 207.709 64.1648 207.55C64.4656 207.39 65.2274 207.47 65.5182 207.52C65.8089 207.57 66.902 207.691 67.3431 207.811C67.7843 207.931 69.3084 208.553 69.93 208.834C70.5516 209.115 71.0329 209.336 71.4339 209.175C71.835 209.015 72.0857 208.603 72.2661 208.463C72.4466 208.322 73.0382 207.941 73.1184 207.741C73.1986 207.54 73.5094 206.908 73.8804 206.858C74.2513 206.808 75.1236 206.778 75.4344 206.898C75.7452 207.019 76.056 207.089 76.1563 207.319C76.2565 207.55 76.5472 207.791 76.7678 207.941C76.9883 208.091 77.1587 208.463 77.4194 208.884C77.6801 209.305 77.9308 209.686 78.2616 209.837C78.5925 209.987 79.6152 210.148 79.8257 210.178C80.0363 210.208 80.317 210.7 80.6077 210.87C80.8985 211.041 81.1792 210.96 81.2493 210.83C81.3195 210.7 82.1319 210.549 82.3825 210.499C82.6332 210.449 83.4551 210.469 83.6356 210.368C83.8161 210.268 84.0165 209.686 84.227 209.506C84.4376 209.325 84.9891 209.034 85.2398 208.854C85.4905 208.673 85.5504 208.423 85.6807 208.182C85.8111 207.941 86.1624 207.751 86.2927 207.44C86.4231 207.129 86.533 206.336 86.4528 206.046C86.3726 205.755 85.9416 204.4 85.9917 204.069C86.0418 203.738 86.4229 203.488 86.7537 203.518C87.0846 203.548 87.9567 203.509 88.0971 203.749C88.2375 203.989 88.3179 204.902 88.4783 205.203C88.6388 205.504 88.8089 206.126 88.829 206.357C88.849 206.587 88.8392 206.998 89.0698 206.968C89.3004 206.938 89.8218 206.487 90.0023 206.436C90.1828 206.386 90.8144 206.186 90.7843 205.905C90.7542 205.624 90.664 205.072 90.7241 204.932C90.7843 204.792 91.0045 204.28 90.9042 204.01C90.804 203.739 90.4131 203.698 90.3329 203.417C90.2527 203.137 90.3031 202.726 90.0926 202.505C89.882 202.284 89.6914 201.933 89.8618 201.652C90.0323 201.372 90.4233 201.422 90.5937 201.251C90.7642 201.08 90.9646 200.91 91.2152 200.82C91.4659 200.73 91.7065 200.82 92.0073 200.639C92.3081 200.459 92.8598 200.228 93.1505 200.218C93.4413 200.209 94.0426 200.298 94.2732 200.068C94.5038 199.837 94.6544 199.456 94.6544 199.456C94.7947 199.426 95.2355 198.844 95.4962 198.664C95.7568 198.483 96.599 198.543 97.0602 198.684C97.5214 198.824 98.1434 198.704 98.3238 198.925C98.5043 199.145 98.7649 199.526 98.9454 199.406C99.1258 199.285 99.3664 198.964 99.5669 199.205C99.7674 199.446 100.168 199.707 100.349 199.546C100.529 199.386 101.111 199.004 101.332 199.044C101.552 199.085 101.973 199.466 102.214 199.647C102.455 199.827 102.836 200.228 103.157 200.248C103.477 200.268 104.74 199.947 104.921 199.847C105.101 199.747 105.763 199.586 106.044 199.486C106.325 199.386 106.746 199.165 106.766 198.764C106.786 198.363 106.786 197.279 106.966 196.978C107.147 196.678 107.287 196.156 107.227 195.795L107.195 195.074L107.087 193.1L106.841 192.369L106.209 191.699L106.307 191.073L106.268 190.028L106.397 188.841L106.612 187.633L107.002 186.855L107.528 186.532L107.471 185.876L107.243 185.284L106.88 184.719L106.94 183.852L107.217 183.254L108.84 181.787L109.124 180.975L109.997 180.76L110.677 180.656L111.649 180.489C111.793 180.376 112.629 180.263 113.111 180.163C113.593 180.064 114.77 180.078 115.196 180.064C115.621 180.049 116.84 180.362 117.351 180.149C117.861 179.936 118.386 179.539 118.315 179.042C118.244 178.546 118.3 178.106 118.811 177.95C119.322 177.794 119.86 178.035 120.328 177.965C120.796 177.894 120.896 177.37 121.392 177.327C121.888 177.285 122.469 177.327 122.795 177.412C123.122 177.497 123.448 177.483 123.788 177.327C124.128 177.171 124.923 176.618 125.164 176.547C125.405 176.476 125.702 176.689 125.816 176.433C125.929 176.178 126.255 175.767 126.397 175.525C126.539 175.284 126.567 175.199 127.007 175.171C127.446 175.142 127.957 175.639 128.169 175.752C128.382 175.866 128.963 175.88 129.148 175.71C129.332 175.54 130.069 174.433 130.31 174.362C130.417 174.331 130.617 174.268 130.82 174.21C131.075 174.137 131.336 174.071 131.43 174.079C131.601 174.094 132.792 174.419 133.189 174.377C133.586 174.334 134.11 173.596 134.167 173.398C134.224 173.199 134.295 172.689 134.564 172.604C134.834 172.519 135.23 172.561 135.599 172.376C135.968 172.192 136.351 171.923 136.634 172.022C136.918 172.121 137.514 173.228 137.797 173.568C138.081 173.909 138.222 174.121 138.549 174.121C138.875 174.121 139.172 173.951 139.172 173.951L140.082 173.644L141.008 173.548L141.622 174.06L142.016 174.735L142.566 176.17L143.164 176.802L143.792 177.054L144.319 177.182L145.332 177.079L146.165 176.57L146.961 175.626L147.949 173.842L148.063 173.739L148.53 173.28L149.294 172.8L149.649 172.441L150.153 171.723L150.72 171.293L150.963 170.999L151.16 169.589L151.484 169.018L151.872 167.904L152.125 167.305L150.634 166.635L150.358 166.294L150.235 165.931L150.234 165.466L150.168 165.213L149.137 165.188L148.081 164.691L147.95 164.634L148.128 163.874L148.54 163.11L148.903 162.258L149.386 161.634L149.917 161.17L150.375 160.68L150.845 159.124L151.808 159.176L152.899 159.234L152.882 158.452L153.082 157.926L153.712 158.176L154.051 158.254L154.426 158.2L154.527 158.009L154.82 157.957L155.181 158.036L155.553 158.035L155.912 157.607L156.013 157.165L156.368 156.809L157.334 155.968L157.514 155.601L158.133 154.816L158.783 154.947L158.883 155.853L158.853 156.267L159.159 156.53L159.799 156.203L160.045 156.179L160.817 156.972L161.005 157.111L161.294 157.084L161.782 156.838L162.419 156.661L163.169 157.598L163.854 158.483L164.519 159.611L164.658 160.495L164.866 161.34L165.271 161.956L165.159 161.976L165.312 162.912L165.304 163.488L165.437 163.842L165.478 164.191L165.912 164.185L166.446 164.398L166.321 165.009L167.175 165.14L167.588 165.052L167.726 165.296L167.913 165.915L168.043 166.57L168.356 167.414L168.512 167.439L168.618 167.339L168.701 166.959L169.494 166.654L169.756 166.306L169.811 166.011L169.786 165.327L170.801 165.725L170.948 166.007L171.025 166.428L171.521 166.541L171.506 166.721L172.197 166.96L172.618 167.181L172.75 167.656L172.821 168.543L173.604 168.635L174.034 168.815L174.333 169.011L174.596 169.304L175.743 169.622L176.122 169.684L176.763 169.614L177.644 169.742L178.515 170.002L178.865 169.575L180.372 168.797L180.724 168.654L180.385 168.424L180.164 168.106L179.747 167.635L178.994 167.343L178.738 167.074L178.43 167.073L178.149 167.004L178.074 166.661L178.492 166.039L178.576 165.7L178.62 165.304L178.626 164.272L179.244 164.052L179.792 164.006L179.74 163.294L179.611 163.107L179.497 162.775L179.543 162.434L179.745 162.367L179.931 162.215L179.98 161.973L179.918 161.702L179.652 161.17L178.867 161.151L176.846 159.9L176.256 160.643L175.67 160.318L174.682 160.01L174.45 160.621L174.377 161.151L174.497 161.668L173.911 161.468L173.536 161.181L173.182 160.982L172.638 160.544L172.074 160.189L170.457 159.692L169.67 159.542L168.77 159.246L167.679 158.816L167.562 158.81L167.712 158.603L168.175 158.145L168.275 157.92L168.255 157.594L168.254 157.449L168.83 157.223L169.074 157.064L169.148 156.83L169.19 156.464L168.927 156.158L168.611 155.965L168.576 155.721L168.638 155.384L168.275 154.661L168.068 154.382L168.027 154.174L168.41 153.82L168.673 153.656L169.263 153.114L169.429 153.026L169.53 153.039L169.651 153.236L169.781 153.703L169.734 153.998L169.841 154.299L170.559 154.966L170.745 155.678L170.892 155.879L171.541 156.045L172.269 156.3L172.624 155.22L173.23 155.212L173.633 155.161L173.81 154.907L174.192 154.503L174.323 154.178L174.32 153.57L174.436 152.743L174.539 152.504L174.734 152.228L174.957 151.751L174.934 151.396L175.768 151.484L176.181 151.379L176.701 151.08L177.034 150.75L177.37 150.715L177.766 150.541L178.359 149.764L179.071 149.911L179.433 150.144L180.228 150.757L180.697 150.975L181.182 150.913L181.376 150.964L181.771 151.169L182.083 151.269L181.84 151.716L182.44 151.971L182.967 152.105L183.523 152.467L183.457 152.672L182.866 153.043L182.514 153.323L182.513 153.664L182.31 154.027L182.613 154.229L183.126 154.258L183.737 154.141L184.119 153.967L184.54 153.894L184.848 153.73L184.987 153.492L185.586 153.511L186.519 153.666L187.221 153.711L188.337 154.231L189.381 154.48L190.136 154.559L190.408 154.622L190.811 154.868L191.367 154.895L192.439 155.15L192.763 155.442L192.933 155.8L193.596 155.415L193.899 155.019L194.133 154.809L194.343 154.442L194.213 153.489L194.54 152.787L194.531 152.565L194.627 152.016L194.136 151.175L194.588 150.819L194.764 150.462L194.952 149.292L195.297 149.351L195.944 149.573L196.334 149.588L196.752 149.567L197.041 149.497L197.252 149.308L197.191 148.9L197.288 148.509L197.335 148.019L197.237 147.807L196.992 147.577L196.913 147.264L196.947 146.778L196.825 146.324L197.278 146.109L197.643 146.077L198.178 146.12L198.626 146.369L199.092 146.749L199.534 147.025L200.086 147.221L201.094 147.497L201.421 147.481L201.766 147.355L202.177 147.222L203.287 147.101L203.571 146.794L203.751 146.529L204.024 146.384L204.234 146.135L204.376 145.634L204.767 145.832L205.214 146.158L206.406 145.642L208.208 145.049L209.671 144.665L210.593 144.613L211.222 145.281L211.718 144.794L211.925 144.396L212.33 143.778L211.795 142.935L211.736 142.317L211.676 141.606L211.985 141.192L213.197 141.398L214.28 141.391L214.413 139.741L214.825 141.559L214.99 142.039L215.474 141.568L216.516 141.749L217.261 141.062L218.17 140.362L218.581 139.468L218.548 136.931L218.81 136.582L218.714 136.435L218.532 135.825L217.72 136.381L216.629 136.168L215.708 136.408L214.74 134.999L213.766 133.997L212.74 133.69L212.257 133.934L211.232 133.813L210.749 133.143V132.35L209.603 132.287L210.085 131.801C209.663 131.312 209.18 131.008 209.18 131.008L208.049 130.268L207.472 130.862L206.752 130.733L205.78 132.035L202.442 130.399L201.407 128.995L200.828 127.946L200.3 127.272L200.003 126.666L198.894 125.764L198.058 125.49L196.751 125.667L195.605 125.337L195.235 126.407L194.053 126.02L193.494 124.909L193.372 124.055L193.855 123.629L195.061 123.689L195.906 123.629L196.992 123.262C197.722 124.074 198.452 123.848 199.182 123.692C199.258 122.706 198.026 122.562 196.943 122.078L196.774 121.207L195.733 120.587L195.977 119.916L196.162 119.334L196.076 118.512L195.662 117.457C196.091 116.792 196.744 116.652 197.415 116.553L198.743 116.371L199.224 116.127L199.526 115.762H200.009L200.674 116.676L201.217 117.165L201.88 117.407L202.784 117.346L203.207 117.469L203.467 117.888L203.169 118.916L204.446 119.283L205.399 120.237L205.759 119.07L206.323 118.319L205.748 117.627L205.864 116.569L205.983 115.646L204.279 114.876L203.873 114.755L203.595 114.568L202.531 113.116L202.089 111.948L201.956 110.525L201.553 107.855L201.425 107.579L201.033 107.389L200.96 106.738L200.815 106.475L200.772 106.157L200.679 105.947L200.451 104.482L200.387 103.598L200.327 103.373L200.242 103.065L200.163 102.595L200.041 102.227L199.918 101.912L199.852 101.55L199.831 101.531L200.029 100.886L199.898 100.546L199.304 99.3546L198.851 98.8628L198.958 98.6892L199.086 98.3093L199.165 97.9294L199.162 97.6389L199.04 96.9303L199.137 96.5875L200.111 95.7876L200.381 95.4875L200.498 95.0359L200.446 94.6916L200.44 94.2093L200.439 94.1607L200.005 94.1496L199.395 94.2249L199.165 94.3734L198.863 94.7593L198.462 94.8833L198.414 95.0052L198.209 95.1748L197.141 95.7635L196.538 95.9713L196.121 95.9848L195.488 96.0882L194.467 96.0824L194.445 95.8771L194.272 95.7346L194.132 95.5294L194.105 95.3216L194.133 95.0571L193.913 94.1584L193.963 93.6114L193.941 93.3424L193.764 92.819L193.724 92.5781L193.777 92.4396L194.17 92.5354L194.425 92.5209L194.658 92.3964L194.744 92.2785L194.757 92.0587L194.449 91.2813L194.307 91.0485L193.265 90.9401L192.977 90.6571L192.729 90.6129L192.44 90.642L192.159 90.7825L192.066 91.0942L192.127 91.4269L192.096 91.7651L192.151 92.8842L192.105 93.1492L191.718 93.3574L191.727 93.6154L191.037 94.2738L190.447 94.3882L189.137 94.4555L188.208 94.3566L187.646 93.9858L187.538 92.7733L187.523 92.1661L187.576 91.4465L188.839 90.8669L189.507 90.494L190.303 90.1222L190.462 89.9445L190.517 89.7709L190.508 89.5405L190.336 89.3222L190.161 89.2424L189.937 89.2346L189.72 88.9551L189.345 88.238L189.176 88.0503L188.976 88.0042L188.846 87.8893L188.625 87.536L188.54 87.2012L188.18 86.9483L188.215 86.7908L188.17 86.1559L188.09 85.8704L187.652 84.9796L187.202 84.3563L187.008 83.7597L187.023 83.4044L187.086 83.1841L187.006 82.9783L186.786 82.7926L186.659 82.5934L186.631 82.3591L187.074 81.929L187.241 81.673L187.328 81.4673L187.209 81.1878L186.992 81.116L186.767 81.1441L186.486 81.3649L185.307 80.6307L185.393 80.1183L185.534 79.8097L185.728 79.7319L185.518 79.475L185.354 79.494L184.884 79.2692L184.849 78.9786L184.745 78.7879L184.404 78.6389L184.353 78.5315L184.172 78.3754L183.974 78.2986L183.774 78.1315L183.154 77.7797L183.018 77.4129L182.405 76.6119L182.287 76.3595L182.228 76.1156L182.383 75.8953L182.307 75.4592L182.182 75.269L181.878 75.3061L181.576 75.0387L181.175 74.8821L181.014 74.4786L180.649 74.0912L180.487 73.8589L180.196 73.6405L179.442 73.1904L178.719 72.9751L178.398 72.538L178.175 72.3659L177.247 71.8179L176.794 71.6503L176.65 71.448L176.609 71.2383L176.248 70.8584L176.046 70.7134L175.897 70.5056L175.822 70.1909L175.655 70.0545L174.982 69.9481L174.461 69.4598L174.197 69.385L174.014 69.4111L173.593 69.6249L173.356 69.6731L173.101 69.6789L172.418 69.4827L170.672 70.3283L170.588 70.4326L169.843 70.5204L169.371 70.7483L169.165 70.9485L168.919 71.3199C168.89 71.1355 168.139 70.5252 167.884 70.6103C167.629 70.6953 167.501 71.2206 167.289 71.3199C167.076 71.4191 166.452 71.3766 166.04 71.1071C165.629 70.8376 165.799 70.1281 165.771 69.8018C165.743 69.4756 165.473 69.334 165.176 68.9226C164.878 68.5112 164.807 67.2626 164.594 66.8796C164.382 66.4967 164.183 66.0006 163.871 65.7169C163.559 65.4332 163.269 64.7519 163.269 64.7519L162.766 64.4543L162.258 64.7634C162.258 64.7634 161.874 65.2718 161.503 65.3154C161.132 65.3591 160.053 65.1734 159.715 65.2171C159.377 65.2608 158.134 65.2827 157.807 65.5227C157.48 65.7627 156.869 66.1011 156.542 66.0029C156.214 65.9048 154.633 66.3736 154.338 66.3954C154.044 66.4172 153.346 66.1773 153.204 65.9482C153.062 65.7191 152.223 64.7479 152.005 64.6279C151.787 64.5079 150.98 64.4424 150.762 64.2897C150.544 64.1368 150.435 63.8971 150.217 63.6789C149.998 63.4607 149.115 63.0023 148.94 62.9478C148.766 62.8933 148.341 62.5335 148.101 62.2608C147.861 61.988 147.577 61.726 147.163 61.8242C146.748 61.9223 145.931 61.6493 145.854 61.4749C145.778 61.3002 145.451 60.9294 145.146 60.7221C144.84 60.5148 144.447 60.1767 144.273 59.9694C144.098 59.7621 143.351 58.9502 143.351 58.9502C143.351 58.9502 143.422 58.7393 143.572 58.5989C143.722 58.4585 144.143 58.3479 144.414 58.3178C144.684 58.2877 145.788 57.5655 145.908 57.415C146.028 57.2646 146.118 56.7629 146.098 56.3818C146.078 56.0006 145.918 55.5094 145.818 55.1985C145.717 54.8875 146.018 54.1454 145.938 53.8445C145.858 53.5436 145.789 52.41 145.798 52.0088C145.808 51.6076 145.677 51.2363 145.457 50.9655C145.236 50.6947 144.885 50.1633 144.795 49.8424C144.705 49.5214 144.947 49.0198 144.955 48.8794C144.966 48.7389 144.955 47.6457 144.865 47.3849C144.775 47.1241 144.544 46.9236 144.354 46.8334C144.163 46.7431 143.963 46.8034 143.702 47.004C143.442 47.2046 143.031 47.1942 142.8 47.2343C142.569 47.2744 141.988 47.5154 141.707 47.5555C141.426 47.5956 141.206 47.2849 141.156 47.1044C141.105 46.9238 141.035 46.2818 140.965 46.1514C140.895 46.021 140.645 44.9779 140.654 44.6469C140.664 44.3159 140.835 43.2828 141.015 43.0922C141.196 42.9016 141.877 42.2395 142.609 42.1392C143.341 42.0389 144.063 41.5574 144.304 41.3268C144.544 41.0961 144.956 40.7651 145.146 40.5645C145.337 40.3639 145.086 39.5613 145.066 39.481C145.046 39.4008 144.404 38.7893 144.254 38.4884C144.103 38.1875 144.053 37.6456 144.143 37.3547C144.233 37.0639 144.394 35.4993 144.735 35.2084C145.076 34.9175 145.236 34.1353 145.436 33.8344C145.637 33.5335 145.788 33.5533 146.028 33.5333C146.269 33.5132 146.349 32.841 146.269 32.5402C146.189 32.2392 145.918 31.2764 145.998 31.0858C146.078 30.8953 146.53 30.103 146.489 29.7018C146.449 29.3006 146.58 29.0397 146.75 28.7588C146.921 28.478 146.76 26.8833 146.509 26.5623C146.259 26.2413 145.898 25.8901 145.587 25.5692C145.276 25.2482 145.386 24.8974 145.406 24.4662C145.426 24.0349 145.056 23.9947 144.785 23.6537C144.514 23.3127 143.953 22.821 143.622 22.6907C143.291 22.5603 142.238 22.4702 141.576 22.2395C140.915 22.0088 139.591 20.795 139.26 20.454C138.93 20.113 138.168 18.4983 138.168 18.4983C138.168 18.4983 137.366 17.9768 137.215 17.7561C137.065 17.5355 136.183 17.1242 135.862 17.0039C135.541 16.8835 134.889 16.6325 134.668 16.6827C134.448 16.7328 134.077 16.873 133.806 17.0435C133.535 17.214 132.954 17.7959 132.704 17.9764C132.453 18.157 131.54 18.0466 131.34 18.0165C131.139 17.9864 129.174 18.3077 128.783 18.3979C128.392 18.4882 127.961 18.8894 127.72 19.1703C127.48 19.4511 127.239 20.2836 127.219 20.6647C127.199 21.0459 126.929 22.0086 126.588 22.0187C126.247 22.0287 125.595 21.7681 125.284 21.5976C124.973 21.4271 124.252 21.2763 124.171 20.9854C124.091 20.6945 123.869 20.0829 123.86 19.7318C123.85 19.3808 123.74 19.5712 123.429 19.5913C123.119 19.6114 122.677 20.0326 122.497 20.2833L122.398 21.2062L122.268 21.438L121.193 22.1336L120.483 22.2089L119.968 22.5531L119.684 21.9298L119.313 21.3934L118.407 20.609L117.818 20.5242L117.439 20.6462L116.926 20.6126L116.296 20.2708L115.608 19.781L115.164 19.4072L114.655 19.1006L114.539 18.5787L113.033 18.4432L112.433 18.449L111.996 18.5534L111.607 18.8901L111.359 18.0008L111.103 17.5617L110.481 17.2079L109.124 16.6725L108.447 16.4286L107.839 16.3568L107.477 16.5219L107.509 17.0589L107.836 17.3936L108.096 17.7424L108.173 18.2377L107.621 19.2203L107.534 19.6815L107.599 20.1612L107.545 20.6621L107.454 20.9842L107.204 21.3114L106.746 21.5132L106.334 21.8599L105.925 22.5043L105.86 22.8817L105.963 23.252L106.601 23.7483L106.721 24.1684L106.495 24.3465L104.907 24.6612L104.304 24.5548L103.838 24.1734L103.189 23.2149L102.294 22.3758L101.555 22.0868L100.826 21.9096L100.394 21.7505L100.266 21.3932L100.292 20.93L99.9577 20.794L98.7387 20.8974L98.1784 20.7544L98.0033 20.3514L97.5438 19.9986L96.8636 20.0137L95.7681 20.2872L95.438 20.0819L94.7889 19.2409L94.5491 19.1515L94.4021 19.0968L94.055 19.3668L93.6336 19.698L93.3683 19.7532L92.9042 19.7306L92.353 19.6498L92.0846 19.3457L92.3469 19.0626L92.8947 18.6536L93.125 18.4825L93.5985 18.1322L93.7425 17.8542L93.6241 17.5667L93.2499 17.1978L92.9449 16.8069L92.7969 16.1154L92.8932 15.456L93.0713 14.9255L93.1219 14.3936L92.7317 13.8792L92.3324 13.6293L91.764 13.5364L91.303 13.697L90.2817 13.3984L89.6331 13.5701L88.9479 14.0724L88.2501 13.9906L87.2253 14.0182L87.2428 13.3377L87.4605 12.7666L87.5032 12.3777L87.4746 11.8347L87.3768 11.3414L87.1495 10.5952L87.1224 9.97092L86.9444 9.6096L86.5962 8.19744C86.4119 8.25415 86.1995 8.26842 85.9301 8.50958C85.6607 8.75072 85.32 8.4955 85.0648 8.39616C84.8095 8.29687 84.3845 8.72219 84.0158 8.58034C83.6472 8.43849 83.8454 7.97047 83.7319 7.77189C83.6185 7.57331 83.2786 7.46013 82.839 7.41759C82.3995 7.37505 82.1582 7.71521 81.9597 7.87125C81.7611 8.02728 81.3786 7.48821 81.1801 7.28963C80.9816 7.09103 80.6128 7.36081 80.4001 7.41759C80.1874 7.4743 80.3289 7.84289 80.2155 8.08402C80.1021 8.32517 79.3368 7.91372 79.2092 7.77189C79.0816 7.63004 78.8689 7.09112 78.6278 6.90673C78.3868 6.72232 77.7626 6.63708 77.3798 6.49522C76.9969 6.35338 76.8839 6.31118 76.4869 6.297C76.0899 6.28282 76.1748 6.08421 75.8062 5.87144C75.4375 5.65866 74.8705 5.99894 74.4593 5.72942C74.0481 5.45991 73.6082 5.38887 73.2679 5.26122C72.9276 5.13354 72.2047 5.44563 71.9637 5.47399C71.7226 5.50234 71.4107 5.00581 70.9428 4.94907C70.4749 4.89236 70.5459 5.07694 70.1914 5.24716C69.8369 5.41738 69.4257 5.26134 69.1846 5.24716C68.9436 5.23299 68.8017 5.48832 68.7733 5.88549C68.7449 6.28267 68.4613 6.45274 68.3479 6.59458C68.2345 6.73643 67.5541 6.67965 67.3697 6.38181C67.1854 6.08393 67.0576 5.57321 66.7457 5.37462C66.4338 5.17604 66.0509 5.51671 65.6822 5.61601C65.3136 5.7153 64.7605 5.60193 64.3635 5.44588C63.9665 5.28985 62.9881 4.49521 62.7046 4.19732C62.421 3.89944 61.9816 3.68674 61.9391 3.17609C61.8965 2.66543 62.0668 2.15472 61.9817 1.95614C61.8967 1.75755 61.4854 1.84298 61.1876 1.81462C60.8899 1.78626 59.6986 1.84297 59.5568 1.81462C59.415 1.78626 59.0464 1.57312 58.9188 1.3178C58.7912 1.06248 59.1457 0.72218 59.1741 0.608707C59.2024 0.495233 59.3444 0.197549 59.0467 0.0556899C58.9722 0.0202445 58.8747 0.00300733 58.7648 0.00038534Z" fill="#95A2B4"/>
</svg>
