<svg width="206" height="204" viewBox="0 0 206 204" fill="none" xmlns="http://www.w3.org/2000/svg">
<path d="M14.0331 0.218935C13.8974 0.320987 13.7956 1.06937 13.7956 1.81774C13.7956 3.62066 12.2354 6.10391 10.4039 7.32853C9.65769 7.83879 9.04718 8.41708 9.04718 8.6552C9.04718 8.89333 8.23315 9.70974 7.21563 10.4921C6.1981 11.2745 5.28232 12.295 5.18057 12.7373C5.07882 13.1795 4.50222 13.8598 3.95954 14.268C3.38294 14.6763 3.00984 15.1525 3.14551 15.3226C3.24727 15.4927 3.1116 15.6968 2.87417 15.7988C2.56891 15.9349 2.39933 16.6152 2.39933 17.8399C2.36541 19.0985 2.1619 19.9489 1.78881 20.3571C1.44963 20.7313 1.17829 21.4797 1.17829 22.092C1.14438 22.6703 0.906952 23.3166 0.601693 23.5547C-0.314082 24.2011 -0.144494 28.7934 0.839117 30.1541C1.65314 31.3107 1.82273 32.4673 1.21221 32.8414C0.533858 33.2497 1.07654 40.6654 1.89056 42.5364C2.33149 43.5229 2.60283 44.9176 2.63675 46.5504C2.67067 48.3193 2.84026 49.0677 3.17943 49.2037C3.55252 49.3738 3.55252 49.5099 3.07768 50.0201C2.535 50.6324 2.56891 50.7345 3.65428 51.8571C4.29871 52.5034 5.01098 53.0477 5.2484 53.0477C5.55366 53.0477 5.65542 53.4899 5.58758 54.4084C5.55366 55.1567 5.6215 55.8371 5.75717 55.9732C5.85892 56.1092 5.6215 56.4494 5.2484 56.7896L4.50222 57.3679L6.29985 59.4429C7.28346 60.5655 8.43666 61.586 8.87759 61.688C9.92903 61.9602 10.4039 63.593 9.96295 65.498C9.65769 66.7566 9.72553 67.0628 10.37 67.8452C11.3197 69.0698 11.2857 69.7501 10.2343 70.6686C9.2846 71.519 9.08109 73.2199 9.8612 74.1043C10.6074 74.9888 10.8109 76.4175 10.2343 76.6556C9.96295 76.7577 9.55594 77.2339 9.31852 77.7102C9.04718 78.3225 8.74192 78.5266 8.30099 78.3565C7.9279 78.2544 7.62264 78.3565 7.48697 78.6967C7.38521 79.0028 6.94428 79.2409 6.53727 79.2409C6.09634 79.2409 5.45191 79.6832 5.01098 80.2955C4.33263 81.2139 4.29871 81.452 4.63789 82.9148C4.84139 83.7992 5.11273 85.0579 5.21449 85.7042C5.28232 86.3505 5.45191 87.1329 5.55366 87.4051C5.65542 87.6772 5.72325 88.2555 5.68933 88.6637C5.65542 89.0719 5.99459 89.9904 6.46944 90.7047C6.94428 91.4191 7.3513 92.3376 7.3513 92.7458C7.3513 93.5962 8.67408 94.7188 9.14893 94.2425C9.38635 94.0044 12.2354 95.6032 13.0495 96.4196C13.1173 96.4877 13.0155 96.8278 12.8459 97.168C12.6085 97.6102 12.6764 98.1545 13.1512 99.141C13.8296 100.502 13.8296 100.502 13.1173 101.08C12.7103 101.386 12.4389 101.93 12.5068 102.271C12.5746 102.713 12.3372 102.917 11.591 102.985C9.96295 103.155 9.89512 103.597 11.2857 104.924C12.3372 105.91 12.812 106.115 13.5243 105.978C14.0331 105.876 14.5418 105.944 14.6436 106.115C14.7453 106.319 15.2541 106.455 15.7629 106.455C16.5769 106.455 16.6108 106.489 16.102 106.999C15.7289 107.373 15.3219 107.475 14.7793 107.271C14.3383 107.135 13.7278 107.033 13.4565 107.101C12.2693 107.305 7.41913 109.89 7.21563 110.401C6.87645 111.319 6.9782 113.088 7.48697 113.768C8.1314 114.653 9.04718 114.211 9.04718 112.952C9.04718 111.727 9.52202 111.387 11.0144 111.523C12.812 111.659 15.1523 110.843 15.3559 109.992C15.6272 108.938 16.95 108.394 18.1032 108.938C18.6459 109.142 19.2564 109.584 19.4938 109.856C19.8669 110.299 19.9686 110.299 20.4096 109.72C20.8166 109.176 21.0201 109.142 21.3253 109.448C21.5628 109.686 22.0715 109.856 22.4785 109.856C22.9873 109.856 23.2926 110.129 23.4282 110.707C23.5639 111.183 23.8013 111.557 23.9709 111.557C24.1744 111.557 24.5136 111.183 24.7171 110.707C24.9206 110.231 25.2259 109.856 25.4294 109.856C25.599 109.856 26.006 109.516 26.3112 109.142C26.82 108.496 27.1253 108.428 28.5159 108.632C29.7369 108.836 30.0761 109.006 30.0083 109.448C29.9404 109.754 29.5334 110.095 29.0586 110.197C28.1428 110.435 28.1089 111.013 28.9568 111.965C29.703 112.782 30.1439 112.748 31.0936 111.727C31.5345 111.251 32.0433 110.877 32.2468 110.877C32.4503 110.877 33.4 111.421 34.3158 112.102C37.538 114.381 38.0467 114.619 39.4034 114.619C40.1496 114.619 41.1332 114.381 41.5402 114.075C42.2186 113.598 42.456 113.598 43.9823 114.109C44.9998 114.449 45.7121 114.925 45.8478 115.333C46.0513 115.911 46.4244 116.15 47.1366 116.014C47.7132 115.911 50.0875 117.476 50.291 118.123C50.3927 118.463 50.3927 119.279 50.2571 119.926C50.1214 120.81 50.1553 121.082 50.5623 121.082C51.5459 121.082 52.1564 122.103 51.919 123.327C51.7155 124.348 51.7834 124.484 52.4617 124.484C53.1061 124.484 53.174 124.62 52.9705 125.538C52.8348 126.185 52.9026 126.933 53.1401 127.409C53.6827 128.396 53.2418 129.042 51.5459 129.756C50.3927 130.267 50.1214 130.845 50.8337 131.559C51.1389 131.866 51.0711 131.968 50.4945 131.968C49.9857 131.968 49.7483 132.172 49.7483 132.58C49.7483 132.92 49.5787 133.362 49.3413 133.6C49.036 133.907 49.0699 134.145 49.5109 134.621C50.2571 135.437 50.2231 135.948 49.443 136.152C49.0021 136.254 48.7647 136.764 48.5951 138.023C48.4594 139.009 48.1881 139.792 47.8828 139.928C47.6115 140.03 46.9331 140.744 46.3565 141.526C45.339 142.921 45.0338 143.772 45.6443 143.363C45.8478 143.261 46.153 143.499 46.3905 143.908C46.7296 144.588 46.6957 144.622 46.0174 144.452C45.5764 144.35 44.7963 144.486 44.2536 144.758C43.1004 145.336 42.9987 146.459 43.9823 147.684C44.6267 148.534 44.3893 149.316 43.5075 149.316C43.304 149.316 42.7613 149.52 42.2864 149.759C40.5905 150.643 38.2841 151.051 37.5719 150.609C36.9953 150.269 36.6561 150.337 35.4351 150.983C33.4 152.106 33.1287 152.378 33.1287 153.092C33.1287 153.432 32.7895 154.011 32.3825 154.385C31.4667 155.269 30.6866 157.447 31.0597 158.093C31.2293 158.365 31.2632 158.875 31.1954 159.215C31.0936 159.556 31.3989 160.338 31.8737 160.95C32.3147 161.563 32.9252 162.549 33.1965 163.127C33.6714 164.148 33.6714 164.182 32.7556 164.692C32.0433 165.134 31.772 165.577 31.6024 166.801C31.2971 168.672 30.4492 169.897 28.7872 170.679C27.3627 171.36 26.9218 172.516 27.6001 173.877C27.8375 174.387 28.041 175.101 28.041 175.51C28.041 176.224 28.5498 177.279 29.3299 178.299C29.6352 178.673 29.6691 178.911 29.4317 179.081C29.2282 179.184 29.0586 179.864 29.0586 180.544C29.0586 181.259 28.8211 182.177 28.5159 182.619C27.7697 183.64 28.3124 184.694 30.3135 186.123C31.6363 187.11 31.7041 187.212 31.2632 187.892C30.5849 188.844 30.6188 189.559 31.365 190.239C32.2129 191.022 33.5018 190.987 33.7053 190.171C33.807 189.797 34.1462 189.457 34.5193 189.355C34.8924 189.253 35.1637 188.878 35.1637 188.47C35.1637 188.062 35.2994 187.756 35.469 187.756C35.6047 187.756 36.7918 188.844 38.0806 190.171C40.1157 192.246 40.5566 192.552 41.3707 192.382C42.1168 192.246 42.2864 192.314 42.2864 192.824C42.2864 193.811 43.2361 194.423 44.0162 193.947C44.3554 193.709 44.8642 193.539 45.1016 193.539C45.339 193.539 45.9156 192.824 46.3565 191.94C46.8314 191.056 47.5437 190.035 47.9507 189.661C48.3916 189.253 48.7986 188.334 48.9343 187.518C49.1378 186.157 49.1039 186.055 48.1881 185.715C47.3062 185.375 47.2723 185.273 47.815 185C48.5951 184.524 48.5612 182.959 47.6793 181.497C46.8653 180.102 45.9495 179.932 44.2536 180.816C43.4057 181.259 43.1683 181.293 42.9309 180.884C42.5239 180.272 42.5578 178.639 42.9648 178.401C43.1683 178.265 43.304 177.925 43.27 177.619C43.2361 177.279 43.304 176.326 43.4396 175.476C43.7449 173.605 43.304 172.55 42.1168 172.244C41.642 172.142 41.2689 171.802 41.2689 171.53C41.2689 171.257 40.9636 170.951 40.5905 170.849C39.6069 170.577 39.4373 169.489 40.1157 167.992L40.6923 166.665L39.6409 165.304C38.352 163.74 37.8771 162.583 37.8771 161.188C37.8771 160.372 37.6736 160.066 36.7918 159.692C36.1813 159.42 35.876 159.215 36.0795 159.181C36.3169 159.181 36.6222 158.773 36.7239 158.229C37.0292 156.936 37.504 156.46 38.3859 156.46C38.7929 156.46 39.5391 156.154 40.0139 155.78C41.4385 154.623 42.2525 155.167 41.0654 156.494C40.5566 157.038 40.5905 157.14 41.5742 157.617C42.9309 158.331 43.6431 158.297 43.6431 157.515C43.6431 157.174 43.8806 156.698 44.1858 156.46C44.6267 156.052 44.5928 155.916 43.7449 155.201C43.1344 154.725 43.0326 154.487 43.4396 154.623C43.8127 154.759 44.1858 154.657 44.3554 154.385C44.6267 153.977 44.7285 154.011 45.0338 154.487C45.5425 155.405 46.3565 155.235 46.3565 154.249C46.3565 153.773 46.5261 153.398 46.6957 153.398C46.8992 153.398 47.0349 153.092 47.0349 152.752C47.0349 151.936 47.4419 151.664 48.0185 152.038C48.3916 152.242 48.4255 152.616 48.1542 153.671C47.8489 154.793 47.8828 155.201 48.2898 155.78C48.9682 156.766 48.4255 157.378 47.4419 156.766C46.7975 156.358 46.6279 156.426 45.8478 157.14C45.1016 157.821 44.9998 158.229 45.0677 159.522C45.1694 160.916 45.2373 161.052 46.0174 161.052C46.7296 161.052 46.8653 160.882 46.8653 160.1C46.8314 159.351 47.001 159.181 47.6115 159.181C48.6969 159.181 48.5951 159.964 47.3741 161.154C46.6957 161.869 46.3565 162.515 46.3565 163.229C46.3565 164.454 46.6957 164.556 47.5097 163.638C47.815 163.297 48.5612 162.923 49.1378 162.787C50.0875 162.583 50.1553 162.515 49.9518 161.495L49.7483 160.44L50.5284 161.256C51.2068 161.937 51.2407 162.141 50.8676 162.617C50.291 163.297 50.291 164.114 50.9015 164.59C51.2746 164.93 51.4781 164.828 51.8851 164.25C52.4617 163.468 53.1401 163.638 53.1401 164.59C53.1401 165.202 53.7506 165.985 54.2254 165.985C54.3611 165.985 54.4968 165.679 54.4968 165.304C54.4968 164.93 54.6664 164.624 54.8359 164.624C55.0394 164.624 55.1751 164.76 55.1751 164.964C55.1751 165.543 56.0909 165.339 56.3283 164.726C56.5318 164.25 56.5997 164.25 57.0745 164.896C57.4815 165.509 57.7189 165.577 58.2616 165.304C58.6347 165.1 58.9061 164.59 58.9061 164.114C58.9061 163.638 59.0756 163.263 59.2452 163.263C59.4487 163.263 59.5844 162.957 59.5844 162.583C59.5844 162.209 59.347 161.903 59.0756 161.903C58.8043 161.903 58.5669 161.597 58.5669 161.222C58.5669 160.848 58.3634 160.542 58.1259 160.542C57.8207 160.542 57.7189 160.202 57.8207 159.522C57.8885 158.977 58.1599 158.501 58.4312 158.501C58.9061 158.501 59.1096 158.705 60.2967 160.304C60.7376 160.848 61.3142 161.222 61.823 161.222C62.5692 161.222 62.637 161.29 62.2639 161.971C62.0265 162.413 61.4838 163.025 61.0429 163.366C60.6358 163.706 60.2628 164.25 60.2628 164.59C60.2628 164.896 60.1271 165.304 59.9575 165.475C59.8218 165.679 59.5844 166.223 59.4487 166.733C59.2791 167.448 59.3809 167.754 59.8897 168.026C60.975 168.57 61.7212 168.094 61.4838 166.971C61.2464 165.679 61.8908 165.339 62.6709 166.359C63.1797 167.005 63.4171 167.107 63.8919 166.801C64.1972 166.597 64.6042 165.951 64.7399 165.373C65.113 163.91 65.4861 163.808 66.6393 164.794C67.6568 165.645 69.3188 165.815 70.3363 165.202C70.5059 165.1 71.0825 165.236 71.5912 165.509C73.3889 166.427 73.6941 166.121 73.8976 163.263C73.9994 162.141 74.0672 162.073 75.9666 161.699C78.1034 161.256 78.4426 161.052 78.6461 160.032C78.7139 159.522 79.1888 159.249 80.342 159.011C81.1899 158.841 82.2074 158.399 82.6145 158.025C82.9875 157.685 83.5302 157.481 83.8355 157.617C84.1407 157.719 84.6834 157.617 85.0565 157.378C85.8705 156.868 86.3793 157.447 86.3793 158.909C86.3793 159.556 86.8542 160.372 87.9056 161.461C89.6354 163.263 89.7371 164.012 88.2448 164.284C87.3629 164.454 87.2272 164.59 87.2272 165.611C87.1933 166.393 86.9559 166.937 86.3793 167.414C85.7349 167.924 85.6331 168.196 85.9384 168.638C86.108 168.944 86.6846 169.25 87.1594 169.319C87.8378 169.421 88.143 169.216 88.5839 168.4C88.8553 167.822 89.3301 167.346 89.6015 167.346C90.212 167.346 90.212 167.414 89.7032 168.536C89.1605 169.727 89.7371 170.339 90.8564 169.829C91.2974 169.625 91.9079 169.353 92.2131 169.25C92.8576 169.046 93.0611 167.686 92.4845 167.686C92.3149 167.686 92.0096 167.38 91.8061 167.005C91.4669 166.393 91.5009 166.359 92.2471 166.699C93.2646 167.141 94.5195 166.597 94.5195 165.713C94.5195 165.339 94.757 165.509 95.2318 166.223C95.9441 167.312 96.1476 167.448 98.1826 167.856C99.5054 168.128 99.6411 167.55 98.5557 166.189L97.8774 165.304H98.8271C99.3697 165.304 99.9803 165.475 100.184 165.679C100.862 166.359 101.676 165.781 101.439 164.794C101.269 164.148 101.371 163.944 101.744 163.944C102.049 163.944 102.354 164.08 102.456 164.216C102.694 164.59 101.947 166.597 101.167 167.788C100.693 168.502 100.625 168.808 100.964 169.182C101.269 169.591 101.201 169.761 100.659 170.135C100.252 170.373 99.9463 170.849 99.9463 171.155C99.9463 171.87 100.862 171.938 102.592 171.462C103.372 171.223 103.983 171.257 104.559 171.496C105.17 171.768 105.611 171.768 106.221 171.496C106.967 171.155 107.171 171.189 107.646 171.768C108.46 172.686 109.647 172.652 109.918 171.7C110.054 171.087 110.189 171.019 110.529 171.36C111.343 172.176 111.919 171.836 111.682 170.713C111.546 169.965 111.648 169.489 112.157 168.978C112.903 168.162 113.005 167.584 112.53 166.733C112.292 166.291 112.394 165.883 112.869 165.304C113.479 164.488 113.547 164.488 113.886 165.066C114.226 165.679 114.293 165.679 114.904 165.1C115.548 164.522 115.616 164.556 116.939 165.951C118.499 167.584 119.449 167.686 119.449 166.223C119.449 165.713 119.652 165.168 119.89 164.998C120.127 164.862 120.229 164.488 120.127 164.216C119.992 163.91 120.093 163.57 120.297 163.434C120.874 163.059 122.332 164.624 122.332 165.611C122.332 166.257 122.739 166.767 123.655 167.414C124.401 167.958 125.181 168.366 125.385 168.366C125.622 168.366 126.199 168.672 126.673 169.08C127.521 169.727 127.589 169.727 127.996 169.182C128.403 168.604 128.539 168.672 129.624 169.727C130.506 170.577 130.744 171.053 130.608 171.666C130.337 172.754 132.168 174.489 133.627 174.489C134.305 174.489 135.017 174.829 135.628 175.408C136.476 176.224 136.713 176.292 137.595 175.952C138.612 175.578 139.189 175.85 138.782 176.564C138.646 176.768 138.85 177.006 139.257 177.108C139.8 177.245 139.901 177.483 139.732 178.265C139.562 179.149 139.63 179.252 140.342 179.184C140.987 179.115 141.19 179.252 141.258 179.932C141.326 180.51 141.733 180.986 142.547 181.395C143.191 181.701 143.87 181.973 144.039 181.973C144.209 181.973 144.446 181.191 144.582 180.272C144.785 178.707 144.887 178.571 145.701 178.571C146.21 178.571 146.922 178.809 147.295 179.081C148.109 179.694 149.127 179.694 149.941 179.081C150.992 178.265 152.078 178.435 152.315 179.422C152.451 179.932 152.858 180.34 153.333 180.476C154.011 180.646 154.384 181.088 155.164 182.755C155.232 182.925 154.723 182.925 154.045 182.789C152.79 182.551 152.756 182.585 153.027 183.368C153.367 184.456 153.4 186.021 153.061 187.178C152.824 187.994 152.892 188.164 153.536 188.334C154.181 188.504 154.248 188.708 154.079 189.933C154.011 190.715 153.807 192.212 153.672 193.301C153.434 195.274 153.434 195.274 152.485 195.07C151.094 194.763 151.196 195.648 152.688 196.838C153.333 197.349 153.875 198.063 153.875 198.369C153.875 198.709 154.215 199.356 154.655 199.798C156.758 202.179 157.81 203.166 158.59 203.472C160.048 204.084 164.763 204.152 165.577 203.608C165.984 203.336 166.662 203.064 167.137 202.996C167.748 202.928 167.951 202.689 167.985 202.043C168.019 200.206 169.24 197.587 170.393 196.838C171.105 196.396 172.53 194.117 172.293 193.777C172.021 193.301 172.903 189.729 173.48 189.049C173.921 188.504 173.921 188.3 173.412 187.11C173.073 186.395 172.801 185.307 172.767 184.66C172.7 183.64 172.801 183.504 173.548 183.436C174.022 183.436 174.599 183.402 174.802 183.368C175.515 183.3 176.227 181.088 176.024 179.694C175.786 178.129 174.904 176.53 174.294 176.53C174.056 176.53 173.514 176.19 173.073 175.748C172.327 175.033 172.089 174.455 171.614 171.938C171.512 171.36 171.207 170.781 170.936 170.645C170.631 170.441 170.495 170.067 170.631 169.591C170.732 169.148 170.597 168.536 170.325 168.162C169.681 167.312 169.681 165.849 170.325 165.304C170.597 165.066 170.834 164.386 170.834 163.808C170.834 162.651 172.767 160.202 173.649 160.202C173.921 160.202 174.328 159.964 174.599 159.658C174.87 159.317 175.345 159.181 175.956 159.317C176.634 159.454 177.041 159.283 177.618 158.637C178.059 158.195 178.601 157.821 178.805 157.821C179.042 157.821 179.483 157.515 179.822 157.14C180.195 156.732 180.704 156.528 181.009 156.63C182.163 157.004 183.384 156.188 184.028 154.657C184.706 153.092 187.929 149.997 188.878 149.997C189.794 149.997 190.879 148.84 191.151 147.616C191.422 146.153 192.304 145.915 193.389 146.935C193.898 147.411 194.678 147.718 195.458 147.752C196.51 147.786 196.815 147.616 197.29 146.765C197.833 145.745 198.986 145.166 198.986 145.881C198.986 146.085 199.257 146.255 199.596 146.255C199.935 146.255 200.512 146.493 200.919 146.765C201.937 147.479 203.327 147.105 204.514 145.847C205.668 144.622 205.668 144.078 204.548 143.295C204.073 142.955 203.361 142.343 202.988 141.935C202.581 141.526 201.733 140.982 201.055 140.778C200.376 140.574 199.528 140.098 199.121 139.724C198.714 139.383 197.799 138.975 197.086 138.873C196.374 138.771 195.39 138.397 194.95 138.023C194.509 137.683 194 137.41 193.796 137.41C193.322 137.41 191.965 135.88 191.693 135.029C191.524 134.485 191.219 134.349 190.574 134.417C189.794 134.519 189.658 134.349 189.421 133.328C189.116 131.798 189.353 130.947 190.133 130.947C190.472 130.947 190.947 130.709 191.185 130.437C191.456 130.131 191.897 129.995 192.406 130.131C193.05 130.301 193.22 130.165 193.423 129.45C193.525 128.974 193.491 127.988 193.322 127.307C193.084 126.219 192.881 125.981 192.067 125.913C190.71 125.742 189.523 124.892 189.285 123.94C189.082 123.123 188.336 122.851 187.963 123.463C187.657 123.974 186.572 123.872 185.995 123.293C185.283 122.613 185.622 121.456 186.47 121.66C186.809 121.762 187.115 121.66 187.115 121.456C187.115 121.218 187.42 121.15 187.929 121.286C188.844 121.524 189.692 120.776 190.405 119.143C190.879 117.919 191.388 117.816 193.05 118.395C194.644 118.973 198.545 118.497 198.986 117.646C199.495 116.728 198.85 115.639 197.799 115.639C197.188 115.639 196.951 115.469 196.951 114.993C196.951 114.245 196.001 113.802 195.119 114.143C194.644 114.313 194.576 114.041 194.576 112.136C194.576 109.618 193.966 108.938 193.016 110.367C192.372 111.387 191.863 111.455 191.863 110.605C191.863 109.72 191.524 109.482 190.812 109.856C190.167 110.197 189.184 109.55 189.116 108.734C189.048 107.169 188.844 105.434 188.641 104.482C188.437 103.563 188.234 103.393 187.42 103.393C186.334 103.393 186.267 103.291 186.809 102.339C187.013 101.93 187.081 101.08 186.945 100.298C186.775 99.2431 186.538 98.9369 185.86 98.7668C185.113 98.5627 185.046 98.3926 185.215 97.5422C185.385 96.5897 185.351 96.5217 184.571 96.6577C183.926 96.7938 183.723 96.6577 183.655 96.1135C183.587 95.6032 182.841 95.0249 181.009 94.1405C177.38 92.3376 175.311 91.7933 172.801 91.8953L170.665 91.9974L170.563 93.3581C170.427 94.9569 169.376 96.2495 168.222 96.2495C167.612 96.2495 167.442 96.0795 167.442 95.3991C167.442 94.8888 167.205 94.4466 166.866 94.3106C166.527 94.1745 165.916 93.7323 165.543 93.3241C164.865 92.6097 164.593 92.5757 162.219 92.7458C159.981 92.9158 159.54 92.8478 158.929 92.3035C158.386 91.8273 157.708 91.6572 156.046 91.6572C153.57 91.6572 153.027 91.283 153.129 89.6162C153.197 88.9358 152.993 88.0514 152.688 87.6432C152.417 87.235 152.179 86.6567 152.179 86.3505C152.179 86.0444 151.874 85.5341 151.501 85.1939C150.891 84.6497 150.755 84.6156 149.161 85.1599C146.38 86.0784 145.057 85.9083 143.327 84.4115C140.783 82.2344 137.12 79.9213 136.204 79.9213C135.763 79.9213 134.78 79.6151 134.034 79.2409C132.304 78.3565 132.066 78.3905 130.879 79.5811C129.624 80.8057 128.708 80.8738 127.996 79.7852C127.284 78.7307 124.435 76.8597 123.519 76.8597C123.146 76.8597 122.23 76.3154 121.552 75.6691C120.84 74.9888 119.924 74.3084 119.483 74.1383C119.008 73.9683 118.601 73.458 118.431 72.8797C118.33 72.3695 118.058 71.7231 117.855 71.519C117.346 70.9067 115.65 70.9747 115.413 71.5871C115.311 71.8592 115.006 72.0973 114.701 72.0973C114.327 72.0973 114.192 71.7231 114.192 70.7706C114.192 69.6141 114.022 69.3079 113.174 68.8317C112.53 68.4235 112.021 67.7431 111.75 66.8587C111.275 65.3619 109.782 64.3074 108.019 64.2734C107.408 64.2734 106.866 63.9332 106.391 63.2528C105.814 62.4364 105.407 62.2323 104.356 62.2323C103.372 62.2323 103.033 62.0963 102.897 61.586C102.762 61.0757 102.388 60.9056 101.269 60.8036C99.9124 60.7015 99.7768 60.5995 99.675 59.7491C99.5733 59.0687 99.3697 58.8306 98.8271 58.8306C97.9452 58.8306 97.5382 58.5585 97.0294 57.64C96.8259 57.2658 96.2493 56.9256 95.7745 56.8576C95.2996 56.7896 94.6552 56.3814 94.3839 55.9051C93.4681 54.5444 92.2131 55.0887 92.0096 56.9597C91.84 58.2183 91.4669 58.4224 90.8903 57.5379C90.4833 56.9597 90.0424 56.7896 88.8892 56.7896C87.7699 56.7896 87.3968 56.6535 87.3968 56.2793C87.3968 56.0072 87.0916 55.4969 86.6846 55.1567C86.3115 54.8506 85.8366 54.2383 85.667 53.7961C85.4974 53.3198 85.0904 53.0477 84.5817 53.0477C84.1068 53.0477 83.3606 52.5714 82.7501 51.8571C81.4613 50.3943 80.6133 50.3603 79.7993 51.687C79.1888 52.7755 77.6625 53.9661 77.3572 53.626C77.2555 53.5239 76.9163 52.9456 76.611 52.2993C76.204 51.5169 75.7631 51.1427 75.1526 51.0747C74.4742 51.0066 74.169 50.7005 73.9315 49.8841C73.6941 48.9656 73.4567 48.7615 72.507 48.6935C71.8965 48.6254 71.0485 48.8295 70.5737 49.1357C70.0989 49.4418 69.4544 49.5779 69.0474 49.4759C68.6743 49.3398 68.1316 49.4418 67.8603 49.68C67.4533 50.0201 67.2837 49.9521 66.8767 49.4418C66.5375 48.9656 65.9948 48.7955 64.8077 48.7955C63.2475 48.7955 63.1797 48.7615 62.9422 47.6389C62.6709 46.2782 62.1621 45.9041 60.6698 45.9041C60.0253 45.9041 59.0756 45.5639 58.4651 45.0876C57.8546 44.6454 56.9388 44.1352 56.3622 43.9651C55.65 43.727 55.3108 43.3868 55.243 42.7745C55.1751 42.2982 54.7681 41.5499 54.2933 41.1076C53.4792 40.3593 53.0044 40.2912 50.0875 40.5293C49.0021 40.6314 48.8664 40.5293 48.4594 39.3047C47.8489 37.4678 47.5776 37.1956 45.8139 36.7534C44.6607 36.4473 44.2876 36.2091 44.3893 35.7669C44.4572 35.4268 44.8642 35.1546 45.4408 35.0866C45.9495 35.0185 46.3565 34.8485 46.3565 34.7124C46.3565 34.5423 46.7975 34.3382 47.3401 34.2362C47.9846 34.1001 48.5951 33.5898 49.1039 32.7734C49.8501 31.5488 49.8501 31.5148 49.2395 31.0726C48.9004 30.8004 47.7811 30.2902 46.7296 29.916C45.7121 29.5078 44.4911 28.9295 44.0162 28.5893C43.5414 28.2831 42.6595 27.8069 42.0829 27.5688C40.6245 26.9905 39.2678 25.4937 38.7251 23.9289C38.3181 22.7043 38.1824 22.6023 36.8935 22.5002C35.8421 22.4322 34.8585 22.7043 32.993 23.5888C30.4831 24.7794 27.8375 25.2556 27.4305 24.6093C27.2948 24.4052 26.5487 23.8269 25.7686 23.3506C24.9884 22.8744 24.2762 22.2961 24.1405 22.092C23.8013 21.5137 22.8516 21.7178 21.5289 22.6023C20.3078 23.4187 20.24 23.4527 19.5616 22.8744C19.1885 22.5342 18.8833 21.9559 18.8833 21.5817C18.8833 20.8334 18.1032 18.4862 17.764 18.146C17.3231 17.6698 17.5266 15.9349 18.2049 14.6082C18.578 13.8598 18.8833 12.9754 18.8833 12.6012C18.8833 12.227 19.2903 11.6147 19.833 11.2745C20.3417 10.9003 21.2575 9.6417 21.868 8.51914C22.8516 6.61417 22.9195 6.41007 22.3768 6.20596C20.9862 5.69571 17.7979 3.24647 16.4751 1.68168C15.1184 0.0488488 14.5079 -0.291323 14.0331 0.218935Z" fill="#95A2B4"/>
</svg>
