<svg id="Layer_1" data-name="Layer 1" xmlns="http://www.w3.org/2000/svg" viewBox="0 0 347.32 347.32"><defs><style>.cls-1{fill:#fff;}</style></defs><path class="cls-1" d="M151.77,312c0-95.85,77.93-173.74,173.75-173.65s173.69,78,173.57,173.82-77.84,173.4-173.56,173.49S151.77,407.82,151.77,312Zm12.17,2.82c54.36-19.07,106-13.54,155.29,16V289.11c-4.51-.63-8.84-1.06-13.1-1.87-18.08-3.44-33.65-10.95-43.26-27.62-7.68-13.33-10.44-27.89-10.13-43.11.09-4,2.28-6.37,6.37-6.21a134.61,134.61,0,0,1,19,1.63c17.41,3.19,32.38,10.64,42.29,26.12.08.12.42.08.88.17l.51-2.05c3.07-12.71,8.05-24.46,18.18-33.22,15.1-13,33.29-16.78,52.59-16.58,3.49,0,5.67,2.57,5.5,6.29-.28,6.33-.46,12.74-1.56,19-4.28,24.1-16.85,41.62-41,49-7.67,2.33-15.73,3.39-23.8,5.07v65.38a174.32,174.32,0,0,1,155.23-16.13c2.62-83.55-64.82-163.37-159.49-164.51S161.71,227.79,163.94,314.81ZM360.47,469.72c1.42-.29,2.64-.43,3.81-.78,5.72-1.72,11.46-3.37,17.12-5.29,5.24-1.77,5.29-1.92,4.51-7.29-6.28-43.41-26.25-79.17-60.77-106.31-34.78-27.33-74.53-38.13-118.45-33.41a150.34,150.34,0,0,0-39.39,9.9c-1.09.43-2.55,1.89-2.52,2.83a94.56,94.56,0,0,0,1.33,10c44.43-5.79,85.29,3,122.24,27.72S349,426.5,360.47,469.72ZM169,351.63a7.56,7.56,0,0,0,.14,1.78c1.73,5.46,3.57,10.88,5.24,16.36.65,2.1,1.86,2.75,4,3A170.71,170.71,0,0,1,253.18,400a173.43,173.43,0,0,1,61.54,70.37c.61,1.26,2.08,3,3.14,3,10.14,0,20.28-.4,30.65-.68C327.13,385.12,241.17,339.15,169,351.63ZM484.8,339.24a48.18,48.18,0,0,1,1.08-7.2c1.1-3.62-.4-4.91-3.68-6.07q-72-25.46-138.62,11.93c-2.65,1.49-5.18,3.21-6.67,4.14l25.35,25.07C409.63,340.3,429.68,335.64,484.8,339.24ZM301.73,471.34a160.42,160.42,0,0,0-56.85-62.45,158.71,158.71,0,0,0-63.26-23.63C205.87,435.1,258.15,467.13,301.73,471.34ZM482.65,351.11c-42.12-5.19-80,3.51-114.25,26.24,6,10.78,11.61,20.93,17.23,31.07a2.05,2.05,0,0,0,.41-.18c25.84-19.93,54.89-32,87.37-35.69a3.26,3.26,0,0,0,2.35-1.34C478.11,364.7,480.27,358.14,482.65,351.11Zm-13,33.95c-3.84.7-6.77,1.19-9.68,1.79a159.17,159.17,0,0,0-68,31.95c-1.7,1.36-2.16,2.5-1.44,4.68,1.64,4.95,3.09,10,4.25,15.08,1.32,5.77,2.25,11.63,3.41,17.79C429.43,440.1,453,416.73,469.65,385.06ZM331.84,252.49c28.57,3.25,58-26.28,53.79-53.91C352.73,200,333,217.26,331.84,252.49Zm-12.75,24.07c-.59-32.9-25.3-57.42-54-53.87C266.13,257.18,285.34,275.35,319.09,276.56Z" transform="translate(-151.77 -138.34)"/></svg>